<?xml version="1.0" encoding="utf-8"?>
<!-- Generator: Adobe Illustrator 28.0.0, SVG Export Plug-In . SVG Version: 6.00 Build 0)  -->
<svg version="1.1" id="Layer_1" xmlns="http://www.w3.org/2000/svg" xmlns:xlink="http://www.w3.org/1999/xlink" x="0px" y="0px"
	 viewBox="0 0 120 120" style="enable-background:new 0 0 120 120;" xml:space="preserve">
<style type="text/css">
	.st0{fill:none;}
	.st1{fill:#FFFFFF;}
	.st2{font-family:'Montserrat-Bold';}
	.st3{font-size:7px;}
</style>
<rect x="20" y="91.55" class="st0" width="80" height="8.45"/>
<text transform="matrix(1 0 0 1 47.4033 98.373)" class="st1 st2 st3">Games</text>
<g>
	<g>
		<path class="st1" d="M48.89,35.16c-0.01,3.12-2.56,5.66-5.69,5.66c-3.16-0.01-5.69-2.57-5.68-5.73c0.01-3.12,2.56-5.65,5.69-5.65
			C46.37,29.44,48.91,31.99,48.89,35.16z"/>
		<path class="st1" d="M53.43,34.25c-0.47-5.31-4.89-9.37-10.2-9.37c-7.52,0-12.5,7.82-9.27,14.6c0.17,0.36,0.16,0.57-0.14,0.86
			c-1.79,1.77-3.57,3.56-5.35,5.34c-0.79,0.79-1.11,1.7-0.88,2.8c0.25,1.13,0.95,1.89,2.05,2.22c1.11,0.33,2.11,0.07,2.93-0.74
			c1.84-1.81,3.66-3.64,5.47-5.47c0.26-0.26,0.45-0.29,0.78-0.13c1.96,0.95,4.01,1.22,6.14,0.86C50.15,44.36,53.9,39.51,53.43,34.25
			z M43.25,43.09c-4.41,0-8.01-3.59-8-7.97c0.01-4.4,3.59-7.96,8.02-7.95c4.35,0.01,7.91,3.62,7.91,8
			C51.17,39.5,47.57,43.09,43.25,43.09z"/>
		<path class="st1" d="M84.41,39.85v1.37c0,0.45,0.01,0.91-0.01,1.37c-0.02,0.66-0.55,1.17-1.16,1.15c-0.6-0.01-1.09-0.51-1.1-1.15
			c-0.02-0.91-0.01-1.82,0-2.73c0.01-0.67,0.52-1.18,1.14-1.18C83.87,38.67,84.37,39.18,84.41,39.85z"/>
		<path class="st1" d="M62.76,57.43c-0.49-1.31-1.49-2.04-2.94-2.24c0.27-0.42,0.58-0.71,0.9-1c0.66-0.61,0.74-1.25,0.25-1.78
			c-0.47-0.51-1.16-0.48-1.8,0.11c-1.67,1.53-2.65,3.42-2.88,5.68c-0.14,1.39,0.54,2.69,1.74,3.31c1.22,0.64,2.74,0.48,3.77-0.4
			C62.83,60.19,63.25,58.72,62.76,57.43z M59.57,59.61c-0.59-0.01-1.03-0.47-1.03-1.06c0.01-0.62,0.48-1.08,1.09-1.07
			c0.58,0.02,1.03,0.49,1.02,1.08C60.65,59.17,60.18,59.63,59.57,59.61z"/>
		<path class="st1" d="M77.41,52.05c-0.69-0.02-1.37,0-2.04,0c-0.64,0-1.29-0.01-1.93,0c-0.79,0.01-1.29,0.47-1.29,1.14
			c0,0.66,0.52,1.14,1.29,1.15c0.59,0.01,1.18,0.03,1.76,0c0.47-0.03,0.49,0.12,0.32,0.49c-0.81,1.79-1.6,3.59-2.37,5.4
			c-0.29,0.69-0.08,1.31,0.52,1.58c0.6,0.27,1.23,0.03,1.54-0.64c1.1-2.48,2.21-4.97,3.28-7.46C78.86,52.84,78.35,52.08,77.41,52.05
			z M77.41,52.05c-0.69-0.02-1.37,0-2.04,0c-0.64,0-1.29-0.01-1.93,0c-0.79,0.01-1.29,0.47-1.29,1.14c0,0.66,0.52,1.14,1.29,1.15
			c0.59,0.01,1.18,0.03,1.76,0c0.47-0.03,0.49,0.12,0.32,0.49c-0.81,1.79-1.6,3.59-2.37,5.4c-0.29,0.69-0.08,1.31,0.52,1.58
			c0.6,0.27,1.23,0.03,1.54-0.64c1.1-2.48,2.21-4.97,3.28-7.46C78.86,52.84,78.35,52.08,77.41,52.05z M45.57,68.3
			c-1.18-0.72-2.63-0.66-3.74,0.15c-1.09,0.8-1.62,2.2-1.29,3.46c0.4,1.54,1.45,2.37,3.04,2.63c-0.28,0.43-0.62,0.75-0.97,1.06
			c-0.2,0.19-0.37,0.38-0.43,0.66c-0.11,0.51,0.02,0.95,0.48,1.23c0.49,0.32,0.97,0.24,1.41-0.13c1.77-1.53,2.76-3.47,3.07-5.78
			C47.32,70.31,46.7,68.99,45.57,68.3z M43.8,72.24c-0.6,0-1.07-0.49-1.05-1.08c0.01-0.59,0.51-1.07,1.1-1.05
			c0.56,0.02,1.04,0.52,1.04,1.08C44.9,71.78,44.41,72.25,43.8,72.24z M77.41,52.05c-0.69-0.02-1.37,0-2.04,0
			c-0.64,0-1.29-0.01-1.93,0c-0.79,0.01-1.29,0.47-1.29,1.14c0,0.66,0.52,1.14,1.29,1.15c0.59,0.01,1.18,0.03,1.76,0
			c0.47-0.03,0.49,0.12,0.32,0.49c-0.81,1.79-1.6,3.59-2.37,5.4c-0.29,0.69-0.08,1.31,0.52,1.58c0.6,0.27,1.23,0.03,1.54-0.64
			c1.1-2.48,2.21-4.97,3.28-7.46C78.86,52.84,78.35,52.08,77.41,52.05z M77.41,52.05c-0.69-0.02-1.37,0-2.04,0
			c-0.64,0-1.29-0.01-1.93,0c-0.79,0.01-1.29,0.47-1.29,1.14c0,0.66,0.52,1.14,1.29,1.15c0.59,0.01,1.18,0.03,1.76,0
			c0.47-0.03,0.49,0.12,0.32,0.49c-0.81,1.79-1.6,3.59-2.37,5.4c-0.29,0.69-0.08,1.31,0.52,1.58c0.6,0.27,1.23,0.03,1.54-0.64
			c1.1-2.48,2.21-4.97,3.28-7.46C78.86,52.84,78.35,52.08,77.41,52.05z M45.57,68.3c-1.18-0.72-2.63-0.66-3.74,0.15
			c-1.09,0.8-1.62,2.2-1.29,3.46c0.4,1.54,1.45,2.37,3.04,2.63c-0.28,0.43-0.62,0.75-0.97,1.06c-0.2,0.19-0.37,0.38-0.43,0.66
			c-0.11,0.51,0.02,0.95,0.48,1.23c0.49,0.32,0.97,0.24,1.41-0.13c1.77-1.53,2.76-3.47,3.07-5.78C47.32,70.31,46.7,68.99,45.57,68.3
			z M43.8,72.24c-0.6,0-1.07-0.49-1.05-1.08c0.01-0.59,0.51-1.07,1.1-1.05c0.56,0.02,1.04,0.52,1.04,1.08
			C44.9,71.78,44.41,72.25,43.8,72.24z M45.57,68.3c-1.18-0.72-2.63-0.66-3.74,0.15c-1.09,0.8-1.62,2.2-1.29,3.46
			c0.4,1.54,1.45,2.37,3.04,2.63c-0.28,0.43-0.62,0.75-0.97,1.06c-0.2,0.19-0.37,0.38-0.43,0.66c-0.11,0.51,0.02,0.95,0.48,1.23
			c0.49,0.32,0.97,0.24,1.41-0.13c1.77-1.53,2.76-3.47,3.07-5.78C47.32,70.31,46.7,68.99,45.57,68.3z M43.8,72.24
			c-0.6,0-1.07-0.49-1.05-1.08c0.01-0.59,0.51-1.07,1.1-1.05c0.56,0.02,1.04,0.52,1.04,1.08C44.9,71.78,44.41,72.25,43.8,72.24z
			 M77.41,52.05c-0.69-0.02-1.37,0-2.04,0c-0.64,0-1.29-0.01-1.93,0c-0.79,0.01-1.29,0.47-1.29,1.14c0,0.66,0.52,1.14,1.29,1.15
			c0.59,0.01,1.18,0.03,1.76,0c0.47-0.03,0.49,0.12,0.32,0.49c-0.81,1.79-1.6,3.59-2.37,5.4c-0.29,0.69-0.08,1.31,0.52,1.58
			c0.6,0.27,1.23,0.03,1.54-0.64c1.1-2.48,2.21-4.97,3.28-7.46C78.86,52.84,78.35,52.08,77.41,52.05z M78.54,68.26
			c-2.09-0.01-4.17-0.01-6.26,0c-0.94,0-1.4,0.47-1.4,1.41c-0.01,2.09-0.01,4.17,0,6.25c0,0.85,0.47,1.31,1.3,1.31
			c2.13,0.01,4.25,0.01,6.37,0c0.86,0,1.29-0.44,1.3-1.3c0.01-1.06,0-2.12,0-3.18v-3.14C79.85,68.74,79.4,68.26,78.54,68.26z
			 M77.41,52.05c-0.69-0.02-1.37,0-2.04,0c-0.64,0-1.29-0.01-1.93,0c-0.79,0.01-1.29,0.47-1.29,1.14c0,0.66,0.52,1.14,1.29,1.15
			c0.59,0.01,1.18,0.03,1.76,0c0.47-0.03,0.49,0.12,0.32,0.49c-0.81,1.79-1.6,3.59-2.37,5.4c-0.29,0.69-0.08,1.31,0.52,1.58
			c0.6,0.27,1.23,0.03,1.54-0.64c1.1-2.48,2.21-4.97,3.28-7.46C78.86,52.84,78.35,52.08,77.41,52.05z M78.54,68.26
			c-2.09-0.01-4.17-0.01-6.26,0c-0.94,0-1.4,0.47-1.4,1.41c-0.01,2.09-0.01,4.17,0,6.25c0,0.85,0.47,1.31,1.3,1.31
			c2.13,0.01,4.25,0.01,6.37,0c0.86,0,1.29-0.44,1.3-1.3c0.01-1.06,0-2.12,0-3.18v-3.14C79.85,68.74,79.4,68.26,78.54,68.26z
			 M45.57,68.3c-1.18-0.72-2.63-0.66-3.74,0.15c-1.09,0.8-1.62,2.2-1.29,3.46c0.4,1.54,1.45,2.37,3.04,2.63
			c-0.28,0.43-0.62,0.75-0.97,1.06c-0.2,0.19-0.37,0.38-0.43,0.66c-0.11,0.51,0.02,0.95,0.48,1.23c0.49,0.32,0.97,0.24,1.41-0.13
			c1.77-1.53,2.76-3.47,3.07-5.78C47.32,70.31,46.7,68.99,45.57,68.3z M43.8,72.24c-0.6,0-1.07-0.49-1.05-1.08
			c0.01-0.59,0.51-1.07,1.1-1.05c0.56,0.02,1.04,0.52,1.04,1.08C44.9,71.78,44.41,72.25,43.8,72.24z M69.02,34.44
			c0.08,0.01,0.15,0,0.23,0h11.83c0.86,0,1.05,0.2,1.05,1.08c0,0.21,0,0.42,0.01,0.62c0.02,0.69,0.49,1.15,1.15,1.15
			c0.64,0,1.09-0.47,1.13-1.17v-0.74c-0.01-2.01-1.21-3.21-3.22-3.21H57.34c-0.2,0-0.41,0.01-0.61,0.07
			c-0.54,0.17-0.84,0.7-0.76,1.25c0.09,0.58,0.56,0.96,1.22,0.96c2.86,0.01,5.72,0.01,8.6-0.01c0.43,0,0.57,0.09,0.56,0.56
			c-0.01,4.11-0.01,8.23,0,12.34c0,0.48-0.09,0.63-0.61,0.63c-3.87-0.02-7.73-0.01-11.6-0.02c-0.39,0-0.87,0.11-1.17-0.08
			c-0.27-0.16-0.05-0.67-0.1-1.02c-0.09-0.64-0.57-1.1-1.17-1.09c-0.61,0.01-1.07,0.48-1.11,1.14c-0.01,0.13-0.02,0.27,0,0.4
			c0.07,0.5-0.1,0.67-0.64,0.67c-2.94-0.03-5.88-0.01-8.82-0.01c-0.19,0-0.38-0.01-0.57,0.01c-0.61,0.04-1.04,0.46-1.08,1.04
			c-0.05,0.58,0.35,1.09,0.96,1.21c0.21,0.03,0.41,0.02,0.62,0.02c2.99,0.01,6,0.01,8.99,0c0.43-0.01,0.54,0.1,0.54,0.52
			c-0.01,4.16-0.01,8.31,0,12.46c0,0.35-0.05,0.5-0.46,0.49c-4.21-0.01-8.42-0.01-12.63,0c-0.37,0-0.44-0.11-0.44-0.45
			c0.02-2.22,0.01-4.44,0.01-6.65c0-1.21,0.01-2.44,0-3.65c-0.01-0.74-0.45-1.22-1.12-1.23c-0.69,0-1.14,0.48-1.15,1.26v25.55
			c0,2.04,1.2,3.24,3.24,3.24h43.07c2.12,0,3.3-1.18,3.3-3.31v-32.2c-0.03-0.7-0.48-1.17-1.14-1.17c-0.64-0.01-1.11,0.46-1.14,1.15
			c-0.01,0.44-0.02,0.87,0,1.31c0.01,0.29-0.07,0.39-0.38,0.39c-4.25-0.01-8.49-0.01-12.74,0c-0.31,0-0.39-0.1-0.39-0.39
			c0-4.25,0.01-8.5,0-12.75C68.62,34.51,68.72,34.41,69.02,34.44z M50.58,79.04c0,0.36-0.08,0.48-0.47,0.48
			c-4.03-0.02-8.07-0.01-12.11-0.01c-0.69,0-0.93-0.24-0.93-0.92c0-4.04,0.01-8.07-0.01-12.11c0-0.43,0.15-0.49,0.52-0.48
			c2.09,0.01,4.17,0,6.26,0c2.06,0,4.13,0.01,6.19,0c0.41-0.01,0.55,0.09,0.55,0.52C50.57,70.7,50.57,74.87,50.58,79.04z
			 M66.34,79.02c0.01,0.39-0.1,0.5-0.49,0.5c-4.17-0.02-8.35-0.02-12.52-0.01c-0.36,0-0.48-0.08-0.48-0.46
			c0.02-4.19,0.02-8.38,0.01-12.57c-0.01-0.36,0.08-0.49,0.46-0.48c4.17,0.01,8.35,0.01,12.52,0c0.4-0.01,0.5,0.11,0.5,0.5
			c-0.02,2.09-0.01,4.17-0.01,6.26C66.33,74.85,66.32,76.93,66.34,79.02z M66.34,63.18c0,0.39-0.07,0.55-0.51,0.55
			c-4.15-0.02-8.3-0.02-12.45,0c-0.46,0-0.52-0.15-0.52-0.55c0.02-4.14,0.02-8.27,0-12.41c0-0.47,0.15-0.54,0.58-0.54
			c4.11,0.01,8.23,0.01,12.34-0.01c0.49,0,0.58,0.15,0.57,0.61c-0.02,2.04-0.01,4.1-0.01,6.14C66.33,59.04,66.32,61.1,66.34,63.18z
			 M82.12,78.58c0,0.69-0.23,0.92-0.91,0.93c-4.04,0-8.08-0.01-12.11,0.01c-0.43,0-0.49-0.15-0.48-0.52c0.01-2.09,0-4.17,0-6.26
			c0-2.06,0.01-4.13-0.01-6.19c0-0.42,0.1-0.56,0.54-0.56c4.17,0.02,8.35,0.02,12.51,0.01c0.37,0,0.48,0.08,0.48,0.47
			C82.12,70.5,82.14,74.54,82.12,78.58z M69.13,50.24c4.17,0.01,8.35,0.01,12.52,0c0.4-0.01,0.49,0.1,0.49,0.49
			c-0.01,4.17-0.01,8.35,0,12.52c0,0.37-0.09,0.48-0.46,0.47c-2.11-0.01-4.22,0-6.31,0c-2.09,0-4.17-0.01-6.26,0
			c-0.37,0.01-0.49-0.09-0.49-0.47c0.02-4.17,0.02-8.35,0-12.51C68.61,50.32,68.73,50.24,69.13,50.24z M78.54,68.26
			c-2.09-0.01-4.17-0.01-6.26,0c-0.94,0-1.4,0.47-1.4,1.41c-0.01,2.09-0.01,4.17,0,6.25c0,0.85,0.47,1.31,1.3,1.31
			c2.13,0.01,4.25,0.01,6.37,0c0.86,0,1.29-0.44,1.3-1.3c0.01-1.06,0-2.12,0-3.18v-3.14C79.85,68.74,79.4,68.26,78.54,68.26z
			 M73.43,54.33c0.59,0.01,1.18,0.03,1.76,0c0.47-0.03,0.49,0.12,0.32,0.49c-0.81,1.79-1.6,3.59-2.37,5.4
			c-0.29,0.69-0.08,1.31,0.52,1.58c0.6,0.27,1.23,0.03,1.54-0.64c1.1-2.48,2.21-4.97,3.28-7.46c0.38-0.86-0.13-1.62-1.07-1.65
			c-0.69-0.02-1.37,0-2.04,0c-0.64,0-1.29-0.01-1.93,0c-0.79,0.01-1.29,0.47-1.29,1.14C72.14,53.84,72.66,54.32,73.43,54.33z
			 M45.57,68.3c-1.18-0.72-2.63-0.66-3.74,0.15c-1.09,0.8-1.62,2.2-1.29,3.46c0.4,1.54,1.45,2.37,3.04,2.63
			c-0.28,0.43-0.62,0.75-0.97,1.06c-0.2,0.19-0.37,0.38-0.43,0.66c-0.11,0.51,0.02,0.95,0.48,1.23c0.49,0.32,0.97,0.24,1.41-0.13
			c1.77-1.53,2.76-3.47,3.07-5.78C47.32,70.31,46.7,68.99,45.57,68.3z M43.8,72.24c-0.6,0-1.07-0.49-1.05-1.08
			c0.01-0.59,0.51-1.07,1.1-1.05c0.56,0.02,1.04,0.52,1.04,1.08C44.9,71.78,44.41,72.25,43.8,72.24z M45.57,68.3
			c-1.18-0.72-2.63-0.66-3.74,0.15c-1.09,0.8-1.62,2.2-1.29,3.46c0.4,1.54,1.45,2.37,3.04,2.63c-0.28,0.43-0.62,0.75-0.97,1.06
			c-0.2,0.19-0.37,0.38-0.43,0.66c-0.11,0.51,0.02,0.95,0.48,1.23c0.49,0.32,0.97,0.24,1.41-0.13c1.77-1.53,2.76-3.47,3.07-5.78
			C47.32,70.31,46.7,68.99,45.57,68.3z M43.8,72.24c-0.6,0-1.07-0.49-1.05-1.08c0.01-0.59,0.51-1.07,1.1-1.05
			c0.56,0.02,1.04,0.52,1.04,1.08C44.9,71.78,44.41,72.25,43.8,72.24z M78.54,68.26c-2.09-0.01-4.17-0.01-6.26,0
			c-0.94,0-1.4,0.47-1.4,1.41c-0.01,2.09-0.01,4.17,0,6.25c0,0.85,0.47,1.31,1.3,1.31c2.13,0.01,4.25,0.01,6.37,0
			c0.86,0,1.29-0.44,1.3-1.3c0.01-1.06,0-2.12,0-3.18v-3.14C79.85,68.74,79.4,68.26,78.54,68.26z M77.41,52.05
			c-0.69-0.02-1.37,0-2.04,0c-0.64,0-1.29-0.01-1.93,0c-0.79,0.01-1.29,0.47-1.29,1.14c0,0.66,0.52,1.14,1.29,1.15
			c0.59,0.01,1.18,0.03,1.76,0c0.47-0.03,0.49,0.12,0.32,0.49c-0.81,1.79-1.6,3.59-2.37,5.4c-0.29,0.69-0.08,1.31,0.52,1.58
			c0.6,0.27,1.23,0.03,1.54-0.64c1.1-2.48,2.21-4.97,3.28-7.46C78.86,52.84,78.35,52.08,77.41,52.05z M78.54,68.26
			c-2.09-0.01-4.17-0.01-6.26,0c-0.94,0-1.4,0.47-1.4,1.41c-0.01,2.09-0.01,4.17,0,6.25c0,0.85,0.47,1.31,1.3,1.31
			c2.13,0.01,4.25,0.01,6.37,0c0.86,0,1.29-0.44,1.3-1.3c0.01-1.06,0-2.12,0-3.18v-3.14C79.85,68.74,79.4,68.26,78.54,68.26z
			 M77.41,52.05c-0.69-0.02-1.37,0-2.04,0c-0.64,0-1.29-0.01-1.93,0c-0.79,0.01-1.29,0.47-1.29,1.14c0,0.66,0.52,1.14,1.29,1.15
			c0.59,0.01,1.18,0.03,1.76,0c0.47-0.03,0.49,0.12,0.32,0.49c-0.81,1.79-1.6,3.59-2.37,5.4c-0.29,0.69-0.08,1.31,0.52,1.58
			c0.6,0.27,1.23,0.03,1.54-0.64c1.1-2.48,2.21-4.97,3.28-7.46C78.86,52.84,78.35,52.08,77.41,52.05z M45.57,68.3
			c-1.18-0.72-2.63-0.66-3.74,0.15c-1.09,0.8-1.62,2.2-1.29,3.46c0.4,1.54,1.45,2.37,3.04,2.63c-0.28,0.43-0.62,0.75-0.97,1.06
			c-0.2,0.19-0.37,0.38-0.43,0.66c-0.11,0.51,0.02,0.95,0.48,1.23c0.49,0.32,0.97,0.24,1.41-0.13c1.77-1.53,2.76-3.47,3.07-5.78
			C47.32,70.31,46.7,68.99,45.57,68.3z M43.8,72.24c-0.6,0-1.07-0.49-1.05-1.08c0.01-0.59,0.51-1.07,1.1-1.05
			c0.56,0.02,1.04,0.52,1.04,1.08C44.9,71.78,44.41,72.25,43.8,72.24z M77.41,52.05c-0.69-0.02-1.37,0-2.04,0
			c-0.64,0-1.29-0.01-1.93,0c-0.79,0.01-1.29,0.47-1.29,1.14c0,0.66,0.52,1.14,1.29,1.15c0.59,0.01,1.18,0.03,1.76,0
			c0.47-0.03,0.49,0.12,0.32,0.49c-0.81,1.79-1.6,3.59-2.37,5.4c-0.29,0.69-0.08,1.31,0.52,1.58c0.6,0.27,1.23,0.03,1.54-0.64
			c1.1-2.48,2.21-4.97,3.28-7.46C78.86,52.84,78.35,52.08,77.41,52.05z M77.41,52.05c-0.69-0.02-1.37,0-2.04,0
			c-0.64,0-1.29-0.01-1.93,0c-0.79,0.01-1.29,0.47-1.29,1.14c0,0.66,0.52,1.14,1.29,1.15c0.59,0.01,1.18,0.03,1.76,0
			c0.47-0.03,0.49,0.12,0.32,0.49c-0.81,1.79-1.6,3.59-2.37,5.4c-0.29,0.69-0.08,1.31,0.52,1.58c0.6,0.27,1.23,0.03,1.54-0.64
			c1.1-2.48,2.21-4.97,3.28-7.46C78.86,52.84,78.35,52.08,77.41,52.05z"/>
		<path class="st1" d="M62.76,57.43c-0.49-1.31-1.49-2.04-2.94-2.24c0.27-0.42,0.58-0.71,0.9-1c0.66-0.61,0.74-1.25,0.25-1.78
			c-0.47-0.51-1.16-0.48-1.8,0.11c-1.67,1.53-2.65,3.42-2.88,5.68c-0.14,1.39,0.54,2.69,1.74,3.31c1.22,0.64,2.74,0.48,3.77-0.4
			C62.83,60.19,63.25,58.72,62.76,57.43z M59.57,59.61c-0.59-0.01-1.03-0.47-1.03-1.06c0.01-0.62,0.48-1.08,1.09-1.07
			c0.58,0.02,1.03,0.49,1.02,1.08C60.65,59.17,60.18,59.63,59.57,59.61z"/>
		<path class="st1" d="M77.41,52.05c-0.69-0.02-1.37,0-2.04,0c-0.64,0-1.29-0.01-1.93,0c-0.79,0.01-1.29,0.47-1.29,1.14
			c0,0.66,0.52,1.14,1.29,1.15c0.59,0.01,1.18,0.03,1.76,0c0.47-0.03,0.49,0.12,0.32,0.49c-0.81,1.79-1.6,3.59-2.37,5.4
			c-0.29,0.69-0.08,1.31,0.52,1.58c0.6,0.27,1.23,0.03,1.54-0.64c1.1-2.48,2.21-4.97,3.28-7.46C78.86,52.84,78.35,52.08,77.41,52.05
			z M77.41,52.05c-0.69-0.02-1.37,0-2.04,0c-0.64,0-1.29-0.01-1.93,0c-0.79,0.01-1.29,0.47-1.29,1.14c0,0.66,0.52,1.14,1.29,1.15
			c0.59,0.01,1.18,0.03,1.76,0c0.47-0.03,0.49,0.12,0.32,0.49c-0.81,1.79-1.6,3.59-2.37,5.4c-0.29,0.69-0.08,1.31,0.52,1.58
			c0.6,0.27,1.23,0.03,1.54-0.64c1.1-2.48,2.21-4.97,3.28-7.46C78.86,52.84,78.35,52.08,77.41,52.05z M45.57,68.3
			c-1.18-0.72-2.63-0.66-3.74,0.15c-1.09,0.8-1.62,2.2-1.29,3.46c0.4,1.54,1.45,2.37,3.04,2.63c-0.28,0.43-0.62,0.75-0.97,1.06
			c-0.2,0.19-0.37,0.38-0.43,0.66c-0.11,0.51,0.02,0.95,0.48,1.23c0.49,0.32,0.97,0.24,1.41-0.13c1.77-1.53,2.76-3.47,3.07-5.78
			C47.32,70.31,46.7,68.99,45.57,68.3z M43.8,72.24c-0.6,0-1.07-0.49-1.05-1.08c0.01-0.59,0.51-1.07,1.1-1.05
			c0.56,0.02,1.04,0.52,1.04,1.08C44.9,71.78,44.41,72.25,43.8,72.24z M77.41,52.05c-0.69-0.02-1.37,0-2.04,0
			c-0.64,0-1.29-0.01-1.93,0c-0.79,0.01-1.29,0.47-1.29,1.14c0,0.66,0.52,1.14,1.29,1.15c0.59,0.01,1.18,0.03,1.76,0
			c0.47-0.03,0.49,0.12,0.32,0.49c-0.81,1.79-1.6,3.59-2.37,5.4c-0.29,0.69-0.08,1.31,0.52,1.58c0.6,0.27,1.23,0.03,1.54-0.64
			c1.1-2.48,2.21-4.97,3.28-7.46C78.86,52.84,78.35,52.08,77.41,52.05z M77.41,52.05c-0.69-0.02-1.37,0-2.04,0
			c-0.64,0-1.29-0.01-1.93,0c-0.79,0.01-1.29,0.47-1.29,1.14c0,0.66,0.52,1.14,1.29,1.15c0.59,0.01,1.18,0.03,1.76,0
			c0.47-0.03,0.49,0.12,0.32,0.49c-0.81,1.79-1.6,3.59-2.37,5.4c-0.29,0.69-0.08,1.31,0.52,1.58c0.6,0.27,1.23,0.03,1.54-0.64
			c1.1-2.48,2.21-4.97,3.28-7.46C78.86,52.84,78.35,52.08,77.41,52.05z M45.57,68.3c-1.18-0.72-2.63-0.66-3.74,0.15
			c-1.09,0.8-1.62,2.2-1.29,3.46c0.4,1.54,1.45,2.37,3.04,2.63c-0.28,0.43-0.62,0.75-0.97,1.06c-0.2,0.19-0.37,0.38-0.43,0.66
			c-0.11,0.51,0.02,0.95,0.48,1.23c0.49,0.32,0.97,0.24,1.41-0.13c1.77-1.53,2.76-3.47,3.07-5.78C47.32,70.31,46.7,68.99,45.57,68.3
			z M43.8,72.24c-0.6,0-1.07-0.49-1.05-1.08c0.01-0.59,0.51-1.07,1.1-1.05c0.56,0.02,1.04,0.52,1.04,1.08
			C44.9,71.78,44.41,72.25,43.8,72.24z M45.57,68.3c-1.18-0.72-2.63-0.66-3.74,0.15c-1.09,0.8-1.62,2.2-1.29,3.46
			c0.4,1.54,1.45,2.37,3.04,2.63c-0.28,0.43-0.62,0.75-0.97,1.06c-0.2,0.19-0.37,0.38-0.43,0.66c-0.11,0.51,0.02,0.95,0.48,1.23
			c0.49,0.32,0.97,0.24,1.41-0.13c1.77-1.53,2.76-3.47,3.07-5.78C47.32,70.31,46.7,68.99,45.57,68.3z M43.8,72.24
			c-0.6,0-1.07-0.49-1.05-1.08c0.01-0.59,0.51-1.07,1.1-1.05c0.56,0.02,1.04,0.52,1.04,1.08C44.9,71.78,44.41,72.25,43.8,72.24z
			 M77.41,52.05c-0.69-0.02-1.37,0-2.04,0c-0.64,0-1.29-0.01-1.93,0c-0.79,0.01-1.29,0.47-1.29,1.14c0,0.66,0.52,1.14,1.29,1.15
			c0.59,0.01,1.18,0.03,1.76,0c0.47-0.03,0.49,0.12,0.32,0.49c-0.81,1.79-1.6,3.59-2.37,5.4c-0.29,0.69-0.08,1.31,0.52,1.58
			c0.6,0.27,1.23,0.03,1.54-0.64c1.1-2.48,2.21-4.97,3.28-7.46C78.86,52.84,78.35,52.08,77.41,52.05z M78.54,68.26
			c-2.09-0.01-4.17-0.01-6.26,0c-0.94,0-1.4,0.47-1.4,1.41c-0.01,2.09-0.01,4.17,0,6.25c0,0.85,0.47,1.31,1.3,1.31
			c2.13,0.01,4.25,0.01,6.37,0c0.86,0,1.29-0.44,1.3-1.3c0.01-1.06,0-2.12,0-3.18v-3.14C79.85,68.74,79.4,68.26,78.54,68.26z
			 M77.41,52.05c-0.69-0.02-1.37,0-2.04,0c-0.64,0-1.29-0.01-1.93,0c-0.79,0.01-1.29,0.47-1.29,1.14c0,0.66,0.52,1.14,1.29,1.15
			c0.59,0.01,1.18,0.03,1.76,0c0.47-0.03,0.49,0.12,0.32,0.49c-0.81,1.79-1.6,3.59-2.37,5.4c-0.29,0.69-0.08,1.31,0.52,1.58
			c0.6,0.27,1.23,0.03,1.54-0.64c1.1-2.48,2.21-4.97,3.28-7.46C78.86,52.84,78.35,52.08,77.41,52.05z M78.54,68.26
			c-2.09-0.01-4.17-0.01-6.26,0c-0.94,0-1.4,0.47-1.4,1.41c-0.01,2.09-0.01,4.17,0,6.25c0,0.85,0.47,1.31,1.3,1.31
			c2.13,0.01,4.25,0.01,6.37,0c0.86,0,1.29-0.44,1.3-1.3c0.01-1.06,0-2.12,0-3.18v-3.14C79.85,68.74,79.4,68.26,78.54,68.26z
			 M45.57,68.3c-1.18-0.72-2.63-0.66-3.74,0.15c-1.09,0.8-1.62,2.2-1.29,3.46c0.4,1.54,1.45,2.37,3.04,2.63
			c-0.28,0.43-0.62,0.75-0.97,1.06c-0.2,0.19-0.37,0.38-0.43,0.66c-0.11,0.51,0.02,0.95,0.48,1.23c0.49,0.32,0.97,0.24,1.41-0.13
			c1.77-1.53,2.76-3.47,3.07-5.78C47.32,70.31,46.7,68.99,45.57,68.3z M43.8,72.24c-0.6,0-1.07-0.49-1.05-1.08
			c0.01-0.59,0.51-1.07,1.1-1.05c0.56,0.02,1.04,0.52,1.04,1.08C44.9,71.78,44.41,72.25,43.8,72.24z M69.02,34.44
			c0.08,0.01,0.15,0,0.23,0h11.83c0.86,0,1.05,0.2,1.05,1.08c0,0.21,0,0.42,0.01,0.62c0.02,0.69,0.49,1.15,1.15,1.15
			c0.64,0,1.09-0.47,1.13-1.17v-0.74c-0.01-2.01-1.21-3.21-3.22-3.21H57.34c-0.2,0-0.41,0.01-0.61,0.07
			c-0.54,0.17-0.84,0.7-0.76,1.25c0.09,0.58,0.56,0.96,1.22,0.96c2.86,0.01,5.72,0.01,8.6-0.01c0.43,0,0.57,0.09,0.56,0.56
			c-0.01,4.11-0.01,8.23,0,12.34c0,0.48-0.09,0.63-0.61,0.63c-3.87-0.02-7.73-0.01-11.6-0.02c-0.39,0-0.87,0.11-1.17-0.08
			c-0.27-0.16-0.05-0.67-0.1-1.02c-0.09-0.64-0.57-1.1-1.17-1.09c-0.61,0.01-1.07,0.48-1.11,1.14c-0.01,0.13-0.02,0.27,0,0.4
			c0.07,0.5-0.1,0.67-0.64,0.67c-2.94-0.03-5.88-0.01-8.82-0.01c-0.19,0-0.38-0.01-0.57,0.01c-0.61,0.04-1.04,0.46-1.08,1.04
			c-0.05,0.58,0.35,1.09,0.96,1.21c0.21,0.03,0.41,0.02,0.62,0.02c2.99,0.01,6,0.01,8.99,0c0.43-0.01,0.54,0.1,0.54,0.52
			c-0.01,4.16-0.01,8.31,0,12.46c0,0.35-0.05,0.5-0.46,0.49c-4.21-0.01-8.42-0.01-12.63,0c-0.37,0-0.44-0.11-0.44-0.45
			c0.02-2.22,0.01-4.44,0.01-6.65c0-1.21,0.01-2.44,0-3.65c-0.01-0.74-0.45-1.22-1.12-1.23c-0.69,0-1.14,0.48-1.15,1.26v25.55
			c0,2.04,1.2,3.24,3.24,3.24h43.07c2.12,0,3.3-1.18,3.3-3.31v-32.2c-0.03-0.7-0.48-1.17-1.14-1.17c-0.64-0.01-1.11,0.46-1.14,1.15
			c-0.01,0.44-0.02,0.87,0,1.31c0.01,0.29-0.07,0.39-0.38,0.39c-4.25-0.01-8.49-0.01-12.74,0c-0.31,0-0.39-0.1-0.39-0.39
			c0-4.25,0.01-8.5,0-12.75C68.62,34.51,68.72,34.41,69.02,34.44z M50.58,79.04c0,0.36-0.08,0.48-0.47,0.48
			c-4.03-0.02-8.07-0.01-12.11-0.01c-0.69,0-0.93-0.24-0.93-0.92c0-4.04,0.01-8.07-0.01-12.11c0-0.43,0.15-0.49,0.52-0.48
			c2.09,0.01,4.17,0,6.26,0c2.06,0,4.13,0.01,6.19,0c0.41-0.01,0.55,0.09,0.55,0.52C50.57,70.7,50.57,74.87,50.58,79.04z
			 M66.34,79.02c0.01,0.39-0.1,0.5-0.49,0.5c-4.17-0.02-8.35-0.02-12.52-0.01c-0.36,0-0.48-0.08-0.48-0.46
			c0.02-4.19,0.02-8.38,0.01-12.57c-0.01-0.36,0.08-0.49,0.46-0.48c4.17,0.01,8.35,0.01,12.52,0c0.4-0.01,0.5,0.11,0.5,0.5
			c-0.02,2.09-0.01,4.17-0.01,6.26C66.33,74.85,66.32,76.93,66.34,79.02z M66.34,63.18c0,0.39-0.07,0.55-0.51,0.55
			c-4.15-0.02-8.3-0.02-12.45,0c-0.46,0-0.52-0.15-0.52-0.55c0.02-4.14,0.02-8.27,0-12.41c0-0.47,0.15-0.54,0.58-0.54
			c4.11,0.01,8.23,0.01,12.34-0.01c0.49,0,0.58,0.15,0.57,0.61c-0.02,2.04-0.01,4.1-0.01,6.14C66.33,59.04,66.32,61.1,66.34,63.18z
			 M82.12,78.58c0,0.69-0.23,0.92-0.91,0.93c-4.04,0-8.08-0.01-12.11,0.01c-0.43,0-0.49-0.15-0.48-0.52c0.01-2.09,0-4.17,0-6.26
			c0-2.06,0.01-4.13-0.01-6.19c0-0.42,0.1-0.56,0.54-0.56c4.17,0.02,8.35,0.02,12.51,0.01c0.37,0,0.48,0.08,0.48,0.47
			C82.12,70.5,82.14,74.54,82.12,78.58z M69.13,50.24c4.17,0.01,8.35,0.01,12.52,0c0.4-0.01,0.49,0.1,0.49,0.49
			c-0.01,4.17-0.01,8.35,0,12.52c0,0.37-0.09,0.48-0.46,0.47c-2.11-0.01-4.22,0-6.31,0c-2.09,0-4.17-0.01-6.26,0
			c-0.37,0.01-0.49-0.09-0.49-0.47c0.02-4.17,0.02-8.35,0-12.51C68.61,50.32,68.73,50.24,69.13,50.24z M78.54,68.26
			c-2.09-0.01-4.17-0.01-6.26,0c-0.94,0-1.4,0.47-1.4,1.41c-0.01,2.09-0.01,4.17,0,6.25c0,0.85,0.47,1.31,1.3,1.31
			c2.13,0.01,4.25,0.01,6.37,0c0.86,0,1.29-0.44,1.3-1.3c0.01-1.06,0-2.12,0-3.18v-3.14C79.85,68.74,79.4,68.26,78.54,68.26z
			 M73.43,54.33c0.59,0.01,1.18,0.03,1.76,0c0.47-0.03,0.49,0.12,0.32,0.49c-0.81,1.79-1.6,3.59-2.37,5.4
			c-0.29,0.69-0.08,1.31,0.52,1.58c0.6,0.27,1.23,0.03,1.54-0.64c1.1-2.48,2.21-4.97,3.28-7.46c0.38-0.86-0.13-1.62-1.07-1.65
			c-0.69-0.02-1.37,0-2.04,0c-0.64,0-1.29-0.01-1.93,0c-0.79,0.01-1.29,0.47-1.29,1.14C72.14,53.84,72.66,54.32,73.43,54.33z
			 M45.57,68.3c-1.18-0.72-2.63-0.66-3.74,0.15c-1.09,0.8-1.62,2.2-1.29,3.46c0.4,1.54,1.45,2.37,3.04,2.63
			c-0.28,0.43-0.62,0.75-0.97,1.06c-0.2,0.19-0.37,0.38-0.43,0.66c-0.11,0.51,0.02,0.95,0.48,1.23c0.49,0.32,0.97,0.24,1.41-0.13
			c1.77-1.53,2.76-3.47,3.07-5.78C47.32,70.31,46.7,68.99,45.57,68.3z M43.8,72.24c-0.6,0-1.07-0.49-1.05-1.08
			c0.01-0.59,0.51-1.07,1.1-1.05c0.56,0.02,1.04,0.52,1.04,1.08C44.9,71.78,44.41,72.25,43.8,72.24z M45.57,68.3
			c-1.18-0.72-2.63-0.66-3.74,0.15c-1.09,0.8-1.62,2.2-1.29,3.46c0.4,1.54,1.45,2.37,3.04,2.63c-0.28,0.43-0.62,0.75-0.97,1.06
			c-0.2,0.19-0.37,0.38-0.43,0.66c-0.11,0.51,0.02,0.95,0.48,1.23c0.49,0.32,0.97,0.24,1.41-0.13c1.77-1.53,2.76-3.47,3.07-5.78
			C47.32,70.31,46.7,68.99,45.57,68.3z M43.8,72.24c-0.6,0-1.07-0.49-1.05-1.08c0.01-0.59,0.51-1.07,1.1-1.05
			c0.56,0.02,1.04,0.52,1.04,1.08C44.9,71.78,44.41,72.25,43.8,72.24z M78.54,68.26c-2.09-0.01-4.17-0.01-6.26,0
			c-0.94,0-1.4,0.47-1.4,1.41c-0.01,2.09-0.01,4.17,0,6.25c0,0.85,0.47,1.31,1.3,1.31c2.13,0.01,4.25,0.01,6.37,0
			c0.86,0,1.29-0.44,1.3-1.3c0.01-1.06,0-2.12,0-3.18v-3.14C79.85,68.74,79.4,68.26,78.54,68.26z M77.41,52.05
			c-0.69-0.02-1.37,0-2.04,0c-0.64,0-1.29-0.01-1.93,0c-0.79,0.01-1.29,0.47-1.29,1.14c0,0.66,0.52,1.14,1.29,1.15
			c0.59,0.01,1.18,0.03,1.76,0c0.47-0.03,0.49,0.12,0.32,0.49c-0.81,1.79-1.6,3.59-2.37,5.4c-0.29,0.69-0.08,1.31,0.52,1.58
			c0.6,0.27,1.23,0.03,1.54-0.64c1.1-2.48,2.21-4.97,3.28-7.46C78.86,52.84,78.35,52.08,77.41,52.05z M78.54,68.26
			c-2.09-0.01-4.17-0.01-6.26,0c-0.94,0-1.4,0.47-1.4,1.41c-0.01,2.09-0.01,4.17,0,6.25c0,0.85,0.47,1.31,1.3,1.31
			c2.13,0.01,4.25,0.01,6.37,0c0.86,0,1.29-0.44,1.3-1.3c0.01-1.06,0-2.12,0-3.18v-3.14C79.85,68.74,79.4,68.26,78.54,68.26z
			 M77.41,52.05c-0.69-0.02-1.37,0-2.04,0c-0.64,0-1.29-0.01-1.93,0c-0.79,0.01-1.29,0.47-1.29,1.14c0,0.66,0.52,1.14,1.29,1.15
			c0.59,0.01,1.18,0.03,1.76,0c0.47-0.03,0.49,0.12,0.32,0.49c-0.81,1.79-1.6,3.59-2.37,5.4c-0.29,0.69-0.08,1.31,0.52,1.58
			c0.6,0.27,1.23,0.03,1.54-0.64c1.1-2.48,2.21-4.97,3.28-7.46C78.86,52.84,78.35,52.08,77.41,52.05z M45.57,68.3
			c-1.18-0.72-2.63-0.66-3.74,0.15c-1.09,0.8-1.62,2.2-1.29,3.46c0.4,1.54,1.45,2.37,3.04,2.63c-0.28,0.43-0.62,0.75-0.97,1.06
			c-0.2,0.19-0.37,0.38-0.43,0.66c-0.11,0.51,0.02,0.95,0.48,1.23c0.49,0.32,0.97,0.24,1.41-0.13c1.77-1.53,2.76-3.47,3.07-5.78
			C47.32,70.31,46.7,68.99,45.57,68.3z M43.8,72.24c-0.6,0-1.07-0.49-1.05-1.08c0.01-0.59,0.51-1.07,1.1-1.05
			c0.56,0.02,1.04,0.52,1.04,1.08C44.9,71.78,44.41,72.25,43.8,72.24z M77.41,52.05c-0.69-0.02-1.37,0-2.04,0
			c-0.64,0-1.29-0.01-1.93,0c-0.79,0.01-1.29,0.47-1.29,1.14c0,0.66,0.52,1.14,1.29,1.15c0.59,0.01,1.18,0.03,1.76,0
			c0.47-0.03,0.49,0.12,0.32,0.49c-0.81,1.79-1.6,3.59-2.37,5.4c-0.29,0.69-0.08,1.31,0.52,1.58c0.6,0.27,1.23,0.03,1.54-0.64
			c1.1-2.48,2.21-4.97,3.28-7.46C78.86,52.84,78.35,52.08,77.41,52.05z M77.41,52.05c-0.69-0.02-1.37,0-2.04,0
			c-0.64,0-1.29-0.01-1.93,0c-0.79,0.01-1.29,0.47-1.29,1.14c0,0.66,0.52,1.14,1.29,1.15c0.59,0.01,1.18,0.03,1.76,0
			c0.47-0.03,0.49,0.12,0.32,0.49c-0.81,1.79-1.6,3.59-2.37,5.4c-0.29,0.69-0.08,1.31,0.52,1.58c0.6,0.27,1.23,0.03,1.54-0.64
			c1.1-2.48,2.21-4.97,3.28-7.46C78.86,52.84,78.35,52.08,77.41,52.05z"/>
		<path class="st1" d="M48.89,35.16c-0.01,3.12-2.56,5.66-5.69,5.66c-3.16-0.01-5.69-2.57-5.68-5.73c0.01-3.12,2.56-5.65,5.69-5.65
			C46.37,29.44,48.91,31.99,48.89,35.16z"/>
		<path class="st1" d="M53.43,34.25c-0.47-5.31-4.89-9.37-10.2-9.37c-7.52,0-12.5,7.82-9.27,14.6c0.17,0.36,0.16,0.57-0.14,0.86
			c-1.79,1.77-3.57,3.56-5.35,5.34c-0.79,0.79-1.11,1.7-0.88,2.8c0.25,1.13,0.95,1.89,2.05,2.22c1.11,0.33,2.11,0.07,2.93-0.74
			c1.84-1.81,3.66-3.64,5.47-5.47c0.26-0.26,0.45-0.29,0.78-0.13c1.96,0.95,4.01,1.22,6.14,0.86C50.15,44.36,53.9,39.51,53.43,34.25
			z M43.25,43.09c-4.41,0-8.01-3.59-8-7.97c0.01-4.4,3.59-7.96,8.02-7.95c4.35,0.01,7.91,3.62,7.91,8
			C51.17,39.5,47.57,43.09,43.25,43.09z"/>
		<path class="st1" d="M84.41,39.85v1.37c0,0.45,0.01,0.91-0.01,1.37c-0.02,0.66-0.55,1.17-1.16,1.15c-0.6-0.01-1.09-0.51-1.1-1.15
			c-0.02-0.91-0.01-1.82,0-2.73c0.01-0.67,0.52-1.18,1.14-1.18C83.87,38.67,84.37,39.18,84.41,39.85z"/>
		<path class="st1" d="M78.48,53.7c-1.07,2.49-2.17,4.98-3.28,7.46c-0.31,0.68-0.94,0.92-1.54,0.64c-0.6-0.27-0.82-0.9-0.52-1.58
			c0.78-1.8,1.56-3.6,2.37-5.4c0.17-0.37,0.15-0.52-0.32-0.49c-0.58,0.03-1.17,0.01-1.76,0c-0.76-0.01-1.29-0.49-1.29-1.15
			c0-0.67,0.5-1.13,1.29-1.14c0.64-0.01,1.29,0,1.93,0c0.68,0,1.35-0.02,2.04,0C78.35,52.08,78.86,52.84,78.48,53.7z"/>
		<path class="st1" d="M45.57,68.3c-1.18-0.72-2.63-0.66-3.74,0.15c-1.09,0.8-1.62,2.2-1.29,3.46c0.4,1.54,1.45,2.37,3.04,2.63
			c-0.28,0.43-0.62,0.75-0.97,1.06c-0.2,0.19-0.37,0.38-0.43,0.66c-0.11,0.51,0.02,0.95,0.48,1.23c0.49,0.32,0.97,0.24,1.41-0.13
			c1.77-1.53,2.76-3.47,3.07-5.78C47.32,70.31,46.7,68.99,45.57,68.3z M43.8,72.24c-0.6,0-1.07-0.49-1.05-1.08
			c0.01-0.59,0.51-1.07,1.1-1.05c0.56,0.02,1.04,0.52,1.04,1.08C44.9,71.78,44.41,72.25,43.8,72.24z"/>
		<path class="st1" d="M62.76,57.43c-0.49-1.31-1.49-2.04-2.94-2.24c0.27-0.42,0.58-0.71,0.9-1c0.66-0.61,0.74-1.25,0.25-1.78
			c-0.47-0.51-1.16-0.48-1.8,0.11c-1.67,1.53-2.65,3.42-2.88,5.68c-0.14,1.39,0.54,2.69,1.74,3.31c1.22,0.64,2.74,0.48,3.77-0.4
			C62.83,60.19,63.25,58.72,62.76,57.43z M59.57,59.61c-0.59-0.01-1.03-0.47-1.03-1.06c0.01-0.62,0.48-1.08,1.09-1.07
			c0.58,0.02,1.03,0.49,1.02,1.08C60.65,59.17,60.18,59.63,59.57,59.61z"/>
		<path class="st1" d="M79.85,69.61v3.14c0,1.06,0.01,2.12,0,3.18c-0.01,0.86-0.44,1.3-1.3,1.3c-2.12,0.01-4.24,0.01-6.37,0
			c-0.83,0-1.3-0.46-1.3-1.31c-0.01-2.08-0.01-4.16,0-6.25c0-0.94,0.46-1.41,1.4-1.41c2.09-0.01,4.17-0.01,6.26,0
			C79.4,68.26,79.85,68.74,79.85,69.61z"/>
		<path class="st1" d="M48.89,35.16c-0.01,3.12-2.56,5.66-5.69,5.66c-3.16-0.01-5.69-2.57-5.68-5.73c0.01-3.12,2.56-5.65,5.69-5.65
			C46.37,29.44,48.91,31.99,48.89,35.16z"/>
		<path class="st1" d="M78.48,53.7c-1.07,2.49-2.17,4.98-3.28,7.46c-0.31,0.68-0.94,0.92-1.54,0.64c-0.6-0.27-0.82-0.9-0.52-1.58
			c0.78-1.8,1.56-3.6,2.37-5.4c0.17-0.37,0.15-0.52-0.32-0.49c-0.58,0.03-1.17,0.01-1.76,0c-0.76-0.01-1.29-0.49-1.29-1.15
			c0-0.67,0.5-1.13,1.29-1.14c0.64-0.01,1.29,0,1.93,0c0.68,0,1.35-0.02,2.04,0C78.35,52.08,78.86,52.84,78.48,53.7z"/>
		<path class="st1" d="M45.57,68.3c-1.18-0.72-2.63-0.66-3.74,0.15c-1.09,0.8-1.62,2.2-1.29,3.46c0.4,1.54,1.45,2.37,3.04,2.63
			c-0.28,0.43-0.62,0.75-0.97,1.06c-0.2,0.19-0.37,0.38-0.43,0.66c-0.11,0.51,0.02,0.95,0.48,1.23c0.49,0.32,0.97,0.24,1.41-0.13
			c1.77-1.53,2.76-3.47,3.07-5.78C47.32,70.31,46.7,68.99,45.57,68.3z M43.8,72.24c-0.6,0-1.07-0.49-1.05-1.08
			c0.01-0.59,0.51-1.07,1.1-1.05c0.56,0.02,1.04,0.52,1.04,1.08C44.9,71.78,44.41,72.25,43.8,72.24z"/>
		<path class="st1" d="M62.76,57.43c-0.49-1.31-1.49-2.04-2.94-2.24c0.27-0.42,0.58-0.71,0.9-1c0.66-0.61,0.74-1.25,0.25-1.78
			c-0.47-0.51-1.16-0.48-1.8,0.11c-1.67,1.53-2.65,3.42-2.88,5.68c-0.14,1.39,0.54,2.69,1.74,3.31c1.22,0.64,2.74,0.48,3.77-0.4
			C62.83,60.19,63.25,58.72,62.76,57.43z M59.57,59.61c-0.59-0.01-1.03-0.47-1.03-1.06c0.01-0.62,0.48-1.08,1.09-1.07
			c0.58,0.02,1.03,0.49,1.02,1.08C60.65,59.17,60.18,59.63,59.57,59.61z"/>
		<path class="st1" d="M79.85,69.61v3.14c0,1.06,0.01,2.12,0,3.18c-0.01,0.86-0.44,1.3-1.3,1.3c-2.12,0.01-4.24,0.01-6.37,0
			c-0.83,0-1.3-0.46-1.3-1.31c-0.01-2.08-0.01-4.16,0-6.25c0-0.94,0.46-1.41,1.4-1.41c2.09-0.01,4.17-0.01,6.26,0
			C79.4,68.26,79.85,68.74,79.85,69.61z"/>
		<path class="st1" d="M48.89,35.16c-0.01,3.12-2.56,5.66-5.69,5.66c-3.16-0.01-5.69-2.57-5.68-5.73c0.01-3.12,2.56-5.65,5.69-5.65
			C46.37,29.44,48.91,31.99,48.89,35.16z"/>
	</g>
	<g>
		<path d="M88.46,59.24c0.12-0.12,0.24-0.25,0.37-0.37c0.41-0.38,0.8-0.39,1.21,0c0.67,0.65,1.33,1.32,1.99,1.98
			c0.63,0.63,0.63,0.93,0.01,1.55c-2.85,2.85-18.97,18.97-20.75,20.75c-0.19,0.19-0.39,0.37-0.63,0.5
			c-1.65,0.94-3.29,1.88-4.94,2.82c-0.07,0.04-0.14,0.07-0.21,0.11c-0.34,0.16-0.65,0.11-0.91-0.16c-0.24-0.26-0.28-0.57-0.11-0.88
			c1.01-1.79,1.99-3.6,3.08-5.34c0.42-0.67,1.1-1.17,1.67-1.75C69.53,78.17,86.56,61.14,88.46,59.24z"/>
		<path class="st1" d="M77.72,86.66c-2.27,0-4.54-0.01-6.8,0.01c-0.35,0-0.45-0.08-0.44-0.44c0.02-1.09,0-1.09,1.11-1.09
			c4.3,0,8.59,0.01,12.89-0.01c0.39,0,0.5,0.09,0.49,0.49c-0.03,1.05-0.01,1.05-1.06,1.05C81.85,86.66,79.79,86.66,77.72,86.66z"/>
		<path class="st1" d="M87.21,86.66c-0.73,0-0.73,0-0.73-0.74c0-0.78,0-0.78,0.79-0.78c0.73,0,0.73,0,0.73,0.74
			C88,86.66,88,86.66,87.21,86.66z"/>
		<path class="st1" d="M86.77,65.47c-0.08,0.09-0.18,0.19-0.28,0.29c-3.8,3.8-7.6,7.6-11.4,11.4c-1.45,1.45-2.9,2.89-4.33,4.34
			c-0.24,0.24-0.37,0.25-0.59-0.01c-0.26-0.31-0.76-0.58-0.79-0.9c-0.03-0.33,0.49-0.6,0.78-0.89c5.04-5.04,10.09-10.08,15.12-15.13
			c0.28-0.28,0.44-0.32,0.69,0c0.18,0.24,0.42,0.43,0.63,0.64C86.68,65.28,86.78,65.32,86.77,65.47z"/>
		<path class="st1" d="M90.61,61.63c-0.08,0.08-0.14,0.15-0.2,0.22c-0.76,0.76-1.52,1.51-2.27,2.28c-0.16,0.16-0.25,0.18-0.41,0
			c-0.3-0.33-0.82-0.6-0.87-0.96c-0.06-0.38,0.52-0.64,0.81-0.95c0.51-0.54,1.05-1.05,1.57-1.58c0.15-0.16,0.25-0.19,0.41-0.01
			c0.25,0.28,0.53,0.54,0.8,0.81C90.49,61.5,90.54,61.56,90.61,61.63z"/>
		<path class="st1" d="M67.35,83.63c0.29-0.52,0.59-1.04,0.88-1.56c0.08-0.14,0.14-0.23,0.3-0.07c0.22,0.22,0.47,0.41,0.75,0.65
			c-0.7,0.4-1.28,0.73-1.86,1.06C67.4,83.69,67.38,83.66,67.35,83.63z"/>
	</g>
</g>
</svg>
