<?xml version="1.0" encoding="utf-8"?>
<!-- Generator: Adobe Illustrator 28.0.0, SVG Export Plug-In . SVG Version: 6.00 Build 0)  -->
<svg version="1.1" id="Layer_1" xmlns="http://www.w3.org/2000/svg" xmlns:xlink="http://www.w3.org/1999/xlink" x="0px" y="0px"
	 viewBox="0 0 120 120" style="enable-background:new 0 0 120 120;" xml:space="preserve">
<style type="text/css">
	.st0{fill:none;}
	.st1{fill:#FFFFFF;}
	.st2{font-family:'Montserrat-Bold';}
	.st3{font-size:7px;}
</style>
<rect x="20" y="91.55" class="st0" width="80" height="8.45"/>
<text transform="matrix(1 0 0 1 49.2725 98.373)" class="st1 st2 st3">Music</text>
<g>
	<g>
		<path class="st1" d="M48.12,69.25v1.12c0,0.38,0,0.76,0,1.14c0,0.25-0.13,0.38-0.37,0.38c-0.23,0-0.36-0.14-0.36-0.39v-2.26
			c0-0.25,0.15-0.42,0.37-0.42C47.98,68.82,48.12,68.99,48.12,69.25z"/>
		<path class="st1" d="M49.63,66.85v7c0,0.34-0.28,0.51-0.56,0.35c-0.12-0.07-0.17-0.18-0.17-0.32v-7.05c0-0.24,0.16-0.4,0.37-0.39
			C49.49,66.46,49.63,66.61,49.63,66.85z"/>
		<path class="st1" d="M51.1,67.43c0.06,0.09,0.04,0.19,0.04,0.28v5.32c0,0.29-0.13,0.44-0.37,0.43c-0.24,0-0.37-0.16-0.37-0.44
			c0-1.78,0-3.56,0-5.34c0-0.21,0.07-0.37,0.28-0.43C50.85,67.22,51,67.28,51.1,67.43z"/>
		<path class="st1" d="M52.64,65.13c0.01,0.06,0,0.11,0,0.17v10.14c0,0.33-0.09,0.46-0.32,0.47c-0.27,0.02-0.41-0.12-0.41-0.41
			V65.26c0-0.29,0.14-0.47,0.37-0.46C52.49,64.81,52.63,64.92,52.64,65.13z"/>
		<path class="st1" d="M62.72,66.74c0-0.25-0.14-0.39-0.37-0.39c-0.23,0-0.36,0.14-0.37,0.39c-0.01,0.25-0.01,0.5,0,0.76
			c0.01,0.15-0.03,0.23-0.18,0.28c-0.43,0.14-0.86,0.3-1.28,0.45c-0.56,0.2-1.12,0.4-1.68,0.6c-0.06-0.45-0.06-0.45,0.32-0.59
			c0.64-0.23,1.29-0.46,1.93-0.69c0.15-0.05,0.27-0.11,0.31-0.28c0.06-0.33-0.19-0.54-0.52-0.42c-0.81,0.28-1.61,0.57-2.42,0.85
			c-0.34,0.12-0.38,0.18-0.38,0.55v3.32c-0.08-0.03-0.15-0.05-0.21-0.07c-0.51-0.15-0.97-0.03-1.34,0.33
			c-0.37,0.37-0.49,0.83-0.34,1.34c0.18,0.63,0.81,1.04,1.43,0.95c0.71-0.1,1.2-0.63,1.21-1.32c0-0.89,0-1.78,0-2.67
			c0-0.5,0-0.51,0.48-0.67c0.84-0.3,1.68-0.6,2.53-0.9c0.09-0.03,0.17-0.09,0.17,0.08c0,0.51,0,1.02,0,1.54
			c-0.34-0.13-0.67-0.18-1.01-0.07c-0.65,0.21-1.05,0.87-0.92,1.52c0.13,0.67,0.75,1.16,1.41,1.11c0.69-0.05,1.24-0.59,1.25-1.28
			C62.73,69.89,62.72,68.32,62.72,66.74z M57.44,73.39c-0.34-0.01-0.58-0.27-0.58-0.61c0.01-0.34,0.28-0.6,0.61-0.59
			c0.33,0,0.6,0.29,0.6,0.61C58.07,73.14,57.8,73.4,57.44,73.39z M61.37,72c-0.32,0-0.6-0.29-0.6-0.61c0-0.33,0.28-0.6,0.61-0.6
			c0.34,0,0.6,0.26,0.61,0.59C61.99,71.73,61.71,72,61.37,72z"/>
		<path class="st1" d="M67.76,65.11c0.01,0.06,0,0.11,0,0.17v10.19c0,0.32-0.11,0.45-0.37,0.45c-0.22-0.01-0.35-0.12-0.35-0.34
			c-0.01-0.28,0-0.55,0-0.83v-9.46c0-0.11-0.01-0.23,0.06-0.33c0.1-0.13,0.22-0.18,0.38-0.15C67.64,64.84,67.73,64.95,67.76,65.11z"
			/>
		<path class="st1" d="M69.24,67.45c0.03,0.07,0.03,0.14,0.03,0.21v5.42c0,0.24-0.15,0.4-0.36,0.39c-0.22,0-0.37-0.15-0.37-0.39
			v-5.44c0-0.19,0.08-0.33,0.27-0.38C68.99,67.21,69.14,67.28,69.24,67.45z"/>
		<path class="st1" d="M70.78,66.91v6.9c0,0.31-0.1,0.44-0.36,0.44c-0.26,0-0.37-0.13-0.37-0.45v-6.9c0-0.29,0.13-0.45,0.36-0.46
			C70.64,66.44,70.78,66.61,70.78,66.91z"/>
		<path class="st1" d="M72.2,71.69c0.03-0.01,0.06-0.03,0.09-0.02c-0.12,0.18-0.29,0.25-0.5,0.18c-0.22-0.07-0.24-0.25-0.23-0.45
			c0-0.7,0-1.39,0-2.08c0-0.21,0.02-0.39,0.24-0.47c0.23-0.09,0.36,0.05,0.49,0.2c-0.09,0.02-0.13-0.05-0.19-0.08
			c-0.23-0.12-0.43-0.03-0.46,0.23c-0.02,0.14-0.01,0.27-0.01,0.41v1.73C71.63,71.79,71.8,71.9,72.2,71.69z"/>
		<path class="st1" d="M72.29,69.05v2.63c-0.12,0.18-0.29,0.25-0.5,0.18c-0.22-0.07-0.24-0.25-0.23-0.45c0-0.7,0-1.39,0-2.08
			c0-0.21,0.02-0.39,0.24-0.47C72.03,68.77,72.16,68.9,72.29,69.05z"/>
		<path class="st1" d="M62.72,66.74c0-0.25-0.14-0.39-0.37-0.39c-0.23,0-0.36,0.14-0.37,0.39c-0.01,0.25-0.01,0.5,0,0.76
			c0.01,0.15-0.03,0.23-0.18,0.28c-0.43,0.14-0.86,0.3-1.28,0.45c-0.56,0.2-1.12,0.4-1.68,0.6c-0.06-0.45-0.06-0.45,0.32-0.59
			c0.64-0.23,1.29-0.46,1.93-0.69c0.15-0.05,0.27-0.11,0.31-0.28c0.06-0.33-0.19-0.54-0.52-0.42c-0.81,0.28-1.61,0.57-2.42,0.85
			c-0.34,0.12-0.38,0.18-0.38,0.55v3.32c-0.08-0.03-0.15-0.05-0.21-0.07c-0.51-0.15-0.97-0.03-1.34,0.33
			c-0.37,0.37-0.49,0.83-0.34,1.34c0.18,0.63,0.81,1.04,1.43,0.95c0.71-0.1,1.2-0.63,1.21-1.32c0-0.89,0-1.78,0-2.67
			c0-0.5,0-0.51,0.48-0.67c0.84-0.3,1.68-0.6,2.53-0.9c0.09-0.03,0.17-0.09,0.17,0.08c0,0.51,0,1.02,0,1.54
			c-0.34-0.13-0.67-0.18-1.01-0.07c-0.65,0.21-1.05,0.87-0.92,1.52c0.13,0.67,0.75,1.16,1.41,1.11c0.69-0.05,1.24-0.59,1.25-1.28
			C62.73,69.89,62.72,68.32,62.72,66.74z M57.44,73.39c-0.34-0.01-0.58-0.27-0.58-0.61c0.01-0.34,0.28-0.6,0.61-0.59
			c0.33,0,0.6,0.29,0.6,0.61C58.07,73.14,57.8,73.4,57.44,73.39z M61.37,72c-0.32,0-0.6-0.29-0.6-0.61c0-0.33,0.28-0.6,0.61-0.6
			c0.34,0,0.6,0.26,0.61,0.59C61.99,71.73,61.71,72,61.37,72z"/>
		<path class="st1" d="M67.77,65.28v10.19c0,0.32-0.11,0.45-0.37,0.45c-0.22-0.01-0.35-0.12-0.35-0.34c-0.01-0.28,0-0.55,0-0.83
			v-9.46c0-0.11-0.01-0.23,0.06-0.33c0.1-0.13,0.22-0.18,0.38-0.15c0.16,0.03,0.25,0.14,0.28,0.3
			C67.78,65.16,67.77,65.22,67.77,65.28z"/>
		<path class="st1" d="M52.65,65.3v10.14c0,0.33-0.09,0.46-0.32,0.47c-0.27,0.02-0.41-0.12-0.41-0.41V65.26
			c0-0.29,0.14-0.47,0.37-0.46c0.2,0.01,0.34,0.12,0.35,0.33C52.65,65.19,52.65,65.24,52.65,65.3z"/>
		<path class="st1" d="M70.78,66.91v6.9c0,0.31-0.1,0.44-0.36,0.44c-0.26,0-0.37-0.13-0.37-0.45v-6.9c0-0.29,0.13-0.45,0.36-0.46
			C70.64,66.44,70.78,66.61,70.78,66.91z"/>
		<path class="st1" d="M49.63,66.85v7c0,0.34-0.28,0.51-0.56,0.35c-0.12-0.07-0.17-0.18-0.17-0.32v-7.05c0-0.24,0.16-0.4,0.37-0.39
			C49.49,66.46,49.63,66.61,49.63,66.85z"/>
		<path class="st1" d="M69.28,67.66v5.42c0,0.24-0.15,0.4-0.36,0.39c-0.22,0-0.37-0.15-0.37-0.39v-5.44c0-0.19,0.08-0.33,0.27-0.38
			c0.18-0.05,0.33,0.02,0.43,0.19C69.28,67.52,69.28,67.59,69.28,67.66z"/>
		<path class="st1" d="M51.14,67.72v5.32c0,0.29-0.13,0.44-0.37,0.43c-0.24,0-0.37-0.16-0.37-0.44c0-1.78,0-3.56,0-5.34
			c0-0.21,0.07-0.37,0.28-0.43c0.17-0.04,0.31,0.02,0.41,0.18C51.15,67.53,51.14,67.62,51.14,67.72z"/>
		<path class="st1" d="M48.12,69.25v1.12c0,0.38,0,0.76,0,1.14c0,0.25-0.13,0.38-0.37,0.38c-0.23,0-0.36-0.14-0.36-0.39v-2.26
			c0-0.25,0.15-0.42,0.37-0.42C47.98,68.82,48.12,68.99,48.12,69.25z"/>
		<path class="st1" d="M66.33,72.83c-0.05,0.12-0.07,0.24-0.07,0.38v3.77c0,0.32-0.22,0.49-0.5,0.39c-0.18-0.06-0.23-0.2-0.23-0.38
			c0-0.78,0-1.56,0-2.33v-0.28c0,0,0,0,0,0.01h0c-0.26,0.31-0.47,0.6-0.73,0.84c-0.07,0.08-0.04,0.17-0.04,0.25
			c0,1.56,0,3.11,0,4.67c0,0.29-0.11,0.43-0.34,0.44c-0.25,0.01-0.39-0.13-0.4-0.41v-4.24c0,0-0.01,0-0.01,0.01
			c-0.25,0.16-0.49,0.31-0.72,0.46c-0.07,0.05-0.03,0.14-0.03,0.21c0,0.86,0,1.72,0,2.58c0,0.34-0.28,0.51-0.55,0.37
			c-0.16-0.08-0.18-0.23-0.18-0.39v-2.37c-0.24,0.09-0.46,0.17-0.68,0.23c-0.14,0.04-0.09,0.14-0.09,0.21c0,1.33,0,2.66,0,3.99
			c0,0.29-0.12,0.44-0.37,0.43c-0.21,0-0.35-0.12-0.36-0.34c-0.01-0.27,0-0.55,0-0.83c0-1.02-0.01-2.04,0-3.06
			c0-0.18-0.06-0.23-0.22-0.19c-0.05,0.01-0.09,0.02-0.14,0.03c-0.14,0.04-0.33-0.05-0.41,0.06c-0.09,0.12-0.03,0.31-0.03,0.47v4.55
			c0,0.36-0.2,0.52-0.49,0.43c-0.2-0.07-0.25-0.23-0.24-0.42v-4.5c0-0.59,0-0.59-0.59-0.63c-0.14-0.01-0.18,0.02-0.18,0.16
			c0.01,0.51,0,1.02,0,1.53c0,0.78,0,1.56,0,2.33c0,0.29-0.17,0.44-0.42,0.4c-0.23-0.04-0.32-0.2-0.32-0.42c0-0.89,0-1.78,0-2.67
			c0-0.45-0.01-0.89,0-1.34c0-0.13-0.03-0.21-0.17-0.24c-0.08-0.01-0.15-0.04-0.23-0.07c-0.38-0.13-0.38-0.13-0.38,0.26v1.99
			c0,0.29-0.14,0.45-0.37,0.44c-0.23-0.01-0.37-0.16-0.37-0.45c0-0.85,0-1.7,0-2.55c0-0.14-0.03-0.22-0.15-0.29
			c-0.19-0.11-0.38-0.24-0.6-0.38c-0.01,0-0.01-0.01-0.02-0.01v0.25c0,1.33,0,2.66,0,3.99c0,0.21-0.05,0.37-0.27,0.42
			c-0.26,0.06-0.46-0.1-0.46-0.38c0-0.44,0-0.88,0-1.31c0-1.21,0-2.41,0-3.62c0-0.21,0.04-0.37,0.24-0.46c0.2-0.09,0.35,0,0.5,0.13
			c1.33,1.2,2.9,1.72,4.68,1.61c2.72-0.18,5.09-2.32,5.57-5.01c0.61-3.38-1.44-6.5-4.81-7.22c-3.39-0.73-6.58,1.47-7.3,4.72
			c-0.23,1.04-0.21,2.07,0.18,3.08c0.13,0.34,0.18,0.7,0.17,1.07c-0.01,1.27-0.01,2.53,0,3.79c0,0.36-0.28,0.49-0.53,0.39
			c-0.17-0.07-0.21-0.22-0.21-0.4c0-1.14,0-2.28,0.01-3.42c0-0.36-0.05-0.7-0.16-1.04c-0.49-1.51-0.45-3.02,0.09-4.52
			c0.05-0.14,0.07-0.27,0.07-0.43c0-1.26,0-2.53,0-3.79c0-0.34,0.24-0.51,0.52-0.4c0.18,0.07,0.21,0.22,0.21,0.4
			c0,0.77,0,1.54,0,2.31v0.31c0,0,0.01-0.01,0.01-0.01c0.27-0.31,0.52-0.59,0.75-0.88c0.04-0.05,0.02-0.14,0.02-0.21v-4.69
			c0-0.29,0.12-0.43,0.37-0.43c0.23,0,0.36,0.12,0.36,0.37c0.01,0.32,0,0.65,0,0.97v3.33c0.25-0.16,0.49-0.31,0.72-0.46
			c0.09-0.06,0.05-0.15,0.05-0.22c0-0.86,0-1.72,0-2.58c0-0.34,0.27-0.52,0.55-0.38c0.16,0.09,0.19,0.23,0.18,0.39v2.38
			c0,0,0,0,0,0.01c0,0,0,0,0.01,0c0.24-0.08,0.47-0.15,0.69-0.23c0.12-0.04,0.07-0.15,0.07-0.23c0-1.33,0-2.66,0-3.99
			c0-0.27,0.11-0.41,0.33-0.43c0.24-0.02,0.4,0.12,0.4,0.37c0,0.45,0,0.89,0,1.34c0,0.83,0.01,1.67,0,2.5
			c0,0.22,0.08,0.24,0.25,0.21c0.06-0.01,0.12-0.03,0.19-0.03c0.34-0.04,0.34-0.04,0.34-0.37v-4.69c0-0.2,0.02-0.37,0.24-0.45h0.01
			c0.07,0,0.15,0,0.22,0h0.01c0.24,0.07,0.25,0.26,0.25,0.46c0,1.58,0,3.16,0,4.74c0,0.22,0.03,0.34,0.28,0.31
			c0.17-0.03,0.38,0.13,0.49,0.02c0.11-0.12,0.03-0.36,0.03-0.54c0-1.14,0-2.29,0-3.43c0-0.29,0.09-0.41,0.32-0.43
			c0.25-0.02,0.42,0.13,0.42,0.41c0,0.55,0,1.1,0,1.65c0,0.79,0,1.57,0,2.36c0,0.15,0.05,0.21,0.19,0.24
			c0.19,0.05,0.38,0.12,0.59,0.2V61.7c0-0.4,0.11-0.57,0.37-0.56c0.26,0.01,0.37,0.17,0.37,0.57c0,0.81,0,1.62,0,2.43
			c0,0.14,0.04,0.22,0.16,0.28c0.2,0.11,0.39,0.25,0.61,0.39c0,0,0,0,0,0c0,0,0,0,0-0.01v-4.27c0-0.17,0.06-0.31,0.22-0.37
			c0.17-0.05,0.32-0.02,0.44,0.12c0.08,0.09,0.07,0.21,0.07,0.32c0,1.55,0,3.1,0,4.64c0,0.15,0.04,0.25,0.15,0.36
			c0.21,0.22,0.4,0.46,0.61,0.7c0.05-0.06,0.02-0.13,0.02-0.2c0-0.79,0-1.57,0-2.36c0-0.29,0.13-0.44,0.37-0.43
			c0.24,0.01,0.37,0.16,0.37,0.45v3.75c0,0.13,0.02,0.25,0.07,0.37C66.94,69.54,66.94,71.19,66.33,72.83z"/>
	</g>
	<g>
		<path class="st1" d="M92.43,69.27c-0.14-2.77-2.01-4.98-4.68-5.65c-0.35-0.09-0.56-0.24-0.66-0.6c-0.41-1.32-1.28-2.25-2.53-2.81
			c-0.41-0.18-0.5-0.41-0.5-0.81c0.03-1.73,0.03-3.46,0.02-5.19c-0.05-5.83-1.83-11.03-5.56-15.54c-0.21-0.24-0.33-0.5-0.39-0.83
			c-0.18-1.22-0.77-2.22-1.71-3.02c-5.37-4.48-11.51-6.52-18.47-5.97c-5.47,0.42-10.27,2.48-14.43,6.03
			c-0.71,0.6-1.32,1.29-1.46,2.21c-0.15,1.04-0.75,1.76-1.34,2.54c-2.8,3.76-4.39,7.97-4.72,12.66c-0.17,2.33-0.06,4.66-0.08,7.01
			c0,0.47-0.09,0.74-0.57,0.96c-1.2,0.53-2.01,1.47-2.44,2.72c-0.12,0.38-0.3,0.56-0.69,0.66c-2.28,0.62-3.76,2.07-4.43,4.34
			c-0.42,1.4-0.29,2.86-0.23,4.27c0.14,2.75,2.01,4.99,4.68,5.65c0.39,0.11,0.56,0.3,0.69,0.68c0.62,1.86,2.36,3.19,4.28,3.22
			c2.03,0.03,4.04,0.03,6.07,0c1.56-0.01,2.83-1.25,2.84-2.83c0.02-5.46,0.02-10.91,0-16.37c-0.02-1.58-1.22-2.8-2.81-2.86
			c-0.42-0.03-0.45-0.18-0.45-0.53c0.02-1.98-0.06-4,0.03-5.98c0.15-3.62,1.37-6.87,3.59-9.73c0.2-0.24,0.41-0.39,0.71-0.44
			c1.02-0.15,1.85-0.65,2.62-1.29c5.97-4.98,14.39-4.98,20.38,0.02c0.75,0.62,1.56,1.14,2.54,1.28c0.41,0.06,0.65,0.26,0.86,0.54
			c1.29,1.7,2.22,3.56,2.84,5.59c1.02,3.37,0.59,6.81,0.69,10.24c0,0.26-0.12,0.26-0.33,0.29c-1.97,0.21-2.93,1.29-2.93,3.29
			c-0.02,2.56,0,5.13,0,7.68c0,2.72-0.02,5.43,0,8.15c0.02,1.73,1.26,2.95,2.99,2.96c1.91,0,3.82,0.02,5.73,0
			c2.06-0.03,3.83-1.31,4.49-3.25c0.12-0.38,0.3-0.56,0.69-0.66c2.3-0.63,3.79-2.12,4.45-4.42C92.61,72.1,92.49,70.67,92.43,69.27z
			 M32.64,75.69c-1.28-0.2-2.57-1.46-2.78-2.9c-0.23-1.44-0.24-2.9,0.09-4.34c0.33-1.43,1.35-2.18,2.69-2.69V75.69z M42.95,61.9
			c0.8,0,1.02,0.26,1.02,1.05v15.56c0,0.89-0.23,1.11-1.11,1.11c-1.73,0-3.46,0.02-5.19,0c-1.77-0.01-2.84-1.1-2.84-2.87
			c-0.02-4,0.02-8-0.02-12c-0.02-1.74,1.31-2.86,2.74-2.81C39.35,61.99,41.14,61.9,42.95,61.9z M40.63,55.53
			c-0.03,1.23,0.01,2.47,0.06,3.7c0.02,0.39-0.08,0.53-0.47,0.5c-0.68-0.03-1.55,0.23-1.95-0.12c-0.42-0.35-0.14-1.25-0.12-1.91
			c0.02-2.18-0.14-4.36,0.15-6.52c0.5-3.76,1.88-7.16,4.16-10.24c0.54,0.72,1.13,1.32,1.92,1.73
			C41.41,46.47,40.77,50.93,40.63,55.53z M73.79,40.93c-0.87,0.14-1.55-0.29-2.18-0.83c-1.79-1.5-3.77-2.65-6.01-3.32
			c-6.28-1.92-12.01-0.81-17.15,3.29c-0.71,0.56-1.41,0.99-2.38,0.81c-1.01-0.2-1.67-0.77-1.95-1.73c-0.29-0.98-0.05-1.86,0.74-2.56
			c2.5-2.15,5.31-3.71,8.45-4.64c2.18-0.66,4.4-1.01,6.69-0.98c5.68,0.03,10.69,1.86,15.03,5.53c0.86,0.71,1.13,1.62,0.84,2.66
			C75.58,40.18,74.85,40.78,73.79,40.93z M75.63,42.66c0.8-0.41,1.38-1.01,1.91-1.73c1.97,2.63,3.23,5.5,3.91,8.64
			c0.6,2.8,0.39,5.64,0.42,8.45c0,0.56,0.26,1.29-0.12,1.61c-0.32,0.27-1.02,0.08-1.56,0.09c-0.89,0-0.87,0-0.84-0.89
			c0.12-3.67,0.03-7.32-1.02-10.87C77.76,46.05,76.88,44.27,75.63,42.66z M85.17,77.01c-0.02,1.52-1.1,2.56-2.62,2.6
			c-1.86,0.05-3.73,0.03-5.59,0.01c-0.69-0.01-0.93-0.29-0.93-1.02v-7.86c0-2.62,0.02-5.22-0.02-7.82
			c-0.02-0.71,0.32-1.01,0.95-1.02c1.92-0.03,3.85-0.09,5.77,0c1.41,0.08,2.42,1.22,2.44,2.66C85.2,68.71,85.2,72.86,85.17,77.01z
			 M90.21,72.32c-0.14,1.62-1.2,2.9-2.83,3.41v-9.92c1.47,0.36,2.65,1.67,2.81,3.16C90.31,70.08,90.3,71.21,90.21,72.32z"/>
		<path class="st1" d="M92.43,69.27c-0.14-2.77-2.01-4.98-4.68-5.65c-0.35-0.09-0.56-0.24-0.66-0.6c-0.41-1.32-1.28-2.25-2.53-2.81
			c-0.41-0.18-0.5-0.41-0.5-0.81c0.03-1.73,0.03-3.46,0.02-5.19c-0.05-5.83-1.83-11.03-5.56-15.54c-0.21-0.24-0.33-0.5-0.39-0.83
			c-0.18-1.22-0.77-2.22-1.71-3.02c-5.37-4.48-11.51-6.52-18.47-5.97c-5.47,0.42-10.27,2.48-14.43,6.03
			c-0.71,0.6-1.32,1.29-1.46,2.21c-0.15,1.04-0.75,1.76-1.34,2.54c-2.8,3.76-4.39,7.97-4.72,12.66c-0.17,2.33-0.06,4.66-0.08,7.01
			c0,0.47-0.09,0.74-0.57,0.96c-1.2,0.53-2.01,1.47-2.44,2.72c-0.12,0.38-0.3,0.56-0.69,0.66c-2.28,0.62-3.76,2.07-4.43,4.34
			c-0.42,1.4-0.29,2.86-0.23,4.27c0.14,2.75,2.01,4.99,4.68,5.65c0.39,0.11,0.56,0.3,0.69,0.68c0.62,1.86,2.36,3.19,4.28,3.22
			c2.03,0.03,4.04,0.03,6.07,0c1.56-0.01,2.83-1.25,2.84-2.83c0.02-5.46,0.02-10.91,0-16.37c-0.02-1.58-1.22-2.8-2.81-2.86
			c-0.42-0.03-0.45-0.18-0.45-0.53c0.02-1.98-0.06-4,0.03-5.98c0.15-3.62,1.37-6.87,3.59-9.73c0.2-0.24,0.41-0.39,0.71-0.44
			c1.02-0.15,1.85-0.65,2.62-1.29c5.97-4.98,14.39-4.98,20.38,0.02c0.75,0.62,1.56,1.14,2.54,1.28c0.41,0.06,0.65,0.26,0.86,0.54
			c1.29,1.7,2.22,3.56,2.84,5.59c1.02,3.37,0.59,6.81,0.69,10.24c0,0.26-0.12,0.26-0.33,0.29c-1.97,0.21-2.93,1.29-2.93,3.29
			c-0.02,2.56,0,5.13,0,7.68c0,2.72-0.02,5.43,0,8.15c0.02,1.73,1.26,2.95,2.99,2.96c1.91,0,3.82,0.02,5.73,0
			c2.06-0.03,3.83-1.31,4.49-3.25c0.12-0.38,0.3-0.56,0.69-0.66c2.3-0.63,3.79-2.12,4.45-4.42C92.61,72.1,92.49,70.67,92.43,69.27z
			 M32.64,75.69c-1.28-0.2-2.57-1.46-2.78-2.9c-0.23-1.44-0.24-2.9,0.09-4.34c0.33-1.43,1.35-2.18,2.69-2.69V75.69z M42.95,61.9
			c0.8,0,1.02,0.26,1.02,1.05v15.56c0,0.89-0.23,1.11-1.11,1.11c-1.73,0-3.46,0.02-5.19,0c-1.77-0.01-2.84-1.1-2.84-2.87
			c-0.02-4,0.02-8-0.02-12c-0.02-1.74,1.31-2.86,2.74-2.81C39.35,61.99,41.14,61.9,42.95,61.9z M40.63,55.53
			c-0.03,1.23,0.01,2.47,0.06,3.7c0.02,0.39-0.08,0.53-0.47,0.5c-0.68-0.03-1.55,0.23-1.95-0.12c-0.42-0.35-0.14-1.25-0.12-1.91
			c0.02-2.18-0.14-4.36,0.15-6.52c0.5-3.76,1.88-7.16,4.16-10.24c0.54,0.72,1.13,1.32,1.92,1.73
			C41.41,46.47,40.77,50.93,40.63,55.53z M73.79,40.93c-0.87,0.14-1.55-0.29-2.18-0.83c-1.79-1.5-3.77-2.65-6.01-3.32
			c-6.28-1.92-12.01-0.81-17.15,3.29c-0.71,0.56-1.41,0.99-2.38,0.81c-1.01-0.2-1.67-0.77-1.95-1.73c-0.29-0.98-0.05-1.86,0.74-2.56
			c2.5-2.15,5.31-3.71,8.45-4.64c2.18-0.66,4.4-1.01,6.69-0.98c5.68,0.03,10.69,1.86,15.03,5.53c0.86,0.71,1.13,1.62,0.84,2.66
			C75.58,40.18,74.85,40.78,73.79,40.93z M75.63,42.66c0.8-0.41,1.38-1.01,1.91-1.73c1.97,2.63,3.23,5.5,3.91,8.64
			c0.6,2.8,0.39,5.64,0.42,8.45c0,0.56,0.26,1.29-0.12,1.61c-0.32,0.27-1.02,0.08-1.56,0.09c-0.89,0-0.87,0-0.84-0.89
			c0.12-3.67,0.03-7.32-1.02-10.87C77.76,46.05,76.88,44.27,75.63,42.66z M85.17,77.01c-0.02,1.52-1.1,2.56-2.62,2.6
			c-1.86,0.05-3.73,0.03-5.59,0.01c-0.69-0.01-0.93-0.29-0.93-1.02v-7.86c0-2.62,0.02-5.22-0.02-7.82
			c-0.02-0.71,0.32-1.01,0.95-1.02c1.92-0.03,3.85-0.09,5.77,0c1.41,0.08,2.42,1.22,2.44,2.66C85.2,68.71,85.2,72.86,85.17,77.01z
			 M90.21,72.32c-0.14,1.62-1.2,2.9-2.83,3.41v-9.92c1.47,0.36,2.65,1.67,2.81,3.16C90.31,70.08,90.3,71.21,90.21,72.32z"/>
	</g>
</g>
</svg>
