<?xml version="1.0" encoding="utf-8"?>
<!-- Generator: Adobe Illustrator 28.0.0, SVG Export Plug-In . SVG Version: 6.00 Build 0)  -->
<svg version="1.1" id="Layer_1" xmlns="http://www.w3.org/2000/svg" xmlns:xlink="http://www.w3.org/1999/xlink" x="0px" y="0px"
	 viewBox="0 0 120 120" style="enable-background:new 0 0 120 120;" xml:space="preserve">
<style type="text/css">
	.st0{fill:none;}
	.st1{fill:#FFFFFF;}
	.st2{font-family:'Montserrat-Bold';}
	.st3{font-size:7px;}
</style>
<rect x="20" y="91.55" class="st0" width="80" height="8.45"/>
<text transform="matrix(1 0 0 1 44.7158 98.373)" class="st1 st2 st3">Reading</text>
<g>
	<path class="st1" d="M92.5,46.68c0.01-1.84-1.2-2.83-2.74-2.68c-0.21,0.02-0.42-0.01-0.63,0c-0.44,0.03-0.81,0.04-0.9-0.56
		c-0.05-0.3-0.36-0.5-0.67-0.62c-0.79-0.29-1.57-0.61-2.37-0.86c-0.47-0.15-0.66-0.34-0.65-0.87c0.04-1.72,0.02-3.43,0.01-5.15
		c0-1.06-0.29-1.36-1.34-1.35c-8.2,0.14-15.64,2.49-22.14,7.59c-0.03,0.02-0.07,0.03-0.16,0.07c-0.18-1.03-0.32-2.07-0.54-3.08
		c-0.96-4.49-2.83-8.51-6.3-11.65c-2.41-2.17-5.25-3.48-8.38-4.19c-0.85-0.2-1.34,0.2-1.36,1.09c-0.03,1.2-0.02,2.42,0,3.62
		c0.01,0.42-0.08,0.5-0.49,0.34c-1.4-0.56-2.86-0.99-4.34-1.31c-1.05-0.22-1.51,0.11-1.51,1.2c-0.01,3.17-0.01,6.34-0.01,9.52v2.28
		c0,0.96,0.01,0.97-0.89,1.19c-1.49,0.37-2.94,0.86-4.37,1.43c-0.51,0.21-0.96,0.45-1.05,1.06C31.6,43.98,31.46,44,31.27,44
		c-0.27-0.01-0.55,0.02-0.82,0c-1.35-0.13-2.38,0.34-2.95,1.63v30.08c0.31,0.46,0.69,0.72,1.27,0.53c0.59-0.2,0.63-0.65,0.63-1.17
		c-0.01-9.41-0.01-18.82-0.01-28.24c0-0.85,0-0.85,0.88-0.85c1.34,0,1.34,0,1.34,1.35V82.8c0,0.33-0.04,0.69,0.11,0.99
		c0.16,0.32,0.43,0.52,0.8,0.54c0.17,0.01,0.34,0,0.51,0h53.88c1.17,0,1.43-0.26,1.43-1.46c0-12.04,0-24.08-0.02-36.11
		c0-0.61,0.1-0.84,0.78-0.81c1.45,0.06,1.45,0.02,1.45,1.5v37.95c0,0.95,0,0.95-0.99,0.95c-8.71,0-17.43,0-26.14,0.01
		c-0.37,0-0.66-0.09-0.96-0.34c-1.42-1.18-3.58-1.16-5.03,0.04c-0.26,0.21-0.51,0.3-0.85,0.3c-8.8-0.01-17.6-0.01-26.4-0.01
		c-0.8,0-0.81,0-0.81-0.82c0-1.35,0-2.71,0.01-4.06c0-0.51-0.02-0.99-0.61-1.18c-0.55-0.18-0.97,0.04-1.29,0.49v5.84
		c0.37,0.69,0.73,1.39,1.63,1.53c-0.01,0-0.02,0.02-0.02,0.04h0.04c0.08,0.01,0.15,0.01,0.23,0.01h28.38c0.07,0,0.14,0,0.2-0.01
		c0.01,0,0.03,0,0.04-0.01c0-0.01-0.01-0.03-0.04-0.04c0.22-0.02,0.31-0.2,0.44-0.33c0.95-0.98,2.23-0.98,3.18,0
		c0.13,0.13,0.23,0.31,0.44,0.33c-0.01,0-0.03,0.02-0.04,0.04c0.01,0.01,0.03,0.01,0.04,0.01c0.07,0.01,0.14,0.01,0.22,0.01h28.47
		c0.03,0,0.06,0,0.09-0.01c0.02,0.01,0.03,0,0.05,0c-0.01-0.01,0-0.03,0.01-0.04c0.98-0.27,1.62-1.05,1.63-2.07
		c0.01-1.43,0-2.87,0-4.31C92.48,70.08,92.46,58.38,92.5,46.68z M33.55,45.03c0-0.43,0.1-0.66,0.55-0.81
		c1.09-0.37,2.2-0.73,3.3-1.05c0.5-0.14,0.56-0.01,0.56,0.43c-0.01,3.05-0.01,6.1-0.01,9.14c0,4.38,0,8.76,0.01,13.14
		c0,1.24,0.11,1.38,1.32,1.67c7.43,1.75,13.17,5.97,17.59,12.1c0.05,0.07,0.1,0.14,0.14,0.21c0.02,0.04,0.02,0.08,0.06,0.22
		c-2.11-0.95-4.19-1.67-6.36-2.12c-3.01-0.62-6.03-0.73-9.08-0.49c-2.56,0.2-5.05,0.71-7.49,1.44c-0.51,0.16-0.59,0.07-0.59-0.43
		c0.02-4.83,0.01-9.65,0.01-14.47C33.56,57.68,33.57,51.36,33.55,45.03z M56.62,82.42c-7.46,0-14.93,0-22.4-0.01
		c-0.21,0-0.65,0.22-0.63-0.24c0.02-0.42-0.33-0.98,0.45-1.22c4.38-1.35,8.85-2.01,13.42-1.55c3.41,0.35,6.65,1.25,9.64,3.02H56.62z
		 M56.01,75.43c-4.25-4.74-9.4-8.02-15.59-9.61c-0.36-0.09-0.51-0.21-0.51-0.62c0.01-11.84,0.01-23.69,0-35.52
		c0-0.55,0.2-0.51,0.57-0.4c1.12,0.35,2.24,0.73,3.34,1.15c0.41,0.16,0.5,0.38,0.5,0.79c-0.01,10.3-0.01,20.6-0.01,30.9
		c0,1.3,0.08,1.41,1.34,1.72c6.54,1.6,10.37,5.94,12.29,12.19c0.23,0.75,0.48,1.5,0.48,2.32C57.61,77.37,56.85,76.37,56.01,75.43z
		 M59.01,72.91c-1.05-2.14-2.28-4.12-3.9-5.84c-2.31-2.44-5.11-4.04-8.33-4.93c-0.39-0.11-0.52-0.26-0.52-0.67
		c0.01-11.87,0.01-23.74,0.01-35.6v-0.38c1.7,0.42,3.23,1.11,4.66,2.04c3.53,2.3,5.63,5.64,6.9,9.56c0.76,2.38,1.18,4.83,1.18,7.33
		V72.91z M60.97,80.74v-0.78c0-11.49,0-22.97-0.01-34.46c0-0.52,0.15-0.85,0.54-1.18c4.31-3.64,9.27-5.92,14.78-7.07
		c1.91-0.4,3.83-0.6,5.78-0.71c0.46-0.03,0.55,0.1,0.55,0.53c-0.02,2.97-0.01,5.93-0.02,8.89c0,0.44,0.07,0.84,0.47,1.11
		c0.63,0.4,1.4,0.01,1.46-0.78c0.06-0.68,0.04-1.35,0.02-2.04c-0.01-0.38,0.08-0.46,0.47-0.33c1.38,0.45,1.38,0.44,1.38,1.87v32.55
		c0,0.74,0,0.75-0.68,0.54c-3.97-1.22-8.05-1.71-12.19-1.49c-0.91,0.04-1.82,0.16-2.72,0.25c-0.2,0.16-0.44,0.11-0.67,0.13
		c-0.12,0.15-0.27,0.13-0.51,0.04c0.22-0.08,0.36-0.13,0.5-0.17c0.01-0.01,0.01-0.01,0.02-0.01c0.12-0.04,0.25-0.08,0.37-0.12
		c2.43-1.01,4.96-1.65,7.54-2.05c1.72-0.26,3.44-0.41,5.18-0.4c0.98,0.01,1.3-0.34,1.3-1.35c0.01-3.97,0.01-7.96,0.01-11.93v-9.01
		c0-0.15,0-0.3-0.01-0.45c-0.02-0.72-0.38-1.17-0.95-1.19c-0.58-0.01-0.99,0.47-0.99,1.21c-0.01,3.18,0,6.35,0,9.52
		c0,3.51-0.02,7.02,0.01,10.53c0.01,0.6-0.14,0.77-0.75,0.79c-7.3,0.3-13.98,2.51-19.9,6.84C61.66,80.23,61.36,80.46,60.97,80.74z
		 M86.38,82.16c0.03,0.48-0.4,0.25-0.61,0.25c-7.49,0.01-14.98,0.01-22.46,0.01h-0.66c1.48-0.85,2.89-1.42,4.34-1.88
		c4.29-1.33,8.66-1.6,13.09-0.93c1.99,0.29,3.91,0.78,5.84,1.32C86.71,81.15,86.36,81.72,86.38,82.16z"/>
	<path class="st1" d="M90.86,88.16c-0.01,0.01-0.02,0.03-0.01,0.04c-0.02,0.03-0.03,0.05-0.02,0.08c-0.03-0.03-0.05-0.06-0.03-0.08
		C90.8,88.19,90.82,88.18,90.86,88.16z"/>
	<path class="st1" d="M58,88.24c-0.02,0.02-0.03,0.04-0.05,0.04H29.14c-0.04-0.02-0.05-0.05-0.05-0.07l0.01-0.01
		c0-0.02,0.01-0.04,0.02-0.04c8.35,0,16.68,0,25.03-0.01h3.8c0.03,0.01,0.04,0.03,0.04,0.04C58,88.21,58.01,88.22,58,88.24z"/>
	<path class="st1" d="M90.86,88.16c-0.01,0.01-0.02,0.03-0.01,0.04c-0.02,0.03-0.03,0.05-0.02,0.08H62.02
		c-0.04-0.03-0.06-0.06-0.04-0.09c0.01-0.02,0.03-0.04,0.04-0.04C71.63,88.16,81.25,88.16,90.86,88.16z"/>
</g>
</svg>
