<?xml version="1.0" encoding="utf-8"?>
<!-- Generator: Adobe Illustrator 28.0.0, SVG Export Plug-In . SVG Version: 6.00 Build 0)  -->
<svg version="1.1" id="Layer_1" xmlns="http://www.w3.org/2000/svg" xmlns:xlink="http://www.w3.org/1999/xlink" x="0px" y="0px"
	 viewBox="0 0 120 120" style="enable-background:new 0 0 120 120;" xml:space="preserve">
<style type="text/css">
	.st0{fill:none;}
	.st1{fill:#FFFFFF;}
	.st2{font-family:'Montserrat-Bold';}
	.st3{font-size:7px;}
</style>
<rect x="20" y="91.55" class="st0" width="80" height="8.45"/>
<text transform="matrix(1 0 0 1 48.1699 98.373)" class="st1 st2 st3">Sports</text>
<g>
	<path class="st1" d="M27.52,49.07c-0.07-1.7-0.08-1.7,1.65-1.7c1.39,0,2.79,0.01,4.18-0.01c0.37-0.01,0.47,0.09,0.47,0.46
		c0.02,1.64,0.03,1.64-1.58,1.64h-1.57c-0.92,0-1.83-0.01-2.75,0.01C27.61,49.48,27.53,49.39,27.52,49.07z"/>
	<path class="st1" d="M27.52,53.17c0-1.61-0.01-1.61,1.62-1.61c3.81,0,7.63,0.01,11.45-0.01c0.46,0,0.58,0.1,0.57,0.57
		c-0.02,1.54,0,1.54-1.55,1.54h-5.3c-2.09,0-4.19-0.01-6.28,0.01C27.63,53.67,27.52,53.58,27.52,53.17z"/>
	<path class="st1" d="M33.8,37.4c0.02-1.55,0-1.55,1.54-1.55h3.73c1.57,0,3.14,0.01,4.72-0.01c0.37-0.01,0.52,0.05,0.52,0.48
		c0,1.62,0.02,1.62-1.61,1.62c-2.77,0-5.54-0.01-8.31,0.01C33.95,37.96,33.79,37.88,33.8,37.4z"/>
	<path class="st1" d="M40.09,33.16c0.03-1.5,0.01-1.5,1.52-1.5h4.78c1.93,0,3.85,0.01,5.76-0.01c0.42-0.01,0.54,0.1,0.54,0.53
		c-0.01,1.57,0.01,1.57-1.59,1.57c-3.47,0-6.94-0.01-10.41,0.01C40.21,33.77,40.08,33.66,40.09,33.16z"/>
	<path class="st1" d="M92.02,68.03c-2.01-6.96-9.26-10.77-16.17-8.46c-0.47,0.16-0.61,0.13-0.7-0.4c-0.18-1.08-0.34-2.15-0.4-3.24
		c-0.02-0.41-0.23-0.93,0.01-1.2c0.17-0.19,0.72-0.03,1.11-0.03c1.48,0,2.69-0.95,2.96-2.35c0.27-1.39-0.48-2.73-1.87-3.29
		c-0.56-0.23-1.13-0.44-1.7-0.65c-1.46-0.55-2.93-1.1-4.38-1.65c-0.16-0.06-0.38-0.04-0.38-0.28c-0.01-0.25,0.22-0.15,0.34-0.2
		c0.49-0.23,0.71-0.59,0.7-1.14c-0.01-1.42,0-2.84,0-4.29c1.06,0.3,2.09,0.38,3.08-0.13c1.3-0.68,2.11-1.71,2.15-3.23
		c0.01-0.28,0.05-0.53,0.23-0.73c0.21-0.23,0.37,0.07,0.55,0.11c0.64,0.14,1.26-0.27,1.31-0.94c0.03-0.33,0.01-0.65,0.01-0.98
		c-0.01-4.39-3.31-7.6-7.72-7.49c-1.86,0.05-3.29,1.92-2.6,3.64c0.35,0.88,0.16,1.44-0.35,2.06c-0.23,0.29-0.42,0.61-0.61,0.93
		c-0.16,0.27-0.31,0.33-0.62,0.2c-0.74-0.33-1.52-0.52-2.34-0.55c-3.04-0.08-5.98,0.48-8.78,1.66c-3.18,1.33-5.96,3.35-8.68,5.4
		c-1.98,1.49-2.86,3.67-2.88,6.17c-0.01,2.47,0.64,4.78,1.89,6.9c0.85,1.44,1.73,2.87,2.63,4.28c0.2,0.31,0.21,0.51-0.05,0.79
		c-0.46,0.52-0.9,1.07-1.31,1.63c-0.25,0.36-0.42,0.4-0.81,0.16c-2.69-1.65-5.61-2.22-8.71-1.67c-7.06,1.23-11.64,7.98-10.12,15
		c1,4.67,3.87,7.86,8.41,9.34c4.48,1.46,8.61,0.55,12.19-2.52c2.39-2.06,3.75-4.7,4.16-7.83c0.03-0.25-0.02-0.58,0.44-0.56
		c0.52,0.03,0.31,0.39,0.33,0.62c0.14,1.56,0.25,3.13,0.39,4.69c0.05,0.61,0.4,0.98,1.01,0.98c2.47,0.01,4.93,0.01,7.4,0
		c0.56,0,0.96-0.32,1-0.85c0.18-2.06-0.12-4.12-2.76-5.19c-0.3-0.12-0.37-0.27-0.36-0.57c0.02-0.72,0.03-1.44,0-2.16
		c-0.02-0.37,0.13-0.58,0.41-0.8c4.03-3.12,8.06-6.26,12.09-9.39c0.16-0.12,0.29-0.33,0.49-0.29c0.53,0.9,0.1,1.34-0.61,1.89
		c-3.88,3.03-5.57,7.05-4.85,11.91c1.03,7.05,7.61,11.65,14.68,10.44C89.41,82.53,94.05,75.08,92.02,68.03z M75.14,66
		c0.98,2.06,2.17,3.96,3.6,5.72c0.27,0.34,0.44,0.46,0.78,0.1c0.36-0.38,1-0.66,1.08-1.07c0.06-0.33-0.53-0.78-0.83-1.18
		c-1.03-1.35-1.89-2.81-2.63-4.34c-0.19-0.38-0.1-0.49,0.26-0.64c4.06-1.6,8.89,1.05,9.73,5.35c0.77,4.04-1.7,7.89-5.6,8.7
		c-4.02,0.85-7.79-1.57-8.76-5.6C72.17,70.51,73.2,67.41,75.14,66z M74.94,36.06c-0.18,0.38-0.27,0.76-0.27,1.18
		c0.01,1.15-0.99,1.94-2.1,1.69c-1.02-0.23-1.72-0.85-2.18-1.78c-0.03-0.06-0.06-0.11-0.11-0.21c0.1-0.06,0.21-0.12,0.32-0.17
		c1.18-0.44,2.31-0.99,3.38-1.64c0.51-0.31,0.78,0.12,1.09,0.32C75.35,35.63,75.03,35.87,74.94,36.06z M70.51,30.21
		c0.07-0.38,0.33-0.59,0.72-0.65c2.36-0.34,5.18,1.89,5.39,4.31c-1.31-0.74-2.55-1.58-3.93-2.15c-0.56-0.23-1.13-0.44-1.69-0.67
		C70.64,30.9,70.44,30.6,70.51,30.21z M70.11,34.12c0.68-1.01,0.81-1.03,1.9-0.3c-0.74,0.38-1.45,0.75-2.37,1.03
		C69.85,34.51,69.98,34.32,70.11,34.12z M48.4,42.52c3.64-2.58,7.17-5.35,11.7-6.23c1.6-0.31,3.22-0.61,4.86-0.34
		c2.57,0.42,4.33,2.37,4.46,4.96c0.05,0.98,0,1.96,0.03,2.94c0.01,0.33-0.12,0.39-0.42,0.39c-1.22-0.01-2.45-0.02-3.66,0
		c-0.33,0.01-0.45-0.12-0.54-0.42c-0.17-0.61-0.39-1.2-0.6-1.79c-0.31-0.88-0.7-1.08-1.59-0.85c-3.07,0.81-5.66,2.41-7.87,4.68
		c-0.36,0.38-0.72,1-1.13,1.03c-0.39,0.03-0.84-0.53-1.25-0.85c-1.4-1.08-2.78-2.17-4.25-3.31C48.26,42.62,48.33,42.56,48.4,42.52z
		 M60.81,49.25c-1.23-0.86-2.4-1.8-3.63-2.71c1.46-1.35,3.1-2.3,4.91-2.99c0.37-0.14,0.44,0.03,0.52,0.29
		c0.16,0.47,0.31,0.95,0.46,1.42c0.16,0.49,0.36,0.94,0.94,1.05c0.33,0.05,0.18,0.3,0.18,0.46c0.01,1.16,0.01,2.31,0.01,3.47
		c0.01,0.85,0.17,1.09,1,1.37c2.3,0.77,4.61,1.54,6.91,2.3c0.14,0.05,0.35,0.07,0.41,0.17c0.08,0.13,0.08,0.34,0.05,0.5
		c-0.05,0.2-0.25,0.11-0.38,0.11c-3.05,0.01-6.1,0.01-9.23,0.01C63.55,52.33,62.73,50.59,60.81,49.25z M56.97,52.67
		c0.55-0.61,1.06-1.27,1.59-1.91c0.1-0.12,0.2-0.37,0.4-0.21c0.75,0.6,1.69,1.02,1.98,2.08c0.15,0.56,0.09,1.07-0.11,1.59
		c-0.14,0.34-0.32,0.53-0.73,0.49c-0.38-0.04-0.78-0.01-1.18-0.01h-0.46c-1.21,0-1.2-0.01-1.65-1.16
		C56.69,53.19,56.71,52.95,56.97,52.67z M55.78,50.78c-0.25-0.65-0.46-1.22-0.7-1.78c-0.2-0.44,0.18-0.57,0.36-0.79
		c0.26-0.33,0.42,0.02,0.57,0.12c0.38,0.25,0.72,0.53,1.11,0.83C56.69,49.69,56.27,50.2,55.78,50.78z M46.55,48.83
		c-0.21-1.46-0.29-2.9,0.42-4.32c1.91,1.48,3.76,2.93,5.61,4.37c0.18,0.14,0.29,0.3,0.37,0.51c0.47,1.26,0.94,2.52,1.46,3.76
		c0.15,0.36,0.03,0.49-0.26,0.64c-1.31,0.68-2.69,1.19-4.14,1.52c-0.21,0.05-0.41,0.11-0.57-0.14
		C48.21,53.18,46.9,51.23,46.55,48.83z M47.25,64.24c0.34-0.39,0.45,0.07,0.57,0.21c1.41,1.52,2.25,3.34,2.62,5.37
		c0.06,0.38,0.1,0.74-0.48,0.58c-0.42,0.1-0.52-0.11-0.58-0.48c-0.27-1.81-1.03-3.41-2.28-4.74C46.66,64.71,47.02,64.51,47.25,64.24
		z M47.29,70.12c0.05,0.23-0.04,0.3-0.27,0.3c-1.54-0.01-3.08-0.01-4.67-0.01c0.07-0.12,0.09-0.18,0.12-0.22
		c0.98-1.22,1.95-2.44,2.95-3.7C46.44,67.53,46.99,68.76,47.29,70.12z M39.14,71.9c0.25,0.55,0.72,0.62,1.25,0.62
		c2.14-0.01,4.27,0.01,6.41-0.01c0.43-0.01,0.55,0.06,0.44,0.53c-0.84,3.58-3.99,5.97-7.67,5.76c-3.47-0.2-6.4-3.02-6.79-6.55
		c-0.03-0.26,0-0.53,0-0.79c-0.01-5.37,5.6-8.91,10.44-6.61c0.44,0.21,0.57,0.35,0.19,0.8c-1.35,1.63-2.64,3.3-3.97,4.94
		C39.12,70.99,38.92,71.39,39.14,71.9z M50.42,73.16c-0.81,5.01-5.22,8.76-10.28,8.78c-5.08,0.01-9.54-3.72-10.37-8.68
		c-1-5.97,3.14-11.47,9.12-12.17c2.28-0.27,4.4,0.2,6.4,1.32c0.16,0.09,0.59,0.12,0.32,0.45c-0.2,0.24-0.25,0.76-0.86,0.43
		c-4.11-2.25-8.8-1.41-11.83,2.09c-1.51,1.74-2.22,3.81-2.24,5.17c0,5.8,3.82,9.96,8.6,10.32c4.96,0.38,9.41-3.07,10.1-7.87
		c0.09-0.63,0.47-0.51,0.84-0.49C50.72,72.56,50.45,72.96,50.42,73.16z M52.88,70.41c-0.38,0.01-0.28-0.34-0.31-0.54
		c-0.26-2.09-1.02-3.99-2.24-5.71c-0.39-0.55-0.83-1.07-1.31-1.54c-0.13-0.13-0.32-0.23-0.12-0.47c0.44-0.53,0.87-1.07,1.33-1.65
		c0.79,1.28,1.55,2.5,2.3,3.73c0.1,0.15,0.15,0.3,0.16,0.48c0.12,1.72,0.27,3.44,0.38,5.15C53.08,70.04,53.32,70.39,52.88,70.41z
		 M61.01,76.32c0.06,0.29,0.01,0.38-0.3,0.38c-1.53-0.01-3.06-0.02-4.58,0c-0.39,0.01-0.42-0.2-0.44-0.48
		c-0.18-2.39-0.36-4.78-0.54-7.16c-0.12-1.65-0.27-3.3-0.38-4.96c-0.02-0.34-0.2-0.61-0.36-0.88c-1.2-1.95-2.39-3.89-3.62-5.88
		c1.51-0.4,2.93-0.92,4.27-1.63c0.21-0.11,0.29-0.09,0.38,0.14c0.8,2.11,1.62,4.21,2.42,6.32c0.07,0.2,0.05,0.43,0.05,0.64v10.47
		c0,0.94,0.25,1.21,1.2,1.33C60.09,74.74,60.83,75.41,61.01,76.32z M60.01,66.85c0-1.07-0.05-2.02,0.01-2.97
		c0.09-1.42-0.11-2.77-0.77-4.04c-0.21-0.41-0.14-0.69,0.21-1.01c0.7-0.64,1.26-1.61,2.08-1.95c0.82-0.34,1.89-0.1,2.84-0.1h8.29
		c0.02,0.06,0.04,0.12,0.06,0.18C68.52,60.24,64.31,63.51,60.01,66.85z M66.92,49.97c-0.49-0.16-0.7-0.39-0.63-0.92
		c0.05-0.34,0.01-0.7,0.01-1.05v-0.07c0-1.71,0-1.7,1.72-1.63c0.33,0.01,0.38,0.12,0.39,0.42c0.04,1.41,0.05,1.41,1.36,1.9
		c2.11,0.79,4.22,1.58,6.32,2.38c0.7,0.27,0.9,0.84,0.49,1.31c-0.21,0.25-0.51,0.31-0.83,0.29c-0.79-0.06-1.54-0.22-2.29-0.47
		C71.28,51.4,69.11,50.67,66.92,49.97z M81.68,81.79c-5.83,1.07-11.55-3.25-12.13-9.17c-0.38-3.89,1.26-7.57,4.35-9.67
		c0.42,0.64,0.25,1.03-0.28,1.54c-2.8,2.63-3.77,5.9-2.66,9.58c1.11,3.68,3.7,5.93,7.53,6.56c5.09,0.83,9.88-2.67,10.7-7.77
		c0.81-5.07-2.69-9.9-7.77-10.71c-1.63-0.26-3.21-0.1-4.76,0.44c-0.25,0.09-0.53,0.36-0.66-0.15c-0.1-0.36-0.25-0.61,0.3-0.82
		c5.67-2.11,12.11,1.19,13.7,7.05C91.63,74.68,87.84,80.65,81.68,81.79z"/>
	<path class="st1" d="M92.02,68.03c-2.01-6.96-9.26-10.77-16.17-8.46c-0.47,0.16-0.61,0.13-0.7-0.4c-0.18-1.08-0.34-2.15-0.4-3.24
		c-0.02-0.41-0.23-0.93,0.01-1.2c0.17-0.19,0.72-0.03,1.11-0.03c1.48,0,2.69-0.95,2.96-2.35c0.27-1.39-0.48-2.73-1.87-3.29
		c-0.56-0.23-1.13-0.44-1.7-0.65c-1.46-0.55-2.93-1.1-4.38-1.65c-0.16-0.06-0.38-0.04-0.38-0.28c-0.01-0.25,0.22-0.15,0.34-0.2
		c0.49-0.23,0.71-0.59,0.7-1.14c-0.01-1.42,0-2.84,0-4.29c1.06,0.3,2.09,0.38,3.08-0.13c1.3-0.68,2.11-1.71,2.15-3.23
		c0.01-0.28,0.05-0.53,0.23-0.73c0.21-0.23,0.37,0.07,0.55,0.11c0.64,0.14,1.26-0.27,1.31-0.94c0.03-0.33,0.01-0.65,0.01-0.98
		c-0.01-4.39-3.31-7.6-7.72-7.49c-1.86,0.05-3.29,1.92-2.6,3.64c0.35,0.88,0.16,1.44-0.35,2.06c-0.23,0.29-0.42,0.61-0.61,0.93
		c-0.16,0.27-0.31,0.33-0.62,0.2c-0.74-0.33-1.52-0.52-2.34-0.55c-3.04-0.08-5.98,0.48-8.78,1.66c-3.18,1.33-5.96,3.35-8.68,5.4
		c-1.98,1.49-2.86,3.67-2.88,6.17c-0.01,2.47,0.64,4.78,1.89,6.9c0.85,1.44,1.73,2.87,2.63,4.28c0.2,0.31,0.21,0.51-0.05,0.79
		c-0.46,0.52-0.9,1.07-1.31,1.63c-0.25,0.36-0.42,0.4-0.81,0.16c-2.69-1.65-5.61-2.22-8.71-1.67c-7.06,1.23-11.64,7.98-10.12,15
		c1,4.67,3.87,7.86,8.41,9.34c4.48,1.46,8.61,0.55,12.19-2.52c2.39-2.06,3.75-4.7,4.16-7.83c0.03-0.25-0.02-0.58,0.44-0.56
		c0.52,0.03,0.31,0.39,0.33,0.62c0.14,1.56,0.25,3.13,0.39,4.69c0.05,0.61,0.4,0.98,1.01,0.98c2.47,0.01,4.93,0.01,7.4,0
		c0.56,0,0.96-0.32,1-0.85c0.18-2.06-0.12-4.12-2.76-5.19c-0.3-0.12-0.37-0.27-0.36-0.57c0.02-0.72,0.03-1.44,0-2.16
		c-0.02-0.37,0.13-0.58,0.41-0.8c4.03-3.12,8.06-6.26,12.09-9.39c0.16-0.12,0.29-0.33,0.49-0.29c0.53,0.9,0.1,1.34-0.61,1.89
		c-3.88,3.03-5.57,7.05-4.85,11.91c1.03,7.05,7.61,11.65,14.68,10.44C89.41,82.53,94.05,75.08,92.02,68.03z M75.14,66
		c0.98,2.06,2.17,3.96,3.6,5.72c0.27,0.34,0.44,0.46,0.78,0.1c0.36-0.38,1-0.66,1.08-1.07c0.06-0.33-0.53-0.78-0.83-1.18
		c-1.03-1.35-1.89-2.81-2.63-4.34c-0.19-0.38-0.1-0.49,0.26-0.64c4.06-1.6,8.89,1.05,9.73,5.35c0.77,4.04-1.7,7.89-5.6,8.7
		c-4.02,0.85-7.79-1.57-8.76-5.6C72.17,70.51,73.2,67.41,75.14,66z M74.94,36.06c-0.18,0.38-0.27,0.76-0.27,1.18
		c0.01,1.15-0.99,1.94-2.1,1.69c-1.02-0.23-1.72-0.85-2.18-1.78c-0.03-0.06-0.06-0.11-0.11-0.21c0.1-0.06,0.21-0.12,0.32-0.17
		c1.18-0.44,2.31-0.99,3.38-1.64c0.51-0.31,0.78,0.12,1.09,0.32C75.35,35.63,75.03,35.87,74.94,36.06z M70.51,30.21
		c0.07-0.38,0.33-0.59,0.72-0.65c2.36-0.34,5.18,1.89,5.39,4.31c-1.31-0.74-2.55-1.58-3.93-2.15c-0.56-0.23-1.13-0.44-1.69-0.67
		C70.64,30.9,70.44,30.6,70.51,30.21z M70.11,34.12c0.68-1.01,0.81-1.03,1.9-0.3c-0.74,0.38-1.45,0.75-2.37,1.03
		C69.85,34.51,69.98,34.32,70.11,34.12z M48.4,42.52c3.64-2.58,7.17-5.35,11.7-6.23c1.6-0.31,3.22-0.61,4.86-0.34
		c2.57,0.42,4.33,2.37,4.46,4.96c0.05,0.98,0,1.96,0.03,2.94c0.01,0.33-0.12,0.39-0.42,0.39c-1.22-0.01-2.45-0.02-3.66,0
		c-0.33,0.01-0.45-0.12-0.54-0.42c-0.17-0.61-0.39-1.2-0.6-1.79c-0.31-0.88-0.7-1.08-1.59-0.85c-3.07,0.81-5.66,2.41-7.87,4.68
		c-0.36,0.38-0.72,1-1.13,1.03c-0.39,0.03-0.84-0.53-1.25-0.85c-1.4-1.08-2.78-2.17-4.25-3.31C48.26,42.62,48.33,42.56,48.4,42.52z
		 M60.81,49.25c-1.23-0.86-2.4-1.8-3.63-2.71c1.46-1.35,3.1-2.3,4.91-2.99c0.37-0.14,0.44,0.03,0.52,0.29
		c0.16,0.47,0.31,0.95,0.46,1.42c0.16,0.49,0.36,0.94,0.94,1.05c0.33,0.05,0.18,0.3,0.18,0.46c0.01,1.16,0.01,2.31,0.01,3.47
		c0.01,0.85,0.17,1.09,1,1.37c2.3,0.77,4.61,1.54,6.91,2.3c0.14,0.05,0.35,0.07,0.41,0.17c0.08,0.13,0.08,0.34,0.05,0.5
		c-0.05,0.2-0.25,0.11-0.38,0.11c-3.05,0.01-6.1,0.01-9.23,0.01C63.55,52.33,62.73,50.59,60.81,49.25z M56.97,52.67
		c0.55-0.61,1.06-1.27,1.59-1.91c0.1-0.12,0.2-0.37,0.4-0.21c0.75,0.6,1.69,1.02,1.98,2.08c0.15,0.56,0.09,1.07-0.11,1.59
		c-0.14,0.34-0.32,0.53-0.73,0.49c-0.38-0.04-0.78-0.01-1.18-0.01h-0.46c-1.21,0-1.2-0.01-1.65-1.16
		C56.69,53.19,56.71,52.95,56.97,52.67z M55.78,50.78c-0.25-0.65-0.46-1.22-0.7-1.78c-0.2-0.44,0.18-0.57,0.36-0.79
		c0.26-0.33,0.42,0.02,0.57,0.12c0.38,0.25,0.72,0.53,1.11,0.83C56.69,49.69,56.27,50.2,55.78,50.78z M46.55,48.83
		c-0.21-1.46-0.29-2.9,0.42-4.32c1.91,1.48,3.76,2.93,5.61,4.37c0.18,0.14,0.29,0.3,0.37,0.51c0.47,1.26,0.94,2.52,1.46,3.76
		c0.15,0.36,0.03,0.49-0.26,0.64c-1.31,0.68-2.69,1.19-4.14,1.52c-0.21,0.05-0.41,0.11-0.57-0.14
		C48.21,53.18,46.9,51.23,46.55,48.83z M47.25,64.24c0.34-0.39,0.45,0.07,0.57,0.21c1.41,1.52,2.25,3.34,2.62,5.37
		c0.06,0.38,0.1,0.74-0.48,0.58c-0.42,0.1-0.52-0.11-0.58-0.48c-0.27-1.81-1.03-3.41-2.28-4.74C46.66,64.71,47.02,64.51,47.25,64.24
		z M47.29,70.12c0.05,0.23-0.04,0.3-0.27,0.3c-1.54-0.01-3.08-0.01-4.67-0.01c0.07-0.12,0.09-0.18,0.12-0.22
		c0.98-1.22,1.95-2.44,2.95-3.7C46.44,67.53,46.99,68.76,47.29,70.12z M39.14,71.9c0.25,0.55,0.72,0.62,1.25,0.62
		c2.14-0.01,4.27,0.01,6.41-0.01c0.43-0.01,0.55,0.06,0.44,0.53c-0.84,3.58-3.99,5.97-7.67,5.76c-3.47-0.2-6.4-3.02-6.79-6.55
		c-0.03-0.26,0-0.53,0-0.79c-0.01-5.37,5.6-8.91,10.44-6.61c0.44,0.21,0.57,0.35,0.19,0.8c-1.35,1.63-2.64,3.3-3.97,4.94
		C39.12,70.99,38.92,71.39,39.14,71.9z M50.42,73.16c-0.81,5.01-5.22,8.76-10.28,8.78c-5.08,0.01-9.54-3.72-10.37-8.68
		c-1-5.97,3.14-11.47,9.12-12.17c2.28-0.27,4.4,0.2,6.4,1.32c0.16,0.09,0.59,0.12,0.32,0.45c-0.2,0.24-0.25,0.76-0.86,0.43
		c-4.11-2.25-8.8-1.41-11.83,2.09c-1.51,1.74-2.22,3.81-2.24,5.17c0,5.8,3.82,9.96,8.6,10.32c4.96,0.38,9.41-3.07,10.1-7.87
		c0.09-0.63,0.47-0.51,0.84-0.49C50.72,72.56,50.45,72.96,50.42,73.16z M52.88,70.41c-0.38,0.01-0.28-0.34-0.31-0.54
		c-0.26-2.09-1.02-3.99-2.24-5.71c-0.39-0.55-0.83-1.07-1.31-1.54c-0.13-0.13-0.32-0.23-0.12-0.47c0.44-0.53,0.87-1.07,1.33-1.65
		c0.79,1.28,1.55,2.5,2.3,3.73c0.1,0.15,0.15,0.3,0.16,0.48c0.12,1.72,0.27,3.44,0.38,5.15C53.08,70.04,53.32,70.39,52.88,70.41z
		 M61.01,76.32c0.06,0.29,0.01,0.38-0.3,0.38c-1.53-0.01-3.06-0.02-4.58,0c-0.39,0.01-0.42-0.2-0.44-0.48
		c-0.18-2.39-0.36-4.78-0.54-7.16c-0.12-1.65-0.27-3.3-0.38-4.96c-0.02-0.34-0.2-0.61-0.36-0.88c-1.2-1.95-2.39-3.89-3.62-5.88
		c1.51-0.4,2.93-0.92,4.27-1.63c0.21-0.11,0.29-0.09,0.38,0.14c0.8,2.11,1.62,4.21,2.42,6.32c0.07,0.2,0.05,0.43,0.05,0.64v10.47
		c0,0.94,0.25,1.21,1.2,1.33C60.09,74.74,60.83,75.41,61.01,76.32z M60.01,66.85c0-1.07-0.05-2.02,0.01-2.97
		c0.09-1.42-0.11-2.77-0.77-4.04c-0.21-0.41-0.14-0.69,0.21-1.01c0.7-0.64,1.26-1.61,2.08-1.95c0.82-0.34,1.89-0.1,2.84-0.1h8.29
		c0.02,0.06,0.04,0.12,0.06,0.18C68.52,60.24,64.31,63.51,60.01,66.85z M66.92,49.97c-0.49-0.16-0.7-0.39-0.63-0.92
		c0.05-0.34,0.01-0.7,0.01-1.05v-0.07c0-1.71,0-1.7,1.72-1.63c0.33,0.01,0.38,0.12,0.39,0.42c0.04,1.41,0.05,1.41,1.36,1.9
		c2.11,0.79,4.22,1.58,6.32,2.38c0.7,0.27,0.9,0.84,0.49,1.31c-0.21,0.25-0.51,0.31-0.83,0.29c-0.79-0.06-1.54-0.22-2.29-0.47
		C71.28,51.4,69.11,50.67,66.92,49.97z M81.68,81.79c-5.83,1.07-11.55-3.25-12.13-9.17c-0.38-3.89,1.26-7.57,4.35-9.67
		c0.42,0.64,0.25,1.03-0.28,1.54c-2.8,2.63-3.77,5.9-2.66,9.58c1.11,3.68,3.7,5.93,7.53,6.56c5.09,0.83,9.88-2.67,10.7-7.77
		c0.81-5.07-2.69-9.9-7.77-10.71c-1.63-0.26-3.21-0.1-4.76,0.44c-0.25,0.09-0.53,0.36-0.66-0.15c-0.1-0.36-0.25-0.61,0.3-0.82
		c5.67-2.11,12.11,1.19,13.7,7.05C91.63,74.68,87.84,80.65,81.68,81.79z"/>
	<path class="st1" d="M41.16,52.11c-0.02,1.54,0,1.54-1.55,1.54h-5.3c-2.09,0-4.19-0.01-6.28,0.01c-0.4,0.01-0.51-0.08-0.51-0.49
		c0-1.61-0.01-1.61,1.62-1.61c3.81,0,7.63,0.01,11.45-0.01C41.04,51.55,41.17,51.65,41.16,52.11z"/>
	<path class="st1" d="M52.69,32.18c-0.01,1.57,0.01,1.57-1.59,1.57c-3.47,0-6.94-0.01-10.41,0.01c-0.48,0-0.61-0.11-0.6-0.61
		c0.03-1.5,0.01-1.5,1.52-1.5h4.78c1.93,0,3.85,0.01,5.76-0.01C52.57,31.64,52.69,31.75,52.69,32.18z"/>
	<path class="st1" d="M44.31,36.32c0,1.62,0.02,1.62-1.61,1.62c-2.77,0-5.54-0.01-8.31,0.01c-0.44,0.01-0.59-0.07-0.59-0.55
		c0.02-1.55,0-1.55,1.54-1.55h3.73c1.57,0,3.14,0.01,4.72-0.01C44.16,35.83,44.31,35.89,44.31,36.32z"/>
	<path class="st1" d="M32.25,49.46h-1.57c-0.92,0-1.83-0.01-2.75,0.01c-0.32,0.01-0.4-0.08-0.4-0.4c-0.07-1.7-0.08-1.7,1.65-1.7
		c1.39,0,2.79,0.01,4.18-0.01c0.37-0.01,0.47,0.09,0.47,0.46C33.85,49.46,33.86,49.46,32.25,49.46z"/>
</g>
</svg>
