<?xml version="1.0" encoding="utf-8"?>
<!-- Generator: Adobe Illustrator 28.0.0, SVG Export Plug-In . SVG Version: 6.00 Build 0)  -->
<svg version="1.1" id="Layer_1" xmlns="http://www.w3.org/2000/svg" xmlns:xlink="http://www.w3.org/1999/xlink" x="0px" y="0px"
	 viewBox="0 0 120 120" style="enable-background:new 0 0 120 120;" xml:space="preserve">
<style type="text/css">
	.st0{fill:none;}
	.st1{fill:#FFFFFF;}
	.st2{font-family:'Montserrat-Bold';}
	.st3{font-size:7px;}
	.st4{fill:none;stroke:#FFFFFF;stroke-miterlimit:10;}
</style>
<rect x="20" y="91.55" class="st0" width="80" height="8.45"/>
<text transform="matrix(1 0 0 1 35.8506 98.373)" class="st1 st2 st3">Volunteering</text>
<g>
	<path class="st4" d="M36.96,29.74c-0.01-2.7,2.26-4.96,4.97-4.94c2.7,0.02,4.9,2.24,4.9,4.93c0,2.72-2.26,4.98-4.96,4.95
		C39.19,34.67,36.97,32.44,36.96,29.74z"/>
	<path class="st4" d="M48.25,67.09c-0.01,4.82-0.01,9.64-0.01,14.47c0,1.21-0.39,2.2-1.49,2.8c-0.96,0.53-1.95,0.51-2.88-0.06
		c-1.01-0.62-1.39-1.59-1.39-2.75c0.01-6.39,0-12.78,0-19.16c0-0.93-0.04-1.86,0.02-2.79c0.03-0.55-0.21-0.54-0.62-0.57
		c-0.48-0.02-0.58,0.12-0.58,0.59c0.02,7.3,0.01,14.59,0.01,21.89c0,1.61-0.75,2.68-2.11,3.09c-1.65,0.49-3.37-0.62-3.59-2.33
		c-0.04-0.35-0.07-0.71-0.07-1.08c0-12.92,0-25.84-0.01-38.76c0-0.39,0.22-1.03-0.48-1.03c-0.71,0-0.47,0.63-0.48,1.03
		c-0.01,5.49-0.01,10.99-0.01,16.49c0,1.01-0.25,1.88-1.18,2.44c-1.58,0.95-3.59-0.12-3.6-1.98c-0.02-3.24-0.01-6.47-0.01-9.71
		c0-2.52,0-5.03,0.01-7.55c0.01-3.41,2.43-5.88,5.84-5.91c4.14-0.02,8.29-0.01,12.43,0c1.72,0,3.19,0.63,4.23,1.77
		c-1.02,0.25-1.99,0.58-2.85,1.17c-2.22,1.52-3.37,3.65-3.39,6.31c-0.05,5.8-0.02,11.59-0.01,17.39c0.01,1.44,0.62,2.61,1.8,3.46
		C48.12,66.53,48.25,66.73,48.25,67.09z"/>
	<path class="st4" d="M55.09,33.29c-0.02-2.72,2.26-4.97,5.01-4.94c2.71,0.03,4.88,2.24,4.86,4.95c-0.02,2.7-2.14,4.91-4.96,4.91
		C57.3,38.21,55.11,35.96,55.09,33.29z"/>
	<path class="st4" d="M70.8,43.25c0.01,5.24,0.01,10.49,0.01,15.73c0,1.49-0.64,2.39-1.89,2.7c-0.45,0.11-0.72,0.12-0.71-0.52
		c0.02-5.14,0.02-10.28,0.01-15.42c-0.01-0.4,0.12-0.66,0.4-0.93c0.71-0.68,1.4-1.39,2.1-2.09C70.87,42.92,70.8,43.09,70.8,43.25z"
		/>
	<path class="st4" d="M66.88,43.83c-0.37,0.35-0.52,0.7-0.52,1.2c0.01,13.3,0.01,26.6,0.01,39.91c0,1.14-0.25,2.14-1.24,2.81
		c-0.91,0.62-1.9,0.7-2.88,0.22c-1.02-0.5-1.54-1.36-1.61-2.48c-0.04-0.59-0.01-1.18-0.01-1.77c0-6.85,0-13.71-0.01-20.56
		c0-0.18,0.15-0.48-0.15-0.53c-0.3-0.06-0.64-0.04-0.94,0.02c-0.17,0.04-0.08,0.3-0.08,0.46c-0.01,1.67-0.01,3.34-0.01,5.01
		c0,5.64,0.01,11.29,0,16.94c0,1.64-0.8,2.75-2.23,3.12c-1.53,0.4-3.21-0.68-3.45-2.25c-0.06-0.4-0.09-0.8-0.09-1.2
		c0-12.92,0-25.84-0.01-38.76c0-0.42,0.21-1.09-0.51-1.07c-0.67,0.02-0.43,0.67-0.43,1.06c-0.02,5.5-0.02,11-0.04,16.5
		c0,1.5-0.63,2.41-1.86,2.72c-1.4,0.35-2.84-0.68-2.91-2.13c-0.03-0.74-0.02-1.48-0.02-2.22c0-4.99,0.07-9.99-0.02-14.98
		c-0.06-3.55,2.67-6.2,6.13-6.1c3.23,0.08,6.47,0.02,9.7,0.04c0.35,0,0.59-0.09,0.83-0.34c1.34-1.35,2.68-2.7,4.04-4.03
		c0.22-0.22,0.34-0.45,0.42-0.76c0.71-3.03,1.47-6.05,2.16-9.09c0.25-1.11,0.83-1.9,1.89-2.31c0.01,0.25-0.19,0.32-0.35,0.4
		c-0.73,0.38-1.11,1.01-1.29,1.78c-0.6,2.58-1.29,5.13-1.83,7.72c-0.28,1.35-0.79,2.49-1.86,3.42c-0.96,0.83-1.83,1.76-2.7,2.68
		c-0.47,0.5-0.99,0.71-1.68,0.7c-3.21-0.02-6.43-0.02-9.64,0c-2.69,0.02-4.84,1.75-5.46,4.34c-0.08,0.34-0.11,0.66-0.11,1.01
		c0,5.77,0,11.55-0.01,17.32c0,0.71,0.17,1.32,0.72,1.82c1.27,1.14,3.14,0.59,3.55-1.06c0.14-0.56,0.17-1.12,0.17-1.7
		c-0.01-5.18-0.01-10.36,0-15.54c0-0.32-0.03-0.64,0.08-0.94c0.09-0.25,0.26-0.44,0.55-0.44c0.29-0.01,0.46,0.19,0.55,0.44
		c0.12,0.35,0.07,0.71,0.07,1.07c0.01,10.73,0.01,21.44,0.01,32.16c0,1.99,0,3.98-0.01,5.97c0,0.51,0.06,1.01,0.16,1.51
		c0.24,1.19,1.24,2.07,2.44,2.13c1.2,0.07,2.29-0.7,2.67-1.84c0.17-0.53,0.21-1.08,0.21-1.63V63.97c0-0.25-0.01-0.51,0.01-0.76
		c0.04-0.6,0.21-0.76,0.77-0.76c0.5,0,0.73,0.25,0.74,0.74c0,0.25,0.01,0.51,0.01,0.76v20.75c0,0.48,0.01,0.97,0.15,1.44
		c0.42,1.31,1.61,2.09,2.93,1.91c1.31-0.18,2.25-1.27,2.25-2.65c0.01-6.56,0-13.11,0-19.67c0-6.77,0.01-13.53-0.01-20.3
		c-0.01-0.75,0.21-1.32,0.75-1.85c1.82-1.77,3.59-3.59,5.39-5.37c0.55-0.54,0.9-1.16,1.08-1.9c0.76-3.23,1.56-6.46,2.32-9.69
		c0.34-1.44,0.04-2.16-1.22-3c-0.12-0.08-0.27-0.15-0.25-0.34c1.69,0.85,2.08,1.65,1.64,3.49c-0.79,3.29-1.6,6.58-2.39,9.87
		c-0.15,0.62-0.44,1.14-0.88,1.58C70.68,40.09,68.8,41.98,66.88,43.83z"/>
	<path class="st4" d="M76.07,33.78c0.6-2.45,1.16-4.91,1.75-7.36c0.09-0.4,0.1-0.8,0.05-1.19c-0.04-0.36,0.08-0.42,0.41-0.42
		c2.62-0.01,4.83,2.3,4.81,5.01c-0.04,3.45-3.54,5.78-6.74,4.51C76.05,34.21,75.99,34.11,76.07,33.78z"/>
	<path class="st4" d="M90.19,59.39c-0.01,1.18-0.87,2.15-2.02,2.32c-1.11,0.17-2.22-0.5-2.6-1.57c-0.14-0.42-0.17-0.86-0.17-1.31
		V42.58c0-0.15,0.01-0.3,0-0.45c-0.01-0.34,0.03-0.74-0.47-0.72c-0.48,0.02-0.44,0.43-0.44,0.76c-0.01,6.64-0.01,13.29-0.01,19.93
		c0,6.51,0.01,13.02,0,19.54c0,1.44-0.7,2.5-1.88,2.92c-1.85,0.65-3.8-0.68-3.82-2.65c-0.02-2.77-0.01-5.54-0.01-8.31
		c0-4.65-0.01-9.31,0.01-13.96c0.01-0.45-0.07-0.63-0.57-0.6c-0.42,0.03-0.66,0.02-0.66,0.59c0.02,7.26,0.02,14.51,0.02,21.77
		c0,0.77-0.09,1.51-0.56,2.16c-0.7,0.94-1.94,1.39-3.04,1.08c-1.22-0.34-2.03-1.34-2.15-2.68c-0.01-0.19-0.01-0.38-0.01-0.57
		c0-13.06,0-26.11-0.01-39.16c0-0.43,0.1-0.75,0.43-1.05c0.52-0.46,0.98-0.99,1.49-1.47c0.87-0.8,1.42-1.76,1.63-2.93
		c0.07-0.4,0.19-0.59,0.68-0.58c2.75,0.03,5.5,0.02,8.25,0.01c3.51-0.01,5.98,2.71,5.95,5.96C90.15,47.92,90.2,53.65,90.19,59.39z"
		/>
	<path class="st4" d="M75.84,26.77c-0.79,3.29-1.6,6.58-2.39,9.87c-0.15,0.62-0.44,1.14-0.88,1.58c-1.9,1.87-3.78,3.76-5.69,5.61
		c-0.37,0.35-0.52,0.7-0.52,1.2c0.01,13.3,0.01,26.6,0.01,39.91c0,1.14-0.25,2.14-1.24,2.81c-0.91,0.62-1.9,0.7-2.88,0.22
		c-1.02-0.5-1.54-1.36-1.61-2.48c-0.04-0.59-0.01-1.18-0.01-1.77c0-6.85,0-13.71-0.01-20.56c0-0.18,0.15-0.48-0.15-0.53
		c-0.3-0.06-0.64-0.04-0.94,0.02c-0.17,0.04-0.08,0.3-0.08,0.46c-0.01,1.67-0.01,3.34-0.01,5.01c0,5.64,0.01,11.29,0,16.94
		c0,1.64-0.8,2.75-2.23,3.12c-1.53,0.4-3.21-0.68-3.45-2.25c-0.06-0.4-0.09-0.8-0.09-1.2c0-12.92,0-25.84-0.01-38.76
		c0-0.42,0.21-1.09-0.51-1.07c-0.67,0.02-0.43,0.67-0.43,1.06c-0.02,5.5-0.02,11-0.04,16.5c0,1.5-0.63,2.41-1.86,2.72
		c-1.4,0.35-2.84-0.68-2.91-2.13c-0.03-0.74-0.02-1.48-0.02-2.22c0-4.99,0.07-9.99-0.02-14.98c-0.06-3.55,2.67-6.2,6.13-6.1
		c3.23,0.08,6.47,0.02,9.7,0.04c0.35,0,0.59-0.09,0.83-0.34c1.34-1.35,2.68-2.7,4.04-4.03c0.22-0.22,0.34-0.45,0.42-0.76
		c0.71-3.03,1.47-6.05,2.16-9.09c0.25-1.11,0.83-1.9,1.89-2.31h1.14C75.89,24.12,76.28,24.92,75.84,26.77z"/>
	<path class="st4" d="M90.19,59.39c-0.01,1.18-0.87,2.15-2.02,2.32c-1.11,0.17-2.22-0.5-2.6-1.57c-0.14-0.42-0.17-0.86-0.17-1.31
		V42.58c0-0.15,0.01-0.3,0-0.45c-0.01-0.34,0.03-0.74-0.47-0.72c-0.48,0.02-0.44,0.43-0.44,0.76c-0.01,6.64-0.01,13.29-0.01,19.93
		c0,6.51,0.01,13.02,0,19.54c0,1.44-0.7,2.5-1.88,2.92c-1.85,0.65-3.8-0.68-3.82-2.65c-0.02-2.77-0.01-5.54-0.01-8.31
		c0-4.65-0.01-9.31,0.01-13.96c0.01-0.45-0.07-0.63-0.57-0.6c-0.42,0.03-0.66,0.02-0.66,0.59c0.02,7.26,0.02,14.51,0.02,21.77
		c0,0.77-0.09,1.51-0.56,2.16c-0.7,0.94-1.94,1.39-3.04,1.08c-1.22-0.34-2.03-1.34-2.15-2.68c-0.01-0.19-0.01-0.38-0.01-0.57
		c0-13.06,0-26.11-0.01-39.16c0-0.43,0.1-0.75,0.43-1.05c0.52-0.46,0.98-0.99,1.49-1.47c0.87-0.8,1.42-1.76,1.63-2.93
		c0.07-0.4,0.19-0.59,0.68-0.58c2.75,0.03,5.5,0.02,8.25,0.01c3.51-0.01,5.98,2.71,5.95,5.96C90.15,47.92,90.2,53.65,90.19,59.39z"
		/>
	<path class="st4" d="M46.05,45.49c-0.05,5.8-0.02,11.59-0.01,17.39c0.01,1.44,0.62,2.61,1.8,3.46c0.29,0.21,0.42,0.4,0.42,0.76
		c-0.01,4.82-0.01,9.64-0.01,14.47c0,1.21-0.39,2.2-1.49,2.8c-0.96,0.53-1.95,0.51-2.88-0.06c-1.01-0.62-1.39-1.59-1.39-2.75
		c0.01-6.39,0-12.78,0-19.16c0-0.93-0.04-1.86,0.02-2.79c0.03-0.55-0.21-0.54-0.62-0.57c-0.48-0.02-0.58,0.12-0.58,0.59
		c0.02,7.3,0.01,14.59,0.01,21.89c0,1.61-0.75,2.68-2.11,3.09c-1.65,0.49-3.37-0.62-3.59-2.33c-0.04-0.35-0.07-0.71-0.07-1.08
		c0-12.92,0-25.84-0.01-38.76c0-0.39,0.22-1.03-0.48-1.03c-0.71,0-0.47,0.63-0.48,1.03c-0.01,5.49-0.01,10.99-0.01,16.49
		c0,1.01-0.25,1.88-1.18,2.44c-1.58,0.95-3.59-0.12-3.6-1.98c-0.02-3.24-0.01-6.47-0.01-9.71c0-2.52,0-5.03,0.01-7.55
		c0.01-3.41,2.43-5.88,5.84-5.91c4.14-0.02,8.29-0.01,12.43,0c1.72,0,3.19,0.63,4.23,1.77c-1.02,0.25-1.99,0.58-2.85,1.17
		C47.21,40.7,46.07,42.83,46.05,45.49z"/>
	<path class="st4" d="M46.83,29.74c0,2.72-2.26,4.98-4.96,4.95c-2.68-0.02-4.9-2.25-4.91-4.95c-0.01-2.7,2.26-4.96,4.97-4.94
		C44.63,24.82,46.83,27.04,46.83,29.74z"/>
	<path class="st4" d="M64.97,33.3c-0.02,2.7-2.14,4.91-4.96,4.91c-2.7,0-4.89-2.25-4.91-4.92c-0.02-2.72,2.26-4.97,5.01-4.94
		C62.82,28.38,64.99,30.59,64.97,33.3z"/>
	<path class="st4" d="M83.09,29.81c-0.04,3.45-3.54,5.78-6.74,4.51c-0.3-0.12-0.36-0.22-0.28-0.55c0.6-2.45,1.16-4.91,1.75-7.36
		c0.09-0.4,0.1-0.8,0.05-1.19c-0.04-0.36,0.08-0.42,0.41-0.42C80.9,24.8,83.11,27.1,83.09,29.81z"/>
	<path class="st4" d="M70.8,43.25c0.01,5.24,0.01,10.49,0.01,15.73c0,1.49-0.64,2.39-1.89,2.7c-0.45,0.11-0.72,0.12-0.71-0.52
		c0.02-5.14,0.02-10.28,0.01-15.42c-0.01-0.4,0.12-0.66,0.4-0.93c0.71-0.68,1.4-1.39,2.1-2.09C70.87,42.92,70.8,43.09,70.8,43.25z"
		/>
</g>
</svg>
