<?xml version="1.0" encoding="UTF-8"?>
<svg id="Layer_1" data-name="Layer 1" xmlns="http://www.w3.org/2000/svg" version="1.1" xmlns:xlink="http://www.w3.org/1999/xlink" viewBox="0 0 185 185">
  <defs>
    <style>
      .cls-1 {
        fill: url(#linear-gradient);
      }

      .cls-1, .cls-2 {
        stroke-width: 0px;
      }

      .cls-2 {
        fill: #000;
      }
    </style>
    <linearGradient id="linear-gradient" x1="0" y1="93.5" x2="185" y2="93.5" gradientTransform="translate(0 186) scale(1 -1)" gradientUnits="userSpaceOnUse">
      <stop offset="0" stop-color="#ffdb6e"/>
      <stop offset="1" stop-color="#ffbc5e"/>
    </linearGradient>
  </defs>
  <path class="cls-1" d="M0,92.5C0,41.4,41.4,0,92.5,0h42.5c27.6,0,50,22.4,50,50v42.5c0,51.1-41.4,92.5-92.5,92.5h0C41.4,185,0,143.6,0,92.5h0Z"/>
  <path class="cls-2" d="M48.4,48.9c8,0,15.9,0,23.9,0,4.1,0,8.1.4,12.1,1.1,5.3,1,9.3,4,12.9,7.9,3.7,4.1,4.7,8.9,4.7,14.2,0,3.1-.4,6.2-1.5,9.1-1.8,4.6-5.1,8-9.4,10.4-3.5,1.9-7.3,2.8-11.2,3.4-2.3.4-4.6.5-7,.4-.4,0-.5.1-.4.5.4,1,1,1.8,1.6,2.6,5.6,7.1,11,14.3,16.5,21.5.8,1.1,1.1,1,1.8-.1,6.1-10.6,12.3-21.2,18.4-31.8,7.4-12.8,14.8-25.7,22.2-38.5.4-.7.8-1,1.6-.9,2.3,0,4.5,0,6.8,0,.5,0,.6.1.5.6,0,.4-.2.7-.4,1-8.4,14.8-16.7,29.6-25.2,44.3-.3.6-.4,1.1,0,1.6.4.5.7.9,1.1,1.4,11.8,12.1,23.4,24.3,35,36.6.4.5.9.8,1.2,1.4.5.9,1.4.6,2.1.8.3,0,.4-.3.5-.5,4.9-7.2,8.4-15,10.7-23.4,2.1-7.6,2.9-15.3,2.6-23.2-.5-11.3-3.1-21.9-8.3-32-5.5-10.8-13.2-19.9-23-27.1-9.6-7.1-20.4-11.8-32.2-13.9-5.9-1.1-11.9-1.5-17.9-1.1-15.1,1-28.9,5.7-41.2,14.7-3.4,2.5-6.6,5.1-9.5,8.2-.8.8-1.6,1.6-2.5,2.4-1,.9-2.2,1.4-3.6,1.3-1.8-.1-3.5,0-5.3-.3-1.1-.2-1.1-.2-.5-1,7.8-9.9,17.2-17.8,28.5-23.6,8.3-4.2,17.1-6.8,26.3-8.4,5.4-.9,10.9-1,16.3-.6,7.4.5,14.7,1.7,21.7,4.1,20.7,7,36.4,19.9,47.3,38.8,4.2,7.3,7.2,15,8.9,23.3,1.6,7.7,2.5,15.5,1.9,23.4-1.2,15.9-6,30.6-15.4,43.7-1.6,2.2-3.4,4.3-5.2,6.3-.5.5-.7.5-1.2,0-12.8-13.2-25.5-26.3-38.3-39.4-1.3-1.4-2.7-2.7-4-4.1-.5-.5-.8-.4-1.2,0-.7.8-1.2,1.6-1.7,2.5-5.2,9.6-10.7,19-16.2,28.5,0,.1-.1.2-.2.4-.4.8-.9.8-1.4,0-1.8-2.3-3.6-4.6-5.4-6.9-10.2-13.2-20.4-26.4-30.8-39.4-.2-.2-.3-.4-.5-.6-.4-.3-.2-.7-.1-1.1.1-.4.5-.3.8-.3,4-.1,8,0,12,0,4.7,0,9.3,0,13.9-1.2,5.2-1.3,8.6-4.6,10.3-9.6,1.2-3.4.8-6.9-.6-10.3-2-4.8-5.7-7.4-10.8-8.2-4.1-.6-8.2-.7-12.2-.7-14.7,0-29.4,0-44.1,0-.7,0-1,.2-1.3.8-2.7,4.9-4.4,10.1-5.8,15.5-2.1,7.9-2.7,15.9-2.2,24,1.1,16.2,6.8,30.7,17,43.4,8.3,10.3,18.6,18,30.8,23,6,2.5,12.3,4.1,18.7,5,5.8.8,11.7,1,17.5.4,15.8-1.6,29.9-7.3,42.2-17.4,1.2-1,2.3-1.9,3.5-2.9.8-.7.8-.7,1.6,0,1.2,1.3,2.6,2.4,3.5,4,.3.5.3.7-.2,1.1-10.6,10-23,16.7-37.2,20.2-8.3,2-16.7,2.8-25.2,2.5-7.5-.3-14.6-2.1-21.7-4.3-10.1-3.1-19.1-8.4-27.2-15.1-11.9-9.8-20.6-22-25.8-36.5-2.2-6.2-3.7-12.6-4.4-19.1-.8-7.1-.7-14.2.3-21.2,1.5-11.1,5-21.6,11-31.2.3-.5.6-.7,1.3-.7,9.1,0,18.2,0,27.3,0,0,0,0,0,0,0Z"/>
</svg>