<?xml version="1.0" encoding="utf-8"?>
<!-- Generator: Adobe Illustrator 28.0.0, SVG Export Plug-In . SVG Version: 6.00 Build 0)  -->
<svg version="1.1" id="Layer_1" xmlns="http://www.w3.org/2000/svg" xmlns:xlink="http://www.w3.org/1999/xlink" x="0px" y="0px"
	 viewBox="0 0 120 120" style="enable-background:new 0 0 120 120;" xml:space="preserve">
<style type="text/css">
	.st0{fill:none;}
	.st1{fill:#FFFFFF;}
	.st2{font-family:'Montserrat-Bold';}
	.st3{font-size:7px;}
	.st4{fill:#3AA5CC;}
	.st5{fill:#80C5DE;}
	.st6{fill:#386980;}
</style>
<rect x="20" y="91.55" class="st0" width="80" height="8.45"/>
<text transform="matrix(1 0 0 1 31.5557 98.373)" class="st1 st2 st3">Autodesk Maya</text>
<g>
	<g>
		<g>
			<path class="st1" d="M39.25,23.28l0,0.03c-1.12,0.61-2.2,1.31-3.3,1.96c-2.14,1.28-4.28,2.58-6.42,3.86
				c-0.21,0.07-0.14,0.33-0.15,0.5c0,15.1,0,30.19,0,45.28c1.81-1.05,3.59-2.16,5.38-3.23c0,4.46,0,8.93,0,13.39
				c0.01,1.52,1.24,2.89,2.73,3.14c0.79,0.11,1.6,0.03,2.4,0.05c16.91,0,33.81,0.01,50.72-0.01c-0.01-18.28,0-36.55,0-54.83
				c-1.5,0-3,0-4.5,0c0-2.33,0.01-4.66,0-6.99c-0.03-1.6-1.41-3.07-3.02-3.14C68.48,23.28,53.87,23.31,39.25,23.28z"/>
		</g>
		<path class="st1" d="M49.63,33.49c2.65,0,5.3,0.01,7.95,0c1.7,6.77,3.41,13.54,5.09,20.31c0.59-2.03,1.08-4.08,1.64-6.12
			c1.25-4.73,2.5-9.46,3.75-14.19c2.56,0,5.12,0,7.68,0c0.01,8.44,0,16.88,0.01,25.32c-2,0.02-4,0.01-6,0
			c-0.01-5.32,0-10.63,0-15.95c-0.01-0.07-0.02-0.2-0.03-0.26c-1.43,5.4-2.8,10.82-4.22,16.22c-1.98-0.01-3.97,0-5.95,0
			c-1.17-4.41-2.33-8.82-3.49-13.23c-0.34-1.21-0.61-2.45-1-3.65c-0.03,5.63,0.01,11.26-0.02,16.89c-1.8,0-3.61,0.01-5.41-0.01
			C49.64,50.37,49.63,41.93,49.63,33.49z"/>
		<g>
			<path class="st1" d="M50.49,83.06c0.92-3.2,1.83-6.4,2.75-9.6c1.07-0.01,2.13,0,3.19,0c0.97,3.2,1.93,6.4,2.9,9.6
				c-0.82,0-1.63,0-2.45,0c-0.2-0.7-0.39-1.4-0.59-2.1c-0.95,0-1.91,0.01-2.86,0c-0.2,0.7-0.36,1.4-0.55,2.1
				C52.08,83.07,51.28,83.07,50.49,83.06z M54.83,75.06c-0.35,1.37-0.65,2.75-0.98,4.13c0.65,0,1.31-0.01,1.96,0
				C55.51,77.8,55.14,76.44,54.83,75.06z"/>
		</g>
		<path class="st1" d="M58.43,73.46c0.84,0,1.68,0,2.52,0c0.59,1.34,1.17,2.69,1.75,4.04c0.59-1.34,1.16-2.69,1.74-4.03
			c0.81-0.01,1.62,0,2.43,0c-0.97,1.85-1.93,3.71-2.91,5.56c-0.06,0.11-0.12,0.23-0.11,0.36c0,1.23,0,2.45,0,3.68
			c-0.8,0.01-1.6,0-2.4,0c-0.01-1.23,0-2.45,0-3.68c0-0.19-0.12-0.35-0.2-0.51C60.31,77.07,59.37,75.27,58.43,73.46z"/>
		<g>
			<path class="st1" d="M66.04,83.06c0.93-3.2,1.83-6.4,2.75-9.6c1.07,0,2.13,0,3.2,0c0.95,3.21,1.93,6.4,2.88,9.6
				c-0.81-0.01-1.63,0-2.44-0.01c-0.19-0.7-0.39-1.4-0.59-2.1c-0.96,0.01-1.92-0.01-2.88,0.01c-0.16,0.7-0.36,1.39-0.52,2.09
				C67.64,83.07,66.84,83.07,66.04,83.06z M69.4,79.18c0.66,0.01,1.32,0,1.97,0.01c-0.31-1.38-0.67-2.74-0.98-4.12
				C70.03,76.43,69.75,77.81,69.4,79.18z"/>
		</g>
	</g>
	<g>
		<g>
			<path class="st4" d="M39.25,23.28c14.61,0.03,29.22,0,43.83,0.02c1.61,0.07,2.99,1.54,3.02,3.14c0.01,2.33,0,4.66,0,6.99
				c0,11.84,0.01,23.68,0,35.52c-15.61,0.02-31.22,0-46.84,0.01c-0.03-15.22,0.01-30.44-0.02-45.65L39.25,23.28z M49.63,33.49
				c0,8.44,0.01,16.88-0.01,25.32c1.8,0.01,3.61,0,5.41,0.01c0.02-5.63-0.01-11.26,0.02-16.89c0.38,1.2,0.65,2.44,1,3.65
				c1.16,4.41,2.32,8.82,3.49,13.23c1.98,0,3.96,0,5.95,0c1.43-5.4,2.8-10.82,4.22-16.22c0.01,0.07,0.03,0.2,0.03,0.26
				c0,5.32,0,10.63,0,15.95c2,0,4,0.01,6,0c-0.01-8.44,0-16.88-0.01-25.32c-2.56,0-5.12,0-7.68,0c-1.25,4.73-2.5,9.46-3.75,14.19
				c-0.55,2.04-1.05,4.09-1.64,6.12c-1.68-6.77-3.39-13.54-5.09-20.31C54.93,33.5,52.28,33.5,49.63,33.49z"/>
		</g>
	</g>
	<g>
		<path class="st5" d="M35.95,25.27c1.1-0.65,2.18-1.36,3.3-1.96c0.03,15.22-0.01,30.44,0.02,45.65c-1.5,0.91-3.01,1.82-4.51,2.73
			c-1.8,1.07-3.58,2.17-5.38,3.23c0-15.09,0-30.19,0-45.28c0.01-0.17-0.06-0.42,0.15-0.5C31.67,27.85,33.81,26.55,35.95,25.27z"/>
	</g>
	<g>
		<g>
			<path class="st6" d="M86.12,33.43c1.5,0,3,0,4.5,0c0,18.28-0.01,36.56,0,54.83c-16.91,0.02-33.81,0-50.72,0.01
				c-0.8-0.02-1.61,0.06-2.4-0.05c-1.49-0.24-2.72-1.62-2.73-3.14c-0.01-4.46,0-8.93,0-13.39c1.5-0.91,3.01-1.82,4.51-2.73
				c15.61-0.01,31.22,0.01,46.84-0.01C86.12,57.11,86.12,45.27,86.12,33.43z M50.49,83.06c0.8,0.01,1.6,0.01,2.39,0
				c0.18-0.7,0.34-1.41,0.55-2.1c0.95,0.01,1.9,0,2.86,0c0.21,0.7,0.39,1.4,0.59,2.1c0.81,0,1.63,0,2.45,0
				c-0.97-3.2-1.93-6.4-2.9-9.6c-1.06,0-2.13,0-3.19,0C52.32,76.66,51.41,79.87,50.49,83.06z M58.43,73.46
				c0.94,1.8,1.89,3.61,2.84,5.41c0.08,0.16,0.2,0.32,0.2,0.51c0,1.23,0,2.45,0,3.68c0.8,0,1.6,0,2.4,0c0-1.23,0-2.45,0-3.68
				c-0.01-0.13,0.05-0.25,0.11-0.36c0.98-1.85,1.94-3.71,2.91-5.56c-0.81,0-1.62-0.01-2.43,0c-0.59,1.34-1.15,2.7-1.74,4.03
				c-0.59-1.35-1.16-2.69-1.75-4.04C60.11,73.46,59.27,73.46,58.43,73.46z M66.04,83.06c0.8,0.01,1.59,0.01,2.39,0
				c0.17-0.7,0.36-1.39,0.52-2.09c0.96-0.02,1.92,0,2.88-0.01c0.2,0.7,0.4,1.4,0.59,2.1c0.81,0.01,1.63,0,2.44,0.01
				c-0.95-3.2-1.93-6.4-2.88-9.6c-1.07-0.01-2.13,0-3.2,0C67.87,76.66,66.97,79.86,66.04,83.06z"/>
		</g>
		<path class="st6" d="M54.83,75.06c0.31,1.38,0.68,2.75,0.98,4.13c-0.65-0.01-1.31,0-1.96,0C54.18,77.81,54.49,76.43,54.83,75.06z"
			/>
		<path class="st6" d="M69.4,79.18c0.35-1.37,0.63-2.75,0.99-4.11c0.31,1.38,0.67,2.74,0.98,4.12
			C70.72,79.18,70.06,79.19,69.4,79.18z"/>
	</g>
</g>
</svg>
