<?xml version="1.0" encoding="utf-8"?>
<!-- Generator: Adobe Illustrator 28.0.0, SVG Export Plug-In . SVG Version: 6.00 Build 0)  -->
<svg version="1.1" id="Layer_1" xmlns="http://www.w3.org/2000/svg" xmlns:xlink="http://www.w3.org/1999/xlink" x="0px" y="0px"
	 viewBox="0 0 120 120" style="enable-background:new 0 0 120 120;" xml:space="preserve">
<style type="text/css">
	.st0{fill:none;}
	.st1{fill:#FFFFFF;}
	.st2{font-family:'Montserrat-Bold';}
	.st3{font-size:7px;}
	.st4{fill:#3AA5CC;}
	.st5{fill:#80C5DE;}
	.st6{fill:#386980;}
</style>
<rect x="20" y="91.55" class="st0" width="80" height="8.45"/>
<text transform="matrix(1 0 0 1 26.3828 98.373)" class="st1 st2 st3">Autodesk 3ds Max</text>
<g>
	<g>
		<g>
			<path class="st1" d="M39.26,23.28l0,0.05c-0.59,0.27-1.12,0.65-1.68,0.97c-2.74,1.63-5.46,3.31-8.2,4.93
				c0,15.24-0.01,30.48,0,45.72c1.8-1.06,3.58-2.16,5.38-3.23c0.02,4.44,0,8.89,0.01,13.33c0,1.75,1.59,3.29,3.34,3.23
				c17.5,0,35.01,0.01,52.51-0.01c-0.01-18.28,0.02-36.56-0.01-54.83c-1.5,0-3,0-4.5,0c0-2.35,0.01-4.7-0.01-7.06
				c-0.05-1.67-1.57-3.12-3.24-3.1C68.33,23.27,53.8,23.28,39.26,23.28z"/>
		</g>
		<path class="st1" d="M55.92,34.72c2.39-1.65,5.45-2.01,8.27-1.66c2.41,0.32,4.94,1.39,6.23,3.56c0.79,1.28,0.74,2.83,0.69,4.28
			c-0.08,1.08-0.69,2.05-1.49,2.76c-0.83,0.76-1.87,1.23-2.94,1.53c1.98,0.41,4.03,1.45,4.95,3.35c0.63,1.22,0.42,2.62,0.45,3.94
			c0.01,1.95-1.13,3.74-2.67,4.88c-2.03,1.5-4.61,2.07-7.1,2.04c-2.26-0.01-4.6-0.41-6.52-1.68c-1.92-1.26-3.17-3.48-3.29-5.77
			c1.96,0.01,3.91,0,5.87,0c0.14,1.11,0.81,2.17,1.86,2.61c1.15,0.47,2.49,0.49,3.65,0.08c1.01-0.34,1.75-1.29,1.87-2.34
			c0.15-1.28,0.18-2.88-0.97-3.74c-1.56-1.19-3.62-0.9-5.45-0.95c-0.1-1.4-0.04-2.81-0.05-4.22c1.48-0.09,3.09,0.22,4.45-0.56
			c0.76-0.39,1.18-1.24,1.17-2.08c0-0.83,0.08-1.75-0.45-2.44c-0.61-0.79-1.67-1.01-2.62-0.97c-1-0.02-2.06,0.41-2.62,1.27
			c-0.34,0.48-0.45,1.07-0.57,1.64c-1.97,0-3.93,0.01-5.9,0C52.85,38.04,54.09,35.95,55.92,34.72z"/>
		<path class="st1" d="M48.48,73.48c1,0.03,2.03-0.07,3.01,0.05c0.67,2.54,1.28,5.09,1.93,7.64c0.7-2.56,1.36-5.12,2.04-7.68
			c0.97,0,1.94,0,2.91,0c0,3.2,0,6.39,0,9.59c-0.76,0-1.52,0-2.28,0c-0.02-2.04,0.03-4.09-0.03-6.14c-0.5,2.05-1.05,4.1-1.59,6.14
			c-0.74-0.01-1.48-0.01-2.23,0c-0.6-2.11-1.11-4.25-1.71-6.37c-0.03,2.12,0,4.24-0.01,6.36c-0.68,0-1.37,0-2.05,0
			C48.48,79.87,48.47,76.67,48.48,73.48z"/>
		<g>
			<path class="st1" d="M62.35,73.48c1.06,0,2.11,0,3.17,0c0.99,3.2,1.93,6.4,2.91,9.6c-0.82,0-1.63,0-2.45,0
				c-0.19-0.7-0.38-1.4-0.58-2.09c-0.96,0-1.92,0-2.88,0c-0.18,0.7-0.36,1.39-0.52,2.08c-0.79,0.01-1.59,0.01-2.38,0
				C60.51,79.87,61.42,76.67,62.35,73.48z M62.97,79.21c0.65-0.03,1.31-0.03,1.97,0c-0.33-1.38-0.66-2.76-1.01-4.14
				C63.61,76.45,63.27,77.82,62.97,79.21z"/>
		</g>
		<path class="st1" d="M69.43,73.48c0.86-0.01,1.72,0,2.58-0.01c0.59,1,1.09,2.06,1.66,3.07c0.58-1.02,1.09-2.08,1.7-3.08
			c0.83,0.03,1.66,0.01,2.48,0.02c-0.87,1.41-1.78,2.81-2.65,4.22c-0.11,0.16,0.1,0.33,0.15,0.49c0.94,1.62,1.87,3.25,2.8,4.88
			c-0.9,0-1.79,0-2.69,0c-0.64-1.19-1.18-2.43-1.88-3.58c-0.6,1.19-1.25,2.36-1.82,3.56c-0.89,0.04-1.77,0.01-2.66,0.01
			c0.94-1.56,1.87-3.14,2.82-4.7c0.07-0.16,0.27-0.35,0.11-0.52C71.17,76.39,70.28,74.94,69.43,73.48z"/>
	</g>
	<g>
		<g>
			<path class="st4" d="M39.26,23.28c14.53,0,29.07-0.01,43.6,0c1.67-0.02,3.19,1.43,3.24,3.1c0.02,2.35,0,4.7,0.01,7.06
				c0,9.4,0,18.81,0,28.21c-0.02,2.45,0.05,4.9-0.04,7.34c-15.6,0-31.2-0.02-46.8,0.01c-0.03-15.22,0.01-30.44-0.02-45.67
				L39.26,23.28z M55.92,34.72c-1.83,1.23-3.07,3.33-3.16,5.54c1.97,0.01,3.93,0,5.9,0c0.11-0.57,0.23-1.16,0.57-1.64
				c0.56-0.86,1.61-1.29,2.62-1.27c0.94-0.03,2.01,0.18,2.62,0.97c0.53,0.7,0.45,1.62,0.45,2.44c0.01,0.84-0.41,1.69-1.17,2.08
				c-1.35,0.78-2.96,0.47-4.45,0.56c0.01,1.4-0.05,2.81,0.05,4.22c1.83,0.04,3.89-0.24,5.45,0.95c1.15,0.86,1.11,2.45,0.97,3.74
				c-0.12,1.05-0.86,2.01-1.87,2.34c-1.17,0.41-2.51,0.39-3.65-0.08c-1.05-0.44-1.73-1.5-1.86-2.61c-1.96,0-3.91,0-5.87,0
				c0.12,2.29,1.36,4.51,3.29,5.77c1.91,1.26,4.26,1.67,6.52,1.68c2.49,0.03,5.07-0.54,7.1-2.04c1.54-1.13,2.68-2.93,2.67-4.88
				c-0.03-1.32,0.18-2.72-0.45-3.94c-0.93-1.89-2.97-2.93-4.95-3.35c1.07-0.31,2.11-0.78,2.94-1.53c0.8-0.71,1.41-1.68,1.49-2.76
				c0.05-1.45,0.1-3-0.69-4.28c-1.29-2.17-3.82-3.24-6.23-3.56C61.36,32.71,58.3,33.06,55.92,34.72z"/>
		</g>
	</g>
	<g>
		<path class="st5" d="M37.58,24.3c0.56-0.33,1.09-0.71,1.68-0.97c0.02,15.22-0.01,30.44,0.02,45.67c-1.51,0.89-3.02,1.8-4.52,2.72
			c-1.79,1.08-3.58,2.17-5.38,3.23c-0.01-15.24-0.01-30.48,0-45.72C32.13,27.61,34.84,25.93,37.58,24.3z"/>
	</g>
	<g>
		<g>
			<path class="st6" d="M86.11,33.43c1.5,0,3,0,4.5,0c0.03,18.28,0,36.56,0.01,54.83c-17.5,0.01-35.01,0-52.51,0.01
				c-1.75,0.06-3.34-1.48-3.34-3.23c-0.01-4.44,0.01-8.89-0.01-13.33c1.5-0.92,3-1.83,4.52-2.72c15.6-0.03,31.2-0.01,46.8-0.01
				c0.08-2.44,0.01-4.89,0.04-7.34C86.11,52.24,86.11,42.84,86.11,33.43z M48.48,73.48c0,3.2,0,6.4,0,9.6c0.68,0,1.37,0,2.05,0
				c0.01-2.12-0.01-4.24,0.01-6.36c0.6,2.12,1.11,4.26,1.71,6.37c0.74-0.01,1.49-0.01,2.23,0c0.54-2.04,1.09-4.09,1.59-6.14
				c0.07,2.04,0.01,4.09,0.03,6.14c0.76,0,1.52,0,2.28,0c0-3.2,0-6.4,0-9.59c-0.97-0.01-1.94,0-2.91,0
				c-0.68,2.56-1.34,5.13-2.04,7.68c-0.66-2.54-1.26-5.1-1.93-7.64C50.5,73.41,49.48,73.51,48.48,73.48z M62.35,73.48
				c-0.93,3.19-1.84,6.39-2.74,9.59c0.79,0,1.59,0.01,2.38,0c0.17-0.7,0.35-1.39,0.52-2.08c0.96-0.01,1.92,0,2.88,0
				c0.2,0.7,0.4,1.39,0.58,2.09c0.81,0,1.63,0,2.45,0c-0.98-3.2-1.92-6.41-2.91-9.6C64.47,73.48,63.41,73.47,62.35,73.48z
				 M69.43,73.48c0.85,1.46,1.74,2.9,2.61,4.36c0.15,0.18-0.04,0.37-0.11,0.52c-0.95,1.56-1.87,3.14-2.82,4.7
				c0.89,0,1.77,0.02,2.66-0.01c0.58-1.2,1.22-2.37,1.82-3.56c0.7,1.15,1.24,2.4,1.88,3.58c0.9-0.01,1.79,0,2.69,0
				c-0.93-1.63-1.86-3.26-2.8-4.88c-0.05-0.15-0.26-0.32-0.15-0.49c0.87-1.41,1.78-2.81,2.65-4.22c-0.83-0.01-1.66,0.01-2.48-0.02
				c-0.62,1-1.13,2.06-1.7,3.08c-0.57-1.02-1.07-2.07-1.66-3.07C71.15,73.48,70.29,73.47,69.43,73.48z"/>
		</g>
		<path class="st6" d="M62.97,79.21c0.3-1.39,0.65-2.76,0.96-4.14c0.35,1.38,0.68,2.76,1.01,4.14
			C64.28,79.18,63.62,79.18,62.97,79.21z"/>
	</g>
</g>
</svg>
