<?xml version="1.0" encoding="UTF-8"?>
<svg id="Layer_1" data-name="Layer 1" xmlns="http://www.w3.org/2000/svg" version="1.1" viewBox="0 0 120 120">
  <defs>
    <style>
      .cls-1 {
        font-family: Montserrat-Bold, Montserrat;
        font-size: 7px;
        font-weight: 700;
        isolation: isolate;
      }

      .cls-1, .cls-2 {
        fill: #fff;
      }

      .cls-3 {
        fill: none;
      }

      .cls-3, .cls-4, .cls-2 {
        stroke-width: 0px;
      }

      .cls-4 {
        fill: #f04c24;
      }
    </style>
  </defs>
  <rect class="cls-3" x="20" y="91.6" width="80" height="8.4"/>
  <text class="cls-1" transform="translate(45.5 98.4)"><tspan x="0" y="0">Houdini</tspan></text>
  <g>
    <path class="cls-2" d="M27.5,50.7h2.3v4.2h4.3v-4.2h2.3v10.5h-2.3v-4.2h-4.3v4.2h-2.3v-10.5Z"/>
    <path class="cls-2" d="M37.5,57.2h0c0-2.4,1.9-4.2,4.2-4.2h.1c2.5,0,4.3,1.8,4.3,4.2h0c0,2.4-1.9,4.2-4.2,4.2h-.1c-2.5,0-4.3-1.9-4.3-4.2ZM44,57.2h0c0-1.2-.9-2.2-2-2.2h0c-1.1,0-2.1.9-2.1,2h0v.2h0c0,1.2.9,2.2,2,2.2h0c1.1,0,2.1-.9,2.1-2,0,0,0-.1,0-.2Z"/>
    <path class="cls-2" d="M47.2,58.3v-5.2h2.3v4.5c0,1.1.5,1.6,1.4,1.6s1.4-.6,1.4-1.6v-4.5h2.3v8h-2.3v-1.2c-.5.8-1.4,1.3-2.4,1.3-1.7,0-2.7-1.1-2.7-3Z"/>
    <path class="cls-2" d="M55.7,57.2h0c0-2.7,1.8-4.2,3.7-4.2,1,0,1.9.4,2.5,1.2v-4h2.3v11h-2.3v-1.2c-.6.8-1.5,1.3-2.5,1.3-1.9,0-3.7-1.5-3.7-4.2ZM61.9,57.2h0c0-1.4-.9-2.2-2-2.2s-2,.9-2,2.2h0c0,1.4.9,2.3,2,2.3s2-.9,2-2.2Z"/>
    <path class="cls-2" d="M65.6,50.2h2.4v2h-2.4v-2ZM65.7,53.1h2.3v8h-2.3v-8Z"/>
    <path class="cls-2" d="M69.5,53.1h2.3v1.2c.5-.8,1.4-1.3,2.4-1.3,1.7,0,2.7,1.1,2.7,3v5.2h-2.3v-4.5c0-1.1-.5-1.6-1.4-1.6s-1.4.6-1.4,1.6v4.5h-2.3v-8.1Z"/>
    <path class="cls-2" d="M78.3,50.2h2.4v2h-2.4v-2ZM78.4,53.1h2.3v8h-2.3v-8Z"/>
    <path class="cls-4" d="M82.4,59.7v1.5h1.3c-.6-.3-1-.8-1.3-1.5Z"/>
    <path class="cls-4" d="M87.8,58.2c0-1.5-1.2-2.7-2.7-2.7-1,0-2,.3-2.7,1v1.4c.4-1,1.4-1.7,2.5-1.7,1.1,0,2,.8,2.1,1.9,0,1-.4,1.7-1.5,1.8-.6,0-1.5-.2-1.5-1.2,0-.4.3-.7.7-.7h0c-.2.2-.2.5,0,.7.1.1.3.2.5.1.4,0,.7-.4.7-.8,0-.5-.5-.9-1.1-.9h0c-.9,0-1.6.7-1.6,1.5h0c0,1.2,1,1.9,2.1,1.9,1.6,0,2.5-1,2.5-2.5Z"/>
    <path class="cls-4" d="M82.4,53.1v2.3c.8-.6,1.7-.9,2.7-.9,2.3,0,3.7,1.6,3.7,3.6,0,1.2-.6,2.4-1.7,3h3.3v-8h-8.1Z"/>
    <path class="cls-4" d="M91.1,53.3h-.2v-.2h.7v.2h-.3v.7h-.2v-.7Z"/>
    <path class="cls-4" d="M91.7,53.1h.2l.2.3.2-.3h.2v.8h-.2v-.5l-.2.3h0l-.2-.3v.5h-.2v-.8Z"/>
  </g>
</svg>