<?xml version="1.0" encoding="utf-8"?>
<!-- Generator: Adobe Illustrator 28.0.0, SVG Export Plug-In . SVG Version: 6.00 Build 0)  -->
<svg version="1.1" id="Layer_1" xmlns="http://www.w3.org/2000/svg" xmlns:xlink="http://www.w3.org/1999/xlink" x="0px" y="0px"
	 viewBox="0 0 120 120" style="enable-background:new 0 0 120 120;" xml:space="preserve">
<style type="text/css">
	.st0{fill:none;}
	.st1{fill:#FFFFFF;}
	.st2{font-family:'Montserrat-Bold';}
	.st3{font-size:7px;}
</style>
<rect x="20" y="91.55" class="st0" width="80" height="8.45"/>
<text transform="matrix(1 0 0 1 33.8828 98.373)" class="st1 st2 st3">Foundry Nuke</text>
<g>
	<path id="_xAE__53_" class="st1" d="M91.73,50.66c-0.03-0.01-0.08-0.03-0.14-0.03h-0.21v0.26h0.21c0.1,0,0.18-0.01,0.18-0.14
		C91.77,50.71,91.76,50.69,91.73,50.66 M91.8,51.54l-0.21-0.34c-0.03-0.04-0.05-0.1-0.11-0.1h-0.1v0.45h-0.18v-1.08h0.38
		c0.07,0,0.15,0,0.22,0.05c0.08,0.05,0.12,0.15,0.12,0.26c0,0.15-0.07,0.26-0.21,0.3l0.01,0.03l0.26,0.44H91.8V51.54z M91.56,50.18
		c-0.42,0-0.78,0.37-0.78,0.81c0,0.45,0.36,0.81,0.78,0.81s0.78-0.36,0.78-0.81C92.35,50.55,91.99,50.18,91.56,50.18 M91.56,51.97
		c-0.52,0-0.94-0.44-0.94-0.99S91.04,50,91.56,50s0.94,0.44,0.94,0.99C92.51,51.54,92.09,51.97,91.56,51.97"/>
	<path id="Nuke_49_" class="st1" d="M70.59,50.3h-0.77c-0.38,0-0.68,0.3-0.68,0.68v5.82c0,1.83-0.77,2.7-2.26,2.7
		c-1.48,0-2.24-0.86-2.24-2.7v-5.82c0-0.38-0.3-0.68-0.68-0.68h-0.78c-0.38,0-0.68,0.3-0.68,0.68v5.82c0,3.01,1.67,4.71,4.39,4.71
		c2.71,0,4.39-1.68,4.39-4.71v-5.82C71.27,50.6,70.97,50.3,70.59,50.3z M88.91,59.23h-4.39v-2.66h3.2c0.38,0,0.68-0.3,0.68-0.68
		v-0.53c0-0.38-0.3-0.68-0.68-0.68h-3.22v-2.35h4.31c0.38,0,0.68-0.3,0.68-0.68v-0.64c0-0.38-0.3-0.68-0.68-0.68h-5.75
		c-0.38,0-0.68,0.3-0.68,0.68v9.58c0,0.38,0.3,0.68,0.68,0.68h5.84c0.38,0,0.68-0.3,0.68-0.68v-0.64
		C89.6,59.53,89.28,59.23,88.91,59.23z M77.47,54.87l3.23-3.42c0.19-0.19,0.23-0.49,0.14-0.74c-0.11-0.25-0.36-0.41-0.63-0.41H79.5
		c-0.19,0-0.37,0.08-0.51,0.22l-3.94,4.3v-3.83c0-0.38-0.3-0.68-0.68-0.68h-0.75c-0.38,0-0.68,0.3-0.68,0.68v9.58
		c0,0.38,0.3,0.68,0.68,0.68h0.75c0.38,0,0.68-0.3,0.68-0.68v-3.12l1.01-1.08l3.16,4.58c0.12,0.19,0.34,0.3,0.56,0.3h0.83
		c0.26,0,0.49-0.14,0.6-0.37c0.12-0.23,0.1-0.49-0.04-0.71L77.47,54.87z M60.19,50.3h-0.74c-0.38,0-0.68,0.31-0.68,0.68v6.43
		l-4.5-6.82c-0.12-0.19-0.34-0.3-0.57-0.3h-0.93c-0.38,0-0.68,0.3-0.68,0.68v9.57c0,0.38,0.3,0.68,0.68,0.68h0.74
		c0.18,0,0.36-0.07,0.49-0.21c0.12-0.12,0.21-0.3,0.21-0.48v-6.58l4.6,6.97c0.12,0.19,0.34,0.3,0.57,0.3h0.85
		c0.38,0,0.68-0.31,0.68-0.68v-9.57C60.87,50.6,60.57,50.3,60.19,50.3z"/>
	<path id="Nuke_logo_45_" class="st1" d="M38.7,44.87c-6.02-0.16-11.04,4.6-11.2,10.62c-0.16,6.02,4.6,11.03,10.62,11.2
		s11.03-4.6,11.2-10.62C49.47,50.04,44.72,45.03,38.7,44.87z M48.2,56.04c-0.14,5.41-4.64,9.66-10.03,9.53
		c-5.41-0.14-9.66-4.64-9.53-10.03c0.14-5.41,4.64-9.66,10.03-9.53C44.06,46.14,48.33,50.63,48.2,56.04z M41.81,47.51
		c0,0-0.77-0.33-0.81,0.56c-0.04,0.73-0.12,2.18-0.12,2.18s0.01,0.7-0.57,0.7c-0.74,0.01-1.35-0.04-1.35-0.04s-0.66-0.05-1.14-0.51
		l-2.24-2.37c0,0-0.44-0.62-1.27-0.18c-1.04,0.55-3.26,1.97-4.3,4.9c-0.23,0.66,0.3,0.74,0.67,0.74c0.23,0,5.46,0.01,5.46,0.01
		s0.88-0.12,1.53,0.57c0.71,0.74,1.2,1.25,1.2,1.25s0.44,0.49,1.15,1.23c0.66,0.7,0.49,1.56,0.49,1.56s-0.26,5.23-0.27,5.46
		c-0.03,0.37,0.04,0.9,0.7,0.7c2.98-0.89,4.53-3.02,5.1-4.02c0.48-0.81-0.11-1.29-0.11-1.29l-2.24-2.37
		c-0.42-0.51-0.45-1.16-0.45-1.16s-0.01-0.62,0.03-1.35c0.04-0.59,0.73-0.53,0.73-0.53s1.45-0.01,2.18-0.01
		c0.89,0,0.6-0.78,0.6-0.78s-0.49-1.63-1.92-3.12C43.45,48.14,41.81,47.51,41.81,47.51z M41.85,54.82
		c-0.44,0.41-1.35,0.19-2.03-0.52c-0.67-0.71-0.83-1.63-0.41-2.04c0.44-0.41,1.37-0.21,2.04,0.49
		C42.12,53.46,42.29,54.41,41.85,54.82z"/>
</g>
</svg>
