<?xml version="1.0" encoding="utf-8"?>
<!-- Generator: Adobe Illustrator 28.0.0, SVG Export Plug-In . SVG Version: 6.00 Build 0)  -->
<svg version="1.1" id="Layer_1" xmlns="http://www.w3.org/2000/svg" xmlns:xlink="http://www.w3.org/1999/xlink" x="0px" y="0px"
	 viewBox="0 0 120 120" style="enable-background:new 0 0 120 120;" xml:space="preserve">
<style type="text/css">
	.st0{fill:none;}
	.st1{fill:#FFFFFF;}
	.st2{font-family:'Montserrat-Bold';}
	.st3{font-size:7px;}
	.st4{fill:#4267B1;}
	.st5{fill:#274E9A;}
</style>
<rect x="20" y="91.55" class="st0" width="80" height="8.45"/>
<text transform="matrix(1 0 0 1 43.1445 98.373)" class="st1 st2 st3">RealFlow</text>
<g id="Letras_blancas_1_" transform="translate(-216.708 -315.956)">
	<g id="Grupo_1_1_" transform="translate(273.253 327.931)">
		<g id="Trazado_1_1_">
			<path class="st1" d="M-10.67,39.61H-8c0.44-0.01,0.88,0.06,1.29,0.23c0.33,0.13,0.62,0.33,0.86,0.59
				c0.21,0.22,0.37,0.49,0.48,0.78c0.1,0.26,0.15,0.53,0.15,0.81c0.01,0.47-0.1,0.94-0.33,1.35c-0.24,0.41-0.59,0.73-1.02,0.94
				l1.86,3.38h-1.72l-1.63-3.18h-1.15v3.18h-1.46V39.61z M-7.99,43.24c0.33,0.02,0.66-0.1,0.9-0.34c0.21-0.22,0.33-0.52,0.32-0.82
				c0.01-0.32-0.11-0.62-0.34-0.85c-0.24-0.22-0.56-0.34-0.88-0.33h-1.22v2.33H-7.99z"/>
		</g>
		<g id="Trazado_2_1_">
			<path class="st1" d="M1.49,46.86l-0.2,0.2c-0.14,0.13-0.3,0.25-0.47,0.34c-0.25,0.14-0.51,0.25-0.79,0.33
				c-0.37,0.1-0.76,0.15-1.14,0.15c-0.42,0.01-0.84-0.07-1.24-0.23c-0.72-0.29-1.29-0.87-1.55-1.61c-0.15-0.4-0.22-0.83-0.21-1.26
				c0-0.4,0.07-0.8,0.21-1.17c0.13-0.35,0.33-0.67,0.59-0.94c0.26-0.27,0.57-0.48,0.91-0.63c0.37-0.16,0.77-0.23,1.17-0.23
				c0.46-0.01,0.9,0.08,1.31,0.29c0.34,0.18,0.64,0.43,0.86,0.74c0.22,0.32,0.38,0.67,0.47,1.04c0.1,0.39,0.15,0.79,0.15,1.19v0.2
				h-4.23c0,0.2,0.05,0.39,0.14,0.57c0.09,0.17,0.21,0.32,0.36,0.44c0.15,0.12,0.33,0.22,0.51,0.28s0.37,0.1,0.56,0.1
				c0.43,0.01,0.85-0.08,1.24-0.26c0.13-0.06,0.25-0.13,0.36-0.22c0.09-0.08,0.16-0.14,0.21-0.19L1.49,46.86z M0.09,44.24
				c0-0.15-0.03-0.3-0.08-0.44c-0.06-0.15-0.14-0.28-0.25-0.39c-0.12-0.12-0.26-0.22-0.42-0.29c-0.18-0.08-0.38-0.12-0.58-0.11
				c-0.21,0-0.43,0.04-0.62,0.11c-0.17,0.07-0.32,0.17-0.46,0.29c-0.12,0.11-0.21,0.25-0.28,0.39c-0.06,0.14-0.1,0.29-0.1,0.44H0.09
				z"/>
		</g>
		<g id="Trazado_3_1_">
			<path class="st1" d="M6.01,47.15c-0.2,0.21-0.44,0.38-0.7,0.5c-0.33,0.15-0.69,0.22-1.05,0.22c-0.24,0-0.47-0.04-0.7-0.11
				c-0.23-0.07-0.44-0.19-0.63-0.33c-0.2-0.16-0.35-0.35-0.46-0.58c-0.12-0.26-0.18-0.54-0.18-0.82c-0.01-0.3,0.06-0.59,0.18-0.86
				c0.12-0.25,0.29-0.47,0.51-0.64c0.23-0.18,0.5-0.32,0.79-0.39c0.33-0.09,0.67-0.14,1.02-0.13c0.11,0,0.24,0,0.37,0.01
				c0.14,0,0.27,0.01,0.4,0.02c0.15,0.01,0.3,0.02,0.45,0.02v-0.13c0.01-0.27-0.12-0.52-0.34-0.67C5.41,43.07,5.1,42.98,4.79,43
				c-0.33-0.01-0.66,0.04-0.97,0.16c-0.22,0.09-0.44,0.21-0.64,0.34l-0.65-0.97c0.11-0.08,0.24-0.16,0.39-0.25
				c0.16-0.09,0.33-0.17,0.51-0.23c0.22-0.07,0.44-0.13,0.67-0.17c0.29-0.05,0.59-0.07,0.89-0.07c0.33,0,0.67,0.05,0.98,0.15
				c0.28,0.09,0.53,0.23,0.76,0.42c0.21,0.18,0.37,0.4,0.48,0.65c0.11,0.26,0.17,0.54,0.17,0.83v3.81H6.05L6.01,47.15z M6.01,45.11
				l-0.42-0.02c-0.11-0.01-0.23-0.01-0.36-0.02C5.11,45.07,5,45.07,4.91,45.07c-0.34-0.04-0.69,0.06-0.97,0.27
				c-0.18,0.16-0.28,0.39-0.28,0.62c-0.01,0.22,0.09,0.43,0.26,0.57c0.23,0.15,0.5,0.22,0.77,0.2c0.33,0,0.65-0.11,0.91-0.32
				c0.12-0.09,0.22-0.21,0.3-0.34c0.07-0.12,0.11-0.27,0.11-0.41L6.01,45.11z"/>
		</g>
		<g id="Trazado_4_1_">
			<path class="st1" d="M8.76,39.61h1.43v8.07H8.76V39.61z"/>
		</g>
		<g id="Trazado_5_1_">
			<path class="st1" d="M11.73,39.61h5.21v1.34h-3.69v2.09h2.76v1.36h-2.76v3.28h-1.52V39.61z"/>
		</g>
		<g id="Trazado_6_1_">
			<path class="st1" d="M18.05,39.61h1.43v8.07h-1.43V39.61z"/>
		</g>
		<g id="Trazado_7_1_">
			<path class="st1" d="M20.61,44.83c0-0.4,0.07-0.8,0.22-1.17c0.29-0.73,0.86-1.31,1.59-1.62c0.8-0.32,1.68-0.32,2.48,0
				c0.36,0.15,0.69,0.37,0.96,0.65c0.27,0.28,0.48,0.6,0.62,0.96c0.46,1.13,0.21,2.42-0.62,3.3c-0.27,0.28-0.6,0.51-0.96,0.66
				c-0.8,0.32-1.68,0.32-2.48,0c-0.36-0.15-0.69-0.38-0.96-0.66C20.91,46.39,20.61,45.63,20.61,44.83L20.61,44.83z M23.66,46.64
				c0.25,0.01,0.49-0.05,0.72-0.16c0.2-0.1,0.37-0.25,0.5-0.43c0.13-0.18,0.23-0.37,0.3-0.58c0.07-0.2,0.1-0.42,0.1-0.63
				c0-0.21-0.04-0.42-0.1-0.62c-0.06-0.21-0.16-0.41-0.3-0.58c-0.14-0.18-0.31-0.32-0.5-0.42c-0.45-0.22-0.98-0.22-1.43,0
				c-0.2,0.1-0.37,0.25-0.5,0.42c-0.13,0.17-0.23,0.37-0.3,0.58c-0.06,0.2-0.09,0.41-0.1,0.62c0,0.21,0.03,0.43,0.1,0.63
				c0.07,0.21,0.17,0.41,0.3,0.58c0.13,0.18,0.31,0.33,0.5,0.43C23.17,46.59,23.41,46.64,23.66,46.64L23.66,46.64z"/>
		</g>
		<g id="Trazado_8_1_">
			<path class="st1" d="M27.11,42h1.57l1.09,3.95l1.2-3.95h1.2l1.21,3.95L34.45,42h1.5l-1.92,5.67h-1.38l-1.16-3.42l-1.12,3.42
				h-1.33L27.11,42z"/>
		</g>
	</g>
	<g id="Grupo_2_1_" transform="translate(216.708 315.956)">
		<g id="Trazado_9_1_">
			<path class="st4" d="M34.97,55.17c0.03,0.03,0.06,0.05,0.09,0.07l0.13,0.11c0.04,0.03,0.07,0.06,0.1,0.09
				c1.91,1.67,4.02,2.3,6.64,1.99l0.01-4.97c-0.03-0.51-0.29-0.97-0.72-1.25l-5.77-3.34c-0.45-0.23-0.99-0.23-1.44,0l-5.78,3.32
				c-0.43,0.28-0.7,0.74-0.72,1.25v0.43C30.21,52.49,32.94,53.34,34.97,55.17z"/>
		</g>
		<g id="Trazado_10_1_">
			<path class="st5" d="M40.7,58.76c-2.3,0.02-4.53-0.83-6.23-2.38c-0.03-0.03-0.06-0.05-0.08-0.07s-0.05-0.04-0.07-0.06l-0.06-0.05
				c-0.04-0.03-0.07-0.06-0.11-0.09c-1.91-1.67-4.02-2.3-6.63-1.99l-0.01,4.97c0.03,0.51,0.29,0.97,0.72,1.25l5.76,3.34
				c0.45,0.23,0.99,0.23,1.44,0l5.78-3.32c0.43-0.28,0.7-0.74,0.72-1.25v-0.43C41.51,58.74,41.1,58.76,40.7,58.76z"/>
		</g>
	</g>
</g>
</svg>
