<?xml version="1.0" encoding="utf-8"?>
<!-- Generator: Adobe Illustrator 28.0.0, SVG Export Plug-In . SVG Version: 6.00 Build 0)  -->
<svg version="1.1" id="Layer_1" xmlns="http://www.w3.org/2000/svg" xmlns:xlink="http://www.w3.org/1999/xlink" x="0px" y="0px"
	 viewBox="0 0 120 120" style="enable-background:new 0 0 120 120;" xml:space="preserve">
<style type="text/css">
	.st0{fill:#D44E29;}
	.st1{fill:#363523;}
	.st2{fill:#EAD5D0;}
	.st3{fill:#F9A020;}
</style>
<g>
	<g>
		<g>
			<path class="st0" d="M28.44,84.15V78.5l4.79-4.65c10.26-9.76,14.55-14.71,14.6-20.07c0-4.17-2.17-6.29-6.44-6.29
				c-3.4,0-6.21,1.92-7.58,3.06L32.2,51.9l-3.12-6.9l0.93-0.78c3.43-2.9,7.88-4.5,12.51-4.5c9.68,0,14.02,6.73,14.02,13.4
				c0,8.35-5.99,14.76-14.46,22.92l-0.38,0.35h15.84v7.77H28.44z"/>
			<path class="st0" d="M73.83,84.53c-3.69,0-7.07-0.17-10.04-0.51l-1.43-0.16V39.69l1.37-0.21c3.92-0.59,7.88-0.89,11.78-0.89
				c8.1,0,14.03,1.85,18.12,5.67c4.27,3.91,6.44,9.39,6.44,16.27c0,7.24-2.26,13.28-6.53,17.49C89.28,82.27,82.46,84.53,73.83,84.53
				z M71.01,76.82c1.27,0.11,2.75,0.12,3.88,0.12c10.66,0,16.29-5.61,16.29-16.23c0.03-4.59-1.2-8.16-3.67-10.64
				c-2.62-2.63-6.57-3.97-11.75-3.97c-2.06,0-3.62,0.14-4.75,0.3V76.82z"/>
		</g>
		<g>
			<path class="st0" d="M28.36,84.07v-5.66l4.79-4.65C43.41,64,47.7,59.06,47.75,53.7c0-4.17-2.17-6.29-6.44-6.29
				c-3.4,0-6.21,1.92-7.58,3.06l-1.63,1.35L29,44.91l0.93-0.78c3.43-2.9,7.88-4.5,12.51-4.5c9.68,0,14.02,6.73,14.02,13.4
				c0,8.35-5.99,14.76-14.46,22.92l-0.38,0.35h15.84v7.77H28.36z"/>
			<path class="st0" d="M73.75,84.45c-3.69,0-7.07-0.17-10.04-0.51l-1.43-0.16V39.61l1.37-0.21c3.92-0.59,7.88-0.89,11.78-0.89
				c8.1,0,14.03,1.85,18.12,5.67c4.27,3.91,6.44,9.39,6.44,16.27c0,7.24-2.26,13.28-6.53,17.49C89.2,82.19,82.38,84.45,73.75,84.45z
				 M70.93,76.74c1.27,0.11,2.75,0.12,3.88,0.12c10.66,0,16.29-5.61,16.29-16.23c0.03-4.59-1.2-8.16-3.67-10.64
				c-2.62-2.63-6.57-3.97-11.75-3.97c-2.06,0-3.62,0.14-4.75,0.3V76.74z"/>
		</g>
		<g>
			<path class="st0" d="M28.28,83.99v-5.66l4.79-4.65c10.26-9.76,14.55-14.71,14.6-20.07c0-4.17-2.17-6.29-6.44-6.29
				c-3.4,0-6.21,1.92-7.58,3.06l-1.63,1.35l-3.12-6.9l0.93-0.78c3.43-2.9,7.88-4.5,12.51-4.5c9.68,0,14.02,6.73,14.02,13.4
				c0,8.35-5.99,14.76-14.46,22.92l-0.38,0.35h15.84v7.77H28.28z"/>
			<path class="st0" d="M73.67,84.37c-3.69,0-7.07-0.17-10.04-0.51L62.2,83.7V39.53l1.37-0.21c3.92-0.59,7.88-0.89,11.78-0.89
				c8.1,0,14.03,1.85,18.12,5.67c4.27,3.91,6.44,9.39,6.44,16.27c0,7.24-2.26,13.28-6.53,17.49C89.12,82.11,82.3,84.37,73.67,84.37z
				 M70.85,76.66c1.27,0.11,2.75,0.12,3.88,0.12c10.66,0,16.29-5.61,16.29-16.23c0.03-4.59-1.2-8.16-3.67-10.64
				c-2.62-2.63-6.57-3.97-11.75-3.97c-2.06,0-3.62,0.14-4.75,0.3V76.66z"/>
		</g>
		<g>
			<path class="st0" d="M28.2,83.91v-5.66l4.79-4.65c10.26-9.76,14.55-14.71,14.6-20.07c0-4.17-2.17-6.29-6.44-6.29
				c-3.4,0-6.21,1.92-7.58,3.06l-1.63,1.35l-3.12-6.9l0.93-0.78c3.43-2.9,7.88-4.5,12.51-4.5c9.68,0,14.02,6.73,14.02,13.4
				c0,8.35-5.99,14.76-14.46,22.92l-0.38,0.35H57.3v7.77H28.2z"/>
			<path class="st0" d="M73.59,84.29c-3.69,0-7.07-0.17-10.04-0.51l-1.43-0.16V39.45l1.37-0.21c3.92-0.59,7.88-0.89,11.78-0.89
				c8.1,0,14.03,1.85,18.12,5.67c4.27,3.91,6.44,9.39,6.44,16.27c0,7.24-2.26,13.28-6.53,17.49C89.04,82.03,82.22,84.29,73.59,84.29
				z M70.77,76.58c1.27,0.11,2.75,0.12,3.88,0.12c10.66,0,16.29-5.61,16.29-16.23c0.03-4.59-1.2-8.16-3.67-10.64
				c-2.62-2.63-6.57-3.97-11.75-3.97c-2.06,0-3.62,0.14-4.75,0.3V76.58z"/>
		</g>
		<g>
			<path class="st0" d="M28.12,83.83v-5.66l4.79-4.65c10.26-9.76,14.55-14.71,14.6-20.07c0-4.17-2.17-6.29-6.44-6.29
				c-3.4,0-6.21,1.92-7.58,3.06l-1.63,1.35l-3.12-6.9l0.93-0.78c3.43-2.9,7.88-4.5,12.51-4.5c9.68,0,14.02,6.73,14.02,13.4
				c0,8.35-5.99,14.76-14.46,22.92l-0.38,0.35h15.84v7.77H28.12z"/>
			<path class="st0" d="M73.51,84.21c-3.69,0-7.07-0.17-10.04-0.51l-1.43-0.16V39.37l1.37-0.21c3.92-0.59,7.88-0.89,11.78-0.89
				c8.1,0,14.03,1.85,18.12,5.67c4.27,3.91,6.44,9.39,6.44,16.27c0,7.24-2.26,13.28-6.53,17.49C88.96,81.95,82.14,84.21,73.51,84.21
				z M70.69,76.5c1.27,0.11,2.75,0.12,3.88,0.12c10.66,0,16.29-5.61,16.29-16.23c0.03-4.59-1.2-8.16-3.67-10.64
				c-2.62-2.63-6.57-3.97-11.75-3.97c-2.06,0-3.62,0.14-4.75,0.3V76.5z"/>
		</g>
		<g>
			<path class="st0" d="M28.04,83.75V78.1l4.79-4.65c10.26-9.76,14.55-14.71,14.6-20.07c0-4.17-2.17-6.29-6.44-6.29
				c-3.4,0-6.21,1.92-7.58,3.06l-1.63,1.35l-3.12-6.9l0.93-0.78c3.43-2.9,7.88-4.5,12.51-4.5c9.68,0,14.02,6.73,14.02,13.4
				c0,8.35-5.99,14.76-14.46,22.92l-0.38,0.35h15.84v7.77H28.04z"/>
			<path class="st0" d="M73.43,84.13c-3.69,0-7.07-0.17-10.04-0.51l-1.43-0.16V39.29l1.37-0.21c3.92-0.59,7.88-0.89,11.78-0.89
				c8.1,0,14.03,1.85,18.12,5.67c4.27,3.91,6.44,9.39,6.44,16.27c0,7.24-2.26,13.28-6.53,17.49C88.88,81.87,82.06,84.13,73.43,84.13
				z M70.61,76.42c1.27,0.11,2.75,0.12,3.88,0.12c10.66,0,16.29-5.61,16.29-16.23c0.03-4.59-1.2-8.16-3.67-10.64
				c-2.62-2.63-6.57-3.97-11.75-3.97c-2.06,0-3.62,0.14-4.75,0.3V76.42z"/>
		</g>
		<g>
			<path class="st0" d="M27.96,83.67v-5.66l4.79-4.65C43.01,63.6,47.3,58.66,47.35,53.3c0-4.17-2.17-6.29-6.44-6.29
				c-3.4,0-6.21,1.92-7.58,3.06l-1.63,1.35l-3.12-6.9l0.93-0.78c3.43-2.9,7.88-4.5,12.51-4.5c9.68,0,14.02,6.73,14.02,13.4
				c0,8.35-5.99,14.76-14.46,22.92l-0.38,0.35h15.84v7.77H27.96z"/>
			<path class="st0" d="M73.34,84.05c-3.69,0-7.07-0.17-10.04-0.51l-1.43-0.16V39.21L63.25,39c3.92-0.59,7.88-0.89,11.78-0.89
				c8.1,0,14.03,1.85,18.12,5.67c4.27,3.91,6.44,9.39,6.44,16.27c0,7.24-2.26,13.28-6.53,17.49C88.8,81.79,81.98,84.05,73.34,84.05z
				 M70.53,76.34c1.27,0.11,2.75,0.12,3.88,0.12c10.66,0,16.29-5.61,16.29-16.23c0.03-4.59-1.2-8.16-3.67-10.64
				c-2.62-2.63-6.57-3.97-11.75-3.97c-2.06,0-3.62,0.14-4.75,0.3V76.34z"/>
		</g>
		<g>
			<path class="st0" d="M27.88,83.59v-5.66l4.79-4.65c10.26-9.76,14.55-14.71,14.6-20.07c0-4.17-2.17-6.29-6.44-6.29
				c-3.4,0-6.21,1.92-7.58,3.06l-1.63,1.35l-3.12-6.9l0.93-0.78c3.43-2.9,7.88-4.5,12.51-4.5c9.68,0,14.02,6.73,14.02,13.4
				c0,8.35-5.99,14.76-14.46,22.92l-0.38,0.35h15.84v7.77H27.88z"/>
			<path class="st0" d="M73.26,83.97c-3.69,0-7.07-0.17-10.04-0.51l-1.43-0.16V39.13l1.37-0.21c3.92-0.59,7.88-0.89,11.78-0.89
				c8.1,0,14.03,1.85,18.12,5.67c4.27,3.91,6.44,9.39,6.44,16.27c0,7.24-2.26,13.28-6.53,17.49C88.72,81.71,81.9,83.97,73.26,83.97z
				 M70.45,76.26c1.27,0.11,2.75,0.12,3.88,0.12c10.66,0,16.29-5.61,16.29-16.23c0.03-4.59-1.2-8.16-3.67-10.64
				c-2.62-2.63-6.57-3.97-11.75-3.97c-2.06,0-3.62,0.14-4.75,0.3V76.26z"/>
		</g>
		<g>
			<path class="st0" d="M27.8,83.51v-5.66l4.79-4.65c10.26-9.76,14.55-14.71,14.6-20.07c0-4.17-2.17-6.29-6.44-6.29
				c-3.4,0-6.21,1.92-7.58,3.06l-1.63,1.35l-3.12-6.9l0.93-0.78c3.43-2.9,7.88-4.5,12.51-4.5c9.68,0,14.02,6.73,14.02,13.4
				c0,8.35-5.99,14.76-14.46,22.92l-0.38,0.35h15.84v7.77H27.8z"/>
			<path class="st0" d="M73.18,83.89c-3.69,0-7.07-0.17-10.04-0.51l-1.43-0.16V39.05l1.37-0.21c3.92-0.59,7.88-0.89,11.78-0.89
				c8.1,0,14.03,1.85,18.12,5.67c4.27,3.91,6.44,9.39,6.44,16.27c0,7.24-2.26,13.28-6.53,17.49C88.64,81.63,81.82,83.89,73.18,83.89
				z M70.37,76.18c1.27,0.11,2.75,0.12,3.88,0.12c10.66,0,16.29-5.61,16.29-16.23c0.03-4.59-1.2-8.16-3.67-10.64
				c-2.62-2.63-6.57-3.97-11.75-3.97c-2.06,0-3.62,0.14-4.75,0.3V76.18z"/>
		</g>
		<g>
			<path class="st0" d="M27.72,83.43v-5.66l4.79-4.65c10.26-9.76,14.55-14.71,14.6-20.07c0-4.17-2.17-6.29-6.44-6.29
				c-3.4,0-6.21,1.92-7.58,3.06l-1.63,1.35l-3.12-6.9l0.93-0.78c3.43-2.9,7.88-4.5,12.51-4.5c9.68,0,14.02,6.73,14.02,13.4
				c0,8.35-5.99,14.76-14.46,22.92l-0.38,0.35h15.84v7.77H27.72z"/>
			<path class="st0" d="M73.1,83.8c-3.69,0-7.07-0.17-10.04-0.51l-1.43-0.16V38.97l1.37-0.21c3.92-0.59,7.88-0.89,11.78-0.89
				c8.1,0,14.03,1.85,18.12,5.67c4.27,3.91,6.44,9.39,6.44,16.27c0,7.24-2.26,13.28-6.53,17.49C88.56,81.55,81.74,83.8,73.1,83.8z
				 M70.29,76.1c1.27,0.11,2.75,0.12,3.88,0.12c10.66,0,16.29-5.61,16.29-16.23c0.03-4.59-1.2-8.16-3.67-10.64
				c-2.62-2.63-6.57-3.97-11.75-3.97c-2.06,0-3.62,0.14-4.75,0.3V76.1z"/>
		</g>
		<g>
			<path class="st0" d="M27.63,83.35v-5.66l4.79-4.65c10.26-9.76,14.55-14.71,14.6-20.07c0-4.17-2.17-6.29-6.44-6.29
				c-3.4,0-6.21,1.92-7.58,3.06l-1.63,1.35l-3.12-6.9l0.93-0.78c3.43-2.9,7.88-4.5,12.51-4.5c9.68,0,14.02,6.73,14.02,13.4
				c0,8.35-5.99,14.76-14.46,22.92l-0.38,0.35h15.84v7.77H27.63z"/>
			<path class="st0" d="M73.02,83.72c-3.69,0-7.07-0.17-10.04-0.51l-1.43-0.16V38.89l1.37-0.21c3.92-0.59,7.88-0.89,11.78-0.89
				c8.1,0,14.03,1.85,18.12,5.67c4.27,3.91,6.44,9.39,6.44,16.27c0,7.24-2.26,13.28-6.53,17.49C88.48,81.47,81.66,83.72,73.02,83.72
				z M70.2,76.02c1.27,0.11,2.75,0.12,3.88,0.12c10.66,0,16.29-5.61,16.29-16.23c0.03-4.59-1.2-8.16-3.67-10.64
				c-2.62-2.63-6.57-3.97-11.75-3.97c-2.06,0-3.62,0.14-4.75,0.3V76.02z"/>
		</g>
		<g>
			<path class="st0" d="M27.55,83.27v-5.66l4.79-4.65c10.26-9.76,14.55-14.71,14.6-20.07c0-4.17-2.17-6.29-6.44-6.29
				c-3.4,0-6.21,1.92-7.58,3.06l-1.63,1.35l-3.12-6.9l0.93-0.78c3.43-2.9,7.88-4.5,12.51-4.5c9.68,0,14.02,6.73,14.02,13.4
				c0,8.35-5.99,14.76-14.46,22.92l-0.38,0.35h15.84v7.77H27.55z"/>
			<path class="st0" d="M72.94,83.64c-3.69,0-7.07-0.17-10.04-0.51l-1.43-0.16V38.8l1.37-0.21c3.92-0.59,7.88-0.89,11.78-0.89
				c8.1,0,14.03,1.85,18.12,5.67c4.27,3.91,6.44,9.39,6.44,16.27c0,7.24-2.26,13.28-6.53,17.49C88.4,81.39,81.58,83.64,72.94,83.64z
				 M70.12,75.94c1.27,0.11,2.75,0.12,3.88,0.12c10.66,0,16.29-5.61,16.29-16.23c0.03-4.59-1.2-8.16-3.67-10.64
				c-2.62-2.63-6.57-3.97-11.75-3.97c-2.06,0-3.62,0.14-4.75,0.3V75.94z"/>
		</g>
		<g>
			<path class="st0" d="M27.47,83.19v-5.66l4.79-4.65c10.26-9.76,14.55-14.71,14.6-20.07c0-4.17-2.17-6.29-6.44-6.29
				c-3.4,0-6.21,1.92-7.58,3.06l-1.63,1.35l-3.12-6.9l0.93-0.78c3.43-2.9,7.88-4.5,12.51-4.5c9.68,0,14.02,6.73,14.02,13.4
				c0,8.35-5.99,14.76-14.46,22.92l-0.38,0.35h15.84v7.77H27.47z"/>
			<path class="st0" d="M72.86,83.56c-3.69,0-7.07-0.17-10.04-0.51l-1.43-0.16V38.72l1.37-0.21c3.92-0.59,7.88-0.89,11.78-0.89
				c8.1,0,14.03,1.85,18.12,5.67c4.27,3.91,6.44,9.39,6.44,16.27c0,7.24-2.26,13.28-6.53,17.49C88.32,81.31,81.5,83.56,72.86,83.56z
				 M70.04,75.86c1.27,0.11,2.75,0.12,3.88,0.12c10.66,0,16.29-5.61,16.29-16.23c0.03-4.59-1.2-8.16-3.67-10.64
				c-2.62-2.63-6.57-3.97-11.75-3.97c-2.06,0-3.62,0.14-4.75,0.3V75.86z"/>
		</g>
		<g>
			<path class="st0" d="M27.39,83.11v-5.66l4.79-4.65c10.26-9.76,14.55-14.71,14.6-20.07c0-4.17-2.17-6.29-6.44-6.29
				c-3.4,0-6.21,1.92-7.58,3.06l-1.63,1.35l-3.12-6.9l0.93-0.78c3.43-2.9,7.88-4.5,12.51-4.5c9.68,0,14.02,6.73,14.02,13.4
				c0,8.35-5.99,14.76-14.46,22.92l-0.38,0.35h15.84v7.77H27.39z"/>
			<path class="st0" d="M72.78,83.48c-3.69,0-7.07-0.17-10.04-0.51l-1.43-0.16V38.64l1.37-0.21c3.92-0.59,7.88-0.89,11.78-0.89
				c8.1,0,14.03,1.85,18.12,5.67c4.27,3.91,6.44,9.39,6.44,16.27c0,7.24-2.26,13.28-6.53,17.49C88.24,81.23,81.42,83.48,72.78,83.48
				z M69.96,75.78c1.27,0.11,2.75,0.12,3.88,0.12c10.66,0,16.29-5.61,16.29-16.23c0.03-4.59-1.2-8.16-3.67-10.64
				c-2.62-2.63-6.57-3.97-11.75-3.97c-2.06,0-3.62,0.14-4.75,0.3V75.78z"/>
		</g>
		<g>
			<path class="st0" d="M27.31,83.03v-5.66l4.79-4.65c10.26-9.76,14.55-14.71,14.6-20.07c0-4.17-2.17-6.29-6.44-6.29
				c-3.4,0-6.21,1.92-7.58,3.06l-1.63,1.35l-3.12-6.9l0.93-0.78c3.43-2.9,7.88-4.5,12.51-4.5c9.68,0,14.02,6.73,14.02,13.4
				c0,8.35-5.99,14.76-14.46,22.92l-0.38,0.35h15.84v7.77H27.31z"/>
			<path class="st0" d="M72.7,83.4c-3.69,0-7.07-0.17-10.04-0.51l-1.43-0.16V38.56l1.37-0.21c3.92-0.59,7.88-0.89,11.78-0.89
				c8.1,0,14.03,1.85,18.12,5.67c4.27,3.91,6.44,9.39,6.44,16.27c0,7.24-2.26,13.28-6.53,17.49C88.16,81.15,81.34,83.4,72.7,83.4z
				 M69.88,75.7c1.27,0.11,2.75,0.12,3.88,0.12c10.66,0,16.29-5.61,16.29-16.23c0.03-4.59-1.2-8.16-3.67-10.64
				c-2.62-2.63-6.57-3.97-11.75-3.97c-2.06,0-3.62,0.14-4.75,0.3V75.7z"/>
		</g>
		<g>
			<path class="st0" d="M27.23,82.95v-5.66l4.79-4.65c10.26-9.76,14.55-14.71,14.6-20.07c0-4.17-2.17-6.29-6.44-6.29
				c-3.4,0-6.21,1.92-7.58,3.06l-1.63,1.35l-3.12-6.9L28.8,43c3.43-2.9,7.88-4.5,12.51-4.5c9.68,0,14.02,6.73,14.02,13.4
				c0,8.35-5.99,14.76-14.46,22.92l-0.38,0.35h15.84v7.77H27.23z"/>
			<path class="st0" d="M72.62,83.32c-3.69,0-7.07-0.17-10.04-0.51l-1.43-0.16V38.48l1.37-0.21c3.92-0.59,7.88-0.89,11.78-0.89
				c8.1,0,14.03,1.85,18.12,5.67c4.27,3.91,6.44,9.39,6.44,16.27c0,7.24-2.26,13.28-6.53,17.49C88.08,81.07,81.26,83.32,72.62,83.32
				z M69.8,75.62c1.27,0.11,2.75,0.12,3.88,0.12c10.66,0,16.29-5.61,16.29-16.23c0.03-4.59-1.2-8.16-3.67-10.64
				c-2.62-2.63-6.57-3.97-11.75-3.97c-2.06,0-3.62,0.14-4.75,0.3V75.62z"/>
		</g>
		<g>
			<path class="st0" d="M27.15,82.87v-5.66l4.79-4.65c10.26-9.76,14.55-14.71,14.6-20.07c0-4.17-2.17-6.29-6.44-6.29
				c-3.4,0-6.21,1.92-7.58,3.06l-1.63,1.35l-3.12-6.9l0.93-0.78c3.43-2.9,7.88-4.5,12.51-4.5c9.68,0,14.02,6.73,14.02,13.4
				c0,8.35-5.99,14.76-14.46,22.92l-0.38,0.35h15.84v7.77H27.15z"/>
			<path class="st0" d="M72.54,83.24c-3.69,0-7.07-0.17-10.04-0.51l-1.43-0.16V38.4l1.37-0.21c3.92-0.59,7.88-0.89,11.78-0.89
				c8.1,0,14.03,1.85,18.12,5.67c4.27,3.91,6.44,9.39,6.44,16.27c0,7.24-2.26,13.28-6.53,17.49C88,80.99,81.18,83.24,72.54,83.24z
				 M69.72,75.54c1.27,0.11,2.75,0.12,3.88,0.12c10.66,0,16.29-5.61,16.29-16.23c0.03-4.59-1.2-8.16-3.67-10.64
				c-2.62-2.63-6.57-3.97-11.75-3.97c-2.06,0-3.62,0.14-4.75,0.3V75.54z"/>
		</g>
		<g>
			<path class="st0" d="M27.07,82.79v-5.66l4.79-4.65c10.26-9.76,14.55-14.71,14.6-20.07c0-4.17-2.17-6.29-6.44-6.29
				c-3.4,0-6.21,1.92-7.58,3.06l-1.63,1.35l-3.12-6.9l0.93-0.78c3.43-2.9,7.88-4.5,12.51-4.5c9.68,0,14.02,6.73,14.02,13.4
				c0,8.35-5.99,14.76-14.46,22.92l-0.38,0.35h15.84v7.77H27.07z"/>
			<path class="st0" d="M72.46,83.16c-3.69,0-7.07-0.17-10.04-0.51L61,82.49V38.32l1.37-0.21c3.92-0.59,7.88-0.89,11.78-0.89
				c8.1,0,14.03,1.85,18.12,5.67c4.27,3.91,6.44,9.39,6.44,16.27c0,7.24-2.26,13.28-6.53,17.49C87.92,80.91,81.1,83.16,72.46,83.16z
				 M69.64,75.46c1.27,0.11,2.75,0.12,3.88,0.12c10.66,0,16.29-5.61,16.29-16.23c0.03-4.59-1.2-8.16-3.67-10.64
				c-2.62-2.63-6.57-3.97-11.75-3.97c-2.06,0-3.62,0.14-4.75,0.3V75.46z"/>
		</g>
		<g>
			<path class="st0" d="M26.99,82.71v-5.66l4.79-4.65c10.26-9.76,14.55-14.71,14.6-20.07c0-4.17-2.17-6.29-6.44-6.29
				c-3.4,0-6.21,1.92-7.58,3.06l-1.63,1.35l-3.12-6.9l0.93-0.78c3.43-2.9,7.88-4.5,12.51-4.5c9.68,0,14.02,6.73,14.02,13.4
				c0,8.35-5.99,14.76-14.46,22.92l-0.38,0.35h15.84v7.77H26.99z"/>
			<path class="st0" d="M72.38,83.08c-3.69,0-7.07-0.17-10.04-0.51l-1.43-0.16V38.24l1.37-0.21c3.92-0.59,7.88-0.89,11.78-0.89
				c8.1,0,14.03,1.85,18.12,5.67c4.27,3.91,6.44,9.39,6.44,16.27c0,7.24-2.26,13.28-6.53,17.49C87.84,80.83,81.02,83.08,72.38,83.08
				z M69.56,75.38c1.27,0.11,2.75,0.12,3.88,0.12c10.66,0,16.29-5.61,16.29-16.23c0.03-4.59-1.2-8.16-3.67-10.64
				c-2.62-2.63-6.57-3.97-11.75-3.97c-2.06,0-3.62,0.14-4.75,0.3V75.38z"/>
		</g>
		<g>
			<path class="st0" d="M26.91,82.63v-5.66l4.79-4.65c10.26-9.76,14.55-14.71,14.6-20.07c0-4.17-2.17-6.29-6.44-6.29
				c-3.4,0-6.21,1.92-7.58,3.06l-1.63,1.35l-3.12-6.9l0.93-0.78c3.43-2.9,7.88-4.5,12.51-4.5c9.68,0,14.02,6.73,14.02,13.4
				c0,8.35-5.99,14.76-14.46,22.92l-0.38,0.35h15.84v7.77H26.91z"/>
			<path class="st0" d="M72.3,83c-3.69,0-7.07-0.17-10.04-0.51l-1.43-0.16V38.16l1.37-0.21c3.92-0.59,7.88-0.89,11.78-0.89
				c8.1,0,14.03,1.85,18.12,5.67c4.27,3.91,6.44,9.39,6.44,16.27c0,7.24-2.26,13.28-6.53,17.49C87.76,80.75,80.94,83,72.3,83z
				 M69.48,75.3c1.27,0.11,2.75,0.12,3.88,0.12c10.66,0,16.29-5.61,16.29-16.23c0.03-4.59-1.2-8.16-3.67-10.64
				c-2.62-2.63-6.57-3.97-11.75-3.97c-2.06,0-3.62,0.14-4.75,0.3V75.3z"/>
		</g>
		<g>
			<path class="st0" d="M26.83,82.55v-5.66l4.79-4.65c10.26-9.76,14.55-14.71,14.6-20.07c0-4.17-2.17-6.29-6.44-6.29
				c-3.4,0-6.21,1.92-7.58,3.06l-1.63,1.35l-3.12-6.9l0.93-0.78c3.43-2.9,7.88-4.5,12.51-4.5c9.68,0,14.02,6.73,14.02,13.4
				c0,8.35-5.99,14.76-14.46,22.92l-0.38,0.35h15.84v7.77H26.83z"/>
			<path class="st0" d="M72.22,82.92c-3.69,0-7.07-0.17-10.04-0.51l-1.43-0.16V38.08l1.37-0.21c3.92-0.59,7.88-0.89,11.78-0.89
				c8.1,0,14.03,1.85,18.12,5.67c4.27,3.91,6.44,9.39,6.44,16.27c0,7.24-2.26,13.28-6.53,17.49C87.67,80.66,80.86,82.92,72.22,82.92
				z M69.4,75.21c1.27,0.11,2.75,0.12,3.88,0.12c10.66,0,16.29-5.61,16.29-16.23c0.03-4.59-1.2-8.16-3.67-10.64
				c-2.62-2.63-6.57-3.97-11.75-3.97c-2.06,0-3.62,0.14-4.75,0.3V75.21z"/>
		</g>
		<g>
			<path class="st0" d="M26.75,82.47v-5.66l4.79-4.65c10.26-9.76,14.55-14.71,14.6-20.07c0-4.17-2.17-6.29-6.44-6.29
				c-3.4,0-6.21,1.92-7.58,3.06l-1.63,1.35l-3.12-6.9l0.93-0.78c3.43-2.9,7.88-4.5,12.51-4.5c9.68,0,14.02,6.73,14.02,13.4
				c0,8.35-5.99,14.76-14.46,22.92l-0.38,0.35h15.84v7.77H26.75z"/>
			<path class="st0" d="M72.14,82.84c-3.69,0-7.07-0.17-10.04-0.51l-1.43-0.16V38l1.37-0.21c3.92-0.59,7.88-0.89,11.78-0.89
				c8.1,0,14.03,1.85,18.12,5.67c4.27,3.91,6.44,9.39,6.44,16.27c0,7.24-2.26,13.28-6.53,17.49C87.59,80.58,80.77,82.84,72.14,82.84
				z M69.32,75.13c1.27,0.11,2.75,0.12,3.88,0.12c10.66,0,16.29-5.61,16.29-16.23c0.03-4.59-1.2-8.16-3.67-10.64
				c-2.62-2.63-6.57-3.97-11.75-3.97c-2.06,0-3.62,0.14-4.75,0.3V75.13z"/>
		</g>
		<g>
			<path class="st0" d="M26.67,82.38v-5.66l4.79-4.65c10.26-9.76,14.55-14.71,14.6-20.07c0-4.17-2.17-6.29-6.44-6.29
				c-3.4,0-6.21,1.92-7.58,3.06l-1.63,1.35l-3.12-6.9l0.93-0.78c3.43-2.9,7.88-4.5,12.51-4.5c9.68,0,14.02,6.73,14.02,13.4
				c0,8.35-5.99,14.76-14.46,22.92l-0.38,0.35h15.84v7.77H26.67z"/>
			<path class="st0" d="M72.06,82.76c-3.69,0-7.07-0.17-10.04-0.51l-1.43-0.16V37.92l1.37-0.21c3.92-0.59,7.88-0.89,11.78-0.89
				c8.1,0,14.03,1.85,18.12,5.67c4.27,3.91,6.44,9.39,6.44,16.27c0,7.24-2.26,13.28-6.53,17.49C87.51,80.5,80.69,82.76,72.06,82.76z
				 M69.24,75.05c1.27,0.11,2.75,0.12,3.88,0.12c10.66,0,16.29-5.61,16.29-16.23c0.03-4.59-1.2-8.16-3.67-10.64
				c-2.62-2.63-6.57-3.97-11.75-3.97c-2.06,0-3.62,0.14-4.75,0.3V75.05z"/>
		</g>
		<g>
			<path class="st0" d="M26.59,82.3v-5.66l4.79-4.65c10.26-9.76,14.55-14.71,14.6-20.07c0-4.17-2.17-6.29-6.44-6.29
				c-3.4,0-6.21,1.92-7.58,3.06l-1.63,1.35l-3.12-6.9l0.93-0.78c3.43-2.9,7.88-4.5,12.51-4.5c9.68,0,14.02,6.73,14.02,13.4
				c0,8.35-5.99,14.76-14.46,22.92l-0.38,0.35h15.84v7.77H26.59z"/>
			<path class="st0" d="M71.98,82.68c-3.69,0-7.07-0.17-10.04-0.51l-1.43-0.16V37.84l1.37-0.21c3.92-0.59,7.88-0.89,11.78-0.89
				c8.1,0,14.03,1.85,18.12,5.67c4.27,3.91,6.44,9.39,6.44,16.27c0,7.24-2.26,13.28-6.53,17.49C87.43,80.42,80.61,82.68,71.98,82.68
				z M69.16,74.97c1.27,0.11,2.75,0.12,3.88,0.12c10.66,0,16.29-5.61,16.29-16.23c0.03-4.59-1.2-8.16-3.67-10.64
				c-2.62-2.63-6.57-3.97-11.75-3.97c-2.06,0-3.62,0.14-4.75,0.3V74.97z"/>
		</g>
		<g>
			<path class="st0" d="M26.51,82.22v-5.66l4.79-4.65c10.26-9.76,14.55-14.71,14.6-20.07c0-4.17-2.17-6.29-6.44-6.29
				c-3.4,0-6.21,1.92-7.58,3.06l-1.63,1.35l-3.12-6.9l0.93-0.78c3.43-2.9,7.88-4.5,12.51-4.5c9.68,0,14.02,6.73,14.02,13.4
				c0,8.35-5.99,14.76-14.46,22.92l-0.38,0.35h15.84v7.77H26.51z"/>
			<path class="st0" d="M71.9,82.6c-3.69,0-7.07-0.17-10.04-0.51l-1.43-0.16V37.76l1.37-0.21c3.92-0.59,7.88-0.89,11.78-0.89
				c8.1,0,14.03,1.85,18.12,5.67c4.27,3.91,6.44,9.39,6.44,16.27c0,7.24-2.26,13.28-6.53,17.49C87.35,80.34,80.53,82.6,71.9,82.6z
				 M69.08,74.89c1.27,0.11,2.75,0.12,3.88,0.12c10.66,0,16.29-5.61,16.29-16.23c0.03-4.59-1.2-8.16-3.67-10.64
				c-2.62-2.63-6.57-3.97-11.75-3.97c-2.06,0-3.62,0.14-4.75,0.3V74.89z"/>
		</g>
		<g>
			<path class="st0" d="M26.43,82.14v-5.66l4.79-4.65c10.26-9.76,14.55-14.71,14.6-20.07c0-4.17-2.17-6.29-6.44-6.29
				c-3.4,0-6.21,1.92-7.58,3.06l-1.63,1.35l-3.12-6.9L28,42.2c3.43-2.9,7.88-4.5,12.51-4.5c9.68,0,14.02,6.73,14.02,13.4
				c0,8.35-5.99,14.76-14.46,22.92l-0.38,0.35h15.84v7.77H26.43z"/>
			<path class="st0" d="M71.82,82.52c-3.69,0-7.07-0.17-10.04-0.51l-1.43-0.16V37.68l1.37-0.21c3.92-0.59,7.88-0.89,11.78-0.89
				c8.1,0,14.03,1.85,18.12,5.67c4.27,3.91,6.44,9.39,6.44,16.27c0,7.24-2.26,13.28-6.53,17.49C87.27,80.26,80.45,82.52,71.82,82.52
				z M69,74.81c1.27,0.11,2.75,0.12,3.88,0.12c10.66,0,16.29-5.61,16.29-16.23c0.03-4.59-1.2-8.16-3.67-10.64
				c-2.62-2.63-6.57-3.97-11.75-3.97c-2.06,0-3.62,0.14-4.75,0.3V74.81z"/>
		</g>
		<g>
			<path class="st0" d="M26.35,82.06v-5.66l4.79-4.65c10.26-9.76,14.55-14.71,14.6-20.07c0-4.17-2.17-6.29-6.44-6.29
				c-3.4,0-6.21,1.92-7.58,3.06l-1.63,1.35l-3.12-6.9l0.93-0.78c3.43-2.9,7.88-4.5,12.51-4.5c9.68,0,14.02,6.73,14.02,13.4
				c0,8.35-5.99,14.76-14.46,22.92l-0.38,0.35h15.84v7.77H26.35z"/>
			<path class="st0" d="M71.74,82.44c-3.69,0-7.07-0.17-10.04-0.51l-1.43-0.16V37.6l1.37-0.21c3.92-0.59,7.88-0.89,11.78-0.89
				c8.1,0,14.03,1.85,18.12,5.67c4.27,3.91,6.44,9.39,6.44,16.27c0,7.24-2.26,13.28-6.53,17.49C87.19,80.18,80.37,82.44,71.74,82.44
				z M68.92,74.73c1.27,0.11,2.75,0.12,3.88,0.12c10.66,0,16.29-5.61,16.29-16.23c0.03-4.59-1.2-8.16-3.67-10.64
				c-2.62-2.63-6.57-3.97-11.75-3.97c-2.06,0-3.62,0.14-4.75,0.3V74.73z"/>
		</g>
		<g>
			<path class="st0" d="M26.27,81.98v-5.66l4.79-4.65c10.26-9.76,14.55-14.71,14.6-20.07c0-4.17-2.17-6.29-6.44-6.29
				c-3.4,0-6.21,1.92-7.58,3.06l-1.63,1.35l-3.12-6.9l0.93-0.78c3.43-2.9,7.88-4.5,12.51-4.5c9.68,0,14.02,6.73,14.02,13.4
				c0,8.35-5.99,14.76-14.46,22.92l-0.38,0.35h15.84v7.77H26.27z"/>
			<path class="st0" d="M71.66,82.36c-3.69,0-7.07-0.17-10.04-0.51l-1.43-0.16V37.52l1.37-0.21c3.92-0.59,7.88-0.89,11.78-0.89
				c8.1,0,14.03,1.85,18.12,5.67c4.27,3.91,6.44,9.39,6.44,16.27c0,7.24-2.26,13.28-6.53,17.49C87.11,80.1,80.29,82.36,71.66,82.36z
				 M68.84,74.65c1.27,0.11,2.75,0.12,3.88,0.12C83.37,74.77,89,69.16,89,58.55c0.03-4.59-1.2-8.16-3.67-10.64
				c-2.62-2.63-6.57-3.97-11.75-3.97c-2.06,0-3.62,0.14-4.75,0.3V74.65z"/>
		</g>
		<g>
			<path class="st0" d="M26.19,81.9v-5.66l4.79-4.65c10.26-9.76,14.55-14.71,14.6-20.07c0-4.17-2.17-6.29-6.44-6.29
				c-3.4,0-6.21,1.92-7.58,3.06l-1.63,1.35l-3.12-6.9l0.93-0.78c3.43-2.9,7.88-4.5,12.51-4.5c9.68,0,14.02,6.73,14.02,13.4
				c0,8.35-5.99,14.76-14.46,22.92l-0.38,0.35h15.84v7.77H26.19z"/>
			<path class="st0" d="M71.57,82.28c-3.69,0-7.07-0.17-10.04-0.51l-1.43-0.16V37.44l1.37-0.21c3.92-0.59,7.88-0.89,11.78-0.89
				c8.1,0,14.03,1.85,18.12,5.67c4.27,3.91,6.44,9.39,6.44,16.27c0,7.24-2.26,13.28-6.53,17.49C87.03,80.02,80.21,82.28,71.57,82.28
				z M68.76,74.57c1.27,0.11,2.75,0.12,3.88,0.12c10.66,0,16.29-5.61,16.29-16.23c0.03-4.59-1.2-8.16-3.67-10.64
				c-2.62-2.63-6.57-3.97-11.75-3.97c-2.06,0-3.62,0.14-4.75,0.3V74.57z"/>
		</g>
		<g>
			<path class="st0" d="M26.11,81.82v-5.66l4.79-4.65c10.26-9.76,14.55-14.71,14.6-20.07c0-4.17-2.17-6.29-6.44-6.29
				c-3.4,0-6.21,1.92-7.58,3.06l-1.63,1.35l-3.12-6.9l0.93-0.78c3.43-2.9,7.88-4.5,12.51-4.5c9.68,0,14.02,6.73,14.02,13.4
				c0,8.35-5.99,14.76-14.46,22.92l-0.38,0.35H55.2v7.77H26.11z"/>
			<path class="st0" d="M71.49,82.2c-3.69,0-7.07-0.17-10.04-0.51l-1.43-0.16V37.36l1.37-0.21c3.92-0.59,7.88-0.89,11.78-0.89
				c8.1,0,14.03,1.85,18.12,5.67c4.27,3.91,6.44,9.39,6.44,16.27c0,7.24-2.26,13.28-6.53,17.49C86.95,79.94,80.13,82.2,71.49,82.2z
				 M68.68,74.49c1.27,0.11,2.75,0.12,3.88,0.12c10.66,0,16.29-5.61,16.29-16.23c0.03-4.59-1.2-8.16-3.67-10.64
				c-2.62-2.63-6.57-3.97-11.75-3.97c-2.06,0-3.62,0.14-4.75,0.3V74.49z"/>
		</g>
		<g>
			<path class="st0" d="M26.03,81.74v-5.66l4.79-4.65c10.26-9.76,14.55-14.71,14.6-20.07c0-4.17-2.17-6.29-6.44-6.29
				c-3.4,0-6.21,1.92-7.58,3.06l-1.63,1.35l-3.12-6.9l0.93-0.78c3.43-2.9,7.88-4.5,12.51-4.5c9.68,0,14.02,6.73,14.02,13.4
				c0,8.35-5.99,14.76-14.46,22.92l-0.38,0.35h15.84v7.77H26.03z"/>
			<path class="st0" d="M71.41,82.12c-3.69,0-7.07-0.17-10.04-0.51l-1.43-0.16V37.28l1.37-0.21c3.92-0.59,7.88-0.89,11.78-0.89
				c8.1,0,14.03,1.85,18.12,5.67c4.27,3.91,6.44,9.39,6.44,16.27c0,7.24-2.26,13.28-6.53,17.49C86.87,79.86,80.05,82.12,71.41,82.12
				z M68.6,74.41c1.27,0.11,2.75,0.12,3.88,0.12c10.66,0,16.29-5.61,16.29-16.23c0.03-4.59-1.2-8.16-3.67-10.64
				c-2.62-2.63-6.57-3.97-11.75-3.97c-2.06,0-3.62,0.14-4.75,0.3V74.41z"/>
		</g>
		<g>
			<path class="st0" d="M25.95,81.66V76l4.79-4.65c10.26-9.76,14.55-14.71,14.6-20.07c0-4.17-2.17-6.29-6.44-6.29
				c-3.4,0-6.21,1.92-7.58,3.06L29.7,49.4l-3.12-6.9l0.93-0.78c3.43-2.9,7.88-4.5,12.51-4.5c9.68,0,14.02,6.73,14.02,13.4
				c0,8.35-5.99,14.76-14.46,22.92l-0.38,0.35h15.84v7.77H25.95z"/>
			<path class="st0" d="M71.33,82.03c-3.69,0-7.07-0.17-10.04-0.51l-1.43-0.16V37.2l1.37-0.21c3.92-0.59,7.88-0.89,11.78-0.89
				c8.1,0,14.03,1.85,18.12,5.67c4.27,3.91,6.44,9.39,6.44,16.27c0,7.24-2.26,13.28-6.53,17.49C86.79,79.78,79.97,82.03,71.33,82.03
				z M68.52,74.33c1.27,0.11,2.75,0.12,3.88,0.12c10.66,0,16.29-5.61,16.29-16.23c0.03-4.59-1.2-8.16-3.67-10.64
				c-2.62-2.63-6.57-3.97-11.75-3.97c-2.06,0-3.62,0.14-4.75,0.3V74.33z"/>
		</g>
		<g>
			<path class="st0" d="M25.86,81.58v-5.66l4.79-4.65c10.26-9.76,14.55-14.71,14.6-20.07c0-4.17-2.17-6.29-6.44-6.29
				c-3.4,0-6.21,1.92-7.58,3.06l-1.63,1.35l-3.12-6.9l0.93-0.78c3.43-2.9,7.88-4.5,12.51-4.5c9.68,0,14.02,6.73,14.02,13.4
				c0,8.35-5.99,14.76-14.46,22.92l-0.38,0.35h15.84v7.77H25.86z"/>
			<path class="st0" d="M71.25,81.95c-3.69,0-7.07-0.17-10.04-0.51l-1.43-0.16V37.12l1.37-0.21c3.92-0.59,7.88-0.89,11.78-0.89
				c8.1,0,14.03,1.85,18.12,5.67c4.27,3.91,6.44,9.39,6.44,16.27c0,7.24-2.26,13.28-6.53,17.49C86.71,79.7,79.89,81.95,71.25,81.95z
				 M68.43,74.25c1.27,0.11,2.75,0.12,3.88,0.12c10.66,0,16.29-5.61,16.29-16.23c0.03-4.59-1.2-8.16-3.67-10.64
				c-2.62-2.63-6.57-3.97-11.75-3.97c-2.06,0-3.62,0.14-4.75,0.3V74.25z"/>
		</g>
		<g>
			<path class="st0" d="M25.78,81.5v-5.66l4.79-4.65c10.26-9.76,14.55-14.71,14.6-20.07c0-4.17-2.17-6.29-6.44-6.29
				c-3.4,0-6.21,1.92-7.58,3.06l-1.63,1.35l-3.12-6.9l0.93-0.78c3.43-2.9,7.88-4.5,12.51-4.5c9.68,0,14.02,6.73,14.02,13.4
				c0,8.35-5.99,14.76-14.46,22.92l-0.38,0.35h15.84v7.77H25.78z"/>
			<path class="st0" d="M71.17,81.87c-3.69,0-7.07-0.17-10.04-0.51l-1.43-0.16V37.03l1.37-0.21c3.92-0.59,7.88-0.89,11.78-0.89
				c8.1,0,14.03,1.85,18.12,5.67c4.27,3.91,6.44,9.39,6.44,16.27c0,7.24-2.26,13.28-6.53,17.49C86.63,79.62,79.81,81.87,71.17,81.87
				z M68.35,74.17c1.27,0.11,2.75,0.12,3.88,0.12c10.66,0,16.29-5.61,16.29-16.23c0.03-4.59-1.2-8.16-3.67-10.64
				c-2.62-2.63-6.57-3.97-11.75-3.97c-2.06,0-3.62,0.14-4.75,0.3V74.17z"/>
		</g>
		<g>
			<path class="st0" d="M25.7,81.42v-5.66l4.79-4.65c10.26-9.76,14.55-14.71,14.6-20.07c0-4.17-2.17-6.29-6.44-6.29
				c-3.4,0-6.21,1.92-7.58,3.06l-1.63,1.35l-3.12-6.9l0.93-0.78c3.43-2.9,7.88-4.5,12.51-4.5c9.68,0,14.02,6.73,14.02,13.4
				c0,8.35-5.99,14.76-14.46,22.92l-0.38,0.35H54.8v7.77H25.7z"/>
			<path class="st0" d="M71.09,81.79c-3.69,0-7.07-0.17-10.04-0.51l-1.43-0.16V36.95L61,36.75c3.92-0.59,7.88-0.89,11.78-0.89
				c8.1,0,14.03,1.85,18.12,5.67c4.27,3.91,6.44,9.39,6.44,16.27c0,7.24-2.26,13.28-6.53,17.49C86.55,79.54,79.73,81.79,71.09,81.79
				z M68.27,74.09c1.27,0.11,2.75,0.12,3.88,0.12c10.66,0,16.29-5.61,16.29-16.23c0.03-4.59-1.2-8.16-3.67-10.64
				c-2.62-2.63-6.57-3.97-11.75-3.97c-2.06,0-3.62,0.14-4.75,0.3V74.09z"/>
		</g>
		<g>
			<path class="st0" d="M25.62,81.34v-5.66l4.79-4.65c10.26-9.76,14.55-14.71,14.6-20.07c0-4.17-2.17-6.29-6.44-6.29
				c-3.4,0-6.21,1.92-7.58,3.06l-1.63,1.35l-3.12-6.9l0.93-0.78c3.43-2.9,7.88-4.5,12.51-4.5c9.68,0,14.02,6.73,14.02,13.4
				c0,8.35-5.99,14.76-14.46,22.92l-0.38,0.35h15.84v7.77H25.62z"/>
			<path class="st0" d="M71.01,81.71c-3.69,0-7.07-0.17-10.04-0.51l-1.43-0.16V36.87l1.37-0.21c3.92-0.59,7.88-0.89,11.78-0.89
				c8.1,0,14.03,1.85,18.12,5.67c4.27,3.91,6.44,9.39,6.44,16.27c0,7.24-2.26,13.28-6.53,17.49C86.47,79.46,79.65,81.71,71.01,81.71
				z M68.19,74.01c1.27,0.11,2.75,0.12,3.88,0.12c10.66,0,16.29-5.61,16.29-16.23c0.03-4.59-1.2-8.16-3.67-10.64
				c-2.62-2.63-6.57-3.97-11.75-3.97c-2.06,0-3.62,0.14-4.75,0.3V74.01z"/>
		</g>
		<g>
			<path class="st0" d="M25.54,81.26V75.6l4.79-4.65c10.26-9.76,14.55-14.71,14.6-20.07c0-4.17-2.17-6.29-6.44-6.29
				c-3.4,0-6.21,1.92-7.58,3.06L29.3,49l-3.12-6.9l0.93-0.78c3.43-2.9,7.88-4.5,12.51-4.5c9.68,0,14.02,6.73,14.02,13.4
				c0,8.35-5.99,14.76-14.46,22.92l-0.38,0.35h15.84v7.77H25.54z"/>
			<path class="st0" d="M70.93,81.63c-3.69,0-7.07-0.17-10.04-0.51l-1.43-0.16V36.79l1.37-0.21c3.92-0.59,7.88-0.89,11.78-0.89
				c8.1,0,14.03,1.85,18.12,5.67c4.27,3.91,6.44,9.39,6.44,16.27c0,7.24-2.26,13.28-6.53,17.49C86.39,79.38,79.57,81.63,70.93,81.63
				z M68.11,73.93c1.27,0.11,2.75,0.12,3.88,0.12c10.66,0,16.29-5.61,16.29-16.23c0.03-4.59-1.2-8.16-3.67-10.64
				c-2.62-2.63-6.57-3.97-11.75-3.97c-2.06,0-3.62,0.14-4.75,0.3V73.93z"/>
		</g>
		<g>
			<path class="st0" d="M25.46,81.18v-5.66l4.79-4.65c10.26-9.76,14.55-14.71,14.6-20.07c0-4.17-2.17-6.29-6.44-6.29
				c-3.4,0-6.21,1.92-7.58,3.06l-1.63,1.35l-3.12-6.9l0.93-0.78c3.43-2.9,7.88-4.5,12.51-4.5c9.68,0,14.02,6.73,14.02,13.4
				c0,8.35-5.99,14.76-14.46,22.92l-0.38,0.35h15.84v7.77H25.46z"/>
			<path class="st0" d="M70.85,81.55c-3.69,0-7.07-0.17-10.04-0.51l-1.43-0.16V36.71l1.37-0.21c3.92-0.59,7.88-0.89,11.78-0.89
				c8.1,0,14.03,1.85,18.12,5.67c4.27,3.91,6.44,9.39,6.44,16.27c0,7.24-2.26,13.28-6.53,17.49C86.31,79.3,79.49,81.55,70.85,81.55z
				 M68.03,73.85c1.27,0.11,2.75,0.12,3.88,0.12c10.66,0,16.29-5.61,16.29-16.23c0.03-4.59-1.2-8.16-3.67-10.64
				c-2.62-2.63-6.57-3.97-11.75-3.97c-2.06,0-3.62,0.14-4.75,0.3V73.85z"/>
		</g>
		<g>
			<path class="st0" d="M25.38,81.1v-5.66l4.79-4.65c10.26-9.76,14.55-14.71,14.6-20.07c0-4.17-2.17-6.29-6.44-6.29
				c-3.4,0-6.21,1.92-7.58,3.06l-1.63,1.35l-3.12-6.9l0.93-0.78c3.43-2.9,7.88-4.5,12.51-4.5c9.68,0,14.02,6.73,14.02,13.4
				c0,8.35-5.99,14.76-14.46,22.92l-0.38,0.35h15.84v7.77H25.38z"/>
			<path class="st0" d="M70.77,81.47c-3.69,0-7.07-0.17-10.04-0.51l-1.43-0.16V36.63l1.37-0.21c3.92-0.59,7.88-0.89,11.78-0.89
				c8.1,0,14.03,1.85,18.12,5.67c4.27,3.91,6.44,9.39,6.44,16.27c0,7.24-2.26,13.28-6.53,17.49C86.23,79.22,79.41,81.47,70.77,81.47
				z M67.95,73.77c1.27,0.11,2.75,0.12,3.88,0.12c10.66,0,16.29-5.61,16.29-16.23c0.03-4.59-1.2-8.16-3.67-10.64
				c-2.62-2.63-6.57-3.97-11.75-3.97c-2.06,0-3.62,0.14-4.75,0.3V73.77z"/>
		</g>
		<g>
			<path class="st0" d="M25.3,81.02v-5.66l4.79-4.65C40.35,60.94,44.64,56,44.7,50.64c0-4.17-2.17-6.29-6.44-6.29
				c-3.4,0-6.21,1.92-7.58,3.06l-1.63,1.35l-3.12-6.9l0.93-0.78c3.43-2.9,7.88-4.5,12.51-4.5c9.68,0,14.02,6.73,14.02,13.4
				c0,8.35-5.99,14.76-14.46,22.92l-0.38,0.35H54.4v7.77H25.3z"/>
			<path class="st0" d="M70.69,81.39c-3.69,0-7.07-0.17-10.04-0.51l-1.43-0.16V36.55l1.37-0.21c3.92-0.59,7.88-0.89,11.78-0.89
				c8.1,0,14.03,1.85,18.12,5.67c4.27,3.91,6.44,9.39,6.44,16.27c0,7.24-2.26,13.28-6.53,17.49C86.15,79.14,79.33,81.39,70.69,81.39
				z M67.87,73.69c1.27,0.11,2.75,0.12,3.88,0.12c10.66,0,16.29-5.61,16.29-16.23c0.03-4.59-1.2-8.16-3.67-10.64
				c-2.62-2.63-6.57-3.97-11.75-3.97c-2.06,0-3.62,0.14-4.75,0.3V73.69z"/>
		</g>
		<g>
			<path class="st0" d="M25.22,80.94v-5.66l4.79-4.65c10.26-9.76,14.55-14.71,14.6-20.07c0-4.17-2.17-6.29-6.44-6.29
				c-3.4,0-6.21,1.92-7.58,3.06l-1.63,1.35l-3.12-6.9l0.93-0.78c3.43-2.9,7.88-4.5,12.51-4.5c9.68,0,14.02,6.73,14.02,13.4
				c0,8.35-5.99,14.76-14.46,22.92l-0.38,0.35h15.84v7.77H25.22z"/>
			<path class="st0" d="M70.61,81.31c-3.69,0-7.07-0.17-10.04-0.51l-1.43-0.16V36.47l1.37-0.21c3.92-0.59,7.88-0.89,11.78-0.89
				c8.1,0,14.03,1.85,18.12,5.67c4.27,3.91,6.44,9.39,6.44,16.27c0,7.24-2.26,13.28-6.53,17.49C86.07,79.06,79.25,81.31,70.61,81.31
				z M67.79,73.61c1.27,0.11,2.75,0.12,3.88,0.12c10.66,0,16.29-5.61,16.29-16.23c0.03-4.59-1.2-8.16-3.67-10.64
				c-2.62-2.63-6.57-3.97-11.75-3.97c-2.06,0-3.62,0.14-4.75,0.3V73.61z"/>
		</g>
		<g>
			<path class="st0" d="M25.14,80.86V75.2l4.79-4.65c10.26-9.76,14.55-14.71,14.6-20.07c0-4.17-2.17-6.29-6.44-6.29
				c-3.4,0-6.21,1.92-7.58,3.06L28.9,48.6l-3.12-6.9l0.93-0.78c3.43-2.9,7.88-4.5,12.51-4.5c9.68,0,14.02,6.73,14.02,13.4
				c0,8.35-5.99,14.76-14.46,22.92l-0.38,0.35h15.84v7.77H25.14z"/>
			<path class="st0" d="M70.53,81.23c-3.69,0-7.07-0.17-10.04-0.51l-1.43-0.16V36.39l1.37-0.21c3.92-0.59,7.88-0.89,11.78-0.89
				c8.1,0,14.03,1.85,18.12,5.67c4.27,3.91,6.44,9.39,6.44,16.27c0,7.24-2.26,13.28-6.53,17.49C85.99,78.98,79.17,81.23,70.53,81.23
				z M67.71,73.53c1.27,0.11,2.75,0.12,3.88,0.12c10.66,0,16.29-5.61,16.29-16.23c0.03-4.59-1.2-8.16-3.67-10.64
				c-2.62-2.63-6.57-3.97-11.75-3.97c-2.06,0-3.62,0.14-4.75,0.3V73.53z"/>
		</g>
		<g>
			<path class="st0" d="M25.06,80.78v-5.66l4.79-4.65C40.11,60.7,44.4,55.76,44.46,50.4c0-4.17-2.17-6.29-6.44-6.29
				c-3.4,0-6.21,1.92-7.58,3.06l-1.63,1.35l-3.12-6.9l0.93-0.78c3.43-2.9,7.88-4.5,12.51-4.5c9.68,0,14.02,6.73,14.02,13.4
				c0,8.35-5.99,14.76-14.46,22.92L38.32,73h15.84v7.77H25.06z"/>
			<path class="st0" d="M70.45,81.15c-3.69,0-7.07-0.17-10.04-0.51l-1.43-0.16V36.31l1.37-0.21c3.92-0.59,7.88-0.89,11.78-0.89
				c8.1,0,14.03,1.85,18.12,5.67c4.27,3.91,6.44,9.39,6.44,16.27c0,7.24-2.26,13.28-6.53,17.49C85.9,78.89,79.09,81.15,70.45,81.15z
				 M67.63,73.44c1.27,0.11,2.75,0.12,3.88,0.12c10.66,0,16.29-5.61,16.29-16.23c0.03-4.59-1.2-8.16-3.67-10.64
				c-2.62-2.63-6.57-3.97-11.75-3.97c-2.06,0-3.62,0.14-4.75,0.3V73.44z"/>
		</g>
		<g>
			<path class="st0" d="M24.98,80.7v-5.66l4.79-4.65c10.26-9.76,14.55-14.71,14.6-20.07c0-4.17-2.17-6.29-6.44-6.29
				c-3.4,0-6.21,1.92-7.58,3.06l-1.63,1.35l-3.12-6.9l0.93-0.78c3.43-2.9,7.88-4.5,12.51-4.5c9.68,0,14.02,6.73,14.02,13.4
				c0,8.35-5.99,14.76-14.46,22.92l-0.38,0.35h15.84v7.77H24.98z"/>
			<path class="st0" d="M70.37,81.07c-3.69,0-7.07-0.17-10.04-0.51l-1.43-0.16V36.23l1.37-0.21c3.92-0.59,7.88-0.89,11.78-0.89
				c8.1,0,14.03,1.85,18.12,5.67c4.27,3.91,6.44,9.39,6.44,16.27c0,7.24-2.26,13.28-6.53,17.49C85.82,78.81,79,81.07,70.37,81.07z
				 M67.55,73.36c1.27,0.11,2.75,0.12,3.88,0.12c10.66,0,16.29-5.61,16.29-16.23c0.03-4.59-1.2-8.16-3.67-10.64
				c-2.62-2.63-6.57-3.97-11.75-3.97c-2.06,0-3.62,0.14-4.75,0.3V73.36z"/>
		</g>
		<g>
			<path class="st0" d="M24.9,80.61v-5.66l4.79-4.65c10.26-9.76,14.55-14.71,14.6-20.07c0-4.17-2.17-6.29-6.44-6.29
				c-3.4,0-6.21,1.92-7.58,3.06l-1.63,1.35l-3.12-6.9l0.93-0.78c3.43-2.9,7.88-4.5,12.51-4.5c9.68,0,14.02,6.73,14.02,13.4
				c0,8.35-5.99,14.76-14.46,22.92l-0.38,0.35H54v7.77H24.9z"/>
			<path class="st0" d="M70.29,80.99c-3.69,0-7.07-0.17-10.04-0.51l-1.43-0.16V36.15l1.37-0.21c3.92-0.59,7.88-0.89,11.78-0.89
				c8.1,0,14.03,1.85,18.12,5.67c4.27,3.91,6.44,9.39,6.44,16.27c0,7.24-2.26,13.28-6.53,17.49C85.74,78.73,78.92,80.99,70.29,80.99
				z M67.47,73.28c1.27,0.11,2.75,0.12,3.88,0.12c10.66,0,16.29-5.61,16.29-16.23c0.03-4.59-1.2-8.16-3.67-10.64
				c-2.62-2.63-6.57-3.97-11.75-3.97c-2.06,0-3.62,0.14-4.75,0.3V73.28z"/>
		</g>
		<g>
			<path class="st0" d="M24.82,80.53v-5.66l4.79-4.65c10.26-9.76,14.55-14.71,14.6-20.07c0-4.17-2.17-6.29-6.44-6.29
				c-3.4,0-6.21,1.92-7.58,3.06l-1.63,1.35l-3.12-6.9l0.93-0.78c3.43-2.9,7.88-4.5,12.51-4.5c9.68,0,14.02,6.73,14.02,13.4
				c0,8.35-5.99,14.76-14.46,22.92l-0.38,0.35h15.84v7.77H24.82z"/>
			<path class="st0" d="M70.21,80.91c-3.69,0-7.07-0.17-10.04-0.51l-1.43-0.16V36.07l1.37-0.21c3.92-0.59,7.88-0.89,11.78-0.89
				c8.1,0,14.03,1.85,18.12,5.67c4.27,3.91,6.44,9.39,6.44,16.27c0,7.24-2.26,13.28-6.53,17.49C85.66,78.65,78.84,80.91,70.21,80.91
				z M67.39,73.2c1.27,0.11,2.75,0.12,3.88,0.12c10.66,0,16.29-5.61,16.29-16.23c0.03-4.59-1.2-8.16-3.67-10.64
				c-2.62-2.63-6.57-3.97-11.75-3.97c-2.06,0-3.62,0.14-4.75,0.3V73.2z"/>
		</g>
		<g>
			<path class="st0" d="M24.74,80.45V74.8l4.79-4.65c10.26-9.76,14.55-14.71,14.6-20.07c0-4.17-2.17-6.29-6.44-6.29
				c-3.4,0-6.21,1.92-7.58,3.06L28.5,48.2l-3.12-6.9l0.93-0.78c3.43-2.9,7.88-4.5,12.51-4.5c9.68,0,14.02,6.73,14.02,13.4
				c0,8.35-5.99,14.76-14.46,22.92L38,72.68h15.84v7.77H24.74z"/>
			<path class="st0" d="M70.13,80.83c-3.69,0-7.07-0.17-10.04-0.51l-1.43-0.16V35.99l1.37-0.21c3.92-0.59,7.88-0.89,11.78-0.89
				c8.1,0,14.03,1.85,18.12,5.67c4.27,3.91,6.44,9.39,6.44,16.27c0,7.24-2.26,13.28-6.53,17.49C85.58,78.57,78.76,80.83,70.13,80.83
				z M67.31,73.12c1.27,0.11,2.75,0.12,3.88,0.12c10.66,0,16.29-5.61,16.29-16.23c0.03-4.59-1.2-8.16-3.67-10.64
				c-2.62-2.63-6.57-3.97-11.75-3.97c-2.06,0-3.62,0.14-4.75,0.3V73.12z"/>
		</g>
		<g>
			<path class="st0" d="M24.66,80.37v-5.66l4.79-4.65C39.71,60.3,44,55.36,44.05,50c0-4.17-2.17-6.29-6.44-6.29
				c-3.4,0-6.21,1.92-7.58,3.06l-1.63,1.35l-3.12-6.9l0.93-0.78c3.43-2.9,7.88-4.5,12.51-4.5c9.68,0,14.02,6.73,14.02,13.4
				c0,8.35-5.99,14.76-14.46,22.92l-0.38,0.35h15.84v7.77H24.66z"/>
			<path class="st0" d="M70.05,80.75c-3.69,0-7.07-0.17-10.04-0.51l-1.43-0.16V35.91l1.37-0.21c3.92-0.59,7.88-0.89,11.78-0.89
				c8.1,0,14.03,1.85,18.12,5.67c4.27,3.91,6.44,9.39,6.44,16.27c0,7.24-2.26,13.28-6.53,17.49C85.5,78.49,78.68,80.75,70.05,80.75z
				 M67.23,73.04c1.27,0.11,2.75,0.12,3.88,0.12c10.66,0,16.29-5.61,16.29-16.23c0.03-4.59-1.2-8.16-3.67-10.64
				c-2.62-2.63-6.57-3.97-11.75-3.97c-2.06,0-3.62,0.14-4.75,0.3V73.04z"/>
		</g>
		<g>
			<path class="st0" d="M24.58,80.29v-5.66l4.79-4.65c10.26-9.76,14.55-14.71,14.6-20.07c0-4.17-2.17-6.29-6.44-6.29
				c-3.4,0-6.21,1.92-7.58,3.06l-1.63,1.35l-3.12-6.9l0.93-0.78c3.43-2.9,7.88-4.5,12.51-4.5c9.68,0,14.02,6.73,14.02,13.4
				c0,8.35-5.99,14.76-14.46,22.92l-0.38,0.35h15.84v7.77H24.58z"/>
			<path class="st0" d="M69.97,80.67c-3.69,0-7.07-0.17-10.04-0.51L58.5,80V35.83l1.37-0.21c3.92-0.59,7.88-0.89,11.78-0.89
				c8.1,0,14.03,1.85,18.12,5.67c4.27,3.91,6.44,9.39,6.44,16.27c0,7.24-2.26,13.28-6.53,17.49C85.42,78.41,78.6,80.67,69.97,80.67z
				 M67.15,72.96c1.27,0.11,2.75,0.12,3.88,0.12c10.66,0,16.29-5.61,16.29-16.23c0.03-4.59-1.2-8.16-3.67-10.64
				c-2.62-2.63-6.57-3.97-11.75-3.97c-2.06,0-3.62,0.14-4.75,0.3V72.96z"/>
		</g>
		<g>
			<path class="st0" d="M24.5,80.21v-5.66l4.79-4.65c10.26-9.76,14.55-14.71,14.6-20.07c0-4.17-2.17-6.29-6.44-6.29
				c-3.4,0-6.21,1.92-7.58,3.06l-1.63,1.35l-3.12-6.9l0.93-0.78c3.43-2.9,7.88-4.5,12.51-4.5c9.68,0,14.02,6.73,14.02,13.4
				c0,8.35-5.99,14.76-14.46,22.92l-0.38,0.35H53.6v7.77H24.5z"/>
			<path class="st0" d="M69.89,80.59c-3.69,0-7.07-0.17-10.04-0.51l-1.43-0.16V35.75l1.37-0.21c3.92-0.59,7.88-0.89,11.78-0.89
				c8.1,0,14.03,1.85,18.12,5.67c4.27,3.91,6.44,9.39,6.44,16.27c0,7.24-2.26,13.28-6.53,17.49C85.34,78.33,78.52,80.59,69.89,80.59
				z M67.07,72.88c1.27,0.11,2.75,0.12,3.88,0.12c10.66,0,16.29-5.61,16.29-16.23c0.03-4.59-1.2-8.16-3.67-10.64
				c-2.62-2.63-6.57-3.97-11.75-3.97c-2.06,0-3.62,0.14-4.75,0.3V72.88z"/>
		</g>
		<g>
			<path class="st0" d="M24.42,80.13v-5.66l4.79-4.65c10.26-9.76,14.55-14.71,14.6-20.07c0-4.17-2.17-6.29-6.44-6.29
				c-3.4,0-6.21,1.92-7.58,3.06l-1.63,1.35l-3.12-6.9l0.93-0.78c3.43-2.9,7.88-4.5,12.51-4.5c9.68,0,14.02,6.73,14.02,13.4
				c0,8.35-5.99,14.76-14.46,22.92l-0.38,0.35h15.84v7.77H24.42z"/>
			<path class="st0" d="M69.8,80.51c-3.69,0-7.07-0.17-10.04-0.51l-1.43-0.16V35.67l1.37-0.21c3.92-0.59,7.88-0.89,11.78-0.89
				c8.1,0,14.03,1.85,18.12,5.67c4.27,3.91,6.44,9.39,6.44,16.27c0,7.24-2.26,13.28-6.53,17.49C85.26,78.25,78.44,80.51,69.8,80.51z
				 M66.99,72.8c1.27,0.11,2.75,0.12,3.88,0.12c10.66,0,16.29-5.61,16.29-16.23c0.03-4.59-1.2-8.16-3.67-10.64
				c-2.62-2.63-6.57-3.97-11.75-3.97c-2.06,0-3.62,0.14-4.75,0.3V72.8z"/>
		</g>
		<g>
			<path class="st0" d="M24.34,80.05v-5.66l4.79-4.65c10.26-9.76,14.55-14.71,14.6-20.07c0-4.17-2.17-6.29-6.44-6.29
				c-3.4,0-6.21,1.92-7.58,3.06l-1.63,1.35l-3.12-6.9l0.93-0.78c3.43-2.9,7.88-4.5,12.51-4.5c9.68,0,14.02,6.73,14.02,13.4
				c0,8.35-5.99,14.76-14.46,22.92l-0.38,0.35h15.84v7.77H24.34z"/>
			<path class="st0" d="M69.72,80.43c-3.69,0-7.07-0.17-10.04-0.51l-1.43-0.16V35.59l1.37-0.21c3.92-0.59,7.88-0.89,11.78-0.89
				c8.1,0,14.03,1.85,18.12,5.67c4.27,3.91,6.44,9.39,6.44,16.27c0,7.24-2.26,13.28-6.53,17.49C85.18,78.17,78.36,80.43,69.72,80.43
				z M66.91,72.72c1.27,0.11,2.75,0.12,3.88,0.12c10.66,0,16.29-5.61,16.29-16.23c0.03-4.59-1.2-8.16-3.67-10.64
				c-2.62-2.63-6.57-3.97-11.75-3.97c-2.06,0-3.62,0.14-4.75,0.3V72.72z"/>
		</g>
		<g>
			<path class="st0" d="M24.26,79.97v-5.66l4.79-4.65C39.3,59.9,43.6,54.96,43.65,49.6c0-4.17-2.17-6.29-6.44-6.29
				c-3.4,0-6.21,1.92-7.58,3.06l-1.63,1.35l-3.12-6.9l0.93-0.78c3.43-2.9,7.88-4.5,12.51-4.5c9.68,0,14.02,6.73,14.02,13.4
				c0,8.35-5.99,14.76-14.46,22.92l-0.38,0.35h15.84v7.77H24.26z"/>
			<path class="st0" d="M69.64,80.35c-3.69,0-7.07-0.17-10.04-0.51l-1.43-0.16V35.51l1.37-0.21c3.92-0.59,7.88-0.89,11.78-0.89
				c8.1,0,14.03,1.85,18.12,5.67c4.27,3.91,6.44,9.39,6.44,16.27c0,7.24-2.26,13.28-6.53,17.49C85.1,78.09,78.28,80.35,69.64,80.35z
				 M66.83,72.64c1.27,0.11,2.75,0.12,3.88,0.12c10.66,0,16.29-5.61,16.29-16.23c0.03-4.59-1.2-8.16-3.67-10.64
				c-2.62-2.63-6.57-3.97-11.75-3.97c-2.06,0-3.62,0.14-4.75,0.3V72.64z"/>
		</g>
		<g>
			<path class="st0" d="M24.18,79.89v-5.66l4.79-4.65c10.26-9.76,14.55-14.71,14.6-20.07c0-4.17-2.17-6.29-6.44-6.29
				c-3.4,0-6.21,1.92-7.58,3.06l-1.63,1.35l-3.12-6.9l0.93-0.78c3.43-2.9,7.88-4.5,12.51-4.5c9.68,0,14.02,6.73,14.02,13.4
				c0,8.35-5.99,14.76-14.46,22.92l-0.38,0.35h15.84v7.77H24.18z"/>
			<path class="st0" d="M69.56,80.26c-3.69,0-7.07-0.17-10.04-0.51l-1.43-0.16V35.43l1.37-0.21c3.92-0.59,7.88-0.89,11.78-0.89
				c8.1,0,14.03,1.85,18.12,5.67c4.27,3.91,6.44,9.39,6.44,16.27c0,7.24-2.26,13.28-6.53,17.49C85.02,78.01,78.2,80.26,69.56,80.26z
				 M66.75,72.56c1.27,0.11,2.75,0.12,3.88,0.12c10.66,0,16.29-5.61,16.29-16.23c0.03-4.59-1.2-8.16-3.67-10.64
				c-2.62-2.63-6.57-3.97-11.75-3.97c-2.06,0-3.62,0.14-4.75,0.3V72.56z"/>
		</g>
		<g>
			<path class="st0" d="M24.1,79.81v-5.66l4.79-4.65c10.26-9.76,14.55-14.71,14.6-20.07c0-4.17-2.17-6.29-6.44-6.29
				c-3.4,0-6.21,1.92-7.58,3.06l-1.63,1.35l-3.12-6.9l0.93-0.78c3.43-2.9,7.88-4.5,12.51-4.5c9.68,0,14.02,6.73,14.02,13.4
				c0,8.35-5.99,14.76-14.46,22.92l-0.38,0.35h15.84v7.77H24.1z"/>
			<path class="st0" d="M69.48,80.18c-3.69,0-7.07-0.17-10.04-0.51l-1.43-0.16V35.35l1.37-0.21c3.92-0.59,7.88-0.89,11.78-0.89
				c8.1,0,14.03,1.85,18.12,5.67c4.27,3.91,6.44,9.39,6.44,16.27c0,7.24-2.26,13.28-6.53,17.49C84.94,77.93,78.12,80.18,69.48,80.18
				z M66.66,72.48c1.27,0.11,2.75,0.12,3.88,0.12c10.66,0,16.29-5.61,16.29-16.23c0.03-4.59-1.2-8.16-3.67-10.64
				c-2.62-2.63-6.57-3.97-11.75-3.97c-2.06,0-3.62,0.14-4.75,0.3V72.48z"/>
		</g>
		<g>
			<path class="st0" d="M24.01,79.73v-5.66l4.79-4.65c10.26-9.76,14.55-14.71,14.6-20.07c0-4.17-2.17-6.29-6.44-6.29
				c-3.4,0-6.21,1.92-7.58,3.06l-1.63,1.35l-3.12-6.9l0.93-0.78c3.43-2.9,7.88-4.5,12.51-4.5c9.68,0,14.02,6.73,14.02,13.4
				c0,8.35-5.99,14.76-14.46,22.92l-0.38,0.35h15.84v7.77H24.01z"/>
			<path class="st0" d="M69.4,80.1c-3.69,0-7.07-0.17-10.04-0.51l-1.43-0.16V35.27l1.37-0.21c3.92-0.59,7.88-0.89,11.78-0.89
				c8.1,0,14.03,1.85,18.12,5.67c4.27,3.91,6.44,9.39,6.44,16.27c0,7.24-2.26,13.28-6.53,17.49C84.86,77.85,78.04,80.1,69.4,80.1z
				 M66.58,72.4c1.27,0.11,2.75,0.12,3.88,0.12c10.66,0,16.29-5.61,16.29-16.23c0.03-4.59-1.2-8.16-3.67-10.64
				c-2.62-2.63-6.57-3.97-11.75-3.97c-2.06,0-3.62,0.14-4.75,0.3V72.4z"/>
		</g>
		<g>
			<path class="st0" d="M23.93,79.65v-5.66l4.79-4.65c10.26-9.76,14.55-14.71,14.6-20.07c0-4.17-2.17-6.29-6.44-6.29
				c-3.4,0-6.21,1.92-7.58,3.06l-1.63,1.35l-3.12-6.9l0.93-0.78c3.43-2.9,7.88-4.5,12.51-4.5c9.68,0,14.02,6.73,14.02,13.4
				c0,8.35-5.99,14.76-14.46,22.92l-0.38,0.35h15.84v7.77H23.93z"/>
			<path class="st0" d="M69.32,80.02c-3.69,0-7.07-0.17-10.04-0.51l-1.43-0.16V35.18l1.37-0.21c3.92-0.59,7.88-0.89,11.78-0.89
				c8.1,0,14.03,1.85,18.12,5.67c4.27,3.91,6.44,9.39,6.44,16.27c0,7.24-2.26,13.28-6.53,17.49C84.78,77.77,77.96,80.02,69.32,80.02
				z M66.5,72.32c1.27,0.11,2.75,0.12,3.88,0.12c10.66,0,16.29-5.61,16.29-16.23c0.03-4.59-1.2-8.16-3.67-10.64
				c-2.62-2.63-6.57-3.97-11.75-3.97c-2.06,0-3.62,0.14-4.75,0.3V72.32z"/>
		</g>
		<g>
			<path class="st0" d="M23.85,79.57v-5.66l4.79-4.65c10.26-9.76,14.55-14.71,14.6-20.07c0-4.17-2.17-6.29-6.44-6.29
				c-3.4,0-6.21,1.92-7.58,3.06l-1.63,1.35l-3.12-6.9l0.93-0.78c3.43-2.9,7.88-4.5,12.51-4.5c9.68,0,14.02,6.73,14.02,13.4
				c0,8.35-5.99,14.76-14.46,22.92l-0.38,0.35h15.84v7.77H23.85z"/>
			<path class="st0" d="M69.24,79.94c-3.69,0-7.07-0.17-10.04-0.51l-1.43-0.16V35.1l1.37-0.21c3.92-0.59,7.88-0.89,11.78-0.89
				c8.1,0,14.03,1.85,18.12,5.67c4.27,3.91,6.44,9.39,6.44,16.27c0,7.24-2.26,13.28-6.53,17.49C84.7,77.69,77.88,79.94,69.24,79.94z
				 M66.42,72.24c1.27,0.11,2.75,0.12,3.88,0.12c10.66,0,16.29-5.61,16.29-16.23c0.03-4.59-1.2-8.16-3.67-10.64
				c-2.62-2.63-6.57-3.97-11.75-3.97c-2.06,0-3.62,0.14-4.75,0.3V72.24z"/>
		</g>
		<g>
			<path class="st0" d="M23.77,79.49v-5.66l4.79-4.65c10.26-9.76,14.55-14.71,14.6-20.07c0-4.17-2.17-6.29-6.44-6.29
				c-3.4,0-6.21,1.92-7.58,3.06l-1.63,1.35l-3.12-6.9l0.93-0.78c3.43-2.9,7.88-4.5,12.51-4.5c9.68,0,14.02,6.73,14.02,13.4
				c0,8.35-5.99,14.76-14.46,22.92l-0.38,0.35h15.84v7.77H23.77z"/>
			<path class="st0" d="M69.16,79.86c-3.69,0-7.07-0.17-10.04-0.51l-1.43-0.16V35.02l1.37-0.21c3.92-0.59,7.88-0.89,11.78-0.89
				c8.1,0,14.03,1.85,18.12,5.67c4.27,3.91,6.44,9.39,6.44,16.27c0,7.24-2.26,13.28-6.53,17.49C84.62,77.61,77.8,79.86,69.16,79.86z
				 M66.34,72.16c1.27,0.11,2.75,0.12,3.88,0.12c10.66,0,16.29-5.61,16.29-16.23c0.03-4.59-1.2-8.16-3.67-10.64
				c-2.62-2.63-6.57-3.97-11.75-3.97c-2.06,0-3.62,0.14-4.75,0.3V72.16z"/>
		</g>
		<g>
			<path class="st0" d="M23.69,79.41v-5.66l4.79-4.65c10.26-9.76,14.55-14.71,14.6-20.07c0-4.17-2.17-6.29-6.44-6.29
				c-3.4,0-6.21,1.92-7.58,3.06l-1.63,1.35l-3.12-6.9l0.93-0.78c3.43-2.9,7.88-4.5,12.51-4.5c9.68,0,14.02,6.73,14.02,13.4
				c0,8.35-5.99,14.76-14.46,22.92l-0.38,0.35h15.84v7.77H23.69z"/>
			<path class="st0" d="M69.08,79.78c-3.69,0-7.07-0.17-10.04-0.51l-1.43-0.16V34.94l1.37-0.21c3.92-0.59,7.88-0.89,11.78-0.89
				c8.1,0,14.03,1.85,18.12,5.67c4.27,3.91,6.44,9.39,6.44,16.27c0,7.24-2.26,13.28-6.53,17.49C84.54,77.53,77.72,79.78,69.08,79.78
				z M66.26,72.08c1.27,0.11,2.75,0.12,3.88,0.12c10.66,0,16.29-5.61,16.29-16.23c0.03-4.59-1.2-8.16-3.67-10.64
				c-2.62-2.63-6.57-3.97-11.75-3.97c-2.06,0-3.62,0.14-4.75,0.3V72.08z"/>
		</g>
		<g>
			<path class="st0" d="M23.61,79.33v-5.66l4.79-4.65c10.26-9.76,14.55-14.71,14.6-20.07c0-4.17-2.17-6.29-6.44-6.29
				c-3.4,0-6.21,1.92-7.58,3.06l-1.63,1.35l-3.12-6.9l0.93-0.78c3.43-2.9,7.88-4.5,12.51-4.5c9.68,0,14.02,6.73,14.02,13.4
				c0,8.35-5.99,14.76-14.46,22.92l-0.38,0.35h15.84v7.77H23.61z"/>
			<path class="st0" d="M69,79.7c-3.69,0-7.07-0.17-10.04-0.51l-1.43-0.16V34.86l1.37-0.21c3.92-0.59,7.88-0.89,11.78-0.89
				c8.1,0,14.03,1.85,18.12,5.67c4.27,3.91,6.44,9.39,6.44,16.27c0,7.24-2.26,13.28-6.53,17.49C84.46,77.45,77.64,79.7,69,79.7z
				 M66.18,72c1.27,0.11,2.75,0.12,3.88,0.12c10.66,0,16.29-5.61,16.29-16.23c0.03-4.59-1.2-8.16-3.67-10.64
				c-2.62-2.63-6.57-3.97-11.75-3.97c-2.06,0-3.62,0.14-4.75,0.3V72z"/>
		</g>
	</g>
	<g>
		<g>
			<path class="st1" d="M26.03,81.74v-5.66l4.79-4.65c10.26-9.76,14.55-14.71,14.6-20.07c0-4.17-2.17-6.29-6.44-6.29
				c-3.4,0-6.21,1.92-7.58,3.06l-1.63,1.35l-3.12-6.9l0.93-0.78c3.43-2.9,7.88-4.5,12.51-4.5c9.68,0,14.02,6.73,14.02,13.4
				c0,8.35-5.99,14.76-14.46,22.92l-0.38,0.35h15.84v7.77H26.03z"/>
			<path class="st1" d="M71.41,82.12c-3.69,0-7.07-0.17-10.04-0.51l-1.43-0.16V37.28l1.37-0.21c3.92-0.59,7.88-0.89,11.78-0.89
				c8.1,0,14.03,1.85,18.12,5.67c4.27,3.91,6.44,9.39,6.44,16.27c0,7.24-2.26,13.28-6.53,17.49C86.87,79.86,80.05,82.12,71.41,82.12
				z M68.6,74.41c1.27,0.11,2.75,0.12,3.88,0.12c10.66,0,16.29-5.61,16.29-16.23c0.03-4.59-1.2-8.16-3.67-10.64
				c-2.62-2.63-6.57-3.97-11.75-3.97c-2.06,0-3.62,0.14-4.75,0.3V74.41z"/>
		</g>
		<g>
			<path class="st1" d="M25.95,81.66V76l4.79-4.65c10.26-9.76,14.55-14.71,14.6-20.07c0-4.17-2.17-6.29-6.44-6.29
				c-3.4,0-6.21,1.92-7.58,3.06L29.7,49.4l-3.12-6.9l0.93-0.78c3.43-2.9,7.88-4.5,12.51-4.5c9.68,0,14.02,6.73,14.02,13.4
				c0,8.35-5.99,14.76-14.46,22.92l-0.38,0.35h15.84v7.77H25.95z"/>
			<path class="st1" d="M71.33,82.03c-3.69,0-7.07-0.17-10.04-0.51l-1.43-0.16V37.2l1.37-0.21c3.92-0.59,7.88-0.89,11.78-0.89
				c8.1,0,14.03,1.85,18.12,5.67c4.27,3.91,6.44,9.39,6.44,16.27c0,7.24-2.26,13.28-6.53,17.49C86.79,79.78,79.97,82.03,71.33,82.03
				z M68.52,74.33c1.27,0.11,2.75,0.12,3.88,0.12c10.66,0,16.29-5.61,16.29-16.23c0.03-4.59-1.2-8.16-3.67-10.64
				c-2.62-2.63-6.57-3.97-11.75-3.97c-2.06,0-3.62,0.14-4.75,0.3V74.33z"/>
		</g>
		<g>
			<path class="st1" d="M25.86,81.58v-5.66l4.79-4.65c10.26-9.76,14.55-14.71,14.6-20.07c0-4.17-2.17-6.29-6.44-6.29
				c-3.4,0-6.21,1.92-7.58,3.06l-1.63,1.35l-3.12-6.9l0.93-0.78c3.43-2.9,7.88-4.5,12.51-4.5c9.68,0,14.02,6.73,14.02,13.4
				c0,8.35-5.99,14.76-14.46,22.92l-0.38,0.35h15.84v7.77H25.86z"/>
			<path class="st1" d="M71.25,81.95c-3.69,0-7.07-0.17-10.04-0.51l-1.43-0.16V37.12l1.37-0.21c3.92-0.59,7.88-0.89,11.78-0.89
				c8.1,0,14.03,1.85,18.12,5.67c4.27,3.91,6.44,9.39,6.44,16.27c0,7.24-2.26,13.28-6.53,17.49C86.71,79.7,79.89,81.95,71.25,81.95z
				 M68.43,74.25c1.27,0.11,2.75,0.12,3.88,0.12c10.66,0,16.29-5.61,16.29-16.23c0.03-4.59-1.2-8.16-3.67-10.64
				c-2.62-2.63-6.57-3.97-11.75-3.97c-2.06,0-3.62,0.14-4.75,0.3V74.25z"/>
		</g>
		<g>
			<path class="st1" d="M25.78,81.5v-5.66l4.79-4.65c10.26-9.76,14.55-14.71,14.6-20.07c0-4.17-2.17-6.29-6.44-6.29
				c-3.4,0-6.21,1.92-7.58,3.06l-1.63,1.35l-3.12-6.9l0.93-0.78c3.43-2.9,7.88-4.5,12.51-4.5c9.68,0,14.02,6.73,14.02,13.4
				c0,8.35-5.99,14.76-14.46,22.92l-0.38,0.35h15.84v7.77H25.78z"/>
			<path class="st1" d="M71.17,81.87c-3.69,0-7.07-0.17-10.04-0.51l-1.43-0.16V37.03l1.37-0.21c3.92-0.59,7.88-0.89,11.78-0.89
				c8.1,0,14.03,1.85,18.12,5.67c4.27,3.91,6.44,9.39,6.44,16.27c0,7.24-2.26,13.28-6.53,17.49C86.63,79.62,79.81,81.87,71.17,81.87
				z M68.35,74.17c1.27,0.11,2.75,0.12,3.88,0.12c10.66,0,16.29-5.61,16.29-16.23c0.03-4.59-1.2-8.16-3.67-10.64
				c-2.62-2.63-6.57-3.97-11.75-3.97c-2.06,0-3.62,0.14-4.75,0.3V74.17z"/>
		</g>
		<g>
			<path class="st1" d="M25.7,81.42v-5.66l4.79-4.65c10.26-9.76,14.55-14.71,14.6-20.07c0-4.17-2.17-6.29-6.44-6.29
				c-3.4,0-6.21,1.92-7.58,3.06l-1.63,1.35l-3.12-6.9l0.93-0.78c3.43-2.9,7.88-4.5,12.51-4.5c9.68,0,14.02,6.73,14.02,13.4
				c0,8.35-5.99,14.76-14.46,22.92l-0.38,0.35H54.8v7.77H25.7z"/>
			<path class="st1" d="M71.09,81.79c-3.69,0-7.07-0.17-10.04-0.51l-1.43-0.16V36.95L61,36.75c3.92-0.59,7.88-0.89,11.78-0.89
				c8.1,0,14.03,1.85,18.12,5.67c4.27,3.91,6.44,9.39,6.44,16.27c0,7.24-2.26,13.28-6.53,17.49C86.55,79.54,79.73,81.79,71.09,81.79
				z M68.27,74.09c1.27,0.11,2.75,0.12,3.88,0.12c10.66,0,16.29-5.61,16.29-16.23c0.03-4.59-1.2-8.16-3.67-10.64
				c-2.62-2.63-6.57-3.97-11.75-3.97c-2.06,0-3.62,0.14-4.75,0.3V74.09z"/>
		</g>
		<g>
			<path class="st1" d="M25.62,81.34v-5.66l4.79-4.65c10.26-9.76,14.55-14.71,14.6-20.07c0-4.17-2.17-6.29-6.44-6.29
				c-3.4,0-6.21,1.92-7.58,3.06l-1.63,1.35l-3.12-6.9l0.93-0.78c3.43-2.9,7.88-4.5,12.51-4.5c9.68,0,14.02,6.73,14.02,13.4
				c0,8.35-5.99,14.76-14.46,22.92l-0.38,0.35h15.84v7.77H25.62z"/>
			<path class="st1" d="M71.01,81.71c-3.69,0-7.07-0.17-10.04-0.51l-1.43-0.16V36.87l1.37-0.21c3.92-0.59,7.88-0.89,11.78-0.89
				c8.1,0,14.03,1.85,18.12,5.67c4.27,3.91,6.44,9.39,6.44,16.27c0,7.24-2.26,13.28-6.53,17.49C86.47,79.46,79.65,81.71,71.01,81.71
				z M68.19,74.01c1.27,0.11,2.75,0.12,3.88,0.12c10.66,0,16.29-5.61,16.29-16.23c0.03-4.59-1.2-8.16-3.67-10.64
				c-2.62-2.63-6.57-3.97-11.75-3.97c-2.06,0-3.62,0.14-4.75,0.3V74.01z"/>
		</g>
		<g>
			<path class="st1" d="M25.54,81.26V75.6l4.79-4.65c10.26-9.76,14.55-14.71,14.6-20.07c0-4.17-2.17-6.29-6.44-6.29
				c-3.4,0-6.21,1.92-7.58,3.06L29.3,49l-3.12-6.9l0.93-0.78c3.43-2.9,7.88-4.5,12.51-4.5c9.68,0,14.02,6.73,14.02,13.4
				c0,8.35-5.99,14.76-14.46,22.92l-0.38,0.35h15.84v7.77H25.54z"/>
			<path class="st1" d="M70.93,81.63c-3.69,0-7.07-0.17-10.04-0.51l-1.43-0.16V36.79l1.37-0.21c3.92-0.59,7.88-0.89,11.78-0.89
				c8.1,0,14.03,1.85,18.12,5.67c4.27,3.91,6.44,9.39,6.44,16.27c0,7.24-2.26,13.28-6.53,17.49C86.39,79.38,79.57,81.63,70.93,81.63
				z M68.11,73.93c1.27,0.11,2.75,0.12,3.88,0.12c10.66,0,16.29-5.61,16.29-16.23c0.03-4.59-1.2-8.16-3.67-10.64
				c-2.62-2.63-6.57-3.97-11.75-3.97c-2.06,0-3.62,0.14-4.75,0.3V73.93z"/>
		</g>
		<g>
			<path class="st1" d="M25.46,81.18v-5.66l4.79-4.65c10.26-9.76,14.55-14.71,14.6-20.07c0-4.17-2.17-6.29-6.44-6.29
				c-3.4,0-6.21,1.92-7.58,3.06l-1.63,1.35l-3.12-6.9l0.93-0.78c3.43-2.9,7.88-4.5,12.51-4.5c9.68,0,14.02,6.73,14.02,13.4
				c0,8.35-5.99,14.76-14.46,22.92l-0.38,0.35h15.84v7.77H25.46z"/>
			<path class="st1" d="M70.85,81.55c-3.69,0-7.07-0.17-10.04-0.51l-1.43-0.16V36.71l1.37-0.21c3.92-0.59,7.88-0.89,11.78-0.89
				c8.1,0,14.03,1.85,18.12,5.67c4.27,3.91,6.44,9.39,6.44,16.27c0,7.24-2.26,13.28-6.53,17.49C86.31,79.3,79.49,81.55,70.85,81.55z
				 M68.03,73.85c1.27,0.11,2.75,0.12,3.88,0.12c10.66,0,16.29-5.61,16.29-16.23c0.03-4.59-1.2-8.16-3.67-10.64
				c-2.62-2.63-6.57-3.97-11.75-3.97c-2.06,0-3.62,0.14-4.75,0.3V73.85z"/>
		</g>
		<g>
			<path class="st1" d="M25.38,81.1v-5.66l4.79-4.65c10.26-9.76,14.55-14.71,14.6-20.07c0-4.17-2.17-6.29-6.44-6.29
				c-3.4,0-6.21,1.92-7.58,3.06l-1.63,1.35l-3.12-6.9l0.93-0.78c3.43-2.9,7.88-4.5,12.51-4.5c9.68,0,14.02,6.73,14.02,13.4
				c0,8.35-5.99,14.76-14.46,22.92l-0.38,0.35h15.84v7.77H25.38z"/>
			<path class="st1" d="M70.77,81.47c-3.69,0-7.07-0.17-10.04-0.51l-1.43-0.16V36.63l1.37-0.21c3.92-0.59,7.88-0.89,11.78-0.89
				c8.1,0,14.03,1.85,18.12,5.67c4.27,3.91,6.44,9.39,6.44,16.27c0,7.24-2.26,13.28-6.53,17.49C86.23,79.22,79.41,81.47,70.77,81.47
				z M67.95,73.77c1.27,0.11,2.75,0.12,3.88,0.12c10.66,0,16.29-5.61,16.29-16.23c0.03-4.59-1.2-8.16-3.67-10.64
				c-2.62-2.63-6.57-3.97-11.75-3.97c-2.06,0-3.62,0.14-4.75,0.3V73.77z"/>
		</g>
		<g>
			<path class="st1" d="M25.3,81.02v-5.66l4.79-4.65C40.35,60.94,44.64,56,44.7,50.64c0-4.17-2.17-6.29-6.44-6.29
				c-3.4,0-6.21,1.92-7.58,3.06l-1.63,1.35l-3.12-6.9l0.93-0.78c3.43-2.9,7.88-4.5,12.51-4.5c9.68,0,14.02,6.73,14.02,13.4
				c0,8.35-5.99,14.76-14.46,22.92l-0.38,0.35H54.4v7.77H25.3z"/>
			<path class="st1" d="M70.69,81.39c-3.69,0-7.07-0.17-10.04-0.51l-1.43-0.16V36.55l1.37-0.21c3.92-0.59,7.88-0.89,11.78-0.89
				c8.1,0,14.03,1.85,18.12,5.67c4.27,3.91,6.44,9.39,6.44,16.27c0,7.24-2.26,13.28-6.53,17.49C86.15,79.14,79.33,81.39,70.69,81.39
				z M67.87,73.69c1.27,0.11,2.75,0.12,3.88,0.12c10.66,0,16.29-5.61,16.29-16.23c0.03-4.59-1.2-8.16-3.67-10.64
				c-2.62-2.63-6.57-3.97-11.75-3.97c-2.06,0-3.62,0.14-4.75,0.3V73.69z"/>
		</g>
		<g>
			<path class="st1" d="M25.22,80.94v-5.66l4.79-4.65c10.26-9.76,14.55-14.71,14.6-20.07c0-4.17-2.17-6.29-6.44-6.29
				c-3.4,0-6.21,1.92-7.58,3.06l-1.63,1.35l-3.12-6.9l0.93-0.78c3.43-2.9,7.88-4.5,12.51-4.5c9.68,0,14.02,6.73,14.02,13.4
				c0,8.35-5.99,14.76-14.46,22.92l-0.38,0.35h15.84v7.77H25.22z"/>
			<path class="st1" d="M70.61,81.31c-3.69,0-7.07-0.17-10.04-0.51l-1.43-0.16V36.47l1.37-0.21c3.92-0.59,7.88-0.89,11.78-0.89
				c8.1,0,14.03,1.85,18.12,5.67c4.27,3.91,6.44,9.39,6.44,16.27c0,7.24-2.26,13.28-6.53,17.49C86.07,79.06,79.25,81.31,70.61,81.31
				z M67.79,73.61c1.27,0.11,2.75,0.12,3.88,0.12c10.66,0,16.29-5.61,16.29-16.23c0.03-4.59-1.2-8.16-3.67-10.64
				c-2.62-2.63-6.57-3.97-11.75-3.97c-2.06,0-3.62,0.14-4.75,0.3V73.61z"/>
		</g>
		<g>
			<path class="st1" d="M25.14,80.86V75.2l4.79-4.65c10.26-9.76,14.55-14.71,14.6-20.07c0-4.17-2.17-6.29-6.44-6.29
				c-3.4,0-6.21,1.92-7.58,3.06L28.9,48.6l-3.12-6.9l0.93-0.78c3.43-2.9,7.88-4.5,12.51-4.5c9.68,0,14.02,6.73,14.02,13.4
				c0,8.35-5.99,14.76-14.46,22.92l-0.38,0.35h15.84v7.77H25.14z"/>
			<path class="st1" d="M70.53,81.23c-3.69,0-7.07-0.17-10.04-0.51l-1.43-0.16V36.39l1.37-0.21c3.92-0.59,7.88-0.89,11.78-0.89
				c8.1,0,14.03,1.85,18.12,5.67c4.27,3.91,6.44,9.39,6.44,16.27c0,7.24-2.26,13.28-6.53,17.49C85.99,78.98,79.17,81.23,70.53,81.23
				z M67.71,73.53c1.27,0.11,2.75,0.12,3.88,0.12c10.66,0,16.29-5.61,16.29-16.23c0.03-4.59-1.2-8.16-3.67-10.64
				c-2.62-2.63-6.57-3.97-11.75-3.97c-2.06,0-3.62,0.14-4.75,0.3V73.53z"/>
		</g>
		<g>
			<path class="st1" d="M25.06,80.78v-5.66l4.79-4.65C40.11,60.7,44.4,55.76,44.46,50.4c0-4.17-2.17-6.29-6.44-6.29
				c-3.4,0-6.21,1.92-7.58,3.06l-1.63,1.35l-3.12-6.9l0.93-0.78c3.43-2.9,7.88-4.5,12.51-4.5c9.68,0,14.02,6.73,14.02,13.4
				c0,8.35-5.99,14.76-14.46,22.92L38.32,73h15.84v7.77H25.06z"/>
			<path class="st1" d="M70.45,81.15c-3.69,0-7.07-0.17-10.04-0.51l-1.43-0.16V36.31l1.37-0.21c3.92-0.59,7.88-0.89,11.78-0.89
				c8.1,0,14.03,1.85,18.12,5.67c4.27,3.91,6.44,9.39,6.44,16.27c0,7.24-2.26,13.28-6.53,17.49C85.9,78.89,79.09,81.15,70.45,81.15z
				 M67.63,73.44c1.27,0.11,2.75,0.12,3.88,0.12c10.66,0,16.29-5.61,16.29-16.23c0.03-4.59-1.2-8.16-3.67-10.64
				c-2.62-2.63-6.57-3.97-11.75-3.97c-2.06,0-3.62,0.14-4.75,0.3V73.44z"/>
		</g>
		<g>
			<path class="st1" d="M24.98,80.7v-5.66l4.79-4.65c10.26-9.76,14.55-14.71,14.6-20.07c0-4.17-2.17-6.29-6.44-6.29
				c-3.4,0-6.21,1.92-7.58,3.06l-1.63,1.35l-3.12-6.9l0.93-0.78c3.43-2.9,7.88-4.5,12.51-4.5c9.68,0,14.02,6.73,14.02,13.4
				c0,8.35-5.99,14.76-14.46,22.92l-0.38,0.35h15.84v7.77H24.98z"/>
			<path class="st1" d="M70.37,81.07c-3.69,0-7.07-0.17-10.04-0.51l-1.43-0.16V36.23l1.37-0.21c3.92-0.59,7.88-0.89,11.78-0.89
				c8.1,0,14.03,1.85,18.12,5.67c4.27,3.91,6.44,9.39,6.44,16.27c0,7.24-2.26,13.28-6.53,17.49C85.82,78.81,79,81.07,70.37,81.07z
				 M67.55,73.36c1.27,0.11,2.75,0.12,3.88,0.12c10.66,0,16.29-5.61,16.29-16.23c0.03-4.59-1.2-8.16-3.67-10.64
				c-2.62-2.63-6.57-3.97-11.75-3.97c-2.06,0-3.62,0.14-4.75,0.3V73.36z"/>
		</g>
		<g>
			<path class="st1" d="M24.9,80.61v-5.66l4.79-4.65c10.26-9.76,14.55-14.71,14.6-20.07c0-4.17-2.17-6.29-6.44-6.29
				c-3.4,0-6.21,1.92-7.58,3.06l-1.63,1.35l-3.12-6.9l0.93-0.78c3.43-2.9,7.88-4.5,12.51-4.5c9.68,0,14.02,6.73,14.02,13.4
				c0,8.35-5.99,14.76-14.46,22.92l-0.38,0.35H54v7.77H24.9z"/>
			<path class="st1" d="M70.29,80.99c-3.69,0-7.07-0.17-10.04-0.51l-1.43-0.16V36.15l1.37-0.21c3.92-0.59,7.88-0.89,11.78-0.89
				c8.1,0,14.03,1.85,18.12,5.67c4.27,3.91,6.44,9.39,6.44,16.27c0,7.24-2.26,13.28-6.53,17.49C85.74,78.73,78.92,80.99,70.29,80.99
				z M67.47,73.28c1.27,0.11,2.75,0.12,3.88,0.12c10.66,0,16.29-5.61,16.29-16.23c0.03-4.59-1.2-8.16-3.67-10.64
				c-2.62-2.63-6.57-3.97-11.75-3.97c-2.06,0-3.62,0.14-4.75,0.3V73.28z"/>
		</g>
		<g>
			<path class="st1" d="M24.82,80.53v-5.66l4.79-4.65c10.26-9.76,14.55-14.71,14.6-20.07c0-4.17-2.17-6.29-6.44-6.29
				c-3.4,0-6.21,1.92-7.58,3.06l-1.63,1.35l-3.12-6.9l0.93-0.78c3.43-2.9,7.88-4.5,12.51-4.5c9.68,0,14.02,6.73,14.02,13.4
				c0,8.35-5.99,14.76-14.46,22.92l-0.38,0.35h15.84v7.77H24.82z"/>
			<path class="st1" d="M70.21,80.91c-3.69,0-7.07-0.17-10.04-0.51l-1.43-0.16V36.07l1.37-0.21c3.92-0.59,7.88-0.89,11.78-0.89
				c8.1,0,14.03,1.85,18.12,5.67c4.27,3.91,6.44,9.39,6.44,16.27c0,7.24-2.26,13.28-6.53,17.49C85.66,78.65,78.84,80.91,70.21,80.91
				z M67.39,73.2c1.27,0.11,2.75,0.12,3.88,0.12c10.66,0,16.29-5.61,16.29-16.23c0.03-4.59-1.2-8.16-3.67-10.64
				c-2.62-2.63-6.57-3.97-11.75-3.97c-2.06,0-3.62,0.14-4.75,0.3V73.2z"/>
		</g>
		<g>
			<path class="st1" d="M24.74,80.45V74.8l4.79-4.65c10.26-9.76,14.55-14.71,14.6-20.07c0-4.17-2.17-6.29-6.44-6.29
				c-3.4,0-6.21,1.92-7.58,3.06L28.5,48.2l-3.12-6.9l0.93-0.78c3.43-2.9,7.88-4.5,12.51-4.5c9.68,0,14.02,6.73,14.02,13.4
				c0,8.35-5.99,14.76-14.46,22.92L38,72.68h15.84v7.77H24.74z"/>
			<path class="st1" d="M70.13,80.83c-3.69,0-7.07-0.17-10.04-0.51l-1.43-0.16V35.99l1.37-0.21c3.92-0.59,7.88-0.89,11.78-0.89
				c8.1,0,14.03,1.85,18.12,5.67c4.27,3.91,6.44,9.39,6.44,16.27c0,7.24-2.26,13.28-6.53,17.49C85.58,78.57,78.76,80.83,70.13,80.83
				z M67.31,73.12c1.27,0.11,2.75,0.12,3.88,0.12c10.66,0,16.29-5.61,16.29-16.23c0.03-4.59-1.2-8.16-3.67-10.64
				c-2.62-2.63-6.57-3.97-11.75-3.97c-2.06,0-3.62,0.14-4.75,0.3V73.12z"/>
		</g>
		<g>
			<path class="st1" d="M24.66,80.37v-5.66l4.79-4.65C39.71,60.3,44,55.36,44.05,50c0-4.17-2.17-6.29-6.44-6.29
				c-3.4,0-6.21,1.92-7.58,3.06l-1.63,1.35l-3.12-6.9l0.93-0.78c3.43-2.9,7.88-4.5,12.51-4.5c9.68,0,14.02,6.73,14.02,13.4
				c0,8.35-5.99,14.76-14.46,22.92l-0.38,0.35h15.84v7.77H24.66z"/>
			<path class="st1" d="M70.05,80.75c-3.69,0-7.07-0.17-10.04-0.51l-1.43-0.16V35.91l1.37-0.21c3.92-0.59,7.88-0.89,11.78-0.89
				c8.1,0,14.03,1.85,18.12,5.67c4.27,3.91,6.44,9.39,6.44,16.27c0,7.24-2.26,13.28-6.53,17.49C85.5,78.49,78.68,80.75,70.05,80.75z
				 M67.23,73.04c1.27,0.11,2.75,0.12,3.88,0.12c10.66,0,16.29-5.61,16.29-16.23c0.03-4.59-1.2-8.16-3.67-10.64
				c-2.62-2.63-6.57-3.97-11.75-3.97c-2.06,0-3.62,0.14-4.75,0.3V73.04z"/>
		</g>
		<g>
			<path class="st1" d="M24.58,80.29v-5.66l4.79-4.65c10.26-9.76,14.55-14.71,14.6-20.07c0-4.17-2.17-6.29-6.44-6.29
				c-3.4,0-6.21,1.92-7.58,3.06l-1.63,1.35l-3.12-6.9l0.93-0.78c3.43-2.9,7.88-4.5,12.51-4.5c9.68,0,14.02,6.73,14.02,13.4
				c0,8.35-5.99,14.76-14.46,22.92l-0.38,0.35h15.84v7.77H24.58z"/>
			<path class="st1" d="M69.97,80.67c-3.69,0-7.07-0.17-10.04-0.51L58.5,80V35.83l1.37-0.21c3.92-0.59,7.88-0.89,11.78-0.89
				c8.1,0,14.03,1.85,18.12,5.67c4.27,3.91,6.44,9.39,6.44,16.27c0,7.24-2.26,13.28-6.53,17.49C85.42,78.41,78.6,80.67,69.97,80.67z
				 M67.15,72.96c1.27,0.11,2.75,0.12,3.88,0.12c10.66,0,16.29-5.61,16.29-16.23c0.03-4.59-1.2-8.16-3.67-10.64
				c-2.62-2.63-6.57-3.97-11.75-3.97c-2.06,0-3.62,0.14-4.75,0.3V72.96z"/>
		</g>
		<g>
			<path class="st1" d="M24.5,80.21v-5.66l4.79-4.65c10.26-9.76,14.55-14.71,14.6-20.07c0-4.17-2.17-6.29-6.44-6.29
				c-3.4,0-6.21,1.92-7.58,3.06l-1.63,1.35l-3.12-6.9l0.93-0.78c3.43-2.9,7.88-4.5,12.51-4.5c9.68,0,14.02,6.73,14.02,13.4
				c0,8.35-5.99,14.76-14.46,22.92l-0.38,0.35H53.6v7.77H24.5z"/>
			<path class="st1" d="M69.89,80.59c-3.69,0-7.07-0.17-10.04-0.51l-1.43-0.16V35.75l1.37-0.21c3.92-0.59,7.88-0.89,11.78-0.89
				c8.1,0,14.03,1.85,18.12,5.67c4.27,3.91,6.44,9.39,6.44,16.27c0,7.24-2.26,13.28-6.53,17.49C85.34,78.33,78.52,80.59,69.89,80.59
				z M67.07,72.88c1.27,0.11,2.75,0.12,3.88,0.12c10.66,0,16.29-5.61,16.29-16.23c0.03-4.59-1.2-8.16-3.67-10.64
				c-2.62-2.63-6.57-3.97-11.75-3.97c-2.06,0-3.62,0.14-4.75,0.3V72.88z"/>
		</g>
		<g>
			<path class="st1" d="M24.42,80.13v-5.66l4.79-4.65c10.26-9.76,14.55-14.71,14.6-20.07c0-4.17-2.17-6.29-6.44-6.29
				c-3.4,0-6.21,1.92-7.58,3.06l-1.63,1.35l-3.12-6.9l0.93-0.78c3.43-2.9,7.88-4.5,12.51-4.5c9.68,0,14.02,6.73,14.02,13.4
				c0,8.35-5.99,14.76-14.46,22.92l-0.38,0.35h15.84v7.77H24.42z"/>
			<path class="st1" d="M69.8,80.51c-3.69,0-7.07-0.17-10.04-0.51l-1.43-0.16V35.67l1.37-0.21c3.92-0.59,7.88-0.89,11.78-0.89
				c8.1,0,14.03,1.85,18.12,5.67c4.27,3.91,6.44,9.39,6.44,16.27c0,7.24-2.26,13.28-6.53,17.49C85.26,78.25,78.44,80.51,69.8,80.51z
				 M66.99,72.8c1.27,0.11,2.75,0.12,3.88,0.12c10.66,0,16.29-5.61,16.29-16.23c0.03-4.59-1.2-8.16-3.67-10.64
				c-2.62-2.63-6.57-3.97-11.75-3.97c-2.06,0-3.62,0.14-4.75,0.3V72.8z"/>
		</g>
		<g>
			<path class="st1" d="M24.34,80.05v-5.66l4.79-4.65c10.26-9.76,14.55-14.71,14.6-20.07c0-4.17-2.17-6.29-6.44-6.29
				c-3.4,0-6.21,1.92-7.58,3.06l-1.63,1.35l-3.12-6.9l0.93-0.78c3.43-2.9,7.88-4.5,12.51-4.5c9.68,0,14.02,6.73,14.02,13.4
				c0,8.35-5.99,14.76-14.46,22.92l-0.38,0.35h15.84v7.77H24.34z"/>
			<path class="st1" d="M69.72,80.43c-3.69,0-7.07-0.17-10.04-0.51l-1.43-0.16V35.59l1.37-0.21c3.92-0.59,7.88-0.89,11.78-0.89
				c8.1,0,14.03,1.85,18.12,5.67c4.27,3.91,6.44,9.39,6.44,16.27c0,7.24-2.26,13.28-6.53,17.49C85.18,78.17,78.36,80.43,69.72,80.43
				z M66.91,72.72c1.27,0.11,2.75,0.12,3.88,0.12c10.66,0,16.29-5.61,16.29-16.23c0.03-4.59-1.2-8.16-3.67-10.64
				c-2.62-2.63-6.57-3.97-11.75-3.97c-2.06,0-3.62,0.14-4.75,0.3V72.72z"/>
		</g>
		<g>
			<path class="st1" d="M24.26,79.97v-5.66l4.79-4.65C39.3,59.9,43.6,54.96,43.65,49.6c0-4.17-2.17-6.29-6.44-6.29
				c-3.4,0-6.21,1.92-7.58,3.06l-1.63,1.35l-3.12-6.9l0.93-0.78c3.43-2.9,7.88-4.5,12.51-4.5c9.68,0,14.02,6.73,14.02,13.4
				c0,8.35-5.99,14.76-14.46,22.92l-0.38,0.35h15.84v7.77H24.26z"/>
			<path class="st1" d="M69.64,80.35c-3.69,0-7.07-0.17-10.04-0.51l-1.43-0.16V35.51l1.37-0.21c3.92-0.59,7.88-0.89,11.78-0.89
				c8.1,0,14.03,1.85,18.12,5.67c4.27,3.91,6.44,9.39,6.44,16.27c0,7.24-2.26,13.28-6.53,17.49C85.1,78.09,78.28,80.35,69.64,80.35z
				 M66.83,72.64c1.27,0.11,2.75,0.12,3.88,0.12c10.66,0,16.29-5.61,16.29-16.23c0.03-4.59-1.2-8.16-3.67-10.64
				c-2.62-2.63-6.57-3.97-11.75-3.97c-2.06,0-3.62,0.14-4.75,0.3V72.64z"/>
		</g>
		<g>
			<path class="st1" d="M24.18,79.89v-5.66l4.79-4.65c10.26-9.76,14.55-14.71,14.6-20.07c0-4.17-2.17-6.29-6.44-6.29
				c-3.4,0-6.21,1.92-7.58,3.06l-1.63,1.35l-3.12-6.9l0.93-0.78c3.43-2.9,7.88-4.5,12.51-4.5c9.68,0,14.02,6.73,14.02,13.4
				c0,8.35-5.99,14.76-14.46,22.92l-0.38,0.35h15.84v7.77H24.18z"/>
			<path class="st1" d="M69.56,80.26c-3.69,0-7.07-0.17-10.04-0.51l-1.43-0.16V35.43l1.37-0.21c3.92-0.59,7.88-0.89,11.78-0.89
				c8.1,0,14.03,1.85,18.12,5.67c4.27,3.91,6.44,9.39,6.44,16.27c0,7.24-2.26,13.28-6.53,17.49C85.02,78.01,78.2,80.26,69.56,80.26z
				 M66.75,72.56c1.27,0.11,2.75,0.12,3.88,0.12c10.66,0,16.29-5.61,16.29-16.23c0.03-4.59-1.2-8.16-3.67-10.64
				c-2.62-2.63-6.57-3.97-11.75-3.97c-2.06,0-3.62,0.14-4.75,0.3V72.56z"/>
		</g>
		<g>
			<path class="st1" d="M24.1,79.81v-5.66l4.79-4.65c10.26-9.76,14.55-14.71,14.6-20.07c0-4.17-2.17-6.29-6.44-6.29
				c-3.4,0-6.21,1.92-7.58,3.06l-1.63,1.35l-3.12-6.9l0.93-0.78c3.43-2.9,7.88-4.5,12.51-4.5c9.68,0,14.02,6.73,14.02,13.4
				c0,8.35-5.99,14.76-14.46,22.92l-0.38,0.35h15.84v7.77H24.1z"/>
			<path class="st1" d="M69.48,80.18c-3.69,0-7.07-0.17-10.04-0.51l-1.43-0.16V35.35l1.37-0.21c3.92-0.59,7.88-0.89,11.78-0.89
				c8.1,0,14.03,1.85,18.12,5.67c4.27,3.91,6.44,9.39,6.44,16.27c0,7.24-2.26,13.28-6.53,17.49C84.94,77.93,78.12,80.18,69.48,80.18
				z M66.66,72.48c1.27,0.11,2.75,0.12,3.88,0.12c10.66,0,16.29-5.61,16.29-16.23c0.03-4.59-1.2-8.16-3.67-10.64
				c-2.62-2.63-6.57-3.97-11.75-3.97c-2.06,0-3.62,0.14-4.75,0.3V72.48z"/>
		</g>
		<g>
			<path class="st1" d="M24.01,79.73v-5.66l4.79-4.65c10.26-9.76,14.55-14.71,14.6-20.07c0-4.17-2.17-6.29-6.44-6.29
				c-3.4,0-6.21,1.92-7.58,3.06l-1.63,1.35l-3.12-6.9l0.93-0.78c3.43-2.9,7.88-4.5,12.51-4.5c9.68,0,14.02,6.73,14.02,13.4
				c0,8.35-5.99,14.76-14.46,22.92l-0.38,0.35h15.84v7.77H24.01z"/>
			<path class="st1" d="M69.4,80.1c-3.69,0-7.07-0.17-10.04-0.51l-1.43-0.16V35.27l1.37-0.21c3.92-0.59,7.88-0.89,11.78-0.89
				c8.1,0,14.03,1.85,18.12,5.67c4.27,3.91,6.44,9.39,6.44,16.27c0,7.24-2.26,13.28-6.53,17.49C84.86,77.85,78.04,80.1,69.4,80.1z
				 M66.58,72.4c1.27,0.11,2.75,0.12,3.88,0.12c10.66,0,16.29-5.61,16.29-16.23c0.03-4.59-1.2-8.16-3.67-10.64
				c-2.62-2.63-6.57-3.97-11.75-3.97c-2.06,0-3.62,0.14-4.75,0.3V72.4z"/>
		</g>
		<g>
			<path class="st1" d="M23.93,79.65v-5.66l4.79-4.65c10.26-9.76,14.55-14.71,14.6-20.07c0-4.17-2.17-6.29-6.44-6.29
				c-3.4,0-6.21,1.92-7.58,3.06l-1.63,1.35l-3.12-6.9l0.93-0.78c3.43-2.9,7.88-4.5,12.51-4.5c9.68,0,14.02,6.73,14.02,13.4
				c0,8.35-5.99,14.76-14.46,22.92l-0.38,0.35h15.84v7.77H23.93z"/>
			<path class="st1" d="M69.32,80.02c-3.69,0-7.07-0.17-10.04-0.51l-1.43-0.16V35.18l1.37-0.21c3.92-0.59,7.88-0.89,11.78-0.89
				c8.1,0,14.03,1.85,18.12,5.67c4.27,3.91,6.44,9.39,6.44,16.27c0,7.24-2.26,13.28-6.53,17.49C84.78,77.77,77.96,80.02,69.32,80.02
				z M66.5,72.32c1.27,0.11,2.75,0.12,3.88,0.12c10.66,0,16.29-5.61,16.29-16.23c0.03-4.59-1.2-8.16-3.67-10.64
				c-2.62-2.63-6.57-3.97-11.75-3.97c-2.06,0-3.62,0.14-4.75,0.3V72.32z"/>
		</g>
		<g>
			<path class="st1" d="M23.85,79.57v-5.66l4.79-4.65c10.26-9.76,14.55-14.71,14.6-20.07c0-4.17-2.17-6.29-6.44-6.29
				c-3.4,0-6.21,1.92-7.58,3.06l-1.63,1.35l-3.12-6.9l0.93-0.78c3.43-2.9,7.88-4.5,12.51-4.5c9.68,0,14.02,6.73,14.02,13.4
				c0,8.35-5.99,14.76-14.46,22.92l-0.38,0.35h15.84v7.77H23.85z"/>
			<path class="st1" d="M69.24,79.94c-3.69,0-7.07-0.17-10.04-0.51l-1.43-0.16V35.1l1.37-0.21c3.92-0.59,7.88-0.89,11.78-0.89
				c8.1,0,14.03,1.85,18.12,5.67c4.27,3.91,6.44,9.39,6.44,16.27c0,7.24-2.26,13.28-6.53,17.49C84.7,77.69,77.88,79.94,69.24,79.94z
				 M66.42,72.24c1.27,0.11,2.75,0.12,3.88,0.12c10.66,0,16.29-5.61,16.29-16.23c0.03-4.59-1.2-8.16-3.67-10.64
				c-2.62-2.63-6.57-3.97-11.75-3.97c-2.06,0-3.62,0.14-4.75,0.3V72.24z"/>
		</g>
		<g>
			<path class="st1" d="M23.77,79.49v-5.66l4.79-4.65c10.26-9.76,14.55-14.71,14.6-20.07c0-4.17-2.17-6.29-6.44-6.29
				c-3.4,0-6.21,1.92-7.58,3.06l-1.63,1.35l-3.12-6.9l0.93-0.78c3.43-2.9,7.88-4.5,12.51-4.5c9.68,0,14.02,6.73,14.02,13.4
				c0,8.35-5.99,14.76-14.46,22.92l-0.38,0.35h15.84v7.77H23.77z"/>
			<path class="st1" d="M69.16,79.86c-3.69,0-7.07-0.17-10.04-0.51l-1.43-0.16V35.02l1.37-0.21c3.92-0.59,7.88-0.89,11.78-0.89
				c8.1,0,14.03,1.85,18.12,5.67c4.27,3.91,6.44,9.39,6.44,16.27c0,7.24-2.26,13.28-6.53,17.49C84.62,77.61,77.8,79.86,69.16,79.86z
				 M66.34,72.16c1.27,0.11,2.75,0.12,3.88,0.12c10.66,0,16.29-5.61,16.29-16.23c0.03-4.59-1.2-8.16-3.67-10.64
				c-2.62-2.63-6.57-3.97-11.75-3.97c-2.06,0-3.62,0.14-4.75,0.3V72.16z"/>
		</g>
		<g>
			<path class="st1" d="M23.69,79.41v-5.66l4.79-4.65c10.26-9.76,14.55-14.71,14.6-20.07c0-4.17-2.17-6.29-6.44-6.29
				c-3.4,0-6.21,1.92-7.58,3.06l-1.63,1.35l-3.12-6.9l0.93-0.78c3.43-2.9,7.88-4.5,12.51-4.5c9.68,0,14.02,6.73,14.02,13.4
				c0,8.35-5.99,14.76-14.46,22.92l-0.38,0.35h15.84v7.77H23.69z"/>
			<path class="st1" d="M69.08,79.78c-3.69,0-7.07-0.17-10.04-0.51l-1.43-0.16V34.94l1.37-0.21c3.92-0.59,7.88-0.89,11.78-0.89
				c8.1,0,14.03,1.85,18.12,5.67c4.27,3.91,6.44,9.39,6.44,16.27c0,7.24-2.26,13.28-6.53,17.49C84.54,77.53,77.72,79.78,69.08,79.78
				z M66.26,72.08c1.27,0.11,2.75,0.12,3.88,0.12c10.66,0,16.29-5.61,16.29-16.23c0.03-4.59-1.2-8.16-3.67-10.64
				c-2.62-2.63-6.57-3.97-11.75-3.97c-2.06,0-3.62,0.14-4.75,0.3V72.08z"/>
		</g>
		<g>
			<path class="st1" d="M23.61,79.33v-5.66l4.79-4.65c10.26-9.76,14.55-14.71,14.6-20.07c0-4.17-2.17-6.29-6.44-6.29
				c-3.4,0-6.21,1.92-7.58,3.06l-1.63,1.35l-3.12-6.9l0.93-0.78c3.43-2.9,7.88-4.5,12.51-4.5c9.68,0,14.02,6.73,14.02,13.4
				c0,8.35-5.99,14.76-14.46,22.92l-0.38,0.35h15.84v7.77H23.61z"/>
			<path class="st1" d="M69,79.7c-3.69,0-7.07-0.17-10.04-0.51l-1.43-0.16V34.86l1.37-0.21c3.92-0.59,7.88-0.89,11.78-0.89
				c8.1,0,14.03,1.85,18.12,5.67c4.27,3.91,6.44,9.39,6.44,16.27c0,7.24-2.26,13.28-6.53,17.49C84.46,77.45,77.64,79.7,69,79.7z
				 M66.18,72c1.27,0.11,2.75,0.12,3.88,0.12c10.66,0,16.29-5.61,16.29-16.23c0.03-4.59-1.2-8.16-3.67-10.64
				c-2.62-2.63-6.57-3.97-11.75-3.97c-2.06,0-3.62,0.14-4.75,0.3V72z"/>
		</g>
		<g>
			<path class="st1" d="M23.53,79.25v-5.66l4.79-4.65c10.26-9.76,14.55-14.71,14.6-20.07c0-4.17-2.17-6.29-6.44-6.29
				c-3.4,0-6.21,1.92-7.58,3.06l-1.63,1.35l-3.12-6.9l0.93-0.78c3.43-2.9,7.88-4.5,12.51-4.5c9.68,0,14.02,6.73,14.02,13.4
				c0,8.35-5.99,14.76-14.46,22.92l-0.38,0.35h15.84v7.77H23.53z"/>
			<path class="st1" d="M68.92,79.62c-3.69,0-7.07-0.17-10.04-0.51l-1.43-0.16V34.78l1.37-0.21c3.92-0.59,7.88-0.89,11.78-0.89
				c8.1,0,14.03,1.85,18.12,5.67c4.27,3.91,6.44,9.39,6.44,16.27c0,7.24-2.26,13.28-6.53,17.49C84.38,77.37,77.56,79.62,68.92,79.62
				z M66.1,71.92c1.27,0.11,2.75,0.12,3.88,0.12c10.66,0,16.29-5.61,16.29-16.23c0.03-4.59-1.2-8.16-3.67-10.64
				c-2.62-2.63-6.57-3.97-11.75-3.97c-2.06,0-3.62,0.14-4.75,0.3V71.92z"/>
		</g>
		<g>
			<path class="st1" d="M23.45,79.17v-5.66l4.79-4.65c10.26-9.76,14.55-14.71,14.6-20.07c0-4.17-2.17-6.29-6.44-6.29
				c-3.4,0-6.21,1.92-7.58,3.06l-1.63,1.35l-3.12-6.9l0.93-0.78c3.43-2.9,7.88-4.5,12.51-4.5c9.68,0,14.02,6.73,14.02,13.4
				c0,8.35-5.99,14.76-14.46,22.92l-0.38,0.35h15.84v7.77H23.45z"/>
			<path class="st1" d="M68.84,79.54c-3.69,0-7.07-0.17-10.04-0.51l-1.43-0.16V34.7l1.37-0.21c3.92-0.59,7.88-0.89,11.78-0.89
				c8.1,0,14.03,1.85,18.12,5.67c4.27,3.91,6.44,9.39,6.44,16.27c0,7.24-2.26,13.28-6.53,17.49C84.3,77.29,77.48,79.54,68.84,79.54z
				 M66.02,71.84c1.27,0.11,2.75,0.12,3.88,0.12c10.66,0,16.29-5.61,16.29-16.23c0.03-4.59-1.2-8.16-3.67-10.64
				c-2.62-2.63-6.57-3.97-11.75-3.97c-2.06,0-3.62,0.14-4.75,0.3V71.84z"/>
		</g>
		<g>
			<path class="st1" d="M23.37,79.09v-5.66l4.79-4.65c10.26-9.76,14.55-14.71,14.6-20.07c0-4.17-2.17-6.29-6.44-6.29
				c-3.4,0-6.21,1.92-7.58,3.06l-1.63,1.35l-3.12-6.9l0.93-0.78c3.43-2.9,7.88-4.5,12.51-4.5c9.68,0,14.02,6.73,14.02,13.4
				c0,8.35-5.99,14.76-14.46,22.92l-0.38,0.35h15.84v7.77H23.37z"/>
			<path class="st1" d="M68.76,79.46c-3.69,0-7.07-0.17-10.04-0.51l-1.43-0.16V34.62l1.37-0.21c3.92-0.59,7.88-0.89,11.78-0.89
				c8.1,0,14.03,1.85,18.12,5.67C92.83,43.11,95,48.58,95,55.46c0,7.24-2.26,13.28-6.53,17.49C84.22,77.21,77.4,79.46,68.76,79.46z
				 M65.94,71.76c1.27,0.11,2.75,0.12,3.88,0.12c10.66,0,16.29-5.61,16.29-16.23c0.03-4.59-1.2-8.16-3.67-10.64
				c-2.62-2.63-6.57-3.97-11.75-3.97c-2.06,0-3.62,0.14-4.75,0.3V71.76z"/>
		</g>
		<g>
			<path class="st1" d="M23.29,79.01v-5.66l4.79-4.65c10.26-9.76,14.55-14.71,14.6-20.07c0-4.17-2.17-6.29-6.44-6.29
				c-3.4,0-6.21,1.92-7.58,3.06l-1.63,1.35l-3.12-6.9l0.93-0.78c3.43-2.9,7.88-4.5,12.51-4.5c9.68,0,14.02,6.73,14.02,13.4
				c0,8.35-5.99,14.76-14.46,22.92l-0.38,0.35h15.84v7.77H23.29z"/>
			<path class="st1" d="M68.68,79.38c-3.69,0-7.07-0.17-10.04-0.51l-1.43-0.16V34.54l1.37-0.21c3.92-0.59,7.88-0.89,11.78-0.89
				c8.1,0,14.03,1.85,18.12,5.67c4.27,3.91,6.44,9.39,6.44,16.27c0,7.24-2.26,13.28-6.53,17.49C84.13,77.12,77.32,79.38,68.68,79.38
				z M65.86,71.67c1.27,0.11,2.75,0.12,3.88,0.12c10.66,0,16.29-5.61,16.29-16.23c0.03-4.59-1.2-8.16-3.67-10.64
				c-2.62-2.63-6.57-3.97-11.75-3.97c-2.06,0-3.62,0.14-4.75,0.3V71.67z"/>
		</g>
		<g>
			<path class="st1" d="M23.21,78.93v-5.66L28,68.62c10.26-9.76,14.55-14.71,14.6-20.07c0-4.17-2.17-6.29-6.44-6.29
				c-3.4,0-6.21,1.92-7.58,3.06l-1.63,1.35l-3.12-6.9l0.93-0.78c3.43-2.9,7.88-4.5,12.51-4.5c9.68,0,14.02,6.73,14.02,13.4
				c0,8.35-5.99,14.76-14.46,22.92l-0.38,0.35h15.84v7.77H23.21z"/>
			<path class="st1" d="M68.6,79.3c-3.69,0-7.07-0.17-10.04-0.51l-1.43-0.16V34.46l1.37-0.21c3.92-0.59,7.88-0.89,11.78-0.89
				c8.1,0,14.03,1.85,18.12,5.67c4.27,3.91,6.44,9.39,6.44,16.27c0,7.24-2.26,13.28-6.53,17.49C84.05,77.04,77.23,79.3,68.6,79.3z
				 M65.78,71.59c1.27,0.11,2.75,0.12,3.88,0.12c10.66,0,16.29-5.61,16.29-16.23c0.03-4.59-1.2-8.16-3.67-10.64
				c-2.62-2.63-6.57-3.97-11.75-3.97c-2.06,0-3.62,0.14-4.75,0.3V71.59z"/>
		</g>
		<g>
			<path class="st1" d="M23.13,78.84v-5.66l4.79-4.65c10.26-9.76,14.55-14.71,14.6-20.07c0-4.17-2.17-6.29-6.44-6.29
				c-3.4,0-6.21,1.92-7.58,3.06l-1.63,1.35l-3.12-6.9l0.93-0.78c3.43-2.9,7.88-4.5,12.51-4.5c9.68,0,14.02,6.73,14.02,13.4
				c0,8.35-5.99,14.76-14.46,22.92l-0.38,0.35h15.84v7.77H23.13z"/>
			<path class="st1" d="M68.52,79.22c-3.69,0-7.07-0.17-10.04-0.51l-1.43-0.16V34.38l1.37-0.21c3.92-0.59,7.88-0.89,11.78-0.89
				c8.1,0,14.03,1.85,18.12,5.67c4.27,3.91,6.44,9.39,6.44,16.27c0,7.24-2.26,13.28-6.53,17.49C83.97,76.96,77.15,79.22,68.52,79.22
				z M65.7,71.51c1.27,0.11,2.75,0.12,3.88,0.12c10.66,0,16.29-5.61,16.29-16.23c0.03-4.59-1.2-8.16-3.67-10.64
				c-2.62-2.63-6.57-3.97-11.75-3.97c-2.06,0-3.62,0.14-4.75,0.3V71.51z"/>
		</g>
		<g>
			<path class="st1" d="M23.05,78.76v-5.66l4.79-4.65c10.26-9.76,14.55-14.71,14.6-20.07c0-4.17-2.17-6.29-6.44-6.29
				c-3.4,0-6.21,1.92-7.58,3.06l-1.63,1.35l-3.12-6.9l0.93-0.78c3.43-2.9,7.88-4.5,12.51-4.5c9.68,0,14.02,6.73,14.02,13.4
				c0,8.35-5.99,14.76-14.46,22.92l-0.38,0.35h15.84v7.77H23.05z"/>
			<path class="st1" d="M68.44,79.14c-3.69,0-7.07-0.17-10.04-0.51l-1.43-0.16V34.3l1.37-0.21c3.92-0.59,7.88-0.89,11.78-0.89
				c8.1,0,14.03,1.85,18.12,5.67c4.27,3.91,6.44,9.39,6.44,16.27c0,7.24-2.26,13.28-6.53,17.49C83.89,76.88,77.07,79.14,68.44,79.14
				z M65.62,71.43c1.27,0.11,2.75,0.12,3.88,0.12c10.66,0,16.29-5.61,16.29-16.23c0.03-4.59-1.2-8.16-3.67-10.64
				c-2.62-2.63-6.57-3.97-11.75-3.97c-2.06,0-3.62,0.14-4.75,0.3V71.43z"/>
		</g>
		<g>
			<path class="st1" d="M22.97,78.68v-5.66l4.79-4.65c10.26-9.76,14.55-14.71,14.6-20.07c0-4.17-2.17-6.29-6.44-6.29
				c-3.4,0-6.21,1.92-7.58,3.06l-1.63,1.35l-3.12-6.9l0.93-0.78c3.43-2.9,7.88-4.5,12.51-4.5c9.68,0,14.02,6.73,14.02,13.4
				c0,8.35-5.99,14.76-14.46,22.92l-0.38,0.35h15.84v7.77H22.97z"/>
			<path class="st1" d="M68.36,79.06c-3.69,0-7.07-0.17-10.04-0.51l-1.43-0.16V34.22l1.37-0.21c3.92-0.59,7.88-0.89,11.78-0.89
				c8.1,0,14.03,1.85,18.12,5.67c4.27,3.91,6.44,9.39,6.44,16.27c0,7.24-2.26,13.28-6.53,17.49C83.81,76.8,76.99,79.06,68.36,79.06z
				 M65.54,71.35c1.27,0.11,2.75,0.12,3.88,0.12c10.66,0,16.29-5.61,16.29-16.23c0.03-4.59-1.2-8.16-3.67-10.64
				c-2.62-2.63-6.57-3.97-11.75-3.97c-2.06,0-3.62,0.14-4.75,0.3V71.35z"/>
		</g>
		<g>
			<path class="st1" d="M22.89,78.6v-5.66l4.79-4.65c10.26-9.76,14.55-14.71,14.6-20.07c0-4.17-2.17-6.29-6.44-6.29
				c-3.4,0-6.21,1.92-7.58,3.06l-1.63,1.35l-3.12-6.9l0.93-0.78c3.43-2.9,7.88-4.5,12.51-4.5c9.68,0,14.02,6.73,14.02,13.4
				c0,8.35-5.99,14.76-14.46,22.92l-0.38,0.35h15.84v7.77H22.89z"/>
			<path class="st1" d="M68.28,78.98c-3.69,0-7.07-0.17-10.04-0.51l-1.43-0.16V34.14l1.37-0.21c3.92-0.59,7.88-0.89,11.78-0.89
				c8.1,0,14.03,1.85,18.12,5.67c4.27,3.91,6.44,9.39,6.44,16.27c0,7.24-2.26,13.28-6.53,17.49C83.73,76.72,76.91,78.98,68.28,78.98
				z M65.46,71.27c1.27,0.11,2.75,0.12,3.88,0.12c10.66,0,16.29-5.61,16.29-16.23c0.03-4.59-1.2-8.16-3.67-10.64
				c-2.62-2.63-6.57-3.97-11.75-3.97c-2.06,0-3.62,0.14-4.75,0.3V71.27z"/>
		</g>
		<g>
			<path class="st1" d="M22.81,78.52v-5.66l4.79-4.65c10.26-9.76,14.55-14.71,14.6-20.07c0-4.17-2.17-6.29-6.44-6.29
				c-3.4,0-6.21,1.92-7.58,3.06l-1.63,1.35l-3.12-6.9l0.93-0.78c3.43-2.9,7.88-4.5,12.51-4.5c9.68,0,14.02,6.73,14.02,13.4
				c0,8.35-5.99,14.76-14.46,22.92l-0.38,0.35h15.84v7.77H22.81z"/>
			<path class="st1" d="M68.2,78.9c-3.69,0-7.07-0.17-10.04-0.51l-1.43-0.16V34.06l1.37-0.21c3.92-0.59,7.88-0.89,11.78-0.89
				c8.1,0,14.03,1.85,18.12,5.67c4.27,3.91,6.44,9.39,6.44,16.27c0,7.24-2.26,13.28-6.53,17.49C83.65,76.64,76.83,78.9,68.2,78.9z
				 M65.38,71.19c1.27,0.11,2.75,0.12,3.88,0.12c10.66,0,16.29-5.61,16.29-16.23c0.03-4.59-1.2-8.16-3.67-10.64
				c-2.62-2.63-6.57-3.97-11.75-3.97c-2.06,0-3.62,0.14-4.75,0.3V71.19z"/>
		</g>
		<g>
			<path class="st1" d="M22.73,78.44v-5.66l4.79-4.65c10.26-9.76,14.55-14.71,14.6-20.07c0-4.17-2.17-6.29-6.44-6.29
				c-3.4,0-6.21,1.92-7.58,3.06l-1.63,1.35l-3.12-6.9l0.93-0.78c3.43-2.9,7.88-4.5,12.51-4.5c9.68,0,14.02,6.73,14.02,13.4
				c0,8.35-5.99,14.76-14.46,22.92l-0.38,0.35h15.84v7.77H22.73z"/>
			<path class="st1" d="M68.12,78.82c-3.69,0-7.07-0.17-10.04-0.51l-1.43-0.16V33.98l1.37-0.21c3.92-0.59,7.88-0.89,11.78-0.89
				c8.1,0,14.03,1.85,18.12,5.67c4.27,3.91,6.44,9.39,6.44,16.27c0,7.24-2.26,13.28-6.53,17.49C83.57,76.56,76.75,78.82,68.12,78.82
				z M65.3,71.11c1.27,0.11,2.75,0.12,3.88,0.12c10.66,0,16.29-5.61,16.29-16.23c0.03-4.59-1.2-8.16-3.67-10.64
				c-2.62-2.63-6.57-3.97-11.75-3.97c-2.06,0-3.62,0.14-4.75,0.3V71.11z"/>
		</g>
		<g>
			<path class="st1" d="M22.65,78.36V72.7l4.79-4.65c10.26-9.76,14.55-14.71,14.6-20.07c0-4.17-2.17-6.29-6.44-6.29
				c-3.4,0-6.21,1.92-7.58,3.06L26.4,46.1l-3.12-6.9l0.93-0.78c3.43-2.9,7.88-4.5,12.51-4.5c9.68,0,14.02,6.73,14.02,13.4
				c0,8.35-5.99,14.76-14.46,22.92l-0.38,0.35h15.84v7.77H22.65z"/>
			<path class="st1" d="M68.04,78.74c-3.69,0-7.07-0.17-10.04-0.51l-1.43-0.16V33.9l1.37-0.21c3.92-0.59,7.88-0.89,11.78-0.89
				c8.1,0,14.03,1.85,18.12,5.67c4.27,3.91,6.44,9.39,6.44,16.27c0,7.24-2.26,13.28-6.53,17.49C83.49,76.48,76.67,78.74,68.04,78.74
				z M65.22,71.03c1.27,0.11,2.75,0.12,3.88,0.12c10.66,0,16.29-5.61,16.29-16.23c0.03-4.59-1.2-8.16-3.67-10.64
				c-2.62-2.63-6.57-3.97-11.75-3.97c-2.06,0-3.62,0.14-4.75,0.3V71.03z"/>
		</g>
		<g>
			<path class="st1" d="M22.57,78.28v-5.66l4.79-4.65c10.26-9.76,14.55-14.71,14.6-20.07c0-4.17-2.17-6.29-6.44-6.29
				c-3.4,0-6.21,1.92-7.58,3.06l-1.63,1.35l-3.12-6.9l0.93-0.78c3.43-2.9,7.88-4.5,12.51-4.5c9.68,0,14.02,6.73,14.02,13.4
				c0,8.35-5.99,14.76-14.46,22.92l-0.38,0.35h15.84v7.77H22.57z"/>
			<path class="st1" d="M67.95,78.66c-3.69,0-7.07-0.17-10.04-0.51l-1.43-0.16V33.82l1.37-0.21c3.92-0.59,7.88-0.89,11.78-0.89
				c8.1,0,14.03,1.85,18.12,5.67c4.27,3.91,6.44,9.39,6.44,16.27c0,7.24-2.26,13.28-6.53,17.49C83.41,76.4,76.59,78.66,67.95,78.66z
				 M65.14,70.95c1.27,0.11,2.75,0.12,3.88,0.12c10.66,0,16.29-5.61,16.29-16.23c0.03-4.59-1.2-8.16-3.67-10.64
				c-2.62-2.63-6.57-3.97-11.75-3.97c-2.06,0-3.62,0.14-4.75,0.3V70.95z"/>
		</g>
		<g>
			<path class="st1" d="M22.49,78.2v-5.66l4.79-4.65c10.26-9.76,14.55-14.71,14.6-20.07c0-4.17-2.17-6.29-6.44-6.29
				c-3.4,0-6.21,1.92-7.58,3.06l-1.63,1.35l-3.12-6.9l0.93-0.78c3.43-2.9,7.88-4.5,12.51-4.5c9.68,0,14.02,6.73,14.02,13.4
				c0,8.35-5.99,14.76-14.46,22.92l-0.38,0.35h15.84v7.77H22.49z"/>
			<path class="st1" d="M67.87,78.58c-3.69,0-7.07-0.17-10.04-0.51l-1.43-0.16V33.74l1.37-0.21c3.92-0.59,7.88-0.89,11.78-0.89
				c8.1,0,14.03,1.85,18.12,5.67c4.27,3.91,6.44,9.39,6.44,16.27c0,7.24-2.26,13.28-6.53,17.49C83.33,76.32,76.51,78.58,67.87,78.58
				z M65.06,70.87c1.27,0.11,2.75,0.12,3.88,0.12c10.66,0,16.29-5.61,16.29-16.23c0.03-4.59-1.2-8.16-3.67-10.64
				c-2.62-2.63-6.57-3.97-11.75-3.97c-2.06,0-3.62,0.14-4.75,0.3V70.87z"/>
		</g>
		<g>
			<path class="st1" d="M22.41,78.12v-5.66l4.79-4.65c10.26-9.76,14.55-14.71,14.6-20.07c0-4.17-2.17-6.29-6.44-6.29
				c-3.4,0-6.21,1.92-7.58,3.06l-1.63,1.35l-3.12-6.9l0.93-0.78c3.43-2.9,7.88-4.5,12.51-4.5c9.68,0,14.02,6.73,14.02,13.4
				c0,8.35-5.99,14.76-14.46,22.92l-0.38,0.35H51.5v7.77H22.41z"/>
			<path class="st1" d="M67.79,78.49c-3.69,0-7.07-0.17-10.04-0.51l-1.43-0.16V33.66l1.37-0.21c3.92-0.59,7.88-0.89,11.78-0.89
				c8.1,0,14.03,1.85,18.12,5.67c4.27,3.91,6.44,9.39,6.44,16.27c0,7.24-2.26,13.28-6.53,17.49C83.25,76.24,76.43,78.49,67.79,78.49
				z M64.98,70.79c1.27,0.11,2.75,0.12,3.88,0.12c10.66,0,16.29-5.61,16.29-16.23c0.03-4.59-1.2-8.16-3.67-10.64
				c-2.62-2.63-6.57-3.97-11.75-3.97c-2.06,0-3.62,0.14-4.75,0.3V70.79z"/>
		</g>
		<g>
			<path class="st1" d="M22.33,78.04v-5.66l4.79-4.65c10.26-9.76,14.55-14.71,14.6-20.07c0-4.17-2.17-6.29-6.44-6.29
				c-3.4,0-6.21,1.92-7.58,3.06l-1.63,1.35l-3.12-6.9l0.93-0.78c3.43-2.9,7.88-4.5,12.51-4.5c9.68,0,14.02,6.73,14.02,13.4
				c0,8.35-5.99,14.76-14.46,22.92l-0.38,0.35h15.84v7.77H22.33z"/>
			<path class="st1" d="M67.71,78.41c-3.69,0-7.07-0.17-10.04-0.51l-1.43-0.16V33.58l1.37-0.21c3.92-0.59,7.88-0.89,11.78-0.89
				c8.1,0,14.03,1.85,18.12,5.67c4.27,3.91,6.44,9.39,6.44,16.27c0,7.24-2.26,13.28-6.53,17.49C83.17,76.16,76.35,78.41,67.71,78.41
				z M64.89,70.71c1.27,0.11,2.75,0.12,3.88,0.12c10.66,0,16.29-5.61,16.29-16.23c0.03-4.59-1.2-8.16-3.67-10.64
				C78.78,41.33,74.83,40,69.65,40c-2.06,0-3.62,0.14-4.75,0.3V70.71z"/>
		</g>
		<g>
			<path class="st1" d="M22.24,77.96V72.3l4.79-4.65c10.26-9.76,14.55-14.71,14.6-20.07c0-4.17-2.17-6.29-6.44-6.29
				c-3.4,0-6.21,1.92-7.58,3.06L26,45.7l-3.12-6.9l0.93-0.78c3.43-2.9,7.88-4.5,12.51-4.5c9.68,0,14.02,6.73,14.02,13.4
				c0,8.35-5.99,14.76-14.46,22.92l-0.38,0.35h15.84v7.77H22.24z"/>
			<path class="st1" d="M67.63,78.33c-3.69,0-7.07-0.17-10.04-0.51l-1.43-0.16V33.5l1.37-0.21c3.92-0.59,7.88-0.89,11.78-0.89
				c8.1,0,14.03,1.85,18.12,5.67c4.27,3.91,6.44,9.39,6.44,16.27c0,7.24-2.26,13.28-6.53,17.49C83.09,76.08,76.27,78.33,67.63,78.33
				z M64.81,70.63c1.27,0.11,2.75,0.12,3.88,0.12c10.66,0,16.29-5.61,16.29-16.23c0.03-4.59-1.2-8.16-3.67-10.64
				c-2.62-2.63-6.57-3.97-11.75-3.97c-2.06,0-3.62,0.14-4.75,0.3V70.63z"/>
		</g>
		<g>
			<path class="st1" d="M22.16,77.88v-5.66l4.79-4.65c10.26-9.76,14.55-14.71,14.6-20.07c0-4.17-2.17-6.29-6.44-6.29
				c-3.4,0-6.21,1.92-7.58,3.06l-1.63,1.35l-3.12-6.9l0.93-0.78c3.43-2.9,7.88-4.5,12.51-4.5c9.68,0,14.02,6.73,14.02,13.4
				c0,8.35-5.99,14.76-14.46,22.92l-0.38,0.35h15.84v7.77H22.16z"/>
			<path class="st1" d="M67.55,78.25c-3.69,0-7.07-0.17-10.04-0.51l-1.43-0.16V33.41l1.37-0.21c3.92-0.59,7.88-0.89,11.78-0.89
				c8.1,0,14.03,1.85,18.12,5.67c4.27,3.91,6.44,9.39,6.44,16.27c0,7.24-2.26,13.28-6.53,17.49C83.01,76,76.19,78.25,67.55,78.25z
				 M64.73,70.55c1.27,0.11,2.75,0.12,3.88,0.12c10.66,0,16.29-5.61,16.29-16.23c0.03-4.59-1.2-8.16-3.67-10.64
				c-2.62-2.63-6.57-3.97-11.75-3.97c-2.06,0-3.62,0.14-4.75,0.3V70.55z"/>
		</g>
		<g>
			<path class="st1" d="M22.08,77.8v-5.66l4.79-4.65c10.26-9.76,14.55-14.71,14.6-20.07c0-4.17-2.17-6.29-6.44-6.29
				c-3.4,0-6.21,1.92-7.58,3.06l-1.63,1.35l-3.12-6.9l0.93-0.78c3.43-2.9,7.88-4.5,12.51-4.5c9.68,0,14.02,6.73,14.02,13.4
				c0,8.35-5.99,14.76-14.46,22.92l-0.38,0.35h15.84v7.77H22.08z"/>
			<path class="st1" d="M67.47,78.17c-3.69,0-7.07-0.17-10.04-0.51l-1.43-0.16V33.33l1.37-0.21c3.92-0.59,7.88-0.89,11.78-0.89
				c8.1,0,14.03,1.85,18.12,5.67c4.27,3.91,6.44,9.39,6.44,16.27c0,7.24-2.26,13.28-6.53,17.49C82.93,75.92,76.11,78.17,67.47,78.17
				z M64.65,70.47c1.27,0.11,2.75,0.12,3.88,0.12c10.66,0,16.29-5.61,16.29-16.23c0.03-4.59-1.2-8.16-3.67-10.64
				c-2.62-2.63-6.57-3.97-11.75-3.97c-2.06,0-3.62,0.14-4.75,0.3V70.47z"/>
		</g>
		<g>
			<path class="st1" d="M22,77.72v-5.66l4.79-4.65c10.26-9.76,14.55-14.71,14.6-20.07c0-4.17-2.17-6.29-6.44-6.29
				c-3.4,0-6.21,1.92-7.58,3.06l-1.63,1.35l-3.12-6.9l0.93-0.78c3.43-2.9,7.88-4.5,12.51-4.5c9.68,0,14.02,6.73,14.02,13.4
				c0,8.35-5.99,14.76-14.46,22.92l-0.38,0.35H51.1v7.77H22z"/>
			<path class="st1" d="M67.39,78.09c-3.69,0-7.07-0.17-10.04-0.51l-1.43-0.16V33.25l1.37-0.21c3.92-0.59,7.88-0.89,11.78-0.89
				c8.1,0,14.03,1.85,18.12,5.67c4.27,3.91,6.44,9.39,6.44,16.27c0,7.24-2.26,13.28-6.53,17.49C82.85,75.84,76.03,78.09,67.39,78.09
				z M64.57,70.39c1.27,0.11,2.75,0.12,3.88,0.12c10.66,0,16.29-5.61,16.29-16.23c0.03-4.59-1.2-8.16-3.67-10.64
				c-2.62-2.63-6.57-3.97-11.75-3.97c-2.06,0-3.62,0.14-4.75,0.3V70.39z"/>
		</g>
		<g>
			<path class="st1" d="M21.92,77.64v-5.66l4.79-4.65c10.26-9.76,14.55-14.71,14.6-20.07c0-4.17-2.17-6.29-6.44-6.29
				c-3.4,0-6.21,1.92-7.58,3.06l-1.63,1.35l-3.12-6.9l0.93-0.78c3.43-2.9,7.88-4.5,12.51-4.5c9.68,0,14.02,6.73,14.02,13.4
				c0,8.35-5.99,14.76-14.46,22.92l-0.38,0.35h15.84v7.77H21.92z"/>
			<path class="st1" d="M67.31,78.01c-3.69,0-7.07-0.17-10.04-0.51l-1.43-0.16V33.17l1.37-0.21c3.92-0.59,7.88-0.89,11.78-0.89
				c8.1,0,14.03,1.85,18.12,5.67c4.27,3.91,6.44,9.39,6.44,16.27c0,7.24-2.26,13.28-6.53,17.49C82.77,75.76,75.95,78.01,67.31,78.01
				z M64.49,70.31c1.27,0.11,2.75,0.12,3.88,0.12c10.66,0,16.29-5.61,16.29-16.23c0.03-4.59-1.2-8.16-3.67-10.64
				c-2.62-2.63-6.57-3.97-11.75-3.97c-2.06,0-3.62,0.14-4.75,0.3V70.31z"/>
		</g>
		<g>
			<path class="st1" d="M21.84,77.56V71.9l4.79-4.65c10.26-9.76,14.55-14.71,14.6-20.07c0-4.17-2.17-6.29-6.44-6.29
				c-3.4,0-6.21,1.92-7.58,3.06L25.6,45.3l-3.12-6.9l0.93-0.78c3.43-2.9,7.88-4.5,12.51-4.5c9.68,0,14.02,6.73,14.02,13.4
				c0,8.35-5.99,14.76-14.46,22.92l-0.38,0.35h15.84v7.77H21.84z"/>
			<path class="st1" d="M67.23,77.93c-3.69,0-7.07-0.17-10.04-0.51l-1.43-0.16V33.09l1.37-0.21C61.05,32.29,65.02,32,68.91,32
				c8.1,0,14.03,1.85,18.12,5.67c4.27,3.91,6.44,9.39,6.44,16.27c0,7.24-2.26,13.28-6.53,17.49C82.69,75.68,75.87,77.93,67.23,77.93
				z M64.41,70.23c1.27,0.11,2.75,0.12,3.88,0.12c10.66,0,16.29-5.61,16.29-16.23c0.03-4.59-1.2-8.16-3.67-10.64
				c-2.62-2.63-6.57-3.97-11.75-3.97c-2.06,0-3.62,0.14-4.75,0.3V70.23z"/>
		</g>
		<g>
			<path class="st1" d="M21.76,77.48v-5.66l4.79-4.65C36.81,57.4,41.1,52.46,41.16,47.1c0-4.17-2.17-6.29-6.44-6.29
				c-3.4,0-6.21,1.92-7.58,3.06l-1.63,1.35l-3.12-6.9l0.93-0.78c3.43-2.9,7.88-4.5,12.51-4.5c9.68,0,14.02,6.73,14.02,13.4
				c0,8.35-5.99,14.76-14.46,22.92l-0.38,0.35h15.84v7.77H21.76z"/>
			<path class="st1" d="M67.15,77.85c-3.69,0-7.07-0.17-10.04-0.51l-1.43-0.16V33.01l1.37-0.21c3.92-0.59,7.88-0.89,11.78-0.89
				c8.1,0,14.03,1.85,18.12,5.67c4.27,3.91,6.44,9.39,6.44,16.27c0,7.24-2.26,13.28-6.53,17.49C82.61,75.6,75.79,77.85,67.15,77.85z
				 M64.33,70.15c1.27,0.11,2.75,0.12,3.88,0.12c10.66,0,16.29-5.61,16.29-16.23c0.03-4.59-1.2-8.16-3.67-10.64
				c-2.62-2.63-6.57-3.97-11.75-3.97c-2.06,0-3.62,0.14-4.75,0.3V70.15z"/>
		</g>
		<g>
			<path class="st1" d="M21.68,77.4v-5.66l4.79-4.65c10.26-9.76,14.55-14.71,14.6-20.07c0-4.17-2.17-6.29-6.44-6.29
				c-3.4,0-6.21,1.92-7.58,3.06l-1.63,1.35l-3.12-6.9l0.93-0.78c3.43-2.9,7.88-4.5,12.51-4.5c9.68,0,14.02,6.73,14.02,13.4
				c0,8.35-5.99,14.76-14.46,22.92l-0.38,0.35h15.84v7.77H21.68z"/>
			<path class="st1" d="M67.07,77.77c-3.69,0-7.07-0.17-10.04-0.51l-1.43-0.16V32.93l1.37-0.21c3.92-0.59,7.88-0.89,11.78-0.89
				c8.1,0,14.03,1.85,18.12,5.67c4.27,3.91,6.44,9.39,6.44,16.27c0,7.24-2.26,13.28-6.53,17.49C82.53,75.52,75.71,77.77,67.07,77.77
				z M64.25,70.07c1.27,0.11,2.75,0.12,3.88,0.12c10.66,0,16.29-5.61,16.29-16.23c0.03-4.59-1.2-8.16-3.67-10.64
				c-2.62-2.63-6.57-3.97-11.75-3.97c-2.06,0-3.62,0.14-4.75,0.3V70.07z"/>
		</g>
		<g>
			<path class="st1" d="M21.6,77.32v-5.66l4.79-4.65C36.65,57.24,40.94,52.3,41,46.94c0-4.17-2.17-6.29-6.44-6.29
				c-3.4,0-6.21,1.92-7.58,3.06l-1.63,1.35l-3.12-6.9l0.93-0.78c3.43-2.9,7.88-4.5,12.51-4.5c9.68,0,14.02,6.73,14.02,13.4
				c0,8.35-5.99,14.76-14.46,22.92l-0.38,0.35H50.7v7.77H21.6z"/>
			<path class="st1" d="M66.99,77.69c-3.69,0-7.07-0.17-10.04-0.51l-1.43-0.16V32.85l1.37-0.21c3.92-0.59,7.88-0.89,11.78-0.89
				c8.1,0,14.03,1.85,18.12,5.67c4.27,3.91,6.44,9.39,6.44,16.27c0,7.24-2.26,13.28-6.53,17.49C82.45,75.44,75.63,77.69,66.99,77.69
				z M64.17,69.99c1.27,0.11,2.75,0.12,3.88,0.12c10.66,0,16.29-5.61,16.29-16.23c0.03-4.59-1.2-8.16-3.67-10.64
				c-2.62-2.63-6.57-3.97-11.75-3.97c-2.06,0-3.62,0.14-4.75,0.3V69.99z"/>
		</g>
		<g>
			<path class="st1" d="M21.52,77.24v-5.66l4.79-4.65c10.26-9.76,14.55-14.71,14.6-20.07c0-4.17-2.17-6.29-6.44-6.29
				c-3.4,0-6.21,1.92-7.58,3.06l-1.63,1.35l-3.12-6.9l0.93-0.78c3.43-2.9,7.88-4.5,12.51-4.5c9.68,0,14.02,6.73,14.02,13.4
				c0,8.35-5.99,14.76-14.46,22.92l-0.38,0.35h15.84v7.77H21.52z"/>
			<path class="st1" d="M66.91,77.61c-3.69,0-7.07-0.17-10.04-0.51l-1.43-0.16V32.77l1.37-0.21c3.92-0.59,7.88-0.89,11.78-0.89
				c8.1,0,14.03,1.85,18.12,5.67c4.27,3.91,6.44,9.39,6.44,16.27c0,7.24-2.26,13.28-6.53,17.49C82.36,75.36,75.55,77.61,66.91,77.61
				z M64.09,69.9c1.27,0.11,2.75,0.12,3.88,0.12c10.66,0,16.29-5.61,16.29-16.23c0.03-4.59-1.2-8.16-3.67-10.64
				c-2.62-2.63-6.57-3.97-11.75-3.97c-2.06,0-3.62,0.14-4.75,0.3V69.9z"/>
		</g>
		<g>
			<path class="st1" d="M21.44,77.16V71.5l4.79-4.65c10.26-9.76,14.55-14.71,14.6-20.07c0-4.17-2.17-6.29-6.44-6.29
				c-3.4,0-6.21,1.92-7.58,3.06L25.2,44.9l-3.12-6.9l0.93-0.78c3.43-2.9,7.88-4.5,12.51-4.5c9.68,0,14.02,6.73,14.02,13.4
				c0,8.35-5.99,14.76-14.46,22.92l-0.38,0.35h15.84v7.77H21.44z"/>
			<path class="st1" d="M66.83,77.53c-3.69,0-7.07-0.17-10.04-0.51l-1.43-0.16V32.69l1.37-0.21c3.92-0.59,7.88-0.89,11.78-0.89
				c8.1,0,14.03,1.85,18.12,5.67c4.27,3.91,6.44,9.39,6.44,16.27c0,7.24-2.26,13.28-6.53,17.49C82.28,75.27,75.46,77.53,66.83,77.53
				z M64.01,69.82c1.27,0.11,2.75,0.12,3.88,0.12c10.66,0,16.29-5.61,16.29-16.23c0.03-4.59-1.2-8.16-3.67-10.64
				c-2.62-2.63-6.57-3.97-11.75-3.97c-2.06,0-3.62,0.14-4.75,0.3V69.82z"/>
		</g>
		<g>
			<path class="st1" d="M21.36,77.07v-5.66l4.79-4.65C36.41,57,40.7,52.06,40.75,46.7c0-4.17-2.17-6.29-6.44-6.29
				c-3.4,0-6.21,1.92-7.58,3.06l-1.63,1.35L22,37.91l0.93-0.78c3.43-2.9,7.88-4.5,12.51-4.5c9.68,0,14.02,6.73,14.02,13.4
				c0,8.35-5.99,14.76-14.46,22.92l-0.38,0.35h15.84v7.77H21.36z"/>
			<path class="st1" d="M66.75,77.45c-3.69,0-7.07-0.17-10.04-0.51l-1.43-0.16V32.61l1.37-0.21c3.92-0.59,7.88-0.89,11.78-0.89
				c8.1,0,14.03,1.85,18.12,5.67c4.27,3.91,6.44,9.39,6.44,16.27c0,7.24-2.26,13.28-6.53,17.49C82.2,75.19,75.38,77.45,66.75,77.45z
				 M63.93,69.74c1.27,0.11,2.75,0.12,3.88,0.12c10.66,0,16.29-5.61,16.29-16.23c0.03-4.59-1.2-8.16-3.67-10.64
				c-2.62-2.63-6.57-3.97-11.75-3.97c-2.06,0-3.62,0.14-4.75,0.3V69.74z"/>
		</g>
		<g>
			<path class="st1" d="M21.28,76.99v-5.66l4.79-4.65c10.26-9.76,14.55-14.71,14.6-20.07c0-4.17-2.17-6.29-6.44-6.29
				c-3.4,0-6.21,1.92-7.58,3.06l-1.63,1.35l-3.12-6.9l0.93-0.78c3.43-2.9,7.88-4.5,12.51-4.5c9.68,0,14.02,6.73,14.02,13.4
				c0,8.35-5.99,14.76-14.46,22.92l-0.38,0.35h15.84v7.77H21.28z"/>
			<path class="st1" d="M66.67,77.37c-3.69,0-7.07-0.17-10.04-0.51l-1.43-0.16V32.53l1.37-0.21c3.92-0.59,7.88-0.89,11.78-0.89
				c8.1,0,14.03,1.85,18.12,5.67c4.27,3.91,6.44,9.39,6.44,16.27c0,7.24-2.26,13.28-6.53,17.49C82.12,75.11,75.3,77.37,66.67,77.37z
				 M63.85,69.66c1.27,0.11,2.75,0.12,3.88,0.12c10.66,0,16.29-5.61,16.29-16.23c0.03-4.59-1.2-8.16-3.67-10.64
				c-2.62-2.63-6.57-3.97-11.75-3.97c-2.06,0-3.62,0.14-4.75,0.3V69.66z"/>
		</g>
		<g>
			<path class="st1" d="M21.2,76.91v-5.66l4.79-4.65c10.26-9.76,14.55-14.71,14.6-20.07c0-4.17-2.17-6.29-6.44-6.29
				c-3.4,0-6.21,1.92-7.58,3.06l-1.63,1.35l-3.12-6.9l0.93-0.78c3.43-2.9,7.88-4.5,12.51-4.5c9.68,0,14.02,6.73,14.02,13.4
				c0,8.35-5.99,14.76-14.46,22.92l-0.38,0.35H50.3v7.77H21.2z"/>
			<path class="st1" d="M66.59,77.29c-3.69,0-7.07-0.17-10.04-0.51l-1.43-0.16V32.45l1.37-0.21c3.92-0.59,7.88-0.89,11.78-0.89
				c8.1,0,14.03,1.85,18.12,5.67c4.27,3.91,6.44,9.39,6.44,16.27c0,7.24-2.26,13.28-6.53,17.49C82.04,75.03,75.22,77.29,66.59,77.29
				z M63.77,69.58c1.27,0.11,2.75,0.12,3.88,0.12c10.66,0,16.29-5.61,16.29-16.23c0.03-4.59-1.2-8.16-3.67-10.64
				c-2.62-2.63-6.57-3.97-11.75-3.97c-2.06,0-3.62,0.14-4.75,0.3V69.58z"/>
		</g>
	</g>
	<g>
		<path class="st2" d="M22,76.11V71.6l4.55-4.42C36.98,57.26,41.34,52.2,41.4,46.55c0-3.24-1.26-7.11-7.24-7.11
			c-3.65,0-6.64,2.03-8.09,3.24l-0.81,0.68l-2.43-5.38l0.46-0.39c3.29-2.78,7.55-4.31,11.99-4.31c9.13,0,13.21,6.32,13.21,12.59
			c0,8.03-5.89,14.32-14.22,22.34l-1.88,1.73h17.09v6.16H22z"/>
		<path class="st2" d="M66.59,76.48c-3.66,0-7.01-0.17-9.94-0.5l-0.71-0.08V33.14l0.68-0.1c3.88-0.59,7.8-0.88,11.66-0.88
			c7.89,0,13.64,1.78,17.57,5.45c4.1,3.76,6.18,9.03,6.18,15.68c0,7.02-2.17,12.86-6.29,16.91C81.63,74.31,75.01,76.48,66.59,76.48z
			 M62.96,70.31c1.44,0.18,3.32,0.2,4.68,0.2c11.02,0,17.09-6.05,17.09-17.03c0.03-4.8-1.28-8.57-3.9-11.21
			c-2.77-2.79-6.92-4.2-12.32-4.2c-2.55,0-4.36,0.21-5.56,0.42V70.31z"/>
	</g>
	<g>
		<path class="st3" d="M24.42,75.3v-2.22l4.06-3.94c10.37-9.87,15.27-15.24,15.34-21.77c0-5.55-3.23-8.73-8.85-8.73
			c-3.44,0-6.31,1.49-8.3,2.97l-1.07-2.37c2.93-2.29,6.63-3.54,10.49-3.54c8.57,0,11.61,5.92,11.61,10.98
			c0,7.39-5.69,13.44-13.72,21.19l-3.49,3.22v1.28h18.21v2.94H24.42z"/>
		<path class="st3" d="M67.39,75.68c-3.31,0-6.35-0.14-9.05-0.42V35.33c3.57-0.51,7.18-0.76,10.73-0.76
			c7.46,0,12.85,1.64,16.48,5.02c3.82,3.5,5.67,8.24,5.67,14.5c0,6.57-2.01,12.03-5.81,15.77C81.6,73.67,75.37,75.68,67.39,75.68z
			 M69.32,37.26c-3.2,0-5.32,0.32-6.53,0.58l-0.63,0.14v34.5l0.66,0.12c1.24,0.22,2.97,0.32,5.63,0.32c11.89,0,18.7-6.79,18.7-18.64
			c0.03-5.24-1.44-9.39-4.37-12.34C79.7,38.84,75.17,37.26,69.32,37.26z"/>
	</g>
</g>
</svg>
