<?xml version="1.0" encoding="utf-8"?>
<!-- Generator: Adobe Illustrator 28.0.0, SVG Export Plug-In . SVG Version: 6.00 Build 0)  -->
<svg version="1.1" id="Layer_1" xmlns="http://www.w3.org/2000/svg" xmlns:xlink="http://www.w3.org/1999/xlink" x="0px" y="0px"
	 viewBox="0 0 120 120" style="enable-background:new 0 0 120 120;" xml:space="preserve">
<style type="text/css">
	.st0{fill:none;}
	.st1{fill:#FFFFFF;}
	.st2{font-family:'Montserrat-Bold';}
	.st3{font-size:7px;}
	.st4{fill:#1E1C57;}
	.st5{fill:#9594C8;}
</style>
<rect x="20" y="91.55" class="st0" width="80" height="8.45"/>
<text transform="matrix(1 0 0 1 22.708 98.373)" class="st1 st2 st3">Adobe Premiere Pro</text>
<g id="Layer_2_1_">
	<g id="Surfaces_00000041990033235765019500000013110415480279475095_">
		<g id="Video_Audio_Surface">
			<g id="Outline_no_shadow_00000070076343969124506240000015810977684529039527_">
				<path class="st4" d="M38.47,23.28h43.06c6.53,0,11.81,5.28,11.81,11.81v41.39c0,6.53-5.28,11.81-11.81,11.81H38.47
					c-6.53,0-11.81-5.28-11.81-11.81V35.08C26.67,28.56,31.94,23.28,38.47,23.28z"/>
			</g>
		</g>
	</g>
	<g id="Outlined_Mnemonics_Logos_00000018234612858621372150000004705491347412344509_">
		<g id="Pr">
			<path class="st5" d="M42.5,68.86V40.28c0-0.19,0.08-0.31,0.28-0.31c0.47,0,0.92,0,1.56-0.03c0.67-0.03,1.36-0.03,2.11-0.06
				s1.56-0.03,2.42-0.06s1.69-0.03,2.53-0.03c2.28,0,4.17,0.28,5.72,0.86c1.39,0.47,2.67,1.25,3.72,2.28
				c0.89,0.89,1.58,1.97,2.03,3.17c0.42,1.17,0.64,2.36,0.64,3.61c0,2.39-0.56,4.36-1.67,5.92c-1.11,1.56-2.67,2.72-4.47,3.39
				c-1.89,0.69-3.97,0.94-6.25,0.94c-0.67,0-1.11,0-1.39-0.03c-0.28-0.03-0.67-0.03-1.19-0.03v8.92c0.03,0.19-0.11,0.36-0.31,0.39
				c-0.03,0-0.06,0-0.11,0h-5.28C42.61,69.22,42.5,69.11,42.5,68.86z M48.56,45.33v9.33c0.39,0.03,0.75,0.06,1.08,0.06h1.47
				c1.08,0,2.17-0.17,3.19-0.5c0.89-0.25,1.67-0.78,2.28-1.47c0.58-0.69,0.86-1.64,0.86-2.86c0.03-0.86-0.19-1.72-0.64-2.47
				c-0.47-0.72-1.14-1.28-1.94-1.58c-1.03-0.42-2.14-0.58-3.28-0.56c-0.72,0-1.36,0-1.89,0.03C49.14,45.28,48.75,45.31,48.56,45.33
				L48.56,45.33z"/>
			<path class="st5" d="M67.39,46.94h4.86c0.28,0,0.5,0.19,0.58,0.44c0.08,0.22,0.14,0.44,0.17,0.69c0.06,0.28,0.11,0.58,0.14,0.86
				c0.03,0.31,0.06,0.64,0.06,1c0.83-0.97,1.83-1.78,2.97-2.39c1.28-0.72,2.75-1.08,4.22-1.08c0.19-0.03,0.36,0.11,0.39,0.31
				c0,0.03,0,0.06,0,0.11v5.42c0,0.22-0.14,0.31-0.44,0.31c-1-0.03-2.03,0.06-3,0.28c-0.81,0.17-1.58,0.42-2.33,0.75
				c-0.53,0.25-1.03,0.58-1.42,1.03v14.17c0,0.28-0.11,0.39-0.36,0.39h-5.47c-0.22,0.03-0.42-0.11-0.44-0.33c0-0.03,0-0.08,0-0.11
				V53.39c0-0.67,0-1.36-0.03-2.08s-0.03-1.44-0.06-2.17c0-0.64-0.06-1.25-0.11-1.89c-0.03-0.14,0.06-0.28,0.19-0.31
				C67.31,46.92,67.36,46.92,67.39,46.94L67.39,46.94z"/>
		</g>
	</g>
</g>
</svg>
