<?xml version="1.0" encoding="utf-8"?>
<!-- Generator: Adobe Illustrator 28.0.0, SVG Export Plug-In . SVG Version: 6.00 Build 0)  -->
<svg version="1.1" id="Layer_1" xmlns="http://www.w3.org/2000/svg" xmlns:xlink="http://www.w3.org/1999/xlink" x="0px" y="0px"
	 viewBox="0 0 120 120" style="enable-background:new 0 0 120 120;" xml:space="preserve">
<style type="text/css">
	.st0{fill:none;}
	.st1{fill:#FFFFFF;}
	.st2{font-family:'Montserrat-Bold';}
	.st3{font-size:7px;}
	.st4{fill:#1D1C57;}
	.st5{fill:#9696CA;}
</style>
<rect x="20" y="91.55" class="st0" width="80" height="8.45"/>
<text transform="matrix(1 0 0 1 31.1426 98.373)" class="st1 st2 st3">Adobe Audition</text>
<g>
	<path class="st4" d="M38.47,23.28h43.06c6.52,0,11.81,5.29,11.81,11.81v41.39c0,6.52-5.29,11.81-11.81,11.81H38.47
		c-6.52,0-11.81-5.29-11.81-11.81V35.08C26.67,28.56,31.95,23.28,38.47,23.28z"/>
	<path class="st5" d="M52.87,62.17H42.54l-2.1,6.54c-0.06,0.25-0.28,0.41-0.54,0.4h-5.23c-0.3,0-0.4-0.16-0.31-0.49l8.94-25.65
		c0.09-0.27,0.18-0.57,0.27-0.92c0.14-0.58,0.21-1.18,0.22-1.77c-0.02-0.15,0.08-0.29,0.24-0.31c0.03,0,0.05,0,0.08,0h7.11
		c0.21,0,0.33,0.07,0.36,0.22l10.11,28.48c0.09,0.3,0,0.45-0.27,0.45H55.6c-0.21,0.02-0.4-0.11-0.45-0.31L52.87,62.17z M44.15,56.65
		h7.07c-0.18-0.6-0.39-1.27-0.63-2.01c-0.24-0.74-0.49-1.54-0.76-2.39c-0.27-0.85-0.54-1.7-0.8-2.55c-0.27-0.85-0.51-1.67-0.74-2.46
		c-0.22-0.79-0.42-1.51-0.6-2.17h-0.04c-0.25,1.21-0.57,2.4-0.94,3.58c-0.42,1.34-0.84,2.71-1.27,4.11
		C44.99,54.16,44.56,55.46,44.15,56.65L44.15,56.65z"/>
	<path class="st5" d="M83.01,47.23v17.03c0,0.75,0.01,1.41,0.02,1.99c0.01,0.58,0.04,1.09,0.09,1.52c0.04,0.43,0.08,0.69,0.11,0.99
		c0.03,0.24-0.07,0.36-0.31,0.36h-4.79c-0.23,0.02-0.45-0.1-0.54-0.31c-0.06-0.23-0.12-0.46-0.16-0.69
		c-0.04-0.19-0.06-0.39-0.07-0.59c-0.9,0.8-1.97,1.39-3.13,1.72c-1.01,0.27-2.04,0.42-3.09,0.42c-1.03,0.01-2.05-0.15-3.02-0.47
		c-0.9-0.31-1.71-0.83-2.37-1.52c-0.71-0.77-1.25-1.69-1.57-2.68c-0.4-1.28-0.59-2.62-0.56-3.96V47.27
		c-0.02-0.17,0.1-0.33,0.27-0.36c0.03,0,0.06,0,0.09,0h5.31c0.17-0.02,0.33,0.1,0.36,0.27c0,0.03,0,0.06,0,0.09v13.05
		c0,1.22,0.27,2.18,0.8,2.88c0.54,0.7,1.62,1.05,2.87,1.05c0.64,0.01,1.28-0.11,1.88-0.34c0.63-0.22,1.22-0.53,1.76-0.92V47.23
		c0-0.21,0.13-0.31,0.4-0.31h5.3c0.15-0.02,0.29,0.08,0.31,0.24C83.01,47.17,83.01,47.2,83.01,47.23z"/>
</g>
</svg>
