<?xml version="1.0" encoding="utf-8"?>
<!-- Generator: Adobe Illustrator 28.0.0, SVG Export Plug-In . SVG Version: 6.00 Build 0)  -->
<svg version="1.1" id="Layer_1" xmlns="http://www.w3.org/2000/svg" xmlns:xlink="http://www.w3.org/1999/xlink" x="0px" y="0px"
	 viewBox="0 0 120 120" style="enable-background:new 0 0 120 120;" xml:space="preserve">
<style type="text/css">
	.st0{fill:none;}
	.st1{fill:#FFFFFF;}
	.st2{font-family:'Montserrat-Bold';}
	.st3{font-size:7px;}
	.st4{fill:#071F35;}
	.st5{fill:#56A1D8;}
</style>
<rect x="20" y="91.55" class="st0" width="80" height="8.45"/>
<text transform="matrix(1 0 0 1 26.918 98.373)" class="st1 st2 st3">Adobe Photoshop</text>
<g id="Layer_2_00000007419495156902070550000014205110714044151445_">
	<g id="Surfaces">
		<g id="Photo_Surface">
			<g id="Outline_no_shadow">
				<path class="st4" d="M38.47,23.28h43.06c6.52,0,11.81,5.29,11.81,11.81v41.39c0,6.52-5.29,11.81-11.81,11.81H38.47
					c-6.52,0-11.81-5.29-11.81-11.81V35.08C26.67,28.56,31.95,23.28,38.47,23.28z"/>
			</g>
		</g>
	</g>
	<g id="Outlined_Mnemonics_Logos">
		<g id="Ps">
			<path class="st5" d="M41.68,68.86V40.28c0-0.21,0.09-0.31,0.27-0.31c0.48,0,0.91-0.01,1.57-0.02c0.66-0.01,1.36-0.03,2.12-0.04
				c0.76-0.01,1.57-0.03,2.42-0.04c0.85-0.01,1.69-0.02,2.53-0.02c2.27,0,4.17,0.28,5.72,0.85c1.4,0.47,2.67,1.25,3.73,2.28
				c0.9,0.89,1.59,1.97,2.03,3.15c0.42,1.15,0.63,2.37,0.63,3.6c0,2.39-0.55,4.35-1.65,5.9c-1.11,1.56-2.67,2.73-4.47,3.38
				c-1.88,0.7-3.97,0.94-6.26,0.94c-0.66,0-1.12-0.01-1.39-0.02c-0.27-0.01-0.67-0.02-1.21-0.02v8.92c0.03,0.19-0.11,0.37-0.3,0.4
				c-0.03,0-0.07,0-0.1,0h-5.32C41.78,69.22,41.68,69.1,41.68,68.86z M47.72,45.34v9.32c0.39,0.03,0.74,0.04,1.07,0.04h1.48
				c1.09,0,2.16-0.18,3.2-0.51c0.89-0.26,1.68-0.78,2.28-1.48c0.58-0.69,0.87-1.64,0.87-2.86c0.02-0.87-0.2-1.72-0.65-2.46
				c-0.47-0.72-1.15-1.27-1.95-1.59c-1.04-0.4-2.15-0.59-3.26-0.56c-0.72,0-1.35,0.01-1.9,0.02C48.31,45.28,47.93,45.31,47.72,45.34
				L47.72,45.34z"/>
			<path class="st5" d="M79.99,52.96c-0.84-0.43-1.74-0.75-2.66-0.94c-1.02-0.23-2.06-0.35-3.11-0.36c-0.57-0.02-1.13,0.05-1.68,0.2
				c-0.35,0.08-0.66,0.28-0.87,0.56c-0.15,0.23-0.22,0.49-0.22,0.76c0.01,0.26,0.1,0.51,0.27,0.72c0.26,0.31,0.58,0.56,0.94,0.74
				c0.64,0.34,1.29,0.65,1.97,0.92c1.5,0.5,2.94,1.19,4.27,2.03c0.91,0.57,1.66,1.37,2.19,2.3c0.44,0.89,0.67,1.87,0.65,2.86
				c0.03,1.31-0.35,2.6-1.07,3.69c-0.78,1.11-1.86,1.97-3.11,2.48c-1.36,0.6-3.03,0.89-5.03,0.89c-1.27,0.01-2.54-0.11-3.78-0.36
				c-0.98-0.18-1.93-0.48-2.84-0.89c-0.2-0.1-0.32-0.31-0.31-0.54V63.2c-0.01-0.1,0.03-0.19,0.11-0.25
				c0.08-0.04,0.18-0.04,0.25,0.02c1.07,0.63,2.23,1.09,3.44,1.36c1.07,0.27,2.16,0.41,3.26,0.42c1.04,0,1.81-0.13,2.3-0.4
				c0.45-0.21,0.74-0.66,0.74-1.16c0-0.39-0.22-0.76-0.67-1.12c-0.45-0.36-1.36-0.79-2.73-1.3c-1.4-0.49-2.74-1.17-3.96-2.01
				c-0.87-0.61-1.59-1.41-2.1-2.35c-0.44-0.88-0.66-1.86-0.65-2.84c0-1.18,0.32-2.34,0.94-3.35c0.7-1.11,1.71-2,2.91-2.55
				c1.31-0.66,2.95-0.98,4.92-0.98c1.15-0.01,2.3,0.07,3.44,0.25c0.83,0.1,1.63,0.32,2.4,0.65c0.12,0.04,0.22,0.13,0.27,0.25
				c0.03,0.11,0.05,0.22,0.04,0.34v4.52c0.01,0.11-0.04,0.21-0.13,0.27C80.26,53.02,80.11,53.02,79.99,52.96z"/>
		</g>
	</g>
</g>
</svg>
