<?xml version="1.0" encoding="utf-8"?>
<!-- Generator: Adobe Illustrator 28.0.0, SVG Export Plug-In . SVG Version: 6.00 Build 0)  -->
<svg version="1.1" id="Layer_1" xmlns="http://www.w3.org/2000/svg" xmlns:xlink="http://www.w3.org/1999/xlink" x="0px" y="0px"
	 viewBox="0 0 120 120" style="enable-background:new 0 0 120 120;" xml:space="preserve">
<style type="text/css">
	.st0{fill:none;}
	.st1{fill:#FFFFFF;}
	.st2{font-family:'Montserrat-Bold';}
	.st3{font-size:7px;}
	.st4{fill:#301111;}
	.st5{fill:#F89A1C;}
</style>
<rect x="20" y="91.55" class="st0" width="80" height="8.45"/>
<text transform="matrix(1 0 0 1 28.959 98.373)" class="st1 st2 st3">Adobe Illustrator</text>
<g id="Layer_2_00000095334641659690545090000014393045976364968887_">
	<g id="Surfaces_00000067929099483569112630000007582107564245693850_">
		<g id="Drawing_Surface">
			<g id="Outline_no_shadow_00000008836522153283651340000015379652340204335803_">
				<path class="st4" d="M38.47,23.28h43.06c6.52,0,11.81,5.29,11.81,11.81v41.39c0,6.52-5.29,11.81-11.81,11.81H38.47
					c-6.52,0-11.81-5.29-11.81-11.81V35.08C26.67,28.56,31.95,23.28,38.47,23.28z"/>
			</g>
		</g>
	</g>
	<g id="Outlined_Mnemonics_Logos_00000088833878266805892050000016099853976326354057_">
		<g id="Ai">
			<path class="st5" d="M58.97,62.29H48.64l-2.1,6.53c-0.06,0.25-0.28,0.41-0.54,0.4h-5.23c-0.3,0-0.4-0.16-0.31-0.49l8.94-25.76
				c0.09-0.27,0.18-0.57,0.27-0.92c0.12-0.6,0.18-1.2,0.18-1.81c-0.02-0.15,0.08-0.29,0.23-0.31c0.03,0,0.05,0,0.08,0h7.11
				c0.21,0,0.33,0.07,0.36,0.22l10.15,28.62c0.09,0.3,0,0.45-0.27,0.45H61.7c-0.21,0.02-0.4-0.11-0.45-0.31L58.97,62.29z
				 M50.25,56.65h7.07c-0.18-0.6-0.39-1.27-0.63-2.01c-0.24-0.74-0.49-1.54-0.76-2.39c-0.27-0.85-0.54-1.7-0.81-2.55
				c-0.27-0.85-0.51-1.67-0.74-2.46c-0.22-0.79-0.42-1.51-0.6-2.17h-0.04c-0.25,1.21-0.57,2.4-0.94,3.58
				c-0.42,1.34-0.84,2.71-1.27,4.11C51.09,54.16,50.67,55.46,50.25,56.65L50.25,56.65z"/>
			<path class="st5" d="M73.82,44.67c-0.92,0.04-1.82-0.32-2.46-0.98c-0.64-0.69-0.98-1.61-0.94-2.55
				c-0.03-0.93,0.33-1.84,1.01-2.48c0.67-0.64,1.56-0.99,2.48-0.96c1.07,0,1.92,0.32,2.53,0.96c0.62,0.67,0.95,1.57,0.92,2.48
				c0.04,0.94-0.31,1.86-0.96,2.55C75.71,44.35,74.78,44.71,73.82,44.67z M70.73,68.77V47.39c0-0.27,0.12-0.4,0.36-0.4h5.5
				c0.24,0,0.36,0.13,0.36,0.4v21.38c0,0.3-0.12,0.45-0.36,0.45h-5.46C70.87,69.22,70.73,69.07,70.73,68.77z"/>
		</g>
	</g>
</g>
</svg>
