<?xml version="1.0" encoding="utf-8"?>
<!-- Generator: Adobe Illustrator 28.0.0, SVG Export Plug-In . SVG Version: 6.00 Build 0)  -->
<svg version="1.1" id="Layer_1" xmlns="http://www.w3.org/2000/svg" xmlns:xlink="http://www.w3.org/1999/xlink" x="0px" y="0px"
	 viewBox="0 0 120 120" style="enable-background:new 0 0 120 120;" xml:space="preserve">
<style type="text/css">
	.st0{fill:none;}
	.st1{fill:#FFFFFF;}
	.st2{font-family:'Montserrat-Bold';}
	.st3{font-size:7px;}
	.st4{fill:#071F35;}
	.st5{fill:#56A1D8;}
</style>
<rect x="20" y="91.55" class="st0" width="80" height="8.45"/>
<text transform="matrix(1 0 0 1 27.667 98.373)" class="st1 st2 st3">Adobe Lightroom</text>
<g id="Layer_2_00000177467394316749330410000011008798754105014177_">
	<g id="Surfaces_00000109718144269455462960000011004702732829880234_">
		<g id="Photo_Surface_00000075162185663865190920000017292621660777720212_">
			<g id="Outline_no_shadow_00000031905503725803301660000013782411830300644506_">
				<path class="st4" d="M38.47,23.28h43.06c6.52,0,11.81,5.29,11.81,11.81v41.39c0,6.52-5.29,11.81-11.81,11.81H38.47
					c-6.52,0-11.81-5.29-11.81-11.81V35.08C26.67,28.56,31.95,23.28,38.47,23.28z"/>
			</g>
		</g>
	</g>
	<g id="Outlined_Mnemonics_Logos_00000139267065235540215290000001166655629005205407_">
		<g id="Lr">
			<path class="st5" d="M61.68,69.22H44.06c-0.3,0-0.45-0.16-0.45-0.49v-28.4c-0.03-0.19,0.11-0.37,0.3-0.4c0.03,0,0.07,0,0.1,0
				h5.46c0.15-0.02,0.29,0.08,0.31,0.24c0,0.03,0,0.05,0,0.08v23.34h12.84c0.27,0,0.37,0.13,0.31,0.4l-0.8,4.83
				c0,0.13-0.07,0.26-0.18,0.34C61.86,69.19,61.77,69.22,61.68,69.22z"/>
			<path class="st5" d="M66.1,46.99h4.87c0.27,0,0.51,0.18,0.58,0.45c0.11,0.2,0.18,0.41,0.22,0.63c0.06,0.29,0.11,0.58,0.13,0.87
				c0.03,0.31,0.04,0.65,0.04,1.01c0.84-0.97,1.84-1.78,2.97-2.39c1.27-0.69,2.69-1.03,4.14-1.01c0.19-0.03,0.37,0.11,0.4,0.3
				c0,0.03,0,0.07,0,0.1v5.41c0,0.21-0.15,0.31-0.45,0.31c-1.8-0.11-3.6,0.21-5.25,0.94c-0.56,0.24-1.07,0.59-1.5,1.03v14.18
				c0,0.27-0.12,0.4-0.36,0.4h-5.41c-0.22,0.03-0.42-0.12-0.45-0.33c-0.01-0.04-0.01-0.08,0-0.11V53.39c0-0.66-0.01-1.35-0.02-2.08
				c-0.02-0.73-0.04-1.45-0.07-2.17c-0.02-0.61-0.08-1.23-0.18-1.83c-0.04-0.14,0.05-0.28,0.18-0.31
				C66.02,46.98,66.06,46.98,66.1,46.99L66.1,46.99z"/>
		</g>
	</g>
</g>
</svg>
