<?xml version="1.0" encoding="utf-8"?>
<!-- Generator: Adobe Illustrator 28.0.0, SVG Export Plug-In . SVG Version: 6.00 Build 0)  -->
<svg version="1.1" id="Layer_1" xmlns="http://www.w3.org/2000/svg" xmlns:xlink="http://www.w3.org/1999/xlink" x="0px" y="0px"
	 viewBox="0 0 120 120" style="enable-background:new 0 0 120 120;" xml:space="preserve">
<style type="text/css">
	.st0{fill:none;}
	.st1{fill:#FFFFFF;}
	.st2{font-family:'Montserrat-Bold';}
	.st3{font-size:7px;}
	.st4{fill:#1D1C57;}
	.st5{fill:#9696CA;}
</style>
<rect x="20" y="91.55" class="st0" width="80" height="8.45"/>
<text transform="matrix(1 0 0 1 24.0098 98.373)" class="st1 st2 st3">Adobe After Effects</text>
<g id="Layer_2_00000161589305788069699500000000084496902878231192_">
	<g id="Surfaces_00000085218516406001678920000002508928910178576305_">
		<g id="Video_Audio_Surface_00000016794574801859383380000003802901270435249342_">
			<g id="Outline_no_shadow_00000170258444212817749680000017498221300582181799_">
				<path class="st4" d="M38.47,23.28h43.06c6.52,0,11.81,5.29,11.81,11.81v41.39c0,6.52-5.29,11.81-11.81,11.81H38.47
					c-6.52,0-11.81-5.29-11.81-11.81V35.08C26.67,28.56,31.95,23.28,38.47,23.28z"/>
			</g>
		</g>
	</g>
	<g id="Outlined_Mnemonics_Logos_00000005986949067124329380000001181740922139096725_">
		<g id="Ae">
			<path class="st5" d="M53.45,62.17H43.12l-2.1,6.54c-0.06,0.25-0.28,0.41-0.54,0.4h-5.23c-0.3,0-0.4-0.16-0.31-0.49l8.94-25.65
				c0.09-0.27,0.18-0.53,0.27-0.87c0.12-0.6,0.18-1.2,0.18-1.81c-0.02-0.15,0.08-0.29,0.24-0.31c0.03,0,0.05,0,0.08,0h7.11
				c0.21,0,0.33,0.07,0.36,0.22l10.15,28.47c0.09,0.3,0,0.45-0.27,0.45h-5.81c-0.21,0.02-0.4-0.11-0.45-0.31L53.45,62.17z
				 M44.73,56.65h7.07c-0.18-0.6-0.39-1.27-0.63-2.01c-0.24-0.74-0.49-1.54-0.76-2.39c-0.27-0.85-0.54-1.7-0.81-2.55
				c-0.27-0.85-0.51-1.67-0.74-2.46c-0.22-0.79-0.42-1.51-0.6-2.17h-0.04c-0.25,1.21-0.57,2.4-0.94,3.58
				c-0.42,1.34-0.84,2.71-1.27,4.11C45.57,54.16,45.14,55.46,44.73,56.65z"/>
			<path class="st5" d="M78.72,59.62h-8.81c0.11,0.87,0.4,1.71,0.85,2.46c0.5,0.75,1.21,1.33,2.03,1.68
				c1.12,0.49,2.33,0.72,3.56,0.7c0.97-0.02,1.93-0.12,2.88-0.32c0.85-0.11,1.68-0.33,2.48-0.65c0.15-0.12,0.22-0.04,0.22,0.22v4.25
				c0.01,0.12-0.02,0.23-0.07,0.34c-0.05,0.08-0.12,0.15-0.2,0.2c-0.88,0.39-1.82,0.67-2.77,0.83c-1.3,0.24-2.62,0.36-3.94,0.34
				c-2.12,0-3.89-0.33-5.32-0.98c-1.35-0.6-2.55-1.5-3.49-2.64c-0.88-1.07-1.53-2.31-1.92-3.64c-0.39-1.31-0.58-2.68-0.58-4.05
				c0-1.5,0.23-2.98,0.69-4.41c0.45-1.39,1.15-2.68,2.08-3.8c0.91-1.11,2.06-2.01,3.35-2.64c1.31-0.64,2.86-0.87,4.65-0.87
				c1.48-0.04,2.96,0.25,4.32,0.85c1.14,0.49,2.15,1.25,2.93,2.21c0.73,0.95,1.29,2.01,1.65,3.15c0.35,1.1,0.53,2.25,0.54,3.4
				c0,0.66-0.02,1.25-0.07,1.79c-0.04,0.54-0.08,0.92-0.11,1.16c-0.02,0.2-0.2,0.36-0.4,0.36c-0.18,0-0.48,0.02-0.92,0.07
				c-0.43,0.04-0.97,0.07-1.61,0.09C80.11,59.73,79.43,59.62,78.72,59.62z M69.91,55.55h5.86c0.72,0,1.24-0.01,1.59-0.02
				c0.23-0.02,0.45-0.1,0.65-0.21v-0.27c-0.01-0.35-0.07-0.7-0.18-1.03c-0.5-1.57-1.98-2.61-3.62-2.55
				c-1.54-0.09-2.99,0.73-3.69,2.1C70.2,54.19,70,54.86,69.91,55.55z"/>
		</g>
	</g>
</g>
</svg>
