<?xml version="1.0" encoding="utf-8"?>
<!-- Generator: Adobe Illustrator 28.0.0, SVG Export Plug-In . SVG Version: 6.00 Build 0)  -->
<svg version="1.1" id="Layer_1" xmlns="http://www.w3.org/2000/svg" xmlns:xlink="http://www.w3.org/1999/xlink" x="0px" y="0px"
	 viewBox="0 0 120 120" style="enable-background:new 0 0 120 120;" xml:space="preserve">
<style type="text/css">
	.st0{fill:none;}
	.st1{fill:#6D52A2;}
	.st2{fill:url(#SVGID_1_);}
	.st3{fill:url(#SVGID_00000129166711048191975350000009016615454433777836_);}
	.st4{fill:url(#SVGID_00000063620245847407208250000004701814329721462189_);}
	.st5{fill:url(#SVGID_00000178188223522614284090000012377309235333998487_);}
	.st6{fill:url(#SVGID_00000112630585340126798490000004936339282913044926_);}
	.st7{fill:#FFFFFF;}
	.st8{font-family:'Montserrat-Bold';}
	.st9{font-size:7px;}
	.st10{fill:url(#SVGID_00000005242316551730874190000006320922873352000166_);}
</style>
<pattern  width="1" height="1" patternUnits="userSpaceOnUse" id="_2002046508__f" viewBox="0 -1 1 1" style="overflow:visible;">
	<g>
		<rect y="-1" class="st0" width="1" height="1"/>
		<path class="st1" d="M0,0h100v-100H0V0z"/>
		
			<radialGradient id="SVGID_1_" cx="8138.7202" cy="-8969.9443" r="1" gradientTransform="matrix(16.8 17.28 11.484 -11.165 -33678.5898 -240815.875)" gradientUnits="userSpaceOnUse">
			<stop  offset="0" style="stop-color:#5D55A4"/>
			<stop  offset="1" style="stop-color:#5D55A4;stop-opacity:0"/>
		</radialGradient>
		<path class="st2" d="M0,0h100v-100H0V0z"/>
		
			<radialGradient id="SVGID_00000111884108392565813520000003432072877770085545_" cx="7943.9346" cy="-8449.375" r="1" gradientTransform="matrix(46.72 -4.16 -3.3156 -37.2369 -399153.1875 -281599.25)" gradientUnits="userSpaceOnUse">
			<stop  offset="0.25" style="stop-color:#26BEC8"/>
			<stop  offset="1" style="stop-color:#26BEC8;stop-opacity:0"/>
		</radialGradient>
		<path style="fill:url(#SVGID_00000111884108392565813520000003432072877770085545_);" d="M0,0h100v-100H0V0z"/>
		
			<radialGradient id="SVGID_00000165924078605655641160000009326183125552615048_" cx="8091.2383" cy="-8805.2422" r="1" gradientTransform="matrix(23.5397 18.9603 12.9644 -16.0957 -76276.3516 -295165.2188)" gradientUnits="userSpaceOnUse">
			<stop  offset="0" style="stop-color:#5D55A4"/>
			<stop  offset="1" style="stop-color:#5D55A4;stop-opacity:0"/>
		</radialGradient>
		<path style="fill:url(#SVGID_00000165924078605655641160000009326183125552615048_);" d="M0,0h100v-100H0V0z"/>
		
			<radialGradient id="SVGID_00000093141457002019419910000011995044907224219042_" cx="8025.3438" cy="-8708.2197" r="1" gradientTransform="matrix(31.32 15.36 10.5027 -21.4157 -159891.8281 -309787.75)" gradientUnits="userSpaceOnUse">
			<stop  offset="0" style="stop-color:#5D55A4"/>
			<stop  offset="1" style="stop-color:#5D55A4;stop-opacity:0"/>
		</radialGradient>
		<path style="fill:url(#SVGID_00000093141457002019419910000011995044907224219042_);" d="M0,0h100v-100H0V0z"/>
		
			<radialGradient id="SVGID_00000076596677249285045980000017279582368770542527_" cx="7992.772" cy="-8324.3994" r="1" gradientTransform="matrix(67.9998 -15.04 -18.446 -83.3992 -697050.875 -574040.5625)" gradientUnits="userSpaceOnUse">
			<stop  offset="0" style="stop-color:#26BEC8"/>
			<stop  offset="1" style="stop-color:#26BEC8;stop-opacity:0"/>
		</radialGradient>
		<path style="fill:url(#SVGID_00000076596677249285045980000017279582368770542527_);" d="M0,0h100v-100H0V0z"/>
	</g>
</pattern>
<rect x="20" y="91.55" class="st0" width="80" height="8.45"/>
<text transform="matrix(1 0 0 1 48.6045 98.373)" class="st7 st8 st9">Canva</text>
<pattern  id="SVGID_00000085950660930306653950000003888002891033351833_" xlink:href="#_2002046508__f" patternTransform="matrix(0.8125 0 0 0.8125 -1524.3749 -1599.5824)">
</pattern>
<path style="fill:url(#SVGID_00000085950660930306653950000003888002891033351833_);" d="M92.05,59.6c-0.11,0-0.21,0.07-0.26,0.22
	c-0.67,1.9-1.57,3.03-2.31,3.03c-0.43,0-0.6-0.47-0.6-1.22c0-1.86,1.11-5.81,1.68-7.61c0.07-0.22,0.11-0.41,0.11-0.58
	c0-0.52-0.29-0.78-0.99-0.78c-0.76,0-1.59,0.3-2.39,1.7c-0.28-1.24-1.11-1.77-2.28-1.77c-1.35,0-2.65,0.87-3.72,2.27
	c-1.07,1.41-2.33,1.87-3.28,1.64c0.68-1.67,0.94-2.92,0.94-3.84c0-1.45-0.72-2.33-1.88-2.33c-1.76,0-2.78,1.68-2.78,3.45
	c0,1.37,0.62,2.78,1.99,3.46c-1.14,2.59-2.81,4.93-3.45,4.93c-0.82,0-1.06-4.01-1.01-6.87c0.03-1.64,0.17-1.73,0.17-2.23
	c0-0.29-0.19-0.48-0.93-0.48c-1.74,0-2.27,1.47-2.35,3.16c-0.03,0.64-0.13,1.28-0.3,1.89c-0.72,2.59-2.22,4.55-3.19,4.55
	c-0.45,0-0.58-0.45-0.58-1.04c0-1.86,1.04-4.19,1.04-6.17c0-1.46-0.64-2.38-1.85-2.38c-1.42,0-3.3,1.69-5.08,4.86
	c0.58-2.42,0.83-4.77-0.91-4.77c-0.38,0.01-0.74,0.1-1.08,0.28c-0.23,0.11-0.37,0.34-0.35,0.59c0.17,2.58-2.08,9.19-4.21,9.19
	c-0.39,0-0.58-0.42-0.58-1.1c0-1.87,1.11-5.8,1.67-7.61c0.07-0.23,0.11-0.44,0.11-0.61c0-0.49-0.31-0.75-1-0.75
	c-0.76,0-1.59,0.29-2.38,1.69c-0.28-1.23-1.11-1.77-2.28-1.77c-1.91,0-4.05,2.02-4.99,4.66c-1.26,3.52-3.79,6.93-7.21,6.93
	c-3.1,0-4.73-2.58-4.73-6.65c0-5.88,4.32-10.68,7.52-10.68c1.53,0,2.26,0.98,2.26,2.47c0,1.81-1.01,2.65-1.01,3.34
	c0,0.21,0.18,0.42,0.52,0.42c1.39,0,3.03-1.63,3.03-3.86s-1.81-3.86-5.01-3.86c-5.29,0-10.61,5.32-10.61,12.15
	c0,5.43,2.68,8.7,7.31,8.7c3.16,0,5.92-2.46,7.41-5.32c0.17,2.38,1.25,3.62,2.89,3.62c1.46,0,2.65-0.87,3.55-2.4
	c0.35,1.6,1.27,2.39,2.47,2.39c1.37,0,2.53-0.87,3.62-2.49c-0.02,1.27,0.27,2.47,1.37,2.47c0.52,0,1.14-0.12,1.25-0.58
	c1.16-4.8,4.03-8.71,4.9-8.71c0.26,0,0.33,0.25,0.33,0.55c0,1.3-0.92,3.97-0.92,5.68c0,1.84,0.78,3.06,2.4,3.06
	c1.79,0,3.62-2.2,4.83-5.41c0.38,3,1.2,5.42,2.49,5.42c1.58,0,4.38-3.32,6.08-6.84c0.67,0.08,1.67,0.06,2.63-0.62
	c-0.41,1.04-0.65,2.17-0.65,3.31c0,3.27,1.56,4.18,2.9,4.18c1.46,0,2.64-0.87,3.55-2.4c0.3,1.38,1.06,2.38,2.47,2.38
	c2.2,0,4.1-2.25,4.1-4.09C92.5,59.9,92.29,59.6,92.05,59.6z M46.45,62.68c-0.89,0-1.24-0.89-1.24-2.23c0-2.31,1.58-6.18,3.26-6.18
	c0.73,0,1.01,0.86,1.01,1.91C49.48,58.54,47.97,62.68,46.45,62.68z M76.84,55.78c-0.53-0.63-0.72-1.49-0.72-2.25
	c0-0.94,0.34-1.74,0.76-1.74s0.54,0.41,0.54,0.97C77.41,53.7,77.08,55.09,76.84,55.78z M83.72,62.68c-0.89,0-1.24-1.03-1.24-2.23
	c0-2.23,1.58-6.18,3.27-6.18c0.73,0,0.99,0.85,0.99,1.91C86.74,58.54,85.27,62.68,83.72,62.68z"/>
</svg>
