<?xml version="1.0" encoding="utf-8"?>
<!-- Generator: Adobe Illustrator 28.0.0, SVG Export Plug-In . SVG Version: 6.00 Build 0)  -->
<svg version="1.1" id="Layer_1" xmlns="http://www.w3.org/2000/svg" xmlns:xlink="http://www.w3.org/1999/xlink" x="0px" y="0px"
	 viewBox="0 0 120 120" style="enable-background:new 0 0 120 120;" xml:space="preserve">
<style type="text/css">
	.st0{fill:none;}
	.st1{fill:#FFFFFF;}
	.st2{font-family:'Montserrat-Bold';}
	.st3{font-size:7px;}
	.st4{fill:#4DB74E;}
	.st5{fill:#008B5B;}
	.st6{fill:#059550;}
	.st7{fill:#039848;}
	.st8{fill:#0C9B49;}
	.st9{fill:#0C8643;}
	.st10{fill:#32C5EE;}
	.st11{fill:url(#SVGID_1_);}
	.st12{fill:#676666;}
	.st13{fill-rule:evenodd;clip-rule:evenodd;fill:url(#SVGID_00000098903468806147383660000012997277921492915389_);}
	.st14{fill-rule:evenodd;clip-rule:evenodd;fill:url(#SVGID_00000067234848502078663810000013227081839853234049_);}
	.st15{fill-rule:evenodd;clip-rule:evenodd;fill:url(#SVGID_00000028288414990725935250000013500833261373603488_);}
	.st16{fill-rule:evenodd;clip-rule:evenodd;fill:#98CA3C;}
	.st17{fill-rule:evenodd;clip-rule:evenodd;fill:url(#SVGID_00000026870136728307508650000016245056420040964254_);}
	.st18{fill-rule:evenodd;clip-rule:evenodd;fill:url(#SVGID_00000164493805621635353820000018319866108723569325_);}
	.st19{fill-rule:evenodd;clip-rule:evenodd;fill:url(#SVGID_00000131353210047918212600000017874728489939103124_);}
	.st20{fill-rule:evenodd;clip-rule:evenodd;fill:url(#SVGID_00000168803816162485503610000013397255427748469660_);}
	.st21{fill-rule:evenodd;clip-rule:evenodd;fill:url(#SVGID_00000101090626016604579340000017770909387444119953_);}
	.st22{fill-rule:evenodd;clip-rule:evenodd;fill:url(#SVGID_00000112632093044497045840000017163007545238657717_);}
</style>
<rect x="20" y="91.55" class="st0" width="80" height="8.45"/>
<text transform="matrix(1 0 0 1 38.1562 98.373)" class="st1 st2 st3">CorelDRAW</text>
<g>
	<path class="st4" d="M38.7,45.21c-0.79-0.36-1.48-0.64-2.04-0.85c-0.12-0.88-0.2-1.77-0.26-2.65c-0.04-0.73-0.02-1.45,0.07-2.16
		c0.48,0.08,1.15,0.2,1.99,0.36c-0.08,1-0.09,2.06,0,3.18C38.52,43.8,38.6,44.51,38.7,45.21z M46.55,49.85
		c-2.01-1.47-3.89-2.62-5.53-3.49c-0.33-2.04-0.47-4.06-0.35-5.99c1.52,0.33,3.3,0.77,5.28,1.31
		C45.81,44.26,46.05,47.03,46.55,49.85L46.55,49.85z M67.16,50.92c-0.02,0.22-0.05,0.45-0.07,0.67c-2.74,1.43-5.47,3.36-7.93,5.97
		c-0.79,0.84-1.52,1.69-2.18,2.53c-0.74-0.94-1.53-1.89-2.38-2.84c-0.38-0.43-0.75-0.84-1.14-1.24c-0.63-4.22-1.03-8.39-1.11-12.29
		C57.26,45.43,62.53,47.79,67.16,50.92L67.16,50.92z"/>
	<path class="st5" d="M39.3,35.8c-0.41,1.24-0.71,2.61-0.83,4.1c-0.84-0.16-1.52-0.28-1.99-0.36c0.05-0.45,0.13-0.89,0.23-1.32
		C37.3,37.58,38.17,36.73,39.3,35.8z"/>
	<path class="st6" d="M48.85,30.42c-1.44,2.65-2.6,6.22-2.89,10.98c0,0.09-0.01,0.19-0.01,0.28c-1.97-0.55-3.76-0.98-5.27-1.31
		c0-0.06,0.01-0.13,0.01-0.19c0.19-2.5,0.92-4.79,2.04-6.82C44.44,32.29,46.48,31.26,48.85,30.42z"/>
	<path class="st7" d="M67.16,50.92c-4.64-3.13-9.91-5.49-14.79-7.22c-0.09-4.65,0.27-8.93,1.23-12.47c0.03-0.1,0.05-0.19,0.08-0.29
		c3.87,2.29,8.92,4.84,13.7,5.96C67.81,41.12,67.68,45.92,67.16,50.92L67.16,50.92z"/>
	<path class="st8" d="M83.6,41.71c-0.12,1.97-0.4,3.91-0.83,5.85c-0.55,0.02-1.19,0.06-1.89,0.12c0.31-1.5,0.54-3.03,0.66-4.59
		c0.42-5.26-1.28-9.26-3.24-12.06c0.58,0.16,1.12,0.32,1.63,0.48C82.13,34.31,83.83,37.9,83.6,41.71z M78.69,47.93
		c-1.54,0.22-3.27,0.56-5.11,1.09c0.42-2.64,0.6-5.22,0.45-7.62c-0.33-5.48-1.82-9.38-3.56-12.12c1.64,0.27,3.2,0.59,4.64,0.93
		c2.29,2.71,3.91,6.09,4.21,9.97C79.5,42.65,79.24,45.29,78.69,47.93z"/>
	<path class="st9" d="M67.39,36.9c-4.79-1.12-9.83-3.67-13.7-5.96c0.2-0.71,0.43-1.35,0.68-1.94c0.71-0.12,1.44-0.22,2.19-0.3
		c3.02-0.31,6.05-0.28,8.92-0.04c0.34,0.75,0.65,1.6,0.91,2.57C66.86,32.96,67.19,34.86,67.39,36.9z"/>
	<path class="st10" d="M46.72,26.11c-0.16,0.1-5.3,3.26-7.42,9.69c-1.13,0.93-2,1.78-2.59,2.42C38.1,32.16,43.69,27.21,46.72,26.11z
		 M49.97,28.61c-0.39,0.55-0.76,1.15-1.12,1.81c-2.37,0.84-4.41,1.87-6.13,2.93c1.32-2.42,3.17-4.48,5.26-6.11
		C48.47,27.6,49.15,28.07,49.97,28.61L49.97,28.61z"/>
	
		<linearGradient id="SVGID_1_" gradientUnits="userSpaceOnUse" x1="-45374.5391" y1="23034.6504" x2="-45261.3438" y2="23031.2188" gradientTransform="matrix(0.253 0 0 -0.253 11529.1436 5854.4741)">
		<stop  offset="0" style="stop-color:#4180C2"/>
		<stop  offset="1" style="stop-color:#62C4AF"/>
	</linearGradient>
	<path class="st11" d="M79.92,31.51c-0.51-0.16-1.05-0.32-1.63-0.48c-2.32-3.3-5.01-4.92-5.01-4.92
		C75.07,26.75,77.74,28.75,79.92,31.51z M75.11,30.21c-1.44-0.34-2.99-0.66-4.64-0.93c-2.95-4.63-6.65-5.94-6.83-6
		C67.62,24.07,71.99,26.52,75.11,30.21z M65.48,28.66c-2.88-0.24-5.9-0.27-8.92,0.04c-0.75,0.08-1.48,0.18-2.19,0.3
		c2.12-5.01,5.58-5.73,5.58-5.73h0.1C60.05,23.28,63.35,23.96,65.48,28.66z M56.35,23.28c-0.17,0.06-3.52,1.25-6.38,5.33
		c-0.82-0.54-1.5-1.01-1.99-1.37C50.59,25.21,53.57,23.84,56.35,23.28L56.35,23.28z"/>
	<path class="st12" d="M60,88.28h3.55l1.31-5.73h-9.73l1.31,5.73H60z"/>
	
		<linearGradient id="SVGID_00000149377809799234518160000001309756293829424525_" gradientUnits="userSpaceOnUse" x1="-45365.875" y1="22867.8008" x2="-45393.7188" y2="22936.6562" gradientTransform="matrix(0.253 0 0 -0.253 11529.1436 5854.4741)">
		<stop  offset="0" style="stop-color:#CA2027"/>
		<stop  offset="0.388" style="stop-color:#A21C3F"/>
		<stop  offset="0.749" style="stop-color:#912A6A"/>
		<stop  offset="1" style="stop-color:#74368A"/>
	</linearGradient>
	<path style="fill-rule:evenodd;clip-rule:evenodd;fill:url(#SVGID_00000149377809799234518160000001309756293829424525_);" d="
		M46.58,62.61c0.68,1.41,1.34,2.67,1.9,3.73c0.96,1.8,1.88,3.33,2.82,4.73c0.27-0.96,0.61-1.96,1.04-3.01
		c-0.73-1.68-1.47-3.48-2.17-5.37c-1.52-4.08-2.87-8.53-3.62-12.84c-2.01-1.47-3.89-2.61-5.53-3.49
		C41.95,52.17,44.42,58.15,46.58,62.61L46.58,62.61z"/>
	
		<linearGradient id="SVGID_00000035493641941900239790000003890528306150770320_" gradientUnits="userSpaceOnUse" x1="-45379.9453" y1="22862.1113" x2="-45407.7891" y2="22930.9668" gradientTransform="matrix(0.253 0 0 -0.253 11529.1436 5854.4741)">
		<stop  offset="0" style="stop-color:#CA2027"/>
		<stop  offset="0.388" style="stop-color:#A21C3F"/>
		<stop  offset="0.749" style="stop-color:#912A6A"/>
		<stop  offset="1" style="stop-color:#74368A"/>
	</linearGradient>
	<path style="fill-rule:evenodd;clip-rule:evenodd;fill:url(#SVGID_00000035493641941900239790000003890528306150770320_);" d="
		M43.37,62.53c0.39,0.68,0.79,1.36,1.21,2.04c1.95,3.2,4.2,6.15,6.21,8.55c0.06-0.29,0.13-0.59,0.2-0.9
		c-0.81-1.11-1.6-2.25-2.28-3.3c-0.98-1.5-2.39-3.68-3.86-6.36c-2.52-4.6-5.22-10.68-6.15-17.36c-0.79-0.36-1.48-0.64-2.04-0.85
		C37.46,50.35,39.75,56.23,43.37,62.53L43.37,62.53z"/>
	
		<linearGradient id="SVGID_00000065054161457098333660000014760956393898206883_" gradientUnits="userSpaceOnUse" x1="-45341.2891" y1="22877.7441" x2="-45369.1328" y2="22946.5996" gradientTransform="matrix(0.253 0 0 -0.253 11529.1436 5854.4741)">
		<stop  offset="0" style="stop-color:#CA2027"/>
		<stop  offset="0.388" style="stop-color:#A21C3F"/>
		<stop  offset="0.749" style="stop-color:#912A6A"/>
		<stop  offset="1" style="stop-color:#74368A"/>
	</linearGradient>
	<path style="fill-rule:evenodd;clip-rule:evenodd;fill:url(#SVGID_00000065054161457098333660000014760956393898206883_);" d="
		M53.83,58.22c0.25,1.51,0.55,3.05,0.87,4.57c0.03,0.14,0.06,0.29,0.09,0.43c0.64-1.04,1.37-2.09,2.19-3.14
		c-0.77-0.97-1.56-1.92-2.38-2.85c-0.38-0.43-0.75-0.84-1.14-1.24C53.59,56.74,53.71,57.48,53.83,58.22L53.83,58.22z"/>
	<path class="st16" d="M80.87,47.68c-0.9,4.39-2.5,8.45-4.19,11.93c0.34,0.34,0.68,0.69,1,1.03c2.41-4.48,4.13-8.77,5.08-13.07
		C82.21,47.58,81.58,47.62,80.87,47.68z M73.59,49.02c-0.33,2.1-0.81,4.23-1.39,6.34c1,0.9,2.09,1.91,3.16,2.94
		c1.34-3.2,2.59-6.79,3.33-10.37C77.15,48.15,75.42,48.5,73.59,49.02L73.59,49.02z"/>
	
		<linearGradient id="SVGID_00000103951205084124279920000002912560079116926613_" gradientUnits="userSpaceOnUse" x1="-45284.0664" y1="22916.7188" x2="-45324.4727" y2="22872.582" gradientTransform="matrix(0.253 0 0 -0.253 11529.1436 5854.4741)">
		<stop  offset="0" style="stop-color:#ACD037"/>
		<stop  offset="1" style="stop-color:#DBD722"/>
	</linearGradient>
	<path style="fill-rule:evenodd;clip-rule:evenodd;fill:url(#SVGID_00000103951205084124279920000002912560079116926613_);" d="
		M59.17,57.56c-0.79,0.84-1.52,1.69-2.18,2.53c2.88,3.65,5.03,7.11,6.58,10.01c0.56-2.18,1.15-4.59,1.67-7.07
		c0.34-1.6,0.65-3.21,0.92-4.81c0.37-2.22,0.69-4.45,0.93-6.63C64.35,53.03,61.62,54.96,59.17,57.56z M76.68,59.61
		c-0.06,0.13-0.13,0.27-0.19,0.4c-1.91,3.86-3.93,6.97-5.2,8.93c-1.47,2.26-3.44,4.91-5.01,6.93c0.06,0.15,0.11,0.29,0.16,0.42
		c2.43-2.64,6.05-6.9,8.98-11.71c0.74-1.21,1.42-2.4,2.07-3.57c0.07-0.12,0.13-0.24,0.2-0.37C77.36,60.29,77.03,59.95,76.68,59.61
		L76.68,59.61z M72.2,55.36l-0.08,0.28c-1.86,6.71-4.69,13.22-6.93,17.7c0.24,0.53,0.46,1.03,0.66,1.48
		c2.07-2.46,3.78-4.96,5.67-8.5c1.04-1.95,2.39-4.6,3.67-7.63l0.17-0.4C74.29,57.27,73.2,56.26,72.2,55.36L72.2,55.36z"/>
	
		<linearGradient id="SVGID_00000143574763850647494830000000797622348977906070_" gradientUnits="userSpaceOnUse" x1="-45314.6211" y1="22831.916" x2="-45349.0195" y2="22889.9219" gradientTransform="matrix(0.253 0 0 -0.253 11529.1436 5854.4741)">
		<stop  offset="0" style="stop-color:#E12B2B"/>
		<stop  offset="0.388" style="stop-color:#E3412B"/>
		<stop  offset="0.702" style="stop-color:#E66227"/>
		<stop  offset="1" style="stop-color:#F09B20"/>
	</linearGradient>
	<path style="fill-rule:evenodd;clip-rule:evenodd;fill:url(#SVGID_00000143574763850647494830000000797622348977906070_);" d="
		M61.87,79.19c1.51-1.57,2.81-2.96,3.98-4.36c-0.19-0.45-0.42-0.95-0.66-1.48C63.6,76.52,62.31,78.68,61.87,79.19z"/>
	
		<linearGradient id="SVGID_00000150077472997643774840000016013626196846268810_" gradientUnits="userSpaceOnUse" x1="-45312.4219" y1="22833.2188" x2="-45346.8203" y2="22891.2246" gradientTransform="matrix(0.253 0 0 -0.253 11529.1436 5854.4741)">
		<stop  offset="0" style="stop-color:#E12B2B"/>
		<stop  offset="0.388" style="stop-color:#E3412B"/>
		<stop  offset="0.702" style="stop-color:#E66227"/>
		<stop  offset="1" style="stop-color:#F09B20"/>
	</linearGradient>
	<path style="fill-rule:evenodd;clip-rule:evenodd;fill:url(#SVGID_00000150077472997643774840000016013626196846268810_);" d="
		M63.73,79.1c0.08-0.08,1.15-1.11,2.72-2.81c-0.05-0.13-0.11-0.27-0.16-0.42C64.88,77.68,63.81,79,63.73,79.1z"/>
	
		<linearGradient id="SVGID_00000003793760232241662880000004067241927225848209_" gradientUnits="userSpaceOnUse" x1="-45318.2734" y1="22829.752" x2="-45352.668" y2="22887.7578" gradientTransform="matrix(0.253 0 0 -0.253 11529.1436 5854.4741)">
		<stop  offset="0" style="stop-color:#E12B2B"/>
		<stop  offset="0.388" style="stop-color:#E3412B"/>
		<stop  offset="0.702" style="stop-color:#E66227"/>
		<stop  offset="1" style="stop-color:#F09B20"/>
	</linearGradient>
	<path style="fill-rule:evenodd;clip-rule:evenodd;fill:url(#SVGID_00000003793760232241662880000004067241927225848209_);" d="
		M54.79,63.22c1.79,8.36,4.24,16.03,4.24,16.03h1.93c0,0,1.24-3.9,2.61-9.16c-1.55-2.9-3.7-6.36-6.58-10.01
		C56.16,61.14,55.43,62.19,54.79,63.22z"/>
	
		<linearGradient id="SVGID_00000075844784166570114370000017895051433907268768_" gradientUnits="userSpaceOnUse" x1="-45337.2305" y1="22818.5098" x2="-45371.6289" y2="22876.5137" gradientTransform="matrix(0.253 0 0 -0.253 11529.1436 5854.4741)">
		<stop  offset="0" style="stop-color:#E12B2B"/>
		<stop  offset="0.388" style="stop-color:#E3412B"/>
		<stop  offset="0.702" style="stop-color:#E66227"/>
		<stop  offset="1" style="stop-color:#F09B20"/>
	</linearGradient>
	<path style="fill-rule:evenodd;clip-rule:evenodd;fill:url(#SVGID_00000075844784166570114370000017895051433907268768_);" d="
		M51.3,71.06c1.95,2.9,4.01,5.21,6.83,8.13c-0.66-0.75-3.2-5.17-5.79-11.14C51.91,69.1,51.57,70.1,51.3,71.06L51.3,71.06z"/>
	
		<linearGradient id="SVGID_00000021111181199364543720000017346209048188290463_" gradientUnits="userSpaceOnUse" x1="-45343.5898" y1="22814.7383" x2="-45377.9844" y2="22872.7441" gradientTransform="matrix(0.253 0 0 -0.253 11529.1436 5854.4741)">
		<stop  offset="0" style="stop-color:#E12B2B"/>
		<stop  offset="0.388" style="stop-color:#E3412B"/>
		<stop  offset="0.702" style="stop-color:#E66227"/>
		<stop  offset="1" style="stop-color:#F09B20"/>
	</linearGradient>
	<path style="fill-rule:evenodd;clip-rule:evenodd;fill:url(#SVGID_00000021111181199364543720000017346209048188290463_);" d="
		M50.79,73.12c2.95,3.53,5.37,5.85,5.49,5.97c-0.13-0.16-2.79-3.43-5.28-6.87C50.92,72.53,50.85,72.83,50.79,73.12L50.79,73.12z"/>
</g>
</svg>
